<svg width="3671" height="1180" viewBox="0 0 3671 1180" fill="none" xmlns="http://www.w3.org/2000/svg">
<mask id="path-1-outside-1_106_49" maskUnits="userSpaceOnUse" x="0" y="0" width="1835" height="1180" fill="black">
<rect fill="white" width="1835" height="1180"/>
<path d="M30 30H1815V1150H30V30Z"/>
</mask>
<path d="M30 30H1815V1150H30V30Z" fill="white"/>
<path d="M30 30V15H15V30H30ZM1815 30H1825V15H1815V30ZM1815 1150V1165H1825V1150H1815ZM30 1150H15V1165H30V1150ZM15 30V61.1111H45V30H15ZM15 123.333V185.556H45V123.333H15ZM15 247.778V310H45V247.778H15ZM15 372.222V434.444H45V372.222H15ZM15 496.667V558.889H45V496.667H15ZM15 621.111V683.333H45V621.111H15ZM15 745.556V807.778H45V745.556H15ZM15 870V932.222H45V870H15ZM15 994.445V1056.67H45V994.445H15ZM15 1118.89V1150H45V1118.89H15ZM30 1165H59.75V1135H30V1165ZM119.25 1165H178.75V1135H119.25V1165ZM238.25 1165H297.75V1135H238.25V1165ZM357.25 1165H416.75V1135H357.25V1165ZM476.25 1165H535.75V1135H476.25V1165ZM595.25 1165H654.75V1135H595.25V1165ZM714.25 1165H773.75V1135H714.25V1165ZM833.25 1165H892.75V1135H833.25V1165ZM952.25 1165H1011.75V1135H952.25V1165ZM1071.25 1165H1130.75V1135H1071.25V1165ZM1190.25 1165H1249.75V1135H1190.25V1165ZM1309.25 1165H1368.75V1135H1309.25V1165ZM1428.25 1165H1487.75V1135H1428.25V1165ZM1547.25 1165H1606.75V1135H1547.25V1165ZM1666.25 1165H1725.75V1135H1666.25V1165ZM1785.25 1165H1815V1135H1785.25V1165ZM1825 1150V1118.89H1805V1150H1825ZM1825 1056.67V994.444H1805V1056.67H1825ZM1825 932.222V870H1805V932.222H1825ZM1825 807.778V745.556H1805V807.778H1825ZM1825 683.333V621.111H1805V683.333H1825ZM1825 558.889V496.667H1805V558.889H1825ZM1825 434.444V372.222H1805V434.444H1825ZM1825 310V247.778H1805V310H1825ZM1825 185.555V123.333H1805V185.555H1825ZM1825 61.1111V30H1805V61.1111H1825ZM1815 15H1785.25V45H1815V15ZM1725.75 15H1666.25V45H1725.75V15ZM1606.75 15H1547.25V45H1606.75V15ZM1487.75 15H1428.25V45H1487.75V15ZM1368.75 15H1309.25V45H1368.75V15ZM1249.75 15H1190.25V45H1249.75V15ZM1130.75 15H1071.25V45H1130.75V15ZM1011.75 15H952.25V45H1011.75V15ZM892.75 15H833.25V45H892.75V15ZM773.75 15H714.25V45H773.75V15ZM654.75 15H595.25V45H654.75V15ZM535.75 15H476.25V45H535.75V15ZM416.75 15H357.25V45H416.75V15ZM297.75 15H238.25V45H297.75V15ZM178.75 15H119.25V45H178.75V15ZM59.75 15H30V45H59.75V15ZM30 30V0H0V30H30ZM1815 30H1835V0H1815V30ZM1815 1150V1180H1835V1150H1815ZM30 1150H0V1180H30V1150ZM0 30V61.1111H60V30H0ZM0 123.333V185.556H60V123.333H0ZM0 247.778V310H60V247.778H0ZM0 372.222V434.444H60V372.222H0ZM0 496.667V558.889H60V496.667H0ZM0 621.111V683.333H60V621.111H0ZM0 745.556V807.778H60V745.556H0ZM0 870V932.222H60V870H0ZM0 994.445V1056.67H60V994.445H0ZM0 1118.89V1150H60V1118.89H0ZM30 1180H59.75V1120H30V1180ZM119.25 1180H178.75V1120H119.25V1180ZM238.25 1180H297.75V1120H238.25V1180ZM357.25 1180H416.75V1120H357.25V1180ZM476.25 1180H535.75V1120H476.25V1180ZM595.25 1180H654.75V1120H595.25V1180ZM714.25 1180H773.75V1120H714.25V1180ZM833.25 1180H892.75V1120H833.25V1180ZM952.25 1180H1011.75V1120H952.25V1180ZM1071.25 1180H1130.75V1120H1071.25V1180ZM1190.25 1180H1249.75V1120H1190.25V1180ZM1309.25 1180H1368.75V1120H1309.25V1180ZM1428.25 1180H1487.75V1120H1428.25V1180ZM1547.25 1180H1606.75V1120H1547.25V1180ZM1666.25 1180H1725.75V1120H1666.25V1180ZM1785.25 1180H1815V1120H1785.25V1180ZM1835 1150V1118.89H1795V1150H1835ZM1835 1056.67V994.444H1795V1056.67H1835ZM1835 932.222V870H1795V932.222H1835ZM1835 807.778V745.556H1795V807.778H1835ZM1835 683.333V621.111H1795V683.333H1835ZM1835 558.889V496.667H1795V558.889H1835ZM1835 434.444V372.222H1795V434.444H1835ZM1835 310V247.778H1795V310H1835ZM1835 185.555V123.333H1795V185.555H1835ZM1835 61.1111V30H1795V61.1111H1835ZM1815 0H1785.25V60H1815V0ZM1725.75 0H1666.25V60H1725.75V0ZM1606.75 0H1547.25V60H1606.75V0ZM1487.75 0H1428.25V60H1487.75V0ZM1368.75 0H1309.25V60H1368.75V0ZM1249.75 0H1190.25V60H1249.75V0ZM1130.75 0H1071.25V60H1130.75V0ZM1011.75 0H952.25V60H1011.75V0ZM892.75 0H833.25V60H892.75V0ZM773.75 0H714.25V60H773.75V0ZM654.75 0H595.25V60H654.75V0ZM535.75 0H476.25V60H535.75V0ZM416.75 0H357.25V60H416.75V0ZM297.75 0H238.25V60H297.75V0ZM178.75 0H119.25V60H178.75V0ZM59.75 0H30V60H59.75V0Z" fill="black" mask="url(#path-1-outside-1_106_49)"/>
<path d="M230 124H1668V1056H230V124Z" fill="#FA3D3D"/>
<mask id="path-4-inside-2_106_49" fill="white">
<path fill-rule="evenodd" clip-rule="evenodd" d="M1532 315H1282V445H1032V575H782V705H573V835H366V965H1532V835V705V575V445V315Z"/>
</mask>
<path fill-rule="evenodd" clip-rule="evenodd" d="M1532 315H1282V445H1032V575H782V705H573V835H366V965H1532V835V705V575V445V315Z" fill="white"/>
<path d="M1282 315V295H1262V315H1282ZM1532 315H1552V295H1532V315ZM1282 445V465H1302V445H1282ZM1032 445V425H1012V445H1032ZM1032 575V595H1052V575H1032ZM782 575V555H762V575H782ZM782 705V725H802V705H782ZM573 705V685H553V705H573ZM573 835V855H593V835H573ZM366 835V815H346V835H366ZM366 965H346V985H366V965ZM1532 965V985H1552V965H1532ZM1282 335H1532V295H1282V335ZM1302 445V315H1262V445H1302ZM1282 425H1032V465H1282V425ZM1012 445V575H1052V445H1012ZM1032 555H782V595H1032V555ZM762 575V705H802V575H762ZM782 685H573V725H782V685ZM553 705V835H593V705H553ZM573 815H366V855H573V815ZM346 835V965H386V835H346ZM366 985H1532V945H366V985ZM1552 965V835H1512V965H1552ZM1552 835V705H1512V835H1552ZM1552 705V575H1512V705H1552ZM1552 575V445H1512V575H1552ZM1512 315V445H1552V315H1512Z" fill="#FFD466" mask="url(#path-4-inside-2_106_49)"/>
<path d="M401.875 803H366.836V789.25H374.375V754.602H367.891V740.773H399.648C404.805 740.773 409.206 741.19 412.852 742.023C416.419 742.883 419.258 744.523 421.367 746.945C423.477 749.341 424.531 752.74 424.531 757.141C424.531 760.24 423.633 762.935 421.836 765.227C420.039 767.518 417.76 769.172 415 770.188C418.62 771.75 421.289 773.768 423.008 776.242C424.753 778.716 425.625 782.115 425.625 786.438C425.625 791.724 423.555 795.812 419.414 798.703C415.299 801.568 409.453 803 401.875 803ZM394.375 754.602V765.891H396.523C399.492 765.891 401.68 765.474 403.086 764.641C404.518 763.807 405.234 762.245 405.234 759.953C405.234 758.365 404.74 757.076 403.75 756.086C402.76 755.096 401.471 754.602 399.883 754.602H394.375ZM394.375 776.125V789.25H395.781C398.932 789.25 401.354 788.807 403.047 787.922C404.766 787.036 405.625 785.214 405.625 782.453C405.625 778.182 403.021 776.047 397.812 776.047C397.24 776.047 396.667 776.06 396.094 776.086C395.521 776.086 394.948 776.099 394.375 776.125ZM450.234 803.703C441.849 803.703 437.656 798.456 437.656 787.961V773.234H432.617V762.688L456.367 760.344V787.961C456.367 788.977 456.745 789.914 457.5 790.773C458.255 791.607 459.141 792.023 460.156 792.023C461.328 792.023 462.24 791.633 462.891 790.852C463.568 790.044 463.906 789.055 463.906 787.883V773.234H460.156V762.688L482.617 760.344V791.242H487.656V803H463.906V796.906C462.526 799.042 460.677 800.708 458.359 801.906C456.068 803.104 453.359 803.703 450.234 803.703ZM532.852 805.383V817.727H505.82V805.383H513.75L515.898 801.789L497.656 773.234H492.695V761.164H521.992V773.234H518.125L524.609 785.227L530.547 773.234H526.289V761.164H548.125V773.234H543.906L526.836 805.383H532.852Z" fill="white"/>
<path d="M1340.8 279.25V293H1305.84V279.25H1313.38V244.602H1305.84V230.852H1357.12V255.969H1345.84L1343.38 244.602H1333.38V256.359H1342.09V266.359H1333.38V279.25H1340.8ZM1395.6 293H1363.14V279.25H1369.39V244.602H1363.14V230.852H1403.06C1409.52 230.852 1414.26 232.154 1417.28 234.758C1420.33 237.362 1421.85 241.685 1421.85 247.727C1421.85 251.763 1420.72 254.875 1418.45 257.062C1416.19 259.25 1412.97 260.721 1408.8 261.477C1412.55 262.076 1415.25 263.482 1416.89 265.695C1418.56 267.909 1419.39 270.669 1419.39 273.977V279.016H1428.1V293H1415.52C1412.84 293 1410.68 292.909 1409.04 292.727C1407.4 292.518 1406.1 292.049 1405.13 291.32C1404.2 290.565 1403.41 289.393 1402.79 287.805C1401.85 285.409 1401.38 281.411 1401.38 275.812C1401.38 272.609 1400.86 270.24 1399.82 268.703C1398.78 267.141 1396.88 266.359 1394.12 266.359H1389.39V279.25H1395.6V293ZM1389.39 244.602V257.492H1394.74C1397.58 257.492 1399.69 256.984 1401.07 255.969C1402.45 254.953 1403.14 253.169 1403.14 250.617C1403.14 248.742 1402.42 247.271 1400.99 246.203C1399.59 245.135 1397.76 244.602 1395.52 244.602H1389.39ZM1483.84 266.516V293H1431.38V279.25H1438.92V244.602H1431.38V230.852H1483.84V255.578H1473.84L1470.09 244.602H1458.92V254.758H1468.92V264.992H1458.92V279.25H1470.09L1473.84 266.516H1483.84ZM1540.48 266.516V293H1488.02V279.25H1495.56V244.602H1488.02V230.852H1540.48V255.578H1530.48L1526.73 244.602H1515.56V254.758H1525.56V264.992H1515.56V279.25H1526.73L1530.48 266.516H1540.48Z" fill="#FFD466"/>
<path d="M1109.2 414.133C1102.72 414.133 1097.11 412.74 1092.37 409.953C1087.65 407.167 1084.06 403.339 1081.59 398.469C1079.14 393.599 1077.91 388.039 1077.91 381.789C1077.91 375.305 1079.14 369.654 1081.59 364.836C1084.03 359.992 1087.6 356.255 1092.29 353.625C1097 350.969 1102.64 349.641 1109.2 349.641C1115.74 349.641 1121.36 350.956 1126.08 353.586C1130.77 356.242 1134.33 359.992 1136.78 364.836C1139.26 369.68 1140.49 375.331 1140.49 381.789C1140.49 388.039 1139.27 393.599 1136.82 398.469C1134.37 403.339 1130.78 407.167 1126.04 409.953C1121.33 412.74 1115.71 414.133 1109.2 414.133ZM1109.2 400.266C1112.02 400.266 1114.16 398.56 1115.65 395.148C1117.16 391.737 1117.91 387.18 1117.91 381.477C1117.91 375.93 1117.18 371.542 1115.73 368.312C1114.29 365.083 1112.12 363.469 1109.2 363.469C1106.26 363.469 1104.07 365.083 1102.64 368.312C1101.21 371.542 1100.49 375.93 1100.49 381.477C1100.49 387.18 1101.23 391.737 1102.72 395.148C1104.2 398.56 1106.36 400.266 1109.2 400.266ZM1200.18 386.438V401.711H1205.61V413H1181.43V386.359C1181.43 385.24 1181.07 384.25 1180.34 383.391C1179.63 382.531 1178.77 382.102 1177.76 382.102C1175.86 382.102 1174.66 383.052 1174.16 384.953C1173.64 386.906 1173.38 389.641 1173.38 393.156V401.711H1173.46V413H1149.05V401.711H1154.71V383.234H1149.05V372.688L1173.38 370.344V376.203C1175.18 374.068 1177.22 372.557 1179.52 371.672C1181.81 370.786 1184.4 370.344 1187.29 370.344C1195.88 370.344 1200.18 375.708 1200.18 386.438ZM1232.91 413.703C1228.07 413.703 1223.86 412.805 1220.3 411.008C1216.7 409.237 1213.94 406.698 1212.02 403.391C1210.11 400.083 1209.16 396.216 1209.16 391.789C1209.16 387.414 1210.1 383.612 1211.98 380.383C1213.83 377.18 1216.44 374.706 1219.83 372.961C1223.21 371.216 1227.18 370.344 1231.74 370.344C1235.93 370.344 1239.63 371.164 1242.84 372.805C1246.04 374.471 1248.51 376.828 1250.26 379.875C1252.03 382.922 1252.91 386.477 1252.91 390.539C1252.91 391.945 1252.71 393.273 1252.29 394.523H1227.95C1227.95 396.971 1228.88 398.938 1230.73 400.422C1232.58 401.88 1234.8 402.609 1237.41 402.609C1239.39 402.609 1241.56 402.271 1243.93 401.594C1246.3 400.891 1248.68 399.81 1251.08 398.352L1251.74 398.586V409.094C1249.06 410.63 1246.3 411.789 1243.46 412.57C1240.65 413.326 1237.13 413.703 1232.91 413.703ZM1227.95 386.516V387.648H1237.95V386.828C1237.95 384.979 1237.52 383.391 1236.66 382.062C1235.83 380.708 1234.58 380.031 1232.91 380.031C1231.53 380.031 1230.36 380.721 1229.4 382.102C1228.43 383.456 1227.95 384.927 1227.95 386.516Z" fill="black"/>
<path d="M875.5 544.133C869.12 544.133 863.326 542.948 858.117 540.578C852.857 538.234 848.651 534.589 845.5 529.641C842.349 524.693 840.773 518.456 840.773 510.93C840.773 504.94 842.01 499.576 844.484 494.836C846.958 490.096 850.552 486.385 855.266 483.703C860.005 480.995 865.578 479.641 871.984 479.641C874.693 479.641 877.323 480.096 879.875 481.008C882.453 481.919 884.484 483.247 885.969 484.992L887.258 480.852H900.773V503.781H888.703C887.896 500.5 886.346 498.013 884.055 496.32C881.763 494.628 879.367 493.781 876.867 493.781C872.701 493.781 869.406 495.305 866.984 498.352C864.562 501.398 863.352 505.591 863.352 510.93C863.352 516.32 864.549 520.552 866.945 523.625C869.341 526.672 872.727 528.195 877.102 528.195C878.143 528.195 879.263 528.091 880.461 527.883C881.346 527.727 882.18 527.518 882.961 527.258C883.742 526.971 884.263 526.802 884.523 526.75V521.242H877.023V509.641H902.062V537.57C898.052 539.706 893.755 541.333 889.172 542.453C884.589 543.573 880.031 544.133 875.5 544.133ZM931.789 543.703C926.945 543.703 922.74 542.805 919.172 541.008C915.578 539.237 912.818 536.698 910.891 533.391C908.99 530.083 908.039 526.216 908.039 521.789C908.039 517.414 908.977 513.612 910.852 510.383C912.701 507.18 915.318 504.706 918.703 502.961C922.089 501.216 926.06 500.344 930.617 500.344C934.81 500.344 938.508 501.164 941.711 502.805C944.914 504.471 947.388 506.828 949.133 509.875C950.904 512.922 951.789 516.477 951.789 520.539C951.789 521.945 951.581 523.273 951.164 524.523H926.828C926.828 526.971 927.753 528.938 929.602 530.422C931.451 531.88 933.677 532.609 936.281 532.609C938.26 532.609 940.435 532.271 942.805 531.594C945.174 530.891 947.557 529.81 949.953 528.352L950.617 528.586V539.094C947.935 540.63 945.174 541.789 942.336 542.57C939.523 543.326 936.008 543.703 931.789 543.703ZM926.828 516.516V517.648H936.828V516.828C936.828 514.979 936.398 513.391 935.539 512.062C934.706 510.708 933.456 510.031 931.789 510.031C930.409 510.031 929.237 510.721 928.273 512.102C927.31 513.456 926.828 514.927 926.828 516.516ZM977.961 543.703C967.935 543.703 962.922 538.482 962.922 528.039V512.609H956.672V501.164H962.922V492.219L981.633 488.039V501.164H989.133V512.609H981.633V526.672C981.633 527.844 982.076 528.82 982.961 529.602C983.846 530.383 984.953 530.773 986.281 530.773C987.245 530.773 988.195 530.695 989.133 530.539V541.398C985.695 542.935 981.971 543.703 977.961 543.703Z" fill="white"/>
<path d="M609.203 674.133C602.719 674.133 597.107 672.74 592.367 669.953C587.654 667.167 584.06 663.339 581.586 658.469C579.138 653.599 577.914 648.039 577.914 641.789C577.914 635.305 579.138 629.654 581.586 624.836C584.034 619.992 587.602 616.255 592.289 613.625C597.003 610.969 602.641 609.641 609.203 609.641C615.74 609.641 621.365 610.956 626.078 613.586C630.766 616.242 634.333 619.992 636.781 624.836C639.255 629.68 640.492 635.331 640.492 641.789C640.492 648.039 639.268 653.599 636.82 658.469C634.372 663.339 630.779 667.167 626.039 669.953C621.326 672.74 615.714 674.133 609.203 674.133ZM609.203 660.266C612.016 660.266 614.164 658.56 615.648 655.148C617.159 651.737 617.914 647.18 617.914 641.477C617.914 635.93 617.185 631.542 615.727 628.312C614.294 625.083 612.12 623.469 609.203 623.469C606.26 623.469 604.073 625.083 602.641 628.312C601.208 631.542 600.492 635.93 600.492 641.477C600.492 647.18 601.234 651.737 602.719 655.148C604.203 658.56 606.365 660.266 609.203 660.266ZM700.18 646.438V661.711H705.609V673H681.43V646.359C681.43 645.24 681.065 644.25 680.336 643.391C679.633 642.531 678.773 642.102 677.758 642.102C675.857 642.102 674.659 643.052 674.164 644.953C673.643 646.906 673.383 649.641 673.383 653.156V661.711H673.461V673H649.047V661.711H654.711V643.234H649.047V632.688L673.383 630.344V636.203C675.18 634.068 677.224 632.557 679.516 631.672C681.807 630.786 684.398 630.344 687.289 630.344C695.883 630.344 700.18 635.708 700.18 646.438ZM732.914 673.703C728.07 673.703 723.865 672.805 720.297 671.008C716.703 669.237 713.943 666.698 712.016 663.391C710.115 660.083 709.164 656.216 709.164 651.789C709.164 647.414 710.102 643.612 711.977 640.383C713.826 637.18 716.443 634.706 719.828 632.961C723.214 631.216 727.185 630.344 731.742 630.344C735.935 630.344 739.633 631.164 742.836 632.805C746.039 634.471 748.513 636.828 750.258 639.875C752.029 642.922 752.914 646.477 752.914 650.539C752.914 651.945 752.706 653.273 752.289 654.523H727.953C727.953 656.971 728.878 658.938 730.727 660.422C732.576 661.88 734.802 662.609 737.406 662.609C739.385 662.609 741.56 662.271 743.93 661.594C746.299 660.891 748.682 659.81 751.078 658.352L751.742 658.586V669.094C749.06 670.63 746.299 671.789 743.461 672.57C740.648 673.326 737.133 673.703 732.914 673.703ZM727.953 646.516V647.648H737.953V646.828C737.953 644.979 737.523 643.391 736.664 642.062C735.831 640.708 734.581 640.031 732.914 640.031C731.534 640.031 730.362 640.721 729.398 642.102C728.435 643.456 727.953 644.927 727.953 646.516Z" fill="black"/>
<path d="M144 163C144 118.817 179.817 83 224 83H484C528.183 83 564 118.817 564 163V423C564 467.183 528.183 503 484 503H224C179.817 503 144 467.183 144 423V163Z" fill="#FFD466"/>
<path d="M202.458 337.5C211.791 348.667 221.791 354.25 232.458 354.25C254.458 354.25 268.375 334.583 274.208 295.25C265.375 299.917 255.541 302.25 244.708 302.25C230.708 302.25 219.708 298 211.708 289.5C203.875 280.833 199.958 269.667 199.958 256C199.958 238.333 206.125 223.5 218.458 211.5C230.791 199.5 245.708 193.5 263.208 193.5C280.875 193.5 294.125 199 302.958 210C311.791 220.833 316.208 237.167 316.208 259C316.208 280.667 313.375 299.917 307.708 316.75C302.041 333.417 293.291 347.167 281.458 358C269.625 368.667 255.791 374 239.958 374C227.625 374 217.458 371.167 209.458 365.5C201.458 359.667 195.541 353.25 191.708 346.25L202.458 337.5ZM256.708 284.75C263.541 284.75 269.958 282.917 275.958 279.25C276.791 269.75 277.208 259.167 277.208 247.5C277.208 235.667 276.125 226.333 273.958 219.5C271.958 212.667 267.458 209.25 260.458 209.25C253.625 209.25 248.291 213.917 244.458 223.25C240.791 232.417 238.958 243.167 238.958 255.5C238.958 275 244.875 284.75 256.708 284.75ZM334.538 337.5C343.871 348.667 353.871 354.25 364.538 354.25C386.538 354.25 400.455 334.583 406.288 295.25C397.455 299.917 387.621 302.25 376.788 302.25C362.788 302.25 351.788 298 343.788 289.5C335.955 280.833 332.038 269.667 332.038 256C332.038 238.333 338.205 223.5 350.538 211.5C362.871 199.5 377.788 193.5 395.288 193.5C412.955 193.5 426.205 199 435.038 210C443.871 220.833 448.288 237.167 448.288 259C448.288 280.667 445.455 299.917 439.788 316.75C434.121 333.417 425.371 347.167 413.538 358C401.705 368.667 387.871 374 372.038 374C359.705 374 349.538 371.167 341.538 365.5C333.538 359.667 327.621 353.25 323.788 346.25L334.538 337.5ZM388.788 284.75C395.621 284.75 402.038 282.917 408.038 279.25C408.871 269.75 409.288 259.167 409.288 247.5C409.288 235.667 408.205 226.333 406.038 219.5C404.038 212.667 399.538 209.25 392.538 209.25C385.705 209.25 380.371 213.917 376.538 223.25C372.871 232.417 371.038 243.167 371.038 255.5C371.038 275 376.955 284.75 388.788 284.75ZM512.618 272.75C506.951 272.75 501.868 277.833 497.368 288C492.868 298.167 490.618 308 490.618 317.5C490.618 337.5 496.785 347.5 509.118 347.5C513.118 347.5 517.368 346.583 521.868 344.75C526.368 342.75 529.952 340.833 532.618 339L536.368 336L542.118 343.75C540.785 345.083 538.952 346.833 536.618 349C534.452 351.167 529.785 354.333 522.618 358.5C515.452 362.5 508.202 365 500.868 366C499.035 378.333 498.118 387.833 498.118 394.5C490.451 394.5 484.951 393.667 481.618 392L486.368 366C475.535 364.5 467.451 359.667 462.118 351.5C456.785 343.167 454.118 331.833 454.118 317.5C454.118 303.167 459.035 290.583 468.868 279.75C478.701 268.75 490.868 262.417 505.368 260.75C507.368 244.083 508.368 234.083 508.368 230.75C515.035 230.75 520.535 231.583 524.868 233.25L519.618 260.75C528.785 261.75 535.952 264.75 541.118 269.75C546.452 274.583 549.118 280.5 549.118 287.5C549.118 294.333 546.785 300.417 542.118 305.75C537.952 305.75 533.118 304.833 527.618 303C522.118 301.167 517.952 298.917 515.118 296.25L518.868 274.25C517.368 273.25 515.285 272.75 512.618 272.75Z" fill="black"/>
<mask id="path-13-outside-3_106_49" maskUnits="userSpaceOnUse" x="1836" y="0" width="1835" height="1180" fill="black">
<rect fill="white" x="1836" width="1835" height="1180"/>
<path d="M1856 30H3641V1150H1856V30Z"/>
</mask>
<path d="M1856 30H3641V1150H1856V30Z" fill="white"/>
<path d="M1856 30V15H1846V30H1856ZM3641 30H3656V15H3641V30ZM3641 1150V1165H3656V1150H3641ZM1856 1150H1846V1165H1856V1150ZM1846 30V61.1111H1866V30H1846ZM1846 123.333V185.556H1866V123.333H1846ZM1846 247.778V310H1866V247.778H1846ZM1846 372.222V434.444H1866V372.222H1846ZM1846 496.667V558.889H1866V496.667H1846ZM1846 621.111V683.333H1866V621.111H1846ZM1846 745.556V807.778H1866V745.556H1846ZM1846 870V932.222H1866V870H1846ZM1846 994.445V1056.67H1866V994.445H1846ZM1846 1118.89V1150H1866V1118.89H1846ZM1856 1165H1885.75V1135H1856V1165ZM1945.25 1165H2004.75V1135H1945.25V1165ZM2064.25 1165H2123.75V1135H2064.25V1165ZM2183.25 1165H2242.75V1135H2183.25V1165ZM2302.25 1165H2361.75V1135H2302.25V1165ZM2421.25 1165H2480.75V1135H2421.25V1165ZM2540.25 1165H2599.75V1135H2540.25V1165ZM2659.25 1165H2718.75V1135H2659.25V1165ZM2778.25 1165H2837.75V1135H2778.25V1165ZM2897.25 1165H2956.75V1135H2897.25V1165ZM3016.25 1165H3075.75V1135H3016.25V1165ZM3135.25 1165H3194.75V1135H3135.25V1165ZM3254.25 1165H3313.75V1135H3254.25V1165ZM3373.25 1165H3432.75V1135H3373.25V1165ZM3492.25 1165H3551.75V1135H3492.25V1165ZM3611.25 1165H3641V1135H3611.25V1165ZM3656 1150V1118.89H3626V1150H3656ZM3656 1056.67V994.444H3626V1056.67H3656ZM3656 932.222V870H3626V932.222H3656ZM3656 807.778V745.556H3626V807.778H3656ZM3656 683.333V621.111H3626V683.333H3656ZM3656 558.889V496.667H3626V558.889H3656ZM3656 434.444V372.222H3626V434.444H3656ZM3656 310V247.778H3626V310H3656ZM3656 185.555V123.333H3626V185.555H3656ZM3656 61.1111V30H3626V61.1111H3656ZM3641 15H3611.25V45H3641V15ZM3551.75 15H3492.25V45H3551.75V15ZM3432.75 15H3373.25V45H3432.75V15ZM3313.75 15H3254.25V45H3313.75V15ZM3194.75 15H3135.25V45H3194.75V15ZM3075.75 15H3016.25V45H3075.75V15ZM2956.75 15H2897.25V45H2956.75V15ZM2837.75 15H2778.25V45H2837.75V15ZM2718.75 15H2659.25V45H2718.75V15ZM2599.75 15H2540.25V45H2599.75V15ZM2480.75 15H2421.25V45H2480.75V15ZM2361.75 15H2302.25V45H2361.75V15ZM2242.75 15H2183.25V45H2242.75V15ZM2123.75 15H2064.25V45H2123.75V15ZM2004.75 15H1945.25V45H2004.75V15ZM1885.75 15H1856V45H1885.75V15ZM1856 30V0H1836V30H1856ZM3641 30H3671V0H3641V30ZM3641 1150V1180H3671V1150H3641ZM1856 1150H1836V1180H1856V1150ZM1836 30V61.1111H1876V30H1836ZM1836 123.333V185.556H1876V123.333H1836ZM1836 247.778V310H1876V247.778H1836ZM1836 372.222V434.444H1876V372.222H1836ZM1836 496.667V558.889H1876V496.667H1836ZM1836 621.111V683.333H1876V621.111H1836ZM1836 745.556V807.778H1876V745.556H1836ZM1836 870V932.222H1876V870H1836ZM1836 994.445V1056.67H1876V994.445H1836ZM1836 1118.89V1150H1876V1118.89H1836ZM1856 1180H1885.75V1120H1856V1180ZM1945.25 1180H2004.75V1120H1945.25V1180ZM2064.25 1180H2123.75V1120H2064.25V1180ZM2183.25 1180H2242.75V1120H2183.25V1180ZM2302.25 1180H2361.75V1120H2302.25V1180ZM2421.25 1180H2480.75V1120H2421.25V1180ZM2540.25 1180H2599.75V1120H2540.25V1180ZM2659.25 1180H2718.75V1120H2659.25V1180ZM2778.25 1180H2837.75V1120H2778.25V1180ZM2897.25 1180H2956.75V1120H2897.25V1180ZM3016.25 1180H3075.75V1120H3016.25V1180ZM3135.25 1180H3194.75V1120H3135.25V1180ZM3254.25 1180H3313.75V1120H3254.25V1180ZM3373.25 1180H3432.75V1120H3373.25V1180ZM3492.25 1180H3551.75V1120H3492.25V1180ZM3611.25 1180H3641V1120H3611.25V1180ZM3671 1150V1118.89H3611V1150H3671ZM3671 1056.67V994.444H3611V1056.67H3671ZM3671 932.222V870H3611V932.222H3671ZM3671 807.778V745.556H3611V807.778H3671ZM3671 683.333V621.111H3611V683.333H3671ZM3671 558.889V496.667H3611V558.889H3671ZM3671 434.444V372.222H3611V434.444H3671ZM3671 310V247.778H3611V310H3671ZM3671 185.555V123.333H3611V185.555H3671ZM3671 61.1111V30H3611V61.1111H3671ZM3641 0H3611.25V60H3641V0ZM3551.75 0H3492.25V60H3551.75V0ZM3432.75 0H3373.25V60H3432.75V0ZM3313.75 0H3254.25V60H3313.75V0ZM3194.75 0H3135.25V60H3194.75V0ZM3075.75 0H3016.25V60H3075.75V0ZM2956.75 0H2897.25V60H2956.75V0ZM2837.75 0H2778.25V60H2837.75V0ZM2718.75 0H2659.25V60H2718.75V0ZM2599.75 0H2540.25V60H2599.75V0ZM2480.75 0H2421.25V60H2480.75V0ZM2361.75 0H2302.25V60H2361.75V0ZM2242.75 0H2183.25V60H2242.75V0ZM2123.75 0H2064.25V60H2123.75V0ZM2004.75 0H1945.25V60H2004.75V0ZM1885.75 0H1856V60H1885.75V0Z" fill="black" mask="url(#path-13-outside-3_106_49)"/>
<path d="M2056 124H3494V1056H2056V124Z" fill="#FA3D3D"/>
<mask id="path-16-inside-4_106_49" fill="white">
<path fill-rule="evenodd" clip-rule="evenodd" d="M3358 315H3108V445H2858V575H2608V705H2399V835H2192V965H3358V835V705V575V445V315Z"/>
</mask>
<path fill-rule="evenodd" clip-rule="evenodd" d="M3358 315H3108V445H2858V575H2608V705H2399V835H2192V965H3358V835V705V575V445V315Z" fill="white"/>
<path d="M3108 315V295H3088V315H3108ZM3358 315H3378V295H3358V315ZM3108 445V465H3128V445H3108ZM2858 445V425H2838V445H2858ZM2858 575V595H2878V575H2858ZM2608 575V555H2588V575H2608ZM2608 705V725H2628V705H2608ZM2399 705V685H2379V705H2399ZM2399 835V855H2419V835H2399ZM2192 835V815H2172V835H2192ZM2192 965H2172V985H2192V965ZM3358 965V985H3378V965H3358ZM3108 335H3358V295H3108V335ZM3128 445V315H3088V445H3128ZM3108 425H2858V465H3108V425ZM2838 445V575H2878V445H2838ZM2858 555H2608V595H2858V555ZM2588 575V705H2628V575H2588ZM2608 685H2399V725H2608V685ZM2379 705V835H2419V705H2379ZM2399 815H2192V855H2399V815ZM2172 835V965H2212V835H2172ZM2192 985H3358V945H2192V985ZM3378 965V835H3338V965H3378ZM3378 835V705H3338V835H3378ZM3378 705V575H3338V705H3378ZM3378 575V445H3338V575H3378ZM3338 315V445H3378V315H3338Z" fill="#FFD466" mask="url(#path-16-inside-4_106_49)"/>
<path d="M2227.88 803H2192.84V789.25H2200.38V754.602H2193.89V740.773H2225.65C2230.8 740.773 2235.21 741.19 2238.85 742.023C2242.42 742.883 2245.26 744.523 2247.37 746.945C2249.48 749.341 2250.53 752.74 2250.53 757.141C2250.53 760.24 2249.63 762.935 2247.84 765.227C2246.04 767.518 2243.76 769.172 2241 770.188C2244.62 771.75 2247.29 773.768 2249.01 776.242C2250.75 778.716 2251.62 782.115 2251.62 786.438C2251.62 791.724 2249.55 795.812 2245.41 798.703C2241.3 801.568 2235.45 803 2227.88 803ZM2220.38 754.602V765.891H2222.52C2225.49 765.891 2227.68 765.474 2229.09 764.641C2230.52 763.807 2231.23 762.245 2231.23 759.953C2231.23 758.365 2230.74 757.076 2229.75 756.086C2228.76 755.096 2227.47 754.602 2225.88 754.602H2220.38ZM2220.38 776.125V789.25H2221.78C2224.93 789.25 2227.35 788.807 2229.05 787.922C2230.77 787.036 2231.62 785.214 2231.62 782.453C2231.62 778.182 2229.02 776.047 2223.81 776.047C2223.24 776.047 2222.67 776.06 2222.09 776.086C2221.52 776.086 2220.95 776.099 2220.38 776.125ZM2276.23 803.703C2267.85 803.703 2263.66 798.456 2263.66 787.961V773.234H2258.62V762.688L2282.37 760.344V787.961C2282.37 788.977 2282.74 789.914 2283.5 790.773C2284.26 791.607 2285.14 792.023 2286.16 792.023C2287.33 792.023 2288.24 791.633 2288.89 790.852C2289.57 790.044 2289.91 789.055 2289.91 787.883V773.234H2286.16V762.688L2308.62 760.344V791.242H2313.66V803H2289.91V796.906C2288.53 799.042 2286.68 800.708 2284.36 801.906C2282.07 803.104 2279.36 803.703 2276.23 803.703ZM2358.85 805.383V817.727H2331.82V805.383H2339.75L2341.9 801.789L2323.66 773.234H2318.7V761.164H2347.99V773.234H2344.12L2350.61 785.227L2356.55 773.234H2352.29V761.164H2374.12V773.234H2369.91L2352.84 805.383H2358.85Z" fill="white"/>
<path d="M3166.8 279.25V293H3131.84V279.25H3139.38V244.602H3131.84V230.852H3183.12V255.969H3171.84L3169.38 244.602H3159.38V256.359H3168.09V266.359H3159.38V279.25H3166.8ZM3221.6 293H3189.14V279.25H3195.39V244.602H3189.14V230.852H3229.06C3235.52 230.852 3240.26 232.154 3243.28 234.758C3246.33 237.362 3247.85 241.685 3247.85 247.727C3247.85 251.763 3246.72 254.875 3244.45 257.062C3242.19 259.25 3238.97 260.721 3234.8 261.477C3238.55 262.076 3241.25 263.482 3242.89 265.695C3244.56 267.909 3245.39 270.669 3245.39 273.977V279.016H3254.1V293H3241.52C3238.84 293 3236.68 292.909 3235.04 292.727C3233.4 292.518 3232.1 292.049 3231.13 291.32C3230.2 290.565 3229.41 289.393 3228.79 287.805C3227.85 285.409 3227.38 281.411 3227.38 275.812C3227.38 272.609 3226.86 270.24 3225.82 268.703C3224.78 267.141 3222.88 266.359 3220.12 266.359H3215.39V279.25H3221.6V293ZM3215.39 244.602V257.492H3220.74C3223.58 257.492 3225.69 256.984 3227.07 255.969C3228.45 254.953 3229.14 253.169 3229.14 250.617C3229.14 248.742 3228.42 247.271 3226.99 246.203C3225.59 245.135 3223.76 244.602 3221.52 244.602H3215.39ZM3309.84 266.516V293H3257.38V279.25H3264.92V244.602H3257.38V230.852H3309.84V255.578H3299.84L3296.09 244.602H3284.92V254.758H3294.92V264.992H3284.92V279.25H3296.09L3299.84 266.516H3309.84ZM3366.48 266.516V293H3314.02V279.25H3321.56V244.602H3314.02V230.852H3366.48V255.578H3356.48L3352.73 244.602H3341.56V254.758H3351.56V264.992H3341.56V279.25H3352.73L3356.48 266.516H3366.48Z" fill="#FFD466"/>
<path d="M2935.2 414.133C2928.72 414.133 2923.11 412.74 2918.37 409.953C2913.65 407.167 2910.06 403.339 2907.59 398.469C2905.14 393.599 2903.91 388.039 2903.91 381.789C2903.91 375.305 2905.14 369.654 2907.59 364.836C2910.03 359.992 2913.6 356.255 2918.29 353.625C2923 350.969 2928.64 349.641 2935.2 349.641C2941.74 349.641 2947.36 350.956 2952.08 353.586C2956.77 356.242 2960.33 359.992 2962.78 364.836C2965.26 369.68 2966.49 375.331 2966.49 381.789C2966.49 388.039 2965.27 393.599 2962.82 398.469C2960.37 403.339 2956.78 407.167 2952.04 409.953C2947.33 412.74 2941.71 414.133 2935.2 414.133ZM2935.2 400.266C2938.02 400.266 2940.16 398.56 2941.65 395.148C2943.16 391.737 2943.91 387.18 2943.91 381.477C2943.91 375.93 2943.18 371.542 2941.73 368.312C2940.29 365.083 2938.12 363.469 2935.2 363.469C2932.26 363.469 2930.07 365.083 2928.64 368.312C2927.21 371.542 2926.49 375.93 2926.49 381.477C2926.49 387.18 2927.23 391.737 2928.72 395.148C2930.2 398.56 2932.36 400.266 2935.2 400.266ZM3026.18 386.438V401.711H3031.61V413H3007.43V386.359C3007.43 385.24 3007.07 384.25 3006.34 383.391C3005.63 382.531 3004.77 382.102 3003.76 382.102C3001.86 382.102 3000.66 383.052 3000.16 384.953C2999.64 386.906 2999.38 389.641 2999.38 393.156V401.711H2999.46V413H2975.05V401.711H2980.71V383.234H2975.05V372.688L2999.38 370.344V376.203C3001.18 374.068 3003.22 372.557 3005.52 371.672C3007.81 370.786 3010.4 370.344 3013.29 370.344C3021.88 370.344 3026.18 375.708 3026.18 386.438ZM3058.91 413.703C3054.07 413.703 3049.86 412.805 3046.3 411.008C3042.7 409.237 3039.94 406.698 3038.02 403.391C3036.11 400.083 3035.16 396.216 3035.16 391.789C3035.16 387.414 3036.1 383.612 3037.98 380.383C3039.83 377.18 3042.44 374.706 3045.83 372.961C3049.21 371.216 3053.18 370.344 3057.74 370.344C3061.93 370.344 3065.63 371.164 3068.84 372.805C3072.04 374.471 3074.51 376.828 3076.26 379.875C3078.03 382.922 3078.91 386.477 3078.91 390.539C3078.91 391.945 3078.71 393.273 3078.29 394.523H3053.95C3053.95 396.971 3054.88 398.938 3056.73 400.422C3058.58 401.88 3060.8 402.609 3063.41 402.609C3065.39 402.609 3067.56 402.271 3069.93 401.594C3072.3 400.891 3074.68 399.81 3077.08 398.352L3077.74 398.586V409.094C3075.06 410.63 3072.3 411.789 3069.46 412.57C3066.65 413.326 3063.13 413.703 3058.91 413.703ZM3053.95 386.516V387.648H3063.95V386.828C3063.95 384.979 3063.52 383.391 3062.66 382.062C3061.83 380.708 3060.58 380.031 3058.91 380.031C3057.53 380.031 3056.36 380.721 3055.4 382.102C3054.43 383.456 3053.95 384.927 3053.95 386.516Z" fill="black"/>
<path d="M2701.5 544.133C2695.12 544.133 2689.33 542.948 2684.12 540.578C2678.86 538.234 2674.65 534.589 2671.5 529.641C2668.35 524.693 2666.77 518.456 2666.77 510.93C2666.77 504.94 2668.01 499.576 2670.48 494.836C2672.96 490.096 2676.55 486.385 2681.27 483.703C2686.01 480.995 2691.58 479.641 2697.98 479.641C2700.69 479.641 2703.32 480.096 2705.88 481.008C2708.45 481.919 2710.48 483.247 2711.97 484.992L2713.26 480.852H2726.77V503.781H2714.7C2713.9 500.5 2712.35 498.013 2710.05 496.32C2707.76 494.628 2705.37 493.781 2702.87 493.781C2698.7 493.781 2695.41 495.305 2692.98 498.352C2690.56 501.398 2689.35 505.591 2689.35 510.93C2689.35 516.32 2690.55 520.552 2692.95 523.625C2695.34 526.672 2698.73 528.195 2703.1 528.195C2704.14 528.195 2705.26 528.091 2706.46 527.883C2707.35 527.727 2708.18 527.518 2708.96 527.258C2709.74 526.971 2710.26 526.802 2710.52 526.75V521.242H2703.02V509.641H2728.06V537.57C2724.05 539.706 2719.76 541.333 2715.17 542.453C2710.59 543.573 2706.03 544.133 2701.5 544.133ZM2757.79 543.703C2752.95 543.703 2748.74 542.805 2745.17 541.008C2741.58 539.237 2738.82 536.698 2736.89 533.391C2734.99 530.083 2734.04 526.216 2734.04 521.789C2734.04 517.414 2734.98 513.612 2736.85 510.383C2738.7 507.18 2741.32 504.706 2744.7 502.961C2748.09 501.216 2752.06 500.344 2756.62 500.344C2760.81 500.344 2764.51 501.164 2767.71 502.805C2770.91 504.471 2773.39 506.828 2775.13 509.875C2776.9 512.922 2777.79 516.477 2777.79 520.539C2777.79 521.945 2777.58 523.273 2777.16 524.523H2752.83C2752.83 526.971 2753.75 528.938 2755.6 530.422C2757.45 531.88 2759.68 532.609 2762.28 532.609C2764.26 532.609 2766.43 532.271 2768.8 531.594C2771.17 530.891 2773.56 529.81 2775.95 528.352L2776.62 528.586V539.094C2773.93 540.63 2771.17 541.789 2768.34 542.57C2765.52 543.326 2762.01 543.703 2757.79 543.703ZM2752.83 516.516V517.648H2762.83V516.828C2762.83 514.979 2762.4 513.391 2761.54 512.062C2760.71 510.708 2759.46 510.031 2757.79 510.031C2756.41 510.031 2755.24 510.721 2754.27 512.102C2753.31 513.456 2752.83 514.927 2752.83 516.516ZM2803.96 543.703C2793.93 543.703 2788.92 538.482 2788.92 528.039V512.609H2782.67V501.164H2788.92V492.219L2807.63 488.039V501.164H2815.13V512.609H2807.63V526.672C2807.63 527.844 2808.08 528.82 2808.96 529.602C2809.85 530.383 2810.95 530.773 2812.28 530.773C2813.24 530.773 2814.2 530.695 2815.13 530.539V541.398C2811.7 542.935 2807.97 543.703 2803.96 543.703Z" fill="white"/>
<path d="M2435.2 674.133C2428.72 674.133 2423.11 672.74 2418.37 669.953C2413.65 667.167 2410.06 663.339 2407.59 658.469C2405.14 653.599 2403.91 648.039 2403.91 641.789C2403.91 635.305 2405.14 629.654 2407.59 624.836C2410.03 619.992 2413.6 616.255 2418.29 613.625C2423 610.969 2428.64 609.641 2435.2 609.641C2441.74 609.641 2447.36 610.956 2452.08 613.586C2456.77 616.242 2460.33 619.992 2462.78 624.836C2465.26 629.68 2466.49 635.331 2466.49 641.789C2466.49 648.039 2465.27 653.599 2462.82 658.469C2460.37 663.339 2456.78 667.167 2452.04 669.953C2447.33 672.74 2441.71 674.133 2435.2 674.133ZM2435.2 660.266C2438.02 660.266 2440.16 658.56 2441.65 655.148C2443.16 651.737 2443.91 647.18 2443.91 641.477C2443.91 635.93 2443.18 631.542 2441.73 628.312C2440.29 625.083 2438.12 623.469 2435.2 623.469C2432.26 623.469 2430.07 625.083 2428.64 628.312C2427.21 631.542 2426.49 635.93 2426.49 641.477C2426.49 647.18 2427.23 651.737 2428.72 655.148C2430.2 658.56 2432.36 660.266 2435.2 660.266ZM2526.18 646.438V661.711H2531.61V673H2507.43V646.359C2507.43 645.24 2507.07 644.25 2506.34 643.391C2505.63 642.531 2504.77 642.102 2503.76 642.102C2501.86 642.102 2500.66 643.052 2500.16 644.953C2499.64 646.906 2499.38 649.641 2499.38 653.156V661.711H2499.46V673H2475.05V661.711H2480.71V643.234H2475.05V632.688L2499.38 630.344V636.203C2501.18 634.068 2503.22 632.557 2505.52 631.672C2507.81 630.786 2510.4 630.344 2513.29 630.344C2521.88 630.344 2526.18 635.708 2526.18 646.438ZM2558.91 673.703C2554.07 673.703 2549.86 672.805 2546.3 671.008C2542.7 669.237 2539.94 666.698 2538.02 663.391C2536.11 660.083 2535.16 656.216 2535.16 651.789C2535.16 647.414 2536.1 643.612 2537.98 640.383C2539.83 637.18 2542.44 634.706 2545.83 632.961C2549.21 631.216 2553.18 630.344 2557.74 630.344C2561.93 630.344 2565.63 631.164 2568.84 632.805C2572.04 634.471 2574.51 636.828 2576.26 639.875C2578.03 642.922 2578.91 646.477 2578.91 650.539C2578.91 651.945 2578.71 653.273 2578.29 654.523H2553.95C2553.95 656.971 2554.88 658.938 2556.73 660.422C2558.58 661.88 2560.8 662.609 2563.41 662.609C2565.39 662.609 2567.56 662.271 2569.93 661.594C2572.3 660.891 2574.68 659.81 2577.08 658.352L2577.74 658.586V669.094C2575.06 670.63 2572.3 671.789 2569.46 672.57C2566.65 673.326 2563.13 673.703 2558.91 673.703ZM2553.95 646.516V647.648H2563.95V646.828C2563.95 644.979 2563.52 643.391 2562.66 642.062C2561.83 640.708 2560.58 640.031 2558.91 640.031C2557.53 640.031 2556.36 640.721 2555.4 642.102C2554.43 643.456 2553.95 644.927 2553.95 646.516Z" fill="black"/>
<path d="M1970 163C1970 118.817 2005.82 83 2050 83H2310C2354.18 83 2390 118.817 2390 163V423C2390 467.183 2354.18 503 2310 503H2050C2005.82 503 1970 467.183 1970 423V163Z" fill="#FFD466"/>
<path d="M2028.46 337.5C2037.79 348.667 2047.79 354.25 2058.46 354.25C2080.46 354.25 2094.37 334.583 2100.21 295.25C2091.37 299.917 2081.54 302.25 2070.71 302.25C2056.71 302.25 2045.71 298 2037.71 289.5C2029.87 280.833 2025.96 269.667 2025.96 256C2025.96 238.333 2032.12 223.5 2044.46 211.5C2056.79 199.5 2071.71 193.5 2089.21 193.5C2106.87 193.5 2120.12 199 2128.96 210C2137.79 220.833 2142.21 237.167 2142.21 259C2142.21 280.667 2139.37 299.917 2133.71 316.75C2128.04 333.417 2119.29 347.167 2107.46 358C2095.62 368.667 2081.79 374 2065.96 374C2053.62 374 2043.46 371.167 2035.46 365.5C2027.46 359.667 2021.54 353.25 2017.71 346.25L2028.46 337.5ZM2082.71 284.75C2089.54 284.75 2095.96 282.917 2101.96 279.25C2102.79 269.75 2103.21 259.167 2103.21 247.5C2103.21 235.667 2102.12 226.333 2099.96 219.5C2097.96 212.667 2093.46 209.25 2086.46 209.25C2079.62 209.25 2074.29 213.917 2070.46 223.25C2066.79 232.417 2064.96 243.167 2064.96 255.5C2064.96 275 2070.87 284.75 2082.71 284.75ZM2160.54 337.5C2169.87 348.667 2179.87 354.25 2190.54 354.25C2212.54 354.25 2226.45 334.583 2232.29 295.25C2223.45 299.917 2213.62 302.25 2202.79 302.25C2188.79 302.25 2177.79 298 2169.79 289.5C2161.95 280.833 2158.04 269.667 2158.04 256C2158.04 238.333 2164.2 223.5 2176.54 211.5C2188.87 199.5 2203.79 193.5 2221.29 193.5C2238.95 193.5 2252.2 199 2261.04 210C2269.87 220.833 2274.29 237.167 2274.29 259C2274.29 280.667 2271.45 299.917 2265.79 316.75C2260.12 333.417 2251.37 347.167 2239.54 358C2227.7 368.667 2213.87 374 2198.04 374C2185.7 374 2175.54 371.167 2167.54 365.5C2159.54 359.667 2153.62 353.25 2149.79 346.25L2160.54 337.5ZM2214.79 284.75C2221.62 284.75 2228.04 282.917 2234.04 279.25C2234.87 269.75 2235.29 259.167 2235.29 247.5C2235.29 235.667 2234.2 226.333 2232.04 219.5C2230.04 212.667 2225.54 209.25 2218.54 209.25C2211.7 209.25 2206.37 213.917 2202.54 223.25C2198.87 232.417 2197.04 243.167 2197.04 255.5C2197.04 275 2202.95 284.75 2214.79 284.75ZM2338.62 272.75C2332.95 272.75 2327.87 277.833 2323.37 288C2318.87 298.167 2316.62 308 2316.62 317.5C2316.62 337.5 2322.78 347.5 2335.12 347.5C2339.12 347.5 2343.37 346.583 2347.87 344.75C2352.37 342.75 2355.95 340.833 2358.62 339L2362.37 336L2368.12 343.75C2366.78 345.083 2364.95 346.833 2362.62 349C2360.45 351.167 2355.78 354.333 2348.62 358.5C2341.45 362.5 2334.2 365 2326.87 366C2325.03 378.333 2324.12 387.833 2324.12 394.5C2316.45 394.5 2310.95 393.667 2307.62 392L2312.37 366C2301.53 364.5 2293.45 359.667 2288.12 351.5C2282.78 343.167 2280.12 331.833 2280.12 317.5C2280.12 303.167 2285.03 290.583 2294.87 279.75C2304.7 268.75 2316.87 262.417 2331.37 260.75C2333.37 244.083 2334.37 234.083 2334.37 230.75C2341.03 230.75 2346.53 231.583 2350.87 233.25L2345.62 260.75C2354.78 261.75 2361.95 264.75 2367.12 269.75C2372.45 274.583 2375.12 280.5 2375.12 287.5C2375.12 294.333 2372.78 300.417 2368.12 305.75C2363.95 305.75 2359.12 304.833 2353.62 303C2348.12 301.167 2343.95 298.917 2341.12 296.25L2344.87 274.25C2343.37 273.25 2341.28 272.75 2338.62 272.75Z" fill="black"/>
</svg>
