<svg width="1000" height="992" viewBox="0 0 1000 992" fill="none" xmlns="http://www.w3.org/2000/svg">
<rect x="7.5" y="7.5" width="985" height="885" fill="white" stroke="#F42424" stroke-width="15" stroke-dasharray="30 30"/>
<path d="M244 162V102H224V92H284V102H264V162H244ZM324 102V92H344V102H324ZM304 162V152H324V122H314V112H344V152H364V162H304ZM404 122H414V132H404V162H384V112H404V122ZM444 112V122H414V112H444ZM464 162V152H454V122H464V112H514V122H524V142H474V152H514V162H464ZM474 132H504V122H474V132ZM544 162V152H534V122H544V112H584V92H604V162H544ZM554 152H584V122H554V152ZM704 162V152H694V122H704V112H754V122H764V152H754V162H704ZM714 152H744V122H714V152ZM804 162V122H784V112H804V102H814V92H844V102H824V112H844V122H824V162H804ZM124 362V312H184V322H194V362H174V322H164V362H144V322H134V362H124ZM214 362V352H204V342H214V332H254V322H214V312H264V322H274V362H214ZM224 352H254V342H224V352ZM314 322H324V332H314V362H294V312H314V322ZM354 312V322H324V312H354ZM364 362V292H384V332H404V322H414V312H434V322H424V332H414V342H424V352H434V362H414V352H404V342H384V362H364ZM454 362V352H444V322H454V312H504V322H514V342H464V352H504V362H454ZM464 332H494V322H464V332ZM554 362V322H534V312H554V292H574V312H594V322H574V362H554ZM634 302V292H654V302H634ZM614 362V352H634V322H624V312H654V352H674V362H614ZM684 362V312H744V322H754V362H734V322H704V362H684ZM774 372V362H814V352H774V342H764V322H774V312H834V362H824V372H774ZM784 342H814V322H784V342ZM246.5 559.5V547H234V534.5H259V547H296.5V522H246.5V509.5H234V484.5H246.5V472H309V484.5H321.5V497H296.5V484.5H259V509.5H309V522H321.5V547H309V559.5H246.5ZM359 559.5V547H346.5V534.5H334V497H346.5V484.5H359V472H409V484.5H421.5V497H396.5V484.5H371.5V497H359V534.5H371.5V547H396.5V534.5H421.5V547H409V559.5H359ZM434 559.5V497H446.5V484.5H459V472H496.5V484.5H509V497H521.5V559.5H496.5V534.5H459V559.5H434ZM459 522H496.5V497H484V484.5H471.5V497H459V522ZM534 559.5V472H559V484.5H571.5V497H584V484.5H596.5V472H621.5V559.5H596.5V509.5H584V534.5H571.5V509.5H559V559.5H534ZM646.5 559.5V547H634V534.5H659V547H696.5V522H646.5V509.5H634V484.5H646.5V472H709V484.5H721.5V497H696.5V484.5H659V509.5H709V522H721.5V547H709V559.5H646.5ZM759 534.5V522H784V509.5H796.5V497H759V509.5H734V484.5H746.5V472H809V484.5H821.5V509.5H809V522H796.5V534.5H759ZM759 559.5V547H796.5V559.5H759Z" fill="#F42424"/>
</svg>
