<svg width="1146" height="1294" viewBox="0 0 1146 1294" fill="none" xmlns="http://www.w3.org/2000/svg">
<path d="M0 10C0 4.47716 4.47715 0 10 0H1136C1141.52 0 1146 4.47715 1146 10V1284C1146 1289.52 1141.52 1294 1136 1294H10C4.47715 1294 0 1289.52 0 1284V10Z" fill="url(#paint0_linear_81_67)"/>
<rect x="76" y="57" width="994" height="1180" fill="#201A37" fill-opacity="0.8" stroke="url(#paint1_linear_81_67)" stroke-width="40"/>
<path d="M186.92 157.24C189.907 157.24 192.653 157.613 195.16 158.36C197.72 159.053 200.307 160.173 202.92 161.72L204.76 160.2C206.04 159.187 207.08 158.493 207.88 158.12C208.733 157.747 209.693 157.56 210.76 157.56C212.04 157.56 213.053 157.853 213.8 158.44C214.547 158.973 214.92 159.773 214.92 160.84C214.92 161.267 214.84 161.72 214.68 162.2L211.32 173.24C210.947 174.52 210.467 175.427 209.88 175.96C209.347 176.493 208.52 176.76 207.4 176.76C206.227 176.76 205.187 176.413 204.28 175.72C203.427 174.973 202.067 173.48 200.2 171.24C198.333 169.107 196.627 167.613 195.08 166.76C193.587 165.853 192.04 165.4 190.44 165.4C189.267 165.4 188.28 165.8 187.48 166.6C186.68 167.347 186.28 168.28 186.28 169.4C186.28 170.68 186.92 171.88 188.2 173C189.48 174.067 191.48 175.427 194.2 177.08C196.973 178.733 199.267 180.227 201.08 181.56C202.893 182.893 204.44 184.547 205.72 186.52C207 188.493 207.64 190.76 207.64 193.32C207.64 194.973 207.373 196.627 206.84 198.28C205.56 202.547 203.08 205.8 199.4 208.04C195.72 210.227 191.427 211.32 186.52 211.32C182.84 211.32 179.747 210.893 177.24 210.04C174.733 209.187 172.173 207.747 169.56 205.72L166.68 208.12C165.347 209.24 164.253 210.013 163.4 210.44C162.547 210.813 161.587 211 160.52 211C159.293 211 158.307 210.707 157.56 210.12C156.867 209.533 156.52 208.733 156.52 207.72C156.52 207.187 156.627 206.627 156.84 206.04L160.76 194.12C161.187 192.733 161.773 191.747 162.52 191.16C163.267 190.573 164.227 190.28 165.4 190.28C166.627 190.28 167.72 190.707 168.68 191.56C169.693 192.413 171 193.96 172.6 196.2C174.307 198.653 175.88 200.36 177.32 201.32C178.813 202.28 180.573 202.76 182.6 202.76C184.04 202.76 185.133 202.547 185.88 202.12C186.68 201.64 187.24 200.893 187.56 199.88C187.667 199.613 187.72 199.213 187.72 198.68C187.72 197.4 187.107 196.227 185.88 195.16C184.653 194.093 182.76 192.813 180.2 191.32C177.48 189.667 175.267 188.2 173.56 186.92C171.853 185.587 170.36 183.933 169.08 181.96C167.853 179.987 167.24 177.667 167.24 175C167.24 173.133 167.533 171.293 168.12 169.48C169.24 165.8 171.533 162.84 175 160.6C178.467 158.36 182.44 157.24 186.92 157.24ZM241.196 168.28C244.45 168.28 247.303 168.76 249.756 169.72C252.21 170.627 254.103 171.907 255.436 173.56C256.823 175.16 257.516 176.947 257.516 178.92C257.516 181.053 256.77 182.813 255.276 184.2C253.836 185.587 251.863 186.28 249.356 186.28C246.796 186.28 244.796 185.64 243.356 184.36C241.916 183.027 241.196 181.24 241.196 179C241.196 177.933 241.356 176.813 241.676 175.64C239.436 176.227 237.436 177.4 235.676 179.16C233.97 180.867 232.823 183.133 232.236 185.96C231.916 187.56 231.756 189 231.756 190.28C231.756 193.16 232.556 195.347 234.156 196.84C235.756 198.333 238.05 199.08 241.036 199.08C242.743 199.08 244.21 198.92 245.436 198.6C246.663 198.227 247.916 197.747 249.196 197.16C250.263 196.627 251.036 196.36 251.516 196.36C251.836 196.36 252.05 196.44 252.156 196.6C252.263 196.707 252.316 196.973 252.316 197.4C252.37 199.373 251.543 201.453 249.836 203.64C248.183 205.773 245.863 207.587 242.876 209.08C239.943 210.52 236.636 211.24 232.956 211.24C229.116 211.24 225.703 210.547 222.716 209.16C219.783 207.72 217.49 205.693 215.836 203.08C214.236 200.413 213.436 197.32 213.436 193.8C213.436 192.147 213.65 190.307 214.076 188.28C215.516 181.667 218.69 176.68 223.596 173.32C228.556 169.96 234.423 168.28 241.196 168.28ZM294.796 168.68C297.782 168.68 300.156 169.587 301.916 171.4C303.729 173.213 304.636 175.453 304.636 178.12C304.636 179.133 304.529 180.067 304.316 180.92C303.782 183.107 302.769 184.787 301.276 185.96C299.782 187.133 297.996 187.72 295.916 187.72C293.889 187.72 292.342 187.24 291.276 186.28C290.262 185.32 289.356 184.04 288.556 182.44C288.129 181.533 287.729 180.867 287.356 180.44C286.982 180.013 286.556 179.8 286.076 179.8C285.542 179.8 285.062 180.013 284.636 180.44C284.262 180.867 283.916 181.613 283.596 182.68L277.436 202.68C277.329 202.947 277.276 203.347 277.276 203.88C277.276 204.573 277.462 205.16 277.836 205.64C278.262 206.067 278.822 206.493 279.516 206.92C280.156 207.347 280.582 207.693 280.796 207.96C281.009 208.227 281.089 208.573 281.036 209C280.929 209.693 280.529 210.2 279.836 210.52C279.196 210.84 278.076 211 276.476 211H255.996C254.609 211 253.622 210.787 253.036 210.36C252.396 209.88 252.156 209.267 252.316 208.52C252.529 207.88 253.089 207.32 253.996 206.84C254.796 206.413 255.462 205.907 255.996 205.32C256.529 204.733 256.982 203.8 257.356 202.52L264.476 179.4C264.582 179.133 264.636 178.76 264.636 178.28C264.636 177.693 264.502 177.24 264.236 176.92C264.022 176.6 263.649 176.2 263.116 175.72C262.582 175.293 262.209 174.92 261.996 174.6C261.782 174.28 261.756 173.853 261.916 173.32C262.236 172.093 263.916 171.027 266.956 170.12C269.996 169.16 273.169 168.68 276.476 168.68C278.662 168.68 280.476 169.187 281.916 170.2C283.356 171.16 284.289 172.547 284.716 174.36C287.276 170.573 290.636 168.68 294.796 168.68ZM328.841 168.68C334.975 168.68 339.881 169.827 343.561 172.12C347.241 174.36 349.081 177.8 349.081 182.44C349.081 184.2 348.761 186.2 348.121 188.44L344.841 199.48C344.788 199.693 344.761 199.96 344.761 200.28C344.761 201.133 345.108 201.56 345.801 201.56C346.441 201.56 346.975 201.293 347.401 200.76C347.881 200.173 348.201 199.88 348.361 199.88C348.628 199.88 348.841 200.067 349.001 200.44C349.215 200.813 349.321 201.24 349.321 201.72C349.375 203.16 348.815 204.627 347.641 206.12C346.521 207.613 345.001 208.84 343.081 209.8C341.161 210.76 339.055 211.24 336.761 211.24C333.988 211.24 331.615 210.733 329.641 209.72C327.668 208.707 326.308 207.213 325.561 205.24C323.961 207.16 322.068 208.653 319.881 209.72C317.695 210.733 315.348 211.24 312.841 211.24C310.015 211.24 307.641 210.707 305.721 209.64C303.801 208.52 302.361 207.107 301.401 205.4C300.495 203.64 300.041 201.8 300.041 199.88C300.041 199.027 300.121 198.2 300.281 197.4C301.135 193.72 302.975 190.947 305.801 189.08C308.681 187.213 312.095 186.28 316.041 186.28C320.468 186.28 324.815 186.973 329.081 188.36L331.081 183.08C331.775 180.84 332.121 179.107 332.121 177.88C332.068 176.6 331.641 175.64 330.841 175C330.041 174.36 328.815 174.04 327.161 174.04C327.481 174.893 327.641 175.773 327.641 176.68C327.641 178.653 326.895 180.36 325.401 181.8C323.908 183.24 321.775 183.96 319.001 183.96C316.388 183.96 314.335 183.4 312.841 182.28C311.401 181.107 310.681 179.667 310.681 177.96C310.681 175.293 312.175 173.08 315.161 171.32C318.148 169.56 322.708 168.68 328.841 168.68ZM324.361 192.92C322.868 192.92 321.641 193.507 320.681 194.68C319.775 195.8 319.321 197.027 319.321 198.36C319.321 199.213 319.508 199.907 319.881 200.44C320.308 200.973 320.895 201.24 321.641 201.24C322.335 201.24 323.081 200.973 323.881 200.44C324.735 199.853 325.348 199 325.721 197.88L327.401 193.16C326.495 193 325.481 192.92 324.361 192.92ZM388.385 169.72C389.398 169.72 390.172 169.933 390.705 170.36C391.292 170.787 391.585 171.373 391.585 172.12C391.585 172.333 391.532 172.707 391.425 173.24C390.732 175.587 389.132 176.76 386.625 176.76H381.985L375.985 196.52C375.718 197.32 375.585 198.147 375.585 199C375.585 199.96 375.852 200.627 376.385 201C376.918 201.373 377.665 201.56 378.625 201.56C379.478 201.56 380.545 201.453 381.825 201.24C382.465 201.08 383.025 201 383.505 201C383.878 201 384.145 201.133 384.305 201.4C384.518 201.613 384.625 201.907 384.625 202.28C384.678 203.347 383.878 204.653 382.225 206.2C380.625 207.693 378.438 209 375.665 210.12C372.892 211.187 369.825 211.72 366.465 211.72C362.838 211.72 359.932 210.893 357.745 209.24C355.558 207.587 354.465 205.32 354.465 202.44C354.465 201.107 354.678 199.827 355.105 198.6L360.225 182.76C360.492 181.853 360.625 181.133 360.625 180.6C360.625 179.533 360.358 178.627 359.825 177.88C359.345 177.133 358.652 176.36 357.745 175.56C356.945 174.813 356.385 174.2 356.065 173.72C355.745 173.187 355.665 172.573 355.825 171.88C356.038 171.187 356.492 170.653 357.185 170.28C357.878 169.907 358.972 169.72 360.465 169.72H364.945L369.985 164.68C371.745 162.92 373.345 161.693 374.785 161C376.278 160.307 378.198 159.96 380.545 159.96C383.905 159.96 385.585 161.24 385.585 163.8C385.585 164.6 385.478 165.347 385.265 166.04L384.145 169.72H388.385ZM416.04 168.28C419.293 168.28 422.147 168.76 424.6 169.72C427.053 170.627 428.947 171.907 430.28 173.56C431.667 175.16 432.36 176.947 432.36 178.92C432.36 181.053 431.613 182.813 430.12 184.2C428.68 185.587 426.707 186.28 424.2 186.28C421.64 186.28 419.64 185.64 418.2 184.36C416.76 183.027 416.04 181.24 416.04 179C416.04 177.933 416.2 176.813 416.52 175.64C414.28 176.227 412.28 177.4 410.52 179.16C408.813 180.867 407.667 183.133 407.08 185.96C406.76 187.56 406.6 189 406.6 190.28C406.6 193.16 407.4 195.347 409 196.84C410.6 198.333 412.893 199.08 415.88 199.08C417.587 199.08 419.053 198.92 420.28 198.6C421.507 198.227 422.76 197.747 424.04 197.16C425.107 196.627 425.88 196.36 426.36 196.36C426.68 196.36 426.893 196.44 427 196.6C427.107 196.707 427.16 196.973 427.16 197.4C427.213 199.373 426.387 201.453 424.68 203.64C423.027 205.773 420.707 207.587 417.72 209.08C414.787 210.52 411.48 211.24 407.8 211.24C403.96 211.24 400.547 210.547 397.56 209.16C394.627 207.72 392.333 205.693 390.68 203.08C389.08 200.413 388.28 197.32 388.28 193.8C388.28 192.147 388.493 190.307 388.92 188.28C390.36 181.667 393.533 176.68 398.44 173.32C403.4 169.96 409.267 168.28 416.04 168.28ZM479.399 199.96C479.293 200.173 479.239 200.493 479.239 200.92C479.239 201.293 479.319 201.587 479.479 201.8C479.693 202.013 479.959 202.12 480.279 202.12C480.919 202.12 481.453 201.853 481.879 201.32C482.359 200.733 482.679 200.44 482.839 200.44C483.106 200.44 483.319 200.627 483.479 201C483.639 201.32 483.719 201.72 483.719 202.2C483.773 203.747 483.266 205.267 482.199 206.76C481.133 208.2 479.559 209.4 477.479 210.36C475.453 211.267 472.999 211.72 470.119 211.72C466.599 211.72 463.799 210.92 461.719 209.32C459.639 207.667 458.573 205.48 458.519 202.76C458.519 200.787 458.999 198.573 459.959 196.12L464.359 184.6C464.626 183.907 464.759 183.347 464.759 182.92C464.759 182.227 464.519 181.693 464.039 181.32C463.613 180.893 463.079 180.68 462.439 180.68C461.426 180.68 460.386 181.16 459.319 182.12C458.306 183.027 457.479 184.52 456.839 186.6V186.44L451.799 202.68C451.639 203.32 451.559 203.88 451.559 204.36C451.559 205.053 451.693 205.613 451.959 206.04C452.226 206.413 452.599 206.787 453.079 207.16C453.453 207.533 453.719 207.853 453.879 208.12C454.039 208.333 454.066 208.627 453.959 209C453.693 209.693 453.159 210.2 452.359 210.52C451.559 210.84 450.333 211 448.679 211H430.439C429.053 211 428.039 210.787 427.399 210.36C426.759 209.88 426.546 209.267 426.759 208.52C426.973 207.88 427.533 207.32 428.439 206.84C429.239 206.413 429.906 205.907 430.439 205.32C430.973 204.733 431.426 203.8 431.799 202.52L443.959 162.6C444.119 162.12 444.199 161.72 444.199 161.4C444.199 160.813 444.039 160.333 443.719 159.96C443.453 159.587 443.079 159.213 442.599 158.84C442.066 158.413 441.666 158.04 441.399 157.72C441.186 157.4 441.159 156.973 441.319 156.44C441.639 155.213 443.319 154.147 446.359 153.24C449.399 152.333 452.573 151.88 455.879 151.88C458.973 151.88 461.239 152.467 462.679 153.64C464.173 154.813 464.919 156.413 464.919 158.44C464.919 159.613 464.733 160.76 464.359 161.88L460.039 175.96C462.119 173.24 464.306 171.347 466.599 170.28C468.946 169.213 471.479 168.68 474.199 168.68C477.453 168.68 480.066 169.667 482.039 171.64C484.066 173.613 485.079 176.173 485.079 179.32C485.079 180.973 484.813 182.6 484.279 184.2L479.399 199.96Z" fill="url(#paint2_linear_81_67)"/>
<path d="M556.532 157C557.385 157 558.185 157.64 558.932 158.92C559.732 160.147 560.132 161.773 560.132 163.8C560.132 165.133 559.999 166.333 559.732 167.4C558.985 170.813 557.545 173.32 555.412 174.92C553.332 176.52 550.292 177.32 546.292 177.32C544.265 177.32 542.319 177.08 540.452 176.6C538.585 176.067 536.345 175.32 533.732 174.36C531.919 173.667 530.399 173.16 529.172 172.84C527.945 172.467 526.799 172.28 525.732 172.28C523.972 172.28 522.772 173.32 522.132 175.4L520.132 182.68C524.505 180.92 529.199 180.04 534.212 180.04C537.892 180.04 541.305 180.573 544.452 181.64C547.652 182.707 550.212 184.307 552.132 186.44C554.105 188.52 555.092 191.027 555.092 193.96C555.092 194.813 554.959 195.853 554.692 197.08C553.679 201.453 550.852 204.947 546.212 207.56C541.625 210.173 535.519 211.48 527.892 211.48C521.972 211.48 517.145 210.947 513.412 209.88C509.732 208.813 507.065 207.453 505.412 205.8C503.759 204.093 502.932 202.227 502.932 200.2C502.932 199.347 503.039 198.573 503.252 197.88C503.785 196.067 504.772 194.68 506.212 193.72C507.705 192.707 509.625 192.2 511.972 192.2C514.585 192.2 516.612 192.813 518.052 194.04C519.545 195.267 520.292 196.867 520.292 198.84C520.292 200.44 519.759 202.173 518.692 204.04C520.185 204.307 521.439 204.44 522.452 204.44C525.332 204.44 527.679 203.747 529.492 202.36C531.305 200.92 532.559 198.973 533.252 196.52C533.572 195.293 533.732 194.227 533.732 193.32C533.732 191.507 533.145 190.12 531.972 189.16C530.852 188.147 529.305 187.64 527.332 187.64C525.892 187.64 524.239 187.933 522.372 188.52C520.345 189.16 518.479 189.48 516.772 189.48H514.132C512.159 189.48 511.172 188.6 511.172 186.84C511.172 186.307 511.305 185.56 511.572 184.6L517.012 166.12C517.705 163.72 518.745 162.067 520.132 161.16C521.572 160.253 523.625 159.8 526.292 159.8C528.319 159.8 530.585 159.88 533.092 160.04C534.052 160.093 535.465 160.147 537.332 160.2C539.199 160.253 540.825 160.28 542.212 160.28C545.572 160.28 548.105 160.04 549.812 159.56C551.572 159.08 553.145 158.467 554.532 157.72C555.492 157.24 556.159 157 556.532 157ZM333.781 268.88C339.487 268.88 343.754 269.76 346.581 271.52C349.461 273.227 350.901 275.333 350.901 277.84C350.901 279.867 350.047 281.44 348.341 282.56C346.687 283.627 344.501 284.16 341.781 284.16C339.274 284.16 337.327 283.547 335.941 282.32C334.554 281.093 333.861 279.573 333.861 277.76C333.861 276.64 334.207 275.467 334.901 274.24C333.301 274.24 331.967 274.64 330.901 275.44C329.834 276.187 329.007 277.493 328.421 279.36C328.101 280.533 327.941 281.627 327.941 282.64C327.941 283.92 328.154 284.933 328.581 285.68C329.061 286.373 329.727 286.72 330.581 286.72H335.301C338.074 286.72 339.461 287.573 339.461 289.28C339.461 289.493 339.407 289.813 339.301 290.24C338.981 291.413 338.314 292.293 337.301 292.88C336.341 293.467 334.874 293.76 332.901 293.76H330.501L322.581 319.68C322.421 320.32 322.341 320.88 322.341 321.36C322.341 322.053 322.474 322.613 322.741 323.04C323.007 323.413 323.381 323.787 323.861 324.16C324.234 324.533 324.501 324.853 324.661 325.12C324.821 325.333 324.847 325.627 324.741 326C324.474 326.693 323.941 327.2 323.141 327.52C322.341 327.84 321.114 328 319.461 328H301.221C299.834 328 298.821 327.787 298.181 327.36C297.541 326.88 297.327 326.267 297.541 325.52C297.754 324.88 298.314 324.32 299.221 323.84C300.021 323.413 300.687 322.907 301.221 322.32C301.754 321.733 302.207 320.8 302.581 319.52L308.821 299.04C309.087 298.24 309.221 297.413 309.221 296.56C309.221 295.493 308.981 294.667 308.501 294.08C308.074 293.44 307.407 292.747 306.501 292C305.914 291.52 305.461 291.12 305.141 290.8C304.874 290.427 304.741 290 304.741 289.52C304.687 288.507 305.034 287.787 305.781 287.36C306.581 286.933 308.074 286.72 310.261 286.72H312.261C311.887 285.387 311.701 284.053 311.701 282.72C311.701 281.387 311.941 280 312.421 278.56C313.434 275.84 315.594 273.547 318.901 271.68C322.261 269.813 327.221 268.88 333.781 268.88ZM365.382 285.68C372.635 285.68 377.969 287.147 381.382 290.08C384.849 293.013 386.582 296.853 386.582 301.6C386.582 303.2 386.369 304.987 385.942 306.96C384.929 311.333 383.035 315.173 380.262 318.48C377.489 321.733 374.075 324.267 370.022 326.08C366.022 327.84 361.675 328.72 356.982 328.72C349.569 328.72 344.075 327.253 340.502 324.32C336.982 321.333 335.222 317.387 335.222 312.48C335.222 310.827 335.435 308.987 335.862 306.96C336.875 302.8 338.795 299.12 341.622 295.92C344.502 292.667 347.995 290.16 352.102 288.4C356.262 286.587 360.689 285.68 365.382 285.68ZM365.142 292.8C364.022 292.8 362.822 293.813 361.542 295.84C360.315 297.813 358.849 301.573 357.142 307.12C355.435 312.667 354.582 316.56 354.582 318.8C354.582 319.973 354.769 320.773 355.142 321.2C355.515 321.573 356.022 321.76 356.662 321.76C357.782 321.867 358.929 320.907 360.102 318.88C361.329 316.853 362.849 312.907 364.662 307.04C366.315 301.867 367.142 298.107 367.142 295.76C367.142 294.64 366.955 293.867 366.582 293.44C366.262 293.013 365.782 292.8 365.142 292.8ZM426.202 285.68C429.189 285.68 431.562 286.587 433.322 288.4C435.135 290.213 436.042 292.453 436.042 295.12C436.042 296.133 435.935 297.067 435.722 297.92C435.189 300.107 434.175 301.787 432.682 302.96C431.189 304.133 429.402 304.72 427.322 304.72C425.295 304.72 423.749 304.24 422.682 303.28C421.669 302.32 420.762 301.04 419.962 299.44C419.535 298.533 419.135 297.867 418.762 297.44C418.389 297.013 417.962 296.8 417.482 296.8C416.949 296.8 416.469 297.013 416.042 297.44C415.669 297.867 415.322 298.613 415.002 299.68L408.842 319.68C408.735 319.947 408.682 320.347 408.682 320.88C408.682 321.573 408.869 322.16 409.242 322.64C409.669 323.067 410.229 323.493 410.922 323.92C411.562 324.347 411.989 324.693 412.202 324.96C412.415 325.227 412.495 325.573 412.442 326C412.335 326.693 411.935 327.2 411.242 327.52C410.602 327.84 409.482 328 407.882 328H387.402C386.015 328 385.029 327.787 384.442 327.36C383.802 326.88 383.562 326.267 383.722 325.52C383.935 324.88 384.495 324.32 385.402 323.84C386.202 323.413 386.869 322.907 387.402 322.32C387.935 321.733 388.389 320.8 388.762 319.52L395.882 296.4C395.989 296.133 396.042 295.76 396.042 295.28C396.042 294.693 395.909 294.24 395.642 293.92C395.429 293.6 395.055 293.2 394.522 292.72C393.989 292.293 393.615 291.92 393.402 291.6C393.189 291.28 393.162 290.853 393.322 290.32C393.642 289.093 395.322 288.027 398.362 287.12C401.402 286.16 404.575 285.68 407.882 285.68C410.069 285.68 411.882 286.187 413.322 287.2C414.762 288.16 415.695 289.547 416.122 291.36C418.682 287.573 422.042 285.68 426.202 285.68ZM477.826 285.68C483.959 285.68 488.866 286.827 492.546 289.12C496.226 291.36 498.066 294.8 498.066 299.44C498.066 301.2 497.746 303.2 497.106 305.44L493.826 316.48C493.772 316.693 493.746 316.96 493.746 317.28C493.746 318.133 494.092 318.56 494.786 318.56C495.426 318.56 495.959 318.293 496.386 317.76C496.866 317.173 497.186 316.88 497.346 316.88C497.612 316.88 497.826 317.067 497.986 317.44C498.199 317.813 498.306 318.24 498.306 318.72C498.359 320.16 497.799 321.627 496.626 323.12C495.506 324.613 493.986 325.84 492.066 326.8C490.146 327.76 488.039 328.24 485.746 328.24C482.972 328.24 480.599 327.733 478.626 326.72C476.652 325.707 475.292 324.213 474.546 322.24C472.946 324.16 471.052 325.653 468.866 326.72C466.679 327.733 464.332 328.24 461.826 328.24C458.999 328.24 456.626 327.707 454.706 326.64C452.786 325.52 451.346 324.107 450.386 322.4C449.479 320.64 449.026 318.8 449.026 316.88C449.026 316.027 449.106 315.2 449.266 314.4C450.119 310.72 451.959 307.947 454.786 306.08C457.666 304.213 461.079 303.28 465.026 303.28C469.452 303.28 473.799 303.973 478.066 305.36L480.066 300.08C480.759 297.84 481.106 296.107 481.106 294.88C481.052 293.6 480.626 292.64 479.826 292C479.026 291.36 477.799 291.04 476.146 291.04C476.466 291.893 476.626 292.773 476.626 293.68C476.626 295.653 475.879 297.36 474.386 298.8C472.892 300.24 470.759 300.96 467.986 300.96C465.372 300.96 463.319 300.4 461.826 299.28C460.386 298.107 459.666 296.667 459.666 294.96C459.666 292.293 461.159 290.08 464.146 288.32C467.132 286.56 471.692 285.68 477.826 285.68ZM473.346 309.92C471.852 309.92 470.626 310.507 469.666 311.68C468.759 312.8 468.306 314.027 468.306 315.36C468.306 316.213 468.492 316.907 468.866 317.44C469.292 317.973 469.879 318.24 470.626 318.24C471.319 318.24 472.066 317.973 472.866 317.44C473.719 316.853 474.332 316 474.706 314.88L476.386 310.16C475.479 310 474.466 309.92 473.346 309.92ZM443.074 424.36C444.568 424.36 445.688 424.68 446.434 425.32C447.234 425.907 447.634 426.76 447.634 427.88C447.634 428.36 447.554 428.893 447.394 429.48L444.754 438.84C444.061 441.133 443.074 442.733 441.794 443.64C440.568 444.547 438.728 445 436.274 445H398.674C397.554 445 396.701 444.813 396.114 444.44C395.474 444.067 395.154 443.56 395.154 442.92C395.154 442.6 395.234 442.253 395.394 441.88C395.554 441.453 395.821 441.107 396.194 440.84C396.568 440.52 396.968 440.227 397.394 439.96C398.248 439.427 398.941 438.893 399.474 438.36C400.008 437.773 400.461 436.84 400.834 435.56L410.594 401.08C410.808 400.387 410.914 399.72 410.914 399.08C410.914 398.493 410.808 398.013 410.594 397.64C410.434 397.213 410.194 396.733 409.874 396.2C409.394 395.507 409.154 394.947 409.154 394.52C409.154 394.36 409.208 394.067 409.314 393.64C409.528 392.947 409.981 392.467 410.674 392.2C411.421 391.88 412.541 391.72 414.034 391.72H432.834C433.954 391.72 434.808 391.907 435.394 392.28C436.034 392.6 436.354 393.08 436.354 393.72C436.354 393.987 436.274 394.333 436.114 394.76C435.954 395.133 435.714 395.48 435.394 395.8C435.128 396.067 434.861 396.28 434.594 396.44C434.381 396.547 434.221 396.653 434.114 396.76C433.261 397.24 432.568 397.773 432.034 398.36C431.501 398.947 431.048 399.853 430.674 401.08L420.354 437.32H425.314C426.541 437.32 427.581 437.107 428.434 436.68C429.341 436.253 430.274 435.453 431.234 434.28L436.754 427.72C437.768 426.547 438.728 425.693 439.634 425.16C440.594 424.627 441.741 424.36 443.074 424.36ZM496.864 433.96C496.757 434.387 496.704 434.707 496.704 434.92C496.704 435.293 496.784 435.587 496.944 435.8C497.157 436.013 497.424 436.12 497.744 436.12C498.384 436.12 498.917 435.853 499.344 435.32C499.824 434.733 500.144 434.44 500.304 434.44C500.57 434.44 500.784 434.627 500.944 435C501.157 435.32 501.264 435.72 501.264 436.2C501.317 437.693 500.784 439.187 499.664 440.68C498.544 442.12 496.97 443.32 494.944 444.28C492.917 445.24 490.65 445.72 488.144 445.72C484.997 445.72 482.49 445.08 480.624 443.8C478.757 442.52 477.557 440.84 477.024 438.76C475.104 440.893 472.97 442.52 470.624 443.64C468.33 444.707 465.984 445.24 463.584 445.24C459.85 445.24 456.704 444.333 454.144 442.52C451.637 440.653 450.384 438.067 450.384 434.76C450.384 433.267 450.65 431.72 451.184 430.12L456.304 413.4C456.464 412.92 456.544 412.52 456.544 412.2C456.544 411.613 456.41 411.16 456.144 410.84C455.877 410.467 455.477 410.093 454.944 409.72C454.41 409.293 454.037 408.92 453.824 408.6C453.61 408.28 453.584 407.853 453.744 407.32C454.064 406.093 455.744 405.027 458.784 404.12C461.824 403.16 464.997 402.68 468.304 402.68C471.397 402.68 473.664 403.267 475.104 404.44C476.544 405.613 477.264 407.213 477.264 409.24C477.264 410.467 477.077 411.64 476.704 412.76L471.664 429.4C471.45 429.987 471.344 430.547 471.344 431.08C471.344 431.827 471.557 432.387 471.984 432.76C472.41 433.133 472.97 433.32 473.664 433.32C474.677 433.32 475.504 433.027 476.144 432.44C476.784 431.853 477.424 430.867 478.064 429.48L482.944 413.4C483.104 412.92 483.184 412.52 483.184 412.2C483.184 411.613 483.05 411.16 482.784 410.84C482.517 410.467 482.144 410.093 481.664 409.72C481.13 409.293 480.757 408.92 480.544 408.6C480.33 408.28 480.304 407.853 480.464 407.32C480.73 406.093 482.384 405.027 485.424 404.12C488.464 403.16 491.637 402.68 494.944 402.68C498.037 402.68 500.304 403.267 501.744 404.44C503.237 405.613 503.984 407.187 503.984 409.16C503.984 410.173 503.77 411.373 503.344 412.76L496.864 433.96ZM533.228 402.28C536.481 402.28 539.334 402.76 541.788 403.72C544.241 404.627 546.134 405.907 547.468 407.56C548.854 409.16 549.548 410.947 549.548 412.92C549.548 415.053 548.801 416.813 547.308 418.2C545.868 419.587 543.894 420.28 541.388 420.28C538.828 420.28 536.828 419.64 535.388 418.36C533.948 417.027 533.228 415.24 533.228 413C533.228 411.933 533.388 410.813 533.708 409.64C531.468 410.227 529.468 411.4 527.707 413.16C526.001 414.867 524.854 417.133 524.268 419.96C523.948 421.56 523.788 423 523.788 424.28C523.788 427.16 524.588 429.347 526.188 430.84C527.788 432.333 530.081 433.08 533.068 433.08C534.774 433.08 536.241 432.92 537.468 432.6C538.694 432.227 539.948 431.747 541.228 431.16C542.294 430.627 543.068 430.36 543.548 430.36C543.868 430.36 544.081 430.44 544.188 430.6C544.294 430.707 544.348 430.973 544.348 431.4C544.401 433.373 543.574 435.453 541.868 437.64C540.214 439.773 537.894 441.587 534.908 443.08C531.974 444.52 528.668 445.24 524.988 445.24C521.148 445.24 517.734 444.547 514.747 443.16C511.814 441.72 509.521 439.693 507.868 437.08C506.268 434.413 505.468 431.32 505.468 427.8C505.468 426.147 505.681 424.307 506.108 422.28C507.548 415.667 510.721 410.68 515.628 407.32C520.588 403.96 526.454 402.28 533.228 402.28ZM594.987 402.68C598.027 402.68 600.454 403.533 602.267 405.24C604.134 406.893 605.067 408.92 605.067 411.32C605.067 413.88 604.294 415.88 602.747 417.32C601.2 418.76 599.174 419.48 596.667 419.48C594.427 419.48 592.694 418.92 591.467 417.8C590.24 416.627 589.654 415.32 589.707 413.88C589.174 413.773 588.72 413.987 588.347 414.52C587.974 415.053 587.574 416.093 587.147 417.64C586.88 418.653 586.374 419.587 585.627 420.44C589.254 420.707 591.947 421.533 593.707 422.92C595.467 424.307 596.347 426.093 596.347 428.28C596.347 429.347 596.16 430.413 595.787 431.48L595.147 433.96C595.04 434.227 594.987 434.573 594.987 435C594.987 435.747 595.334 436.12 596.027 436.12C596.667 436.12 597.2 435.853 597.627 435.32C598.107 434.733 598.427 434.44 598.587 434.44C598.854 434.44 599.067 434.627 599.227 435C599.387 435.32 599.467 435.72 599.467 436.2C599.52 437.747 599.04 439.267 598.027 440.76C597.067 442.2 595.574 443.4 593.547 444.36C591.574 445.267 589.174 445.72 586.347 445.72C582.934 445.72 580.08 444.867 577.787 443.16C575.547 441.453 574.427 439.213 574.427 436.44C574.427 435.427 574.64 434.28 575.067 433L576.587 429C576.854 428.04 576.987 427.347 576.987 426.92C576.987 426.227 576.747 425.72 576.267 425.4C575.84 425.08 575.147 424.92 574.187 424.92H572.587L568.987 436.68C568.827 437.32 568.747 437.88 568.747 438.36C568.747 439.053 568.88 439.613 569.147 440.04C569.414 440.413 569.787 440.787 570.267 441.16C570.64 441.533 570.907 441.853 571.067 442.12C571.227 442.333 571.254 442.627 571.147 443C570.88 443.693 570.347 444.2 569.547 444.52C568.747 444.84 567.52 445 565.867 445H547.627C546.24 445 545.227 444.787 544.587 444.36C543.947 443.88 543.734 443.267 543.947 442.52C544.16 441.88 544.72 441.32 545.627 440.84C546.427 440.413 547.094 439.907 547.627 439.32C548.16 438.733 548.614 437.8 548.987 436.52L561.147 396.6C561.307 396.12 561.387 395.72 561.387 395.4C561.387 394.813 561.227 394.333 560.907 393.96C560.64 393.587 560.267 393.213 559.787 392.84C559.254 392.413 558.854 392.04 558.587 391.72C558.374 391.4 558.347 390.973 558.507 390.44C558.827 389.213 560.507 388.147 563.547 387.24C566.587 386.333 569.76 385.88 573.067 385.88C576.16 385.88 578.427 386.467 579.867 387.64C581.307 388.76 582.027 390.333 582.027 392.36C582.027 393.587 581.84 394.76 581.467 395.88L574.507 418.6H577.147C578.214 418.6 579.067 418.28 579.707 417.64C580.4 417 580.934 416.067 581.307 414.84C582.64 410.893 584.374 407.88 586.507 405.8C588.64 403.72 591.467 402.68 594.987 402.68ZM646.666 402.68C649.012 402.68 650.879 403.64 652.266 405.56C653.706 407.427 654.426 409.987 654.426 413.24C654.426 416.067 653.919 419.107 652.906 422.36C650.932 428.92 647.759 435.107 643.386 440.92C639.066 446.733 634.079 451.4 628.426 454.92C622.826 458.44 617.226 460.2 611.626 460.2C608.852 460.2 606.452 459.72 604.426 458.76C602.452 457.8 600.959 456.52 599.946 454.92C598.879 453.32 598.346 451.613 598.346 449.8C598.346 449 598.479 448.12 598.746 447.16C599.226 445.667 600.026 444.52 601.146 443.72C602.266 442.92 603.599 442.52 605.146 442.52C607.599 442.52 609.599 443.347 611.146 445C612.746 446.707 613.759 449.027 614.186 451.96C617.599 451.8 620.746 450.333 623.626 447.56C620.906 447.08 618.879 446.173 617.546 444.84C616.266 443.453 615.386 441.32 614.906 438.44L611.706 418.84C611.546 417.827 611.306 417.133 610.986 416.76C610.719 416.333 610.346 416.12 609.866 416.12C609.492 416.12 609.039 416.307 608.506 416.68C608.026 417.053 607.679 417.24 607.466 417.24C607.039 417.24 606.826 416.787 606.826 415.88C606.826 415.133 606.959 414.333 607.226 413.48C608.186 410.44 609.972 407.88 612.586 405.8C615.199 403.667 618.239 402.6 621.706 402.6C625.119 402.6 627.626 403.613 629.226 405.64C630.879 407.667 631.946 410.787 632.426 415L634.826 432.6C634.986 433.933 635.466 434.6 636.266 434.6C637.226 434.6 638.346 433.747 639.626 432.04C640.906 430.28 642.159 427.8 643.386 424.6C641.786 423.16 640.559 421.507 639.706 419.64C638.852 417.773 638.426 415.773 638.426 413.64C638.426 411.987 638.639 410.493 639.066 409.16C639.706 407.027 640.692 405.427 642.026 404.36C643.412 403.24 644.959 402.68 646.666 402.68ZM699.811 391.24C702.797 391.24 705.544 391.613 708.051 392.36C710.611 393.053 713.197 394.173 715.811 395.72L717.651 394.2C718.931 393.187 719.971 392.493 720.771 392.12C721.624 391.747 722.584 391.56 723.651 391.56C724.931 391.56 725.944 391.853 726.691 392.44C727.437 392.973 727.811 393.773 727.811 394.84C727.811 395.267 727.731 395.72 727.571 396.2L724.211 407.24C723.837 408.52 723.357 409.427 722.771 409.96C722.237 410.493 721.411 410.76 720.291 410.76C719.117 410.76 718.077 410.413 717.171 409.72C716.317 408.973 714.957 407.48 713.091 405.24C711.224 403.107 709.517 401.613 707.971 400.76C706.477 399.853 704.931 399.4 703.331 399.4C702.157 399.4 701.171 399.8 700.371 400.6C699.571 401.347 699.171 402.28 699.171 403.4C699.171 404.68 699.811 405.88 701.091 407C702.371 408.067 704.371 409.427 707.091 411.08C709.864 412.733 712.157 414.227 713.971 415.56C715.784 416.893 717.331 418.547 718.611 420.52C719.891 422.493 720.531 424.76 720.531 427.32C720.531 428.973 720.264 430.627 719.731 432.28C718.451 436.547 715.971 439.8 712.291 442.04C708.611 444.227 704.317 445.32 699.411 445.32C695.731 445.32 692.637 444.893 690.131 444.04C687.624 443.187 685.064 441.747 682.451 439.72L679.571 442.12C678.237 443.24 677.144 444.013 676.291 444.44C675.437 444.813 674.477 445 673.411 445C672.184 445 671.197 444.707 670.451 444.12C669.757 443.533 669.411 442.733 669.411 441.72C669.411 441.187 669.517 440.627 669.731 440.04L673.651 428.12C674.077 426.733 674.664 425.747 675.411 425.16C676.157 424.573 677.117 424.28 678.291 424.28C679.517 424.28 680.611 424.707 681.571 425.56C682.584 426.413 683.891 427.96 685.491 430.2C687.197 432.653 688.771 434.36 690.211 435.32C691.704 436.28 693.464 436.76 695.491 436.76C696.931 436.76 698.024 436.547 698.771 436.12C699.571 435.64 700.131 434.893 700.451 433.88C700.557 433.613 700.611 433.213 700.611 432.68C700.611 431.4 699.997 430.227 698.771 429.16C697.544 428.093 695.651 426.813 693.091 425.32C690.371 423.667 688.157 422.2 686.451 420.92C684.744 419.587 683.251 417.933 681.971 415.96C680.744 413.987 680.131 411.667 680.131 409C680.131 407.133 680.424 405.293 681.011 403.48C682.131 399.8 684.424 396.84 687.891 394.6C691.357 392.36 695.331 391.24 699.811 391.24ZM760.807 403.72C761.82 403.72 762.594 403.933 763.127 404.36C763.714 404.787 764.007 405.373 764.007 406.12C764.007 406.333 763.954 406.707 763.847 407.24C763.154 409.587 761.554 410.76 759.047 410.76H754.407L748.407 430.52C748.14 431.32 748.007 432.147 748.007 433C748.007 433.96 748.274 434.627 748.807 435C749.34 435.373 750.087 435.56 751.047 435.56C751.9 435.56 752.967 435.453 754.247 435.24C754.887 435.08 755.447 435 755.927 435C756.3 435 756.567 435.133 756.727 435.4C756.94 435.613 757.047 435.907 757.047 436.28C757.1 437.347 756.3 438.653 754.647 440.2C753.047 441.693 750.86 443 748.087 444.12C745.314 445.187 742.247 445.72 738.887 445.72C735.26 445.72 732.354 444.893 730.167 443.24C727.98 441.587 726.887 439.32 726.887 436.44C726.887 435.107 727.1 433.827 727.527 432.6L732.647 416.76C732.914 415.853 733.047 415.133 733.047 414.6C733.047 413.533 732.78 412.627 732.247 411.88C731.767 411.133 731.074 410.36 730.167 409.56C729.367 408.813 728.807 408.2 728.487 407.72C728.167 407.187 728.087 406.573 728.247 405.88C728.46 405.187 728.914 404.653 729.607 404.28C730.3 403.907 731.394 403.72 732.887 403.72H737.367L742.407 398.68C744.167 396.92 745.767 395.693 747.207 395C748.7 394.307 750.62 393.96 752.967 393.96C756.327 393.96 758.007 395.24 758.007 397.8C758.007 398.6 757.9 399.347 757.687 400.04L756.567 403.72H760.807ZM798.702 402.68C801.689 402.68 804.062 403.587 805.822 405.4C807.635 407.213 808.542 409.453 808.542 412.12C808.542 413.133 808.435 414.067 808.222 414.92C807.689 417.107 806.675 418.787 805.182 419.96C803.689 421.133 801.902 421.72 799.822 421.72C797.795 421.72 796.249 421.24 795.182 420.28C794.169 419.32 793.262 418.04 792.462 416.44C792.035 415.533 791.635 414.867 791.262 414.44C790.889 414.013 790.462 413.8 789.982 413.8C789.449 413.8 788.969 414.013 788.542 414.44C788.169 414.867 787.822 415.613 787.502 416.68L781.342 436.68C781.235 436.947 781.182 437.347 781.182 437.88C781.182 438.573 781.369 439.16 781.742 439.64C782.169 440.067 782.729 440.493 783.422 440.92C784.062 441.347 784.489 441.693 784.702 441.96C784.915 442.227 784.995 442.573 784.942 443C784.835 443.693 784.435 444.2 783.742 444.52C783.102 444.84 781.982 445 780.382 445H759.902C758.515 445 757.529 444.787 756.942 444.36C756.302 443.88 756.062 443.267 756.222 442.52C756.435 441.88 756.995 441.32 757.902 440.84C758.702 440.413 759.369 439.907 759.902 439.32C760.435 438.733 760.889 437.8 761.262 436.52L768.382 413.4C768.489 413.133 768.542 412.76 768.542 412.28C768.542 411.693 768.409 411.24 768.142 410.92C767.929 410.6 767.555 410.2 767.022 409.72C766.489 409.293 766.115 408.92 765.902 408.6C765.689 408.28 765.662 407.853 765.822 407.32C766.142 406.093 767.822 405.027 770.862 404.12C773.902 403.16 777.075 402.68 780.382 402.68C782.569 402.68 784.382 403.187 785.822 404.2C787.262 405.16 788.195 406.547 788.622 408.36C791.182 404.573 794.542 402.68 798.702 402.68ZM832.87 402.28C839.643 402.28 844.55 403.373 847.59 405.56C850.63 407.693 852.15 410.44 852.15 413.8C852.15 414.813 852.043 415.747 851.83 416.6C851.03 420.12 848.79 422.653 845.11 424.2C841.483 425.693 837.19 426.44 832.23 426.44C829.723 426.44 827.377 426.28 825.19 425.96C825.137 428.733 825.883 430.68 827.43 431.8C828.977 432.92 831.137 433.48 833.91 433.48C835.19 433.48 836.417 433.347 837.59 433.08C838.763 432.76 840.257 432.307 842.07 431.72C843.563 431.187 844.577 430.92 845.11 430.92C845.697 430.92 845.99 431.267 845.99 431.96C846.043 433.827 845.35 435.8 843.91 437.88C842.47 439.907 840.337 441.64 837.51 443.08C834.683 444.52 831.27 445.24 827.27 445.24C821.35 445.24 816.497 443.747 812.71 440.76C808.923 437.773 807.03 433.427 807.03 427.72C807.03 426.12 807.243 424.253 807.67 422.12C809.003 415.56 811.91 410.627 816.39 407.32C820.923 403.96 826.417 402.28 832.87 402.28ZM825.75 421.16C825.963 421.213 826.257 421.24 826.63 421.24C828.87 421.24 830.577 420.2 831.75 418.12C832.923 416.04 833.483 413.72 833.43 411.16C833.377 409.667 832.95 408.92 832.15 408.92C831.563 408.92 830.87 409.4 830.07 410.36C829.27 411.267 828.47 412.653 827.67 414.52C826.923 416.387 826.283 418.6 825.75 421.16ZM879.076 402.68C885.209 402.68 890.116 403.827 893.796 406.12C897.476 408.36 899.316 411.8 899.316 416.44C899.316 418.2 898.996 420.2 898.356 422.44L895.076 433.48C895.022 433.693 894.996 433.96 894.996 434.28C894.996 435.133 895.342 435.56 896.036 435.56C896.676 435.56 897.209 435.293 897.636 434.76C898.116 434.173 898.436 433.88 898.596 433.88C898.862 433.88 899.076 434.067 899.236 434.44C899.449 434.813 899.556 435.24 899.556 435.72C899.609 437.16 899.049 438.627 897.876 440.12C896.756 441.613 895.236 442.84 893.316 443.8C891.396 444.76 889.289 445.24 886.996 445.24C884.222 445.24 881.849 444.733 879.876 443.72C877.902 442.707 876.542 441.213 875.796 439.24C874.196 441.16 872.302 442.653 870.116 443.72C867.929 444.733 865.582 445.24 863.076 445.24C860.249 445.24 857.876 444.707 855.956 443.64C854.036 442.52 852.596 441.107 851.636 439.4C850.729 437.64 850.276 435.8 850.276 433.88C850.276 433.027 850.356 432.2 850.516 431.4C851.369 427.72 853.209 424.947 856.036 423.08C858.916 421.213 862.329 420.28 866.276 420.28C870.702 420.28 875.049 420.973 879.316 422.36L881.316 417.08C882.009 414.84 882.356 413.107 882.356 411.88C882.302 410.6 881.876 409.64 881.076 409C880.276 408.36 879.049 408.04 877.396 408.04C877.716 408.893 877.876 409.773 877.876 410.68C877.876 412.653 877.129 414.36 875.636 415.8C874.142 417.24 872.009 417.96 869.236 417.96C866.622 417.96 864.569 417.4 863.076 416.28C861.636 415.107 860.916 413.667 860.916 411.96C860.916 409.293 862.409 407.08 865.396 405.32C868.382 403.56 872.942 402.68 879.076 402.68ZM874.596 426.92C873.102 426.92 871.876 427.507 870.916 428.68C870.009 429.8 869.556 431.027 869.556 432.36C869.556 433.213 869.742 433.907 870.116 434.44C870.542 434.973 871.129 435.24 871.876 435.24C872.569 435.24 873.316 434.973 874.116 434.44C874.969 433.853 875.582 433 875.956 431.88L877.636 427.16C876.729 427 875.716 426.92 874.596 426.92ZM950.299 402.68C953.339 402.68 955.766 403.533 957.579 405.24C959.446 406.893 960.379 408.92 960.379 411.32C960.379 413.88 959.606 415.88 958.059 417.32C956.513 418.76 954.486 419.48 951.979 419.48C949.739 419.48 948.006 418.92 946.779 417.8C945.553 416.627 944.966 415.32 945.019 413.88C944.486 413.773 944.033 413.987 943.659 414.52C943.286 415.053 942.886 416.093 942.459 417.64C942.193 418.653 941.686 419.587 940.939 420.44C944.566 420.707 947.259 421.533 949.019 422.92C950.779 424.307 951.659 426.093 951.659 428.28C951.659 429.347 951.473 430.413 951.099 431.48L950.459 433.96C950.353 434.227 950.299 434.573 950.299 435C950.299 435.747 950.646 436.12 951.339 436.12C951.979 436.12 952.513 435.853 952.939 435.32C953.419 434.733 953.739 434.44 953.899 434.44C954.166 434.44 954.379 434.627 954.539 435C954.699 435.32 954.779 435.72 954.779 436.2C954.833 437.747 954.353 439.267 953.339 440.76C952.379 442.2 950.886 443.4 948.859 444.36C946.886 445.267 944.486 445.72 941.659 445.72C938.246 445.72 935.393 444.867 933.099 443.16C930.859 441.453 929.739 439.213 929.739 436.44C929.739 435.427 929.953 434.28 930.379 433L931.899 429C932.166 428.04 932.299 427.347 932.299 426.92C932.299 426.227 932.059 425.72 931.579 425.4C931.153 425.08 930.459 424.92 929.499 424.92H927.899L924.299 436.68C924.139 437.32 924.059 437.88 924.059 438.36C924.059 439.053 924.193 439.613 924.459 440.04C924.726 440.413 925.099 440.787 925.579 441.16C925.953 441.533 926.219 441.853 926.379 442.12C926.539 442.333 926.566 442.627 926.459 443C926.193 443.693 925.659 444.2 924.859 444.52C924.059 444.84 922.833 445 921.179 445H902.939C901.553 445 900.539 444.787 899.899 444.36C899.259 443.88 899.046 443.267 899.259 442.52C899.473 441.88 900.033 441.32 900.939 440.84C901.739 440.413 902.406 439.907 902.939 439.32C903.473 438.733 903.926 437.8 904.299 436.52L916.459 396.6C916.619 396.12 916.699 395.72 916.699 395.4C916.699 394.813 916.539 394.333 916.219 393.96C915.953 393.587 915.579 393.213 915.099 392.84C914.566 392.413 914.166 392.04 913.899 391.72C913.686 391.4 913.659 390.973 913.819 390.44C914.139 389.213 915.819 388.147 918.859 387.24C921.899 386.333 925.073 385.88 928.379 385.88C931.473 385.88 933.739 386.467 935.179 387.64C936.619 388.76 937.339 390.333 937.339 392.36C937.339 393.587 937.153 394.76 936.779 395.88L929.819 418.6H932.459C933.526 418.6 934.379 418.28 935.019 417.64C935.713 417 936.246 416.067 936.619 414.84C937.953 410.893 939.686 407.88 941.819 405.8C943.953 403.72 946.779 402.68 950.299 402.68Z" fill="url(#paint3_linear_81_67)"/>
<circle cx="243" cy="601" r="60" fill="url(#paint4_radial_81_67)"/>
<circle cx="243" cy="1105" r="60" fill="url(#paint5_radial_81_67)"/>
<circle cx="243" cy="937" r="60" fill="url(#paint6_radial_81_67)"/>
<circle cx="243" cy="769" r="60" fill="url(#paint7_radial_81_67)"/>
<circle cx="903" cy="601" r="60" fill="url(#paint8_radial_81_67)"/>
<circle cx="903" cy="1105" r="60" fill="url(#paint9_radial_81_67)"/>
<circle cx="903" cy="937" r="60" fill="url(#paint10_radial_81_67)"/>
<circle cx="903" cy="769" r="60" fill="url(#paint11_radial_81_67)"/>
<circle cx="683" cy="601" r="60" fill="url(#paint12_radial_81_67)"/>
<circle cx="683" cy="1105" r="60" fill="url(#paint13_radial_81_67)"/>
<circle cx="683" cy="937" r="60" fill="url(#paint14_radial_81_67)"/>
<circle cx="683" cy="769" r="60" fill="url(#paint15_radial_81_67)"/>
<circle cx="463" cy="601" r="60" fill="url(#paint16_radial_81_67)"/>
<circle cx="463" cy="1105" r="60" fill="url(#paint17_radial_81_67)"/>
<circle cx="463" cy="937" r="60" fill="url(#paint18_radial_81_67)"/>
<circle cx="463" cy="769" r="60" fill="url(#paint19_radial_81_67)"/>
<defs>
<linearGradient id="paint0_linear_81_67" x1="573" y1="0" x2="573" y2="1294" gradientUnits="userSpaceOnUse">
<stop stop-color="#C349B7" stop-opacity="0.1875"/>
<stop offset="0.151042" stop-color="#D382C1" stop-opacity="0.848958"/>
<stop offset="0.291667" stop-color="#D3D490" stop-opacity="0.708333"/>
<stop offset="0.463542" stop-color="#74D963" stop-opacity="0.536458"/>
<stop offset="0.651042" stop-color="#4EAEB5" stop-opacity="0.348958"/>
<stop offset="0.765625" stop-color="#9D65C9" stop-opacity="0.234375"/>
<stop offset="0.9999" stop-color="#C449B7" stop-opacity="0.1875"/>
<stop offset="1" stop-color="#D9D9D9" stop-opacity="0"/>
</linearGradient>
<linearGradient id="paint1_linear_81_67" x1="573" y1="165" x2="573" y2="1129" gradientUnits="userSpaceOnUse">
<stop stop-color="#E4B028" stop-opacity="0.5"/>
<stop offset="0.203125" stop-color="#E4B028" stop-opacity="0.3"/>
<stop offset="0.385417" stop-color="#E4B028" stop-opacity="0.3"/>
<stop offset="0.536458" stop-color="#E4B028" stop-opacity="0.75"/>
<stop offset="0.6875" stop-color="#E4B028" stop-opacity="0.6"/>
<stop offset="0.786458" stop-color="#E4B028" stop-opacity="0.75"/>
<stop offset="0.942708" stop-color="#E4B028" stop-opacity="0.4"/>
</linearGradient>
<linearGradient id="paint2_linear_81_67" x1="595" y1="129" x2="595" y2="479" gradientUnits="userSpaceOnUse">
<stop stop-color="#DDE4AD"/>
<stop offset="1" stop-color="#DDE4AD" stop-opacity="0"/>
</linearGradient>
<linearGradient id="paint3_linear_81_67" x1="595" y1="129" x2="595" y2="479" gradientUnits="userSpaceOnUse">
<stop stop-color="#DDE4AD" stop-opacity="0.745902"/>
<stop offset="0.166667" stop-color="#DDE4AD"/>
<stop offset="0.4" stop-color="#DDE4AD"/>
<stop offset="0.6" stop-color="#DDE4AD"/>
<stop offset="0.8" stop-color="#DDE4AD"/>
<stop offset="1" stop-color="#DDE4AD" stop-opacity="0"/>
</linearGradient>
<radialGradient id="paint4_radial_81_67" cx="0" cy="0" r="1" gradientUnits="userSpaceOnUse" gradientTransform="translate(243 601) rotate(90) scale(104 305.067)">
<stop offset="0.104167" stop-color="#C0C0C0"/>
<stop offset="0.244792" stop-color="#C7C7C7" stop-opacity="0.843023"/>
<stop offset="0.354167" stop-color="#CDCDCD" stop-opacity="0.72093"/>
<stop offset="0.432292" stop-color="#D1D1D1" stop-opacity="0.633721"/>
<stop offset="0.552083" stop-color="#D7D7D7" stop-opacity="0.5"/>
<stop offset="1" stop-color="#C0C0C0" stop-opacity="0"/>
</radialGradient>
<radialGradient id="paint5_radial_81_67" cx="0" cy="0" r="1" gradientUnits="userSpaceOnUse" gradientTransform="translate(243 1105) rotate(90) scale(104 305.067)">
<stop offset="0.104167" stop-color="#C0C0C0"/>
<stop offset="0.244792" stop-color="#C7C7C7" stop-opacity="0.843023"/>
<stop offset="0.354167" stop-color="#CDCDCD" stop-opacity="0.72093"/>
<stop offset="0.432292" stop-color="#D1D1D1" stop-opacity="0.633721"/>
<stop offset="0.552083" stop-color="#D7D7D7" stop-opacity="0.5"/>
<stop offset="1" stop-color="#C0C0C0" stop-opacity="0"/>
</radialGradient>
<radialGradient id="paint6_radial_81_67" cx="0" cy="0" r="1" gradientUnits="userSpaceOnUse" gradientTransform="translate(243 937) rotate(90) scale(104 305.067)">
<stop offset="0.104167" stop-color="#C0C0C0"/>
<stop offset="0.244792" stop-color="#C7C7C7" stop-opacity="0.843023"/>
<stop offset="0.354167" stop-color="#CDCDCD" stop-opacity="0.72093"/>
<stop offset="0.432292" stop-color="#D1D1D1" stop-opacity="0.633721"/>
<stop offset="0.552083" stop-color="#D7D7D7" stop-opacity="0.5"/>
<stop offset="1" stop-color="#C0C0C0" stop-opacity="0"/>
</radialGradient>
<radialGradient id="paint7_radial_81_67" cx="0" cy="0" r="1" gradientUnits="userSpaceOnUse" gradientTransform="translate(243 769) rotate(90) scale(104 305.067)">
<stop offset="0.104167" stop-color="#C0C0C0"/>
<stop offset="0.244792" stop-color="#C7C7C7" stop-opacity="0.843023"/>
<stop offset="0.354167" stop-color="#CDCDCD" stop-opacity="0.72093"/>
<stop offset="0.432292" stop-color="#D1D1D1" stop-opacity="0.633721"/>
<stop offset="0.552083" stop-color="#D7D7D7" stop-opacity="0.5"/>
<stop offset="1" stop-color="#C0C0C0" stop-opacity="0"/>
</radialGradient>
<radialGradient id="paint8_radial_81_67" cx="0" cy="0" r="1" gradientUnits="userSpaceOnUse" gradientTransform="translate(903 601) rotate(90) scale(104 305.067)">
<stop offset="0.104167" stop-color="#C0C0C0"/>
<stop offset="0.244792" stop-color="#C7C7C7" stop-opacity="0.843023"/>
<stop offset="0.354167" stop-color="#CDCDCD" stop-opacity="0.72093"/>
<stop offset="0.432292" stop-color="#D1D1D1" stop-opacity="0.633721"/>
<stop offset="0.552083" stop-color="#D7D7D7" stop-opacity="0.5"/>
<stop offset="1" stop-color="#C0C0C0" stop-opacity="0"/>
</radialGradient>
<radialGradient id="paint9_radial_81_67" cx="0" cy="0" r="1" gradientUnits="userSpaceOnUse" gradientTransform="translate(903 1105) rotate(90) scale(104 305.067)">
<stop offset="0.104167" stop-color="#C0C0C0"/>
<stop offset="0.244792" stop-color="#C7C7C7" stop-opacity="0.843023"/>
<stop offset="0.354167" stop-color="#CDCDCD" stop-opacity="0.72093"/>
<stop offset="0.432292" stop-color="#D1D1D1" stop-opacity="0.633721"/>
<stop offset="0.552083" stop-color="#D7D7D7" stop-opacity="0.5"/>
<stop offset="1" stop-color="#C0C0C0" stop-opacity="0"/>
</radialGradient>
<radialGradient id="paint10_radial_81_67" cx="0" cy="0" r="1" gradientUnits="userSpaceOnUse" gradientTransform="translate(903 937) rotate(90) scale(104 305.067)">
<stop offset="0.104167" stop-color="#C0C0C0"/>
<stop offset="0.244792" stop-color="#C7C7C7" stop-opacity="0.843023"/>
<stop offset="0.354167" stop-color="#CDCDCD" stop-opacity="0.72093"/>
<stop offset="0.432292" stop-color="#D1D1D1" stop-opacity="0.633721"/>
<stop offset="0.552083" stop-color="#D7D7D7" stop-opacity="0.5"/>
<stop offset="1" stop-color="#C0C0C0" stop-opacity="0"/>
</radialGradient>
<radialGradient id="paint11_radial_81_67" cx="0" cy="0" r="1" gradientUnits="userSpaceOnUse" gradientTransform="translate(903 769) rotate(90) scale(104 305.067)">
<stop offset="0.104167" stop-color="#C0C0C0"/>
<stop offset="0.244792" stop-color="#C7C7C7" stop-opacity="0.843023"/>
<stop offset="0.354167" stop-color="#CDCDCD" stop-opacity="0.72093"/>
<stop offset="0.432292" stop-color="#D1D1D1" stop-opacity="0.633721"/>
<stop offset="0.552083" stop-color="#D7D7D7" stop-opacity="0.5"/>
<stop offset="1" stop-color="#C0C0C0" stop-opacity="0"/>
</radialGradient>
<radialGradient id="paint12_radial_81_67" cx="0" cy="0" r="1" gradientUnits="userSpaceOnUse" gradientTransform="translate(683 601) rotate(90) scale(104 305.067)">
<stop offset="0.104167" stop-color="#C0C0C0"/>
<stop offset="0.244792" stop-color="#C7C7C7" stop-opacity="0.843023"/>
<stop offset="0.354167" stop-color="#CDCDCD" stop-opacity="0.72093"/>
<stop offset="0.432292" stop-color="#D1D1D1" stop-opacity="0.633721"/>
<stop offset="0.552083" stop-color="#D7D7D7" stop-opacity="0.5"/>
<stop offset="1" stop-color="#C0C0C0" stop-opacity="0"/>
</radialGradient>
<radialGradient id="paint13_radial_81_67" cx="0" cy="0" r="1" gradientUnits="userSpaceOnUse" gradientTransform="translate(683 1105) rotate(90) scale(104 305.067)">
<stop offset="0.104167" stop-color="#C0C0C0"/>
<stop offset="0.244792" stop-color="#C7C7C7" stop-opacity="0.843023"/>
<stop offset="0.354167" stop-color="#CDCDCD" stop-opacity="0.72093"/>
<stop offset="0.432292" stop-color="#D1D1D1" stop-opacity="0.633721"/>
<stop offset="0.552083" stop-color="#D7D7D7" stop-opacity="0.5"/>
<stop offset="1" stop-color="#C0C0C0" stop-opacity="0"/>
</radialGradient>
<radialGradient id="paint14_radial_81_67" cx="0" cy="0" r="1" gradientUnits="userSpaceOnUse" gradientTransform="translate(683 937) rotate(90) scale(104 305.067)">
<stop offset="0.104167" stop-color="#C0C0C0"/>
<stop offset="0.244792" stop-color="#C7C7C7" stop-opacity="0.843023"/>
<stop offset="0.354167" stop-color="#CDCDCD" stop-opacity="0.72093"/>
<stop offset="0.432292" stop-color="#D1D1D1" stop-opacity="0.633721"/>
<stop offset="0.552083" stop-color="#D7D7D7" stop-opacity="0.5"/>
<stop offset="1" stop-color="#C0C0C0" stop-opacity="0"/>
</radialGradient>
<radialGradient id="paint15_radial_81_67" cx="0" cy="0" r="1" gradientUnits="userSpaceOnUse" gradientTransform="translate(683 769) rotate(90) scale(104 305.067)">
<stop offset="0.104167" stop-color="#C0C0C0"/>
<stop offset="0.244792" stop-color="#C7C7C7" stop-opacity="0.843023"/>
<stop offset="0.354167" stop-color="#CDCDCD" stop-opacity="0.72093"/>
<stop offset="0.432292" stop-color="#D1D1D1" stop-opacity="0.633721"/>
<stop offset="0.552083" stop-color="#D7D7D7" stop-opacity="0.5"/>
<stop offset="1" stop-color="#C0C0C0" stop-opacity="0"/>
</radialGradient>
<radialGradient id="paint16_radial_81_67" cx="0" cy="0" r="1" gradientUnits="userSpaceOnUse" gradientTransform="translate(463 601) rotate(90) scale(104 305.067)">
<stop offset="0.104167" stop-color="#C0C0C0"/>
<stop offset="0.244792" stop-color="#C7C7C7" stop-opacity="0.843023"/>
<stop offset="0.354167" stop-color="#CDCDCD" stop-opacity="0.72093"/>
<stop offset="0.432292" stop-color="#D1D1D1" stop-opacity="0.633721"/>
<stop offset="0.552083" stop-color="#D7D7D7" stop-opacity="0.5"/>
<stop offset="1" stop-color="#C0C0C0" stop-opacity="0"/>
</radialGradient>
<radialGradient id="paint17_radial_81_67" cx="0" cy="0" r="1" gradientUnits="userSpaceOnUse" gradientTransform="translate(463 1105) rotate(90) scale(104 305.067)">
<stop offset="0.104167" stop-color="#C0C0C0"/>
<stop offset="0.244792" stop-color="#C7C7C7" stop-opacity="0.843023"/>
<stop offset="0.354167" stop-color="#CDCDCD" stop-opacity="0.72093"/>
<stop offset="0.432292" stop-color="#D1D1D1" stop-opacity="0.633721"/>
<stop offset="0.552083" stop-color="#D7D7D7" stop-opacity="0.5"/>
<stop offset="1" stop-color="#C0C0C0" stop-opacity="0"/>
</radialGradient>
<radialGradient id="paint18_radial_81_67" cx="0" cy="0" r="1" gradientUnits="userSpaceOnUse" gradientTransform="translate(463 937) rotate(90) scale(104 305.067)">
<stop offset="0.104167" stop-color="#C0C0C0"/>
<stop offset="0.244792" stop-color="#C7C7C7" stop-opacity="0.843023"/>
<stop offset="0.354167" stop-color="#CDCDCD" stop-opacity="0.72093"/>
<stop offset="0.432292" stop-color="#D1D1D1" stop-opacity="0.633721"/>
<stop offset="0.552083" stop-color="#D7D7D7" stop-opacity="0.5"/>
<stop offset="1" stop-color="#C0C0C0" stop-opacity="0"/>
</radialGradient>
<radialGradient id="paint19_radial_81_67" cx="0" cy="0" r="1" gradientUnits="userSpaceOnUse" gradientTransform="translate(463 769) rotate(90) scale(104 305.067)">
<stop offset="0.104167" stop-color="#C0C0C0"/>
<stop offset="0.244792" stop-color="#C7C7C7" stop-opacity="0.843023"/>
<stop offset="0.354167" stop-color="#CDCDCD" stop-opacity="0.72093"/>
<stop offset="0.432292" stop-color="#D1D1D1" stop-opacity="0.633721"/>
<stop offset="0.552083" stop-color="#D7D7D7" stop-opacity="0.5"/>
<stop offset="1" stop-color="#C0C0C0" stop-opacity="0"/>
</radialGradient>
</defs>
</svg>
