<svg width="2298" height="1152" viewBox="0 0 2298 1152" fill="none" xmlns="http://www.w3.org/2000/svg">
<g filter="url(#filter0_di_106_54)">
<rect x="4" width="2290" height="1144" fill="#E2E5F0"/>
<rect x="19" y="15" width="2260" height="1114" stroke="#7A699D" stroke-opacity="0.74" stroke-width="30"/>
</g>
<g filter="url(#filter1_di_106_54)">
<path d="M236.7 649H203.4V640H213.9V608.8C208.3 599.5 202.75 590.2 197.25 580.9C191.75 571.6 186.25 562.3 180.75 553H167.25V544H200.55V553H192.15C196.55 560.2 200.85 567.35 205.05 574.45C209.35 581.55 213.65 588.7 217.95 595.9L219.6 600.25H219.75L221.55 595.9L246.9 553H238.65V544H271.95V553H258.45C252.95 562.4 247.45 571.75 241.95 581.05C236.45 590.35 230.95 599.65 225.45 608.95V640H236.7V649Z" fill="#8B6868" fill-opacity="0.43" shape-rendering="crispEdges"/>
</g>
<g filter="url(#filter2_di_106_54)">
<path d="M271.5 849V949.8L191.7 861.3L188.85 857.7L189.3 862.2V936H200.55V945H167.25V936H179.85V849H167.25V840H184.05L259.65 924.9L262.5 928.8L262.05 924V849H250.95V840H284.4V849H271.5Z" fill="#8B6868" fill-opacity="0.43" shape-rendering="crispEdges"/>
</g>
<g filter="url(#filter3_di_106_54)">
<line x1="1838" y1="348" x2="2090" y2="348" stroke="#8B6868" stroke-opacity="0.43" stroke-width="8" shape-rendering="crispEdges"/>
</g>
<g filter="url(#filter4_di_106_54)">
<line x1="354" y1="670" x2="2104" y2="670" stroke="#8B6868" stroke-opacity="0.43" stroke-width="8" shape-rendering="crispEdges"/>
</g>
<g filter="url(#filter5_di_106_54)">
<line x1="360" y1="964" x2="2110" y2="964" stroke="#8B6868" stroke-opacity="0.43" stroke-width="8" shape-rendering="crispEdges"/>
</g>
<path d="M1833.47 206.016C1834.48 208.021 1835.75 209.661 1837.3 210.938C1838.94 212.122 1840.54 213.353 1842.09 214.629C1844 218.184 1845.18 222.148 1845.64 226.523C1846.1 230.898 1846.6 235.684 1847.14 240.879C1847.14 245.072 1846.87 249.036 1846.32 252.773C1845.78 256.419 1845.05 260.02 1844.14 263.574C1843.32 267.038 1842.36 270.501 1841.27 273.965C1840.17 277.428 1839.12 281.074 1838.12 284.902C1836.85 286.27 1835.84 288.229 1835.11 290.781C1834.48 293.242 1834.43 295.658 1834.98 298.027C1833.79 299.486 1832.61 300.898 1831.42 302.266C1830.24 303.633 1828.92 304.909 1827.46 306.094C1826.91 305.547 1826.18 305.228 1825.27 305.137C1824.45 305.137 1823.58 305.137 1822.67 305.137C1821.76 305.228 1820.89 305.319 1820.07 305.41C1819.35 305.592 1818.8 305.638 1818.43 305.547C1817.98 304.818 1817.34 304.043 1816.52 303.223C1815.79 302.402 1815.11 301.536 1814.47 300.625C1813.92 299.714 1813.47 298.848 1813.1 298.027C1812.83 297.116 1812.92 296.25 1813.38 295.43C1813.38 294.427 1812.83 293.926 1811.73 293.926C1812.01 289.733 1812.69 285.632 1813.79 281.621C1814.88 277.52 1816.11 273.555 1817.48 269.727C1818.84 265.807 1820.17 261.934 1821.44 258.105C1822.81 254.277 1823.81 250.495 1824.45 246.758C1825.18 243.021 1825.36 239.284 1825 235.547C1824.72 231.81 1823.67 228.027 1821.85 224.199C1821.85 222.923 1821.81 221.875 1821.71 221.055C1821.71 220.143 1821.67 219.368 1821.58 218.73C1821.58 218.001 1821.53 217.318 1821.44 216.68C1821.35 216.042 1821.17 215.358 1820.89 214.629C1821.35 213.353 1821.67 212.168 1821.85 211.074C1822.12 209.98 1822.12 208.978 1821.85 208.066C1821.94 207.428 1822.12 206.927 1822.4 206.562C1822.67 206.107 1822.99 205.697 1823.36 205.332C1823.72 204.876 1824.04 204.466 1824.31 204.102C1824.68 203.646 1824.9 203.099 1825 202.461H1828C1829.01 203.281 1829.87 204.056 1830.6 204.785C1831.33 205.423 1832.29 205.833 1833.47 206.016ZM1884.74 307.324C1881.19 307.871 1877.91 307.689 1874.9 306.777C1871.89 305.866 1869.2 304.408 1866.83 302.402C1864.55 300.397 1862.55 298.027 1860.82 295.293C1859.08 292.559 1857.67 289.642 1856.58 286.543C1855.85 280.072 1856.08 274.193 1857.26 268.906C1858.45 263.62 1860.13 258.743 1862.32 254.277C1864.6 249.811 1867.15 245.664 1869.98 241.836C1872.8 237.917 1875.54 234.18 1878.18 230.625C1878.73 230.898 1879.18 230.898 1879.55 230.625C1879.91 230.26 1880.23 229.85 1880.5 229.395C1880.87 228.939 1881.19 228.483 1881.46 228.027C1881.83 227.572 1882.28 227.253 1882.83 227.07C1883.19 226.25 1883.65 225.566 1884.2 225.02C1884.74 224.382 1885.29 223.789 1885.84 223.242C1886.47 222.695 1887.07 222.148 1887.61 221.602C1888.16 221.055 1888.62 220.371 1888.98 219.551C1889.8 219.368 1890.53 219.049 1891.17 218.594C1891.81 218.047 1892.4 217.5 1892.95 216.953C1893.49 216.406 1894.04 215.905 1894.59 215.449C1895.22 214.902 1895.95 214.492 1896.77 214.219V212.441C1898.6 211.439 1899.92 210.391 1900.74 209.297C1901.56 208.112 1902.56 206.654 1903.75 204.922C1904.66 204.74 1905.39 204.694 1905.93 204.785C1906.48 204.785 1907.26 204.694 1908.26 204.512C1909.08 202.962 1909.81 201.777 1910.45 200.957C1911.08 200.137 1912.04 199.225 1913.32 198.223C1914.5 198.952 1915.82 199.453 1917.28 199.727C1918.74 199.909 1919.97 200.592 1920.97 201.777C1921.06 202.962 1921.34 203.874 1921.79 204.512C1922.34 205.15 1922.93 205.742 1923.57 206.289C1924.21 206.745 1924.8 207.292 1925.35 207.93C1925.89 208.477 1926.26 209.251 1926.44 210.254C1926.81 210.254 1927.03 210.163 1927.12 209.98C1927.31 209.798 1927.58 209.753 1927.95 209.844C1928.13 210.664 1928.31 211.302 1928.49 211.758C1928.67 212.214 1928.86 212.669 1929.04 213.125C1929.22 213.49 1929.4 213.9 1929.59 214.355C1929.86 214.72 1930.09 215.267 1930.27 215.996C1929.81 217.09 1929.4 218.275 1929.04 219.551C1928.77 220.827 1928.13 221.693 1927.12 222.148C1927.12 222.878 1927.35 223.288 1927.81 223.379C1928.36 223.47 1928.67 223.835 1928.77 224.473C1928.77 225.384 1928.63 226.113 1928.36 226.66C1930.73 231.126 1932.82 235.82 1934.64 240.742C1936.56 245.573 1938.7 250.176 1941.07 254.551C1940.89 255.918 1940.93 257.24 1941.21 258.516C1941.57 259.792 1941.94 261.068 1942.3 262.344C1942.76 263.529 1943.17 264.714 1943.53 265.898C1943.99 267.083 1944.31 268.314 1944.49 269.59C1944.67 271.23 1944.67 273.008 1944.49 274.922C1944.4 276.745 1944.08 278.522 1943.53 280.254C1943.08 281.986 1942.44 283.581 1941.62 285.039C1940.8 286.497 1939.84 287.591 1938.75 288.32C1938.56 288.229 1938.06 288.503 1937.24 289.141C1936.42 289.688 1935.46 290.417 1934.37 291.328C1933.37 292.24 1932.32 293.242 1931.23 294.336C1930.13 295.43 1929.18 296.387 1928.36 297.207C1927.26 297.936 1926.03 298.483 1924.66 298.848C1923.39 299.121 1922.07 299.44 1920.7 299.805C1919.61 300.534 1918.28 301.309 1916.73 302.129C1915.28 302.858 1913.73 303.496 1912.09 304.043C1910.54 304.59 1908.99 305 1907.44 305.273C1905.89 305.638 1904.52 305.729 1903.34 305.547C1900.33 306.823 1897.41 307.643 1894.59 308.008C1891.85 308.464 1888.57 308.236 1884.74 307.324ZM1887.75 255.645C1887.02 257.832 1886.15 259.792 1885.15 261.523C1884.15 263.255 1883.15 265.033 1882.14 266.855C1881.23 268.678 1880.41 270.638 1879.68 272.734C1879.05 274.74 1878.68 277.109 1878.59 279.844C1880.05 281.393 1881.78 282.35 1883.79 282.715C1885.88 283.079 1887.98 283.125 1890.07 282.852C1892.26 282.578 1894.4 282.214 1896.5 281.758C1898.6 281.302 1900.51 281.029 1902.24 280.938C1902.24 280.117 1902.56 279.753 1903.2 279.844C1906.21 279.479 1909.03 278.385 1911.68 276.562C1914.41 274.648 1917.24 272.734 1920.15 270.82C1920.52 269.635 1920.97 268.633 1921.52 267.812C1922.16 266.992 1922.48 265.807 1922.48 264.258C1922.11 263.255 1921.88 262.526 1921.79 262.07C1921.7 261.523 1921.66 260.658 1921.66 259.473C1919.74 256.009 1918.06 252.272 1916.6 248.262C1915.23 244.16 1913.64 240.378 1911.81 236.914C1911.63 237.37 1911.31 237.826 1910.86 238.281C1910.4 238.737 1909.9 238.646 1909.35 238.008C1908.9 239.831 1908.08 240.651 1906.89 240.469C1905.8 240.286 1904.75 239.74 1903.75 238.828C1901.19 241.471 1898.64 244.069 1896.09 246.621C1893.54 249.082 1891.26 251.953 1889.25 255.234C1888.89 255.508 1888.66 255.599 1888.57 255.508C1888.48 255.326 1888.21 255.371 1887.75 255.645ZM1989.88 228.301C1991.52 227.116 1993.3 225.202 1995.21 222.559C1997.12 219.824 1999.13 217.135 2001.23 214.492C2003.41 211.849 2005.6 209.57 2007.79 207.656C2010.07 205.651 2012.35 204.785 2014.62 205.059C2016.08 208.34 2016.86 211.621 2016.95 214.902C2017.04 218.092 2016.72 221.738 2015.99 225.84C2015.17 226.842 2013.99 228.21 2012.44 229.941C2010.89 231.673 2009.16 233.633 2007.24 235.82C2005.42 237.917 2003.51 240.104 2001.5 242.383C1999.49 244.661 1997.58 246.849 1995.76 248.945C1994.03 251.042 1992.48 252.956 1991.11 254.688C1989.83 256.419 1988.97 257.786 1988.51 258.789C1987.24 260.156 1985.5 262.07 1983.32 264.531C1981.22 266.992 1979.03 269.59 1976.75 272.324C1974.48 275.059 1972.24 277.747 1970.05 280.391C1967.96 282.943 1966.23 285.085 1964.86 286.816C1964.77 287.272 1964.9 287.682 1965.27 288.047C1965.63 288.411 1965.91 288.822 1966.09 289.277C1965.09 290.189 1964.49 291.055 1964.31 291.875C1964.13 292.604 1964.08 293.379 1964.18 294.199C1964.27 295.02 1964.4 295.84 1964.59 296.66C1964.77 297.389 1964.81 298.21 1964.72 299.121C1964.08 299.668 1963.54 300.306 1963.08 301.035C1962.72 301.764 1962.31 302.493 1961.85 303.223C1961.49 303.861 1960.99 304.499 1960.35 305.137C1959.8 305.775 1959.07 306.322 1958.16 306.777C1956.25 306.595 1954.7 306.322 1953.51 305.957C1952.33 305.684 1950.91 305.41 1949.27 305.137C1947.72 303.861 1946.68 302.311 1946.13 300.488C1945.58 298.574 1945.35 296.66 1945.45 294.746C1945.45 292.741 1945.67 290.781 1946.13 288.867C1946.49 286.862 1946.9 285.13 1947.36 283.672C1948.36 283.034 1948.41 282.578 1947.5 282.305C1947.86 281.029 1948.5 279.98 1949.41 279.16C1950.32 278.249 1950.78 277.474 1950.78 276.836C1951.42 275.833 1952.65 274.329 1954.47 272.324C1956.29 270.228 1958.25 267.995 1960.35 265.625C1962.54 263.255 1964.63 260.977 1966.64 258.789C1968.64 256.51 1970.19 254.733 1971.29 253.457C1971.83 251.999 1973.06 250.13 1974.98 247.852C1976.98 245.482 1979.03 243.066 1981.13 240.605C1983.32 238.145 1985.28 235.82 1987.01 233.633C1988.83 231.445 1989.79 229.668 1989.88 228.301ZM2030.89 206.016C2031.9 208.021 2033.17 209.661 2034.72 210.938C2036.36 212.122 2037.96 213.353 2039.51 214.629C2041.42 218.184 2042.61 222.148 2043.06 226.523C2043.52 230.898 2044.02 235.684 2044.57 240.879C2044.57 245.072 2044.29 249.036 2043.75 252.773C2043.2 256.419 2042.47 260.02 2041.56 263.574C2040.74 267.038 2039.78 270.501 2038.69 273.965C2037.59 277.428 2036.55 281.074 2035.54 284.902C2034.27 286.27 2033.26 288.229 2032.54 290.781C2031.9 293.242 2031.85 295.658 2032.4 298.027C2031.21 299.486 2030.03 300.898 2028.84 302.266C2027.66 303.633 2026.34 304.909 2024.88 306.094C2024.33 305.547 2023.6 305.228 2022.69 305.137C2021.87 305.137 2021.01 305.137 2020.09 305.137C2019.18 305.228 2018.32 305.319 2017.5 305.41C2016.77 305.592 2016.22 305.638 2015.86 305.547C2015.4 304.818 2014.76 304.043 2013.94 303.223C2013.21 302.402 2012.53 301.536 2011.89 300.625C2011.34 299.714 2010.89 298.848 2010.52 298.027C2010.25 297.116 2010.34 296.25 2010.8 295.43C2010.8 294.427 2010.25 293.926 2009.16 293.926C2009.43 289.733 2010.11 285.632 2011.21 281.621C2012.3 277.52 2013.53 273.555 2014.9 269.727C2016.27 265.807 2017.59 261.934 2018.86 258.105C2020.23 254.277 2021.23 250.495 2021.87 246.758C2022.6 243.021 2022.78 239.284 2022.42 235.547C2022.14 231.81 2021.1 228.027 2019.27 224.199C2019.27 222.923 2019.23 221.875 2019.14 221.055C2019.14 220.143 2019.09 219.368 2019 218.73C2019 218.001 2018.95 217.318 2018.86 216.68C2018.77 216.042 2018.59 215.358 2018.32 214.629C2018.77 213.353 2019.09 212.168 2019.27 211.074C2019.55 209.98 2019.55 208.978 2019.27 208.066C2019.36 207.428 2019.55 206.927 2019.82 206.562C2020.09 206.107 2020.41 205.697 2020.78 205.332C2021.14 204.876 2021.46 204.466 2021.73 204.102C2022.1 203.646 2022.33 203.099 2022.42 202.461H2025.43C2026.43 203.281 2027.29 204.056 2028.02 204.785C2028.75 205.423 2029.71 205.833 2030.89 206.016ZM2137.81 213.125C2138.36 213.854 2138.9 214.766 2139.45 215.859C2140 216.953 2140.04 217.956 2139.59 218.867C2141.23 220.508 2142.5 222.513 2143.41 224.883C2144.42 227.253 2144.33 229.85 2143.14 232.676C2141.04 233.405 2139.18 233.997 2137.54 234.453C2135.99 234.818 2134.3 235.273 2132.48 235.82C2129.01 236.003 2126.83 236.139 2125.91 236.23C2125.09 236.322 2124.46 236.413 2124 236.504C2123.54 236.595 2122.82 236.777 2121.81 237.051C2120.9 237.233 2118.85 237.552 2115.66 238.008C2115.66 237.643 2115.61 237.415 2115.52 237.324C2115.52 237.233 2115.43 237.233 2115.25 237.324C2115.16 237.415 2115.02 237.507 2114.84 237.598C2114.75 237.689 2114.57 237.689 2114.29 237.598C2112.47 238.236 2110.65 238.737 2108.82 239.102C2107 239.375 2105.18 239.648 2103.36 239.922C2101.53 240.195 2099.71 240.56 2097.89 241.016C2096.06 241.38 2094.2 242.018 2092.28 242.93C2092.46 243.385 2092.74 243.75 2093.1 244.023C2093.47 244.206 2093.83 244.434 2094.2 244.707C2094.65 244.889 2095.06 245.117 2095.43 245.391C2095.79 245.664 2096.06 246.029 2096.25 246.484C2098.8 247.122 2100.89 248.171 2102.54 249.629C2104.27 250.996 2105.82 252.591 2107.18 254.414C2108.55 256.146 2109.87 257.923 2111.15 259.746C2112.42 261.569 2113.93 263.21 2115.66 264.668C2115.66 265.215 2115.8 265.625 2116.07 265.898C2116.34 266.172 2116.39 266.673 2116.21 267.402C2117.85 269.499 2119.12 272.005 2120.04 274.922C2120.95 277.839 2121.13 281.211 2120.58 285.039C2119.4 287.956 2117.98 290.462 2116.34 292.559C2114.7 294.564 2112.56 296.66 2109.92 298.848C2107.82 299.759 2105.77 300.488 2103.77 301.035C2101.76 301.491 2099.98 302.22 2098.43 303.223C2097.7 302.767 2097.02 302.585 2096.38 302.676C2095.84 302.676 2095.33 302.585 2094.88 302.402C2092.78 303.314 2090.55 303.952 2088.18 304.316C2085.81 304.59 2083.3 304.089 2080.66 302.812C2078.75 302.904 2076.79 302.858 2074.78 302.676C2072.87 302.402 2071.09 301.947 2069.45 301.309C2067.81 300.671 2066.4 299.805 2065.21 298.711C2064.12 297.526 2063.39 296.068 2063.02 294.336C2060.93 292.604 2059.56 290.462 2058.92 287.91C2058.28 285.267 2058.6 282.715 2059.88 280.254C2060.43 280.072 2060.84 279.935 2061.11 279.844C2061.47 279.661 2061.93 279.342 2062.48 278.887C2067.31 279.342 2072.23 279.753 2077.24 280.117C2082.35 280.391 2087.77 279.98 2093.51 278.887C2093.69 278.158 2094.01 277.656 2094.47 277.383C2095.02 277.018 2095.61 276.699 2096.25 276.426C2096.88 276.152 2097.48 275.879 2098.02 275.605C2098.57 275.332 2098.98 274.922 2099.25 274.375C2099.25 273.828 2099.12 273.464 2098.84 273.281C2098.57 273.008 2098.3 272.78 2098.02 272.598C2097.75 272.324 2097.48 272.051 2097.2 271.777C2097.02 271.504 2096.98 271.048 2097.07 270.41C2095.88 270.41 2094.47 270 2092.83 269.18C2091.28 268.359 2090.05 267.448 2089.14 266.445C2085.13 265.716 2081.12 264.349 2077.11 262.344C2073.19 260.339 2069.36 258.47 2065.62 256.738C2064.98 255.645 2064.25 254.642 2063.43 253.73C2062.7 252.728 2061.98 251.725 2061.25 250.723C2060.52 249.629 2059.88 248.535 2059.33 247.441C2058.88 246.348 2058.6 245.163 2058.51 243.887C2058.6 242.428 2058.69 241.061 2058.79 239.785C2058.88 238.418 2058.97 237.096 2059.06 235.82C2059.15 234.453 2059.29 233.086 2059.47 231.719C2059.65 230.26 2059.92 228.711 2060.29 227.07C2064.21 221.693 2069.08 217.181 2074.92 213.535C2080.84 209.798 2086.9 206.745 2093.1 204.375C2094.1 205.378 2095.11 206.471 2096.11 207.656C2097.11 208.75 2098.16 209.798 2099.25 210.801C2100.35 211.803 2101.49 212.669 2102.67 213.398C2103.95 214.128 2105.36 214.538 2106.91 214.629C2107.91 214.355 2108.69 214.173 2109.23 214.082C2109.78 213.991 2110.28 213.945 2110.74 213.945C2111.19 213.945 2111.79 213.945 2112.52 213.945C2113.24 213.945 2114.29 213.854 2115.66 213.672C2117.03 213.49 2118.35 213.398 2119.62 213.398C2120.9 213.398 2122.09 213.353 2123.18 213.262C2125.46 213.079 2127.1 212.897 2128.1 212.715C2129.2 212.533 2129.92 212.396 2130.29 212.305C2130.65 212.214 2130.84 212.168 2130.84 212.168C2130.84 212.077 2130.97 212.077 2131.25 212.168C2131.61 212.168 2132.25 212.259 2133.16 212.441C2134.07 212.624 2135.62 212.852 2137.81 213.125Z" fill="#655555" fill-opacity="0.5"/>
<g filter="url(#filter6_di_106_54)">
<path d="M210.784 286H170.824V275.2H180.364V170.8H170.824V160H208.624C212.584 160 216.904 160.66 221.584 161.98C226.384 163.18 230.824 165.1 234.904 167.74C239.104 170.5 242.584 173.98 245.344 178.18C248.104 182.38 249.484 187.54 249.484 193.66C249.484 204.22 246.184 212.68 239.584 219.04C233.104 225.28 223.684 228.4 211.324 228.4H191.704V275.2H210.784V286ZM191.704 170.8V217.42H208.804C214.444 217.42 219.124 216.64 222.844 215.08C226.684 213.52 229.744 211.6 232.024 209.32C234.184 207.04 235.744 204.52 236.704 201.76C237.664 198.88 238.144 196.18 238.144 193.66C238.144 190.54 237.364 187.66 235.804 185.02C234.364 182.26 232.324 179.8 229.684 177.64C227.044 175.6 223.924 173.98 220.324 172.78C216.844 171.46 213.064 170.8 208.984 170.8H191.704ZM299.494 286H262.054V275.2H275.554V161.8H263.314V151H286.894V275.2H299.494V286ZM347.792 228.04C343.832 228.04 340.232 228.82 336.992 230.38C333.872 231.82 331.172 233.86 328.892 236.5C327.092 238.78 325.712 241.42 324.752 244.42C323.792 247.42 323.492 250.6 323.852 253.96C330.692 251.32 337.472 248.68 344.192 246.04C351.032 243.4 357.872 240.82 364.712 238.3C362.792 235.18 360.392 232.72 357.512 230.92C354.632 229 351.392 228.04 347.792 228.04ZM371.012 277.9C368.012 280.9 364.532 283.24 360.572 284.92C356.732 286.6 352.472 287.44 347.792 287.44C342.872 287.44 338.192 286.54 333.752 284.74C329.432 282.82 325.712 280.3 322.592 277.18C319.352 273.94 316.772 270.22 314.852 266.02C313.052 261.7 312.152 257.08 312.152 252.16C312.152 247.36 313.052 242.8 314.852 238.48C316.772 234.16 319.352 230.38 322.592 227.14C325.712 224.02 329.432 221.56 333.752 219.76C338.192 217.84 342.872 216.88 347.792 216.88C351.512 216.88 355.052 217.6 358.412 219.04C361.772 220.48 364.832 222.4 367.592 224.8C370.232 227.32 372.512 230.26 374.432 233.62C376.472 236.98 378.032 240.64 379.112 244.6C370.352 247.96 361.652 251.32 353.012 254.68C344.372 257.92 335.672 261.22 326.912 264.58C328.952 268.18 331.772 271.06 335.372 273.22C338.972 275.38 343.112 276.46 347.792 276.46C351.032 276.46 354.032 275.92 356.792 274.84C359.552 273.64 361.952 271.96 363.992 269.8L371.012 277.9ZM477.624 286H454.044V280.6C454.044 279.52 454.044 278.56 454.044 277.72C454.044 276.88 454.044 275.92 454.044 274.84C453.564 276.04 452.604 277.36 451.164 278.8C449.844 280.24 448.104 281.56 445.944 282.76C443.664 284.2 441.024 285.34 438.024 286.18C435.144 287.02 431.904 287.44 428.304 287.44C423.264 287.44 418.524 286.54 414.084 284.74C409.764 282.82 406.044 280.24 402.924 277C399.684 273.88 397.104 270.22 395.184 266.02C393.384 261.7 392.484 257.14 392.484 252.34C392.484 247.54 393.384 242.98 395.184 238.66C397.104 234.34 399.684 230.62 402.924 227.5C406.044 224.26 409.764 221.68 414.084 219.76C418.524 217.84 423.264 216.88 428.304 216.88C435.144 216.88 440.784 218.32 445.224 221.2C449.664 224.08 452.604 227.2 454.044 230.56C454.044 228.64 454.104 226.66 454.224 224.62C454.464 222.58 454.644 220.54 454.764 218.5H464.124V275.2H477.624V286ZM428.304 228.04C424.704 228.04 421.344 228.7 418.224 230.02C415.104 231.22 412.524 233.02 410.484 235.42C408.324 237.58 406.704 240.1 405.624 242.98C404.544 245.74 404.004 248.8 404.004 252.16C404.004 255.88 404.724 259.36 406.164 262.6C407.604 265.72 409.644 268.36 412.284 270.52C414.324 272.32 416.664 273.76 419.304 274.84C422.064 275.92 425.064 276.46 428.304 276.46C431.664 276.46 434.784 275.86 437.664 274.66C440.664 273.46 443.244 271.84 445.404 269.8C447.684 267.64 449.484 265.06 450.804 262.06C452.124 258.94 452.784 255.64 452.784 252.16C452.784 248.68 452.124 245.44 450.804 242.44C449.484 239.32 447.684 236.74 445.404 234.7C443.244 232.54 440.664 230.92 437.664 229.84C434.784 228.64 431.664 228.04 428.304 228.04ZM532.518 279.88C530.838 282.04 528.498 283.84 525.498 285.28C522.618 286.72 518.958 287.44 514.518 287.44C510.438 287.44 506.418 286.96 502.458 286C498.618 284.92 495.378 283.06 492.738 280.42V265.84H502.998V273.94C504.798 275.02 506.598 275.68 508.398 275.92C510.318 276.16 512.478 276.28 514.878 276.28C516.198 276.28 517.518 276.1 518.838 275.74C520.158 275.38 521.418 274.78 522.618 273.94C523.458 273.22 524.178 272.32 524.778 271.24C525.378 270.04 525.678 268.6 525.678 266.92C525.678 264.28 524.958 262.3 523.518 260.98C522.198 259.54 520.398 258.4 518.118 257.56C515.838 256.6 513.318 255.76 510.558 255.04C507.918 254.2 505.398 253.12 502.998 251.8C500.718 250.48 498.798 248.68 497.238 246.4C495.678 244 494.898 240.76 494.898 236.68C494.898 233.2 495.558 230.26 496.878 227.86C498.198 225.34 499.878 223.3 501.918 221.74C503.958 220.18 506.238 219.04 508.758 218.32C511.278 217.48 513.618 217.06 515.778 217.06C517.098 217.06 518.538 217.18 520.098 217.42C521.778 217.66 523.518 218.08 525.318 218.68C526.998 219.28 528.618 220 530.178 220.84C531.858 221.68 533.298 222.76 534.498 224.08V238.66H524.238V230.02C523.038 229.42 521.778 229 520.458 228.76C519.138 228.4 517.698 228.22 516.138 228.22C514.818 228.22 513.498 228.4 512.178 228.76C510.978 229.12 509.898 229.6 508.938 230.2C508.098 231.04 507.438 232 506.958 233.08C506.478 234.16 506.298 235.42 506.418 236.86C506.538 238.9 507.378 240.52 508.938 241.72C510.618 242.92 512.598 243.94 514.878 244.78C517.158 245.74 519.618 246.76 522.258 247.84C524.898 248.8 527.298 250 529.458 251.44C531.738 253 533.598 254.98 535.038 257.38C536.478 259.78 537.198 262.9 537.198 266.74C537.198 268.54 536.838 270.64 536.118 273.04C535.398 275.44 534.198 277.72 532.518 279.88ZM584.745 228.04C580.785 228.04 577.185 228.82 573.945 230.38C570.825 231.82 568.125 233.86 565.845 236.5C564.045 238.78 562.665 241.42 561.705 244.42C560.745 247.42 560.445 250.6 560.805 253.96C567.645 251.32 574.425 248.68 581.145 246.04C587.985 243.4 594.825 240.82 601.665 238.3C599.745 235.18 597.345 232.72 594.465 230.92C591.585 229 588.345 228.04 584.745 228.04ZM607.965 277.9C604.965 280.9 601.485 283.24 597.525 284.92C593.685 286.6 589.425 287.44 584.745 287.44C579.825 287.44 575.145 286.54 570.705 284.74C566.385 282.82 562.665 280.3 559.545 277.18C556.305 273.94 553.725 270.22 551.805 266.02C550.005 261.7 549.105 257.08 549.105 252.16C549.105 247.36 550.005 242.8 551.805 238.48C553.725 234.16 556.305 230.38 559.545 227.14C562.665 224.02 566.385 221.56 570.705 219.76C575.145 217.84 579.825 216.88 584.745 216.88C588.465 216.88 592.005 217.6 595.365 219.04C598.725 220.48 601.785 222.4 604.545 224.8C607.185 227.32 609.465 230.26 611.385 233.62C613.425 236.98 614.985 240.64 616.065 244.6C607.305 247.96 598.605 251.32 589.965 254.68C581.325 257.92 572.625 261.22 563.865 264.58C565.905 268.18 568.725 271.06 572.325 273.22C575.925 275.38 580.065 276.46 584.745 276.46C587.985 276.46 590.985 275.92 593.745 274.84C596.505 273.64 598.905 271.96 600.945 269.8L607.965 277.9ZM723.362 286H683.402V275.2H692.942V170.8H683.402V160H721.202C725.162 160 729.482 160.66 734.162 161.98C738.962 163.18 743.402 165.1 747.482 167.74C751.682 170.5 755.162 173.98 757.922 178.18C760.682 182.38 762.062 187.54 762.062 193.66C762.062 202.3 759.782 209.62 755.222 215.62C750.662 221.5 744.002 225.34 735.242 227.14L757.742 275.2H774.122V286H750.722L723.362 228.04C721.802 228.04 720.482 228.1 719.402 228.22C718.322 228.34 717.002 228.4 715.442 228.4H704.282V275.2H723.362V286ZM704.282 170.8V217.42H721.382C727.022 217.42 731.702 216.64 735.422 215.08C739.262 213.52 742.322 211.6 744.602 209.32C746.762 207.04 748.322 204.52 749.282 201.76C750.242 198.88 750.722 196.18 750.722 193.66C750.722 190.54 749.942 187.66 748.382 185.02C746.942 182.26 744.902 179.8 742.262 177.64C739.622 175.6 736.502 173.98 732.902 172.78C729.422 171.46 725.642 170.8 721.562 170.8H704.282ZM803.321 278.26C803.321 280.54 802.541 282.4 800.981 283.84C799.421 285.28 797.681 286 795.761 286C793.841 286 792.101 285.28 790.541 283.84C788.981 282.4 788.201 280.54 788.201 278.26C788.201 276.1 788.981 274.3 790.541 272.86C792.101 271.3 793.841 270.52 795.761 270.52C797.681 270.52 799.421 271.3 800.981 272.86C802.541 274.3 803.321 276.1 803.321 278.26ZM880.917 278.08C877.437 281.08 873.417 283.42 868.857 285.1C864.297 286.66 859.437 287.44 854.277 287.44C849.717 287.44 845.337 286.96 841.137 286C836.937 284.92 833.157 283.6 829.797 282.04C826.437 280.48 823.437 278.74 820.797 276.82C818.277 274.78 816.297 272.74 814.857 270.7V250.72H825.657V266.74C828.897 269.5 832.797 271.84 837.357 273.76C841.917 275.68 847.197 276.64 853.197 276.64C856.797 276.64 860.217 276.1 863.457 275.02C866.817 273.94 869.757 272.38 872.277 270.34C874.797 268.3 876.777 265.78 878.217 262.78C879.777 259.78 880.557 256.36 880.557 252.52C880.557 249.4 880.197 246.52 879.477 243.88C878.757 241.24 877.617 239.02 876.057 237.22C874.017 234.82 871.677 232.9 869.037 231.46C866.517 230.02 863.697 228.64 860.577 227.32C856.257 225.76 851.697 224.32 846.897 223C842.217 221.68 837.897 219.88 833.937 217.6C829.857 215.44 826.437 212.5 823.677 208.78C821.037 204.94 819.657 199.66 819.537 192.94C819.417 188.98 819.897 185.02 820.977 181.06C822.177 177.1 824.157 173.5 826.917 170.26C829.557 167.02 833.037 164.38 837.357 162.34C841.797 160.3 847.197 159.28 853.557 159.28C855.597 159.28 857.877 159.4 860.397 159.64C862.917 159.88 865.497 160.3 868.137 160.9C870.657 161.62 873.297 162.64 876.057 163.96C878.817 165.28 881.517 167.02 884.157 169.18V187.72H873.357V174.58C871.077 173.38 868.257 172.36 864.897 171.52C861.537 170.56 857.757 170.08 853.557 170.08C849.597 170.08 846.177 170.74 843.297 172.06C840.417 173.26 838.077 174.94 836.277 177.1C834.477 179.26 833.097 181.66 832.137 184.3C831.297 186.94 830.877 189.7 830.877 192.58C830.877 197.02 831.897 200.56 833.937 203.2C836.097 205.72 838.917 207.82 842.397 209.5C846.837 211.66 851.997 213.58 857.877 215.26C863.757 216.82 869.397 218.92 874.797 221.56C879.837 223.96 883.917 227.62 887.037 232.54C890.277 237.34 891.897 243.94 891.897 252.34C892.017 257.74 891.057 262.6 889.017 266.92C887.097 271.24 884.397 274.96 880.917 278.08ZM918.634 278.26C918.634 280.54 917.854 282.4 916.294 283.84C914.734 285.28 912.994 286 911.074 286C909.154 286 907.414 285.28 905.854 283.84C904.294 282.4 903.514 280.54 903.514 278.26C903.514 276.1 904.294 274.3 905.854 272.86C907.414 271.3 909.154 270.52 911.074 270.52C912.994 270.52 914.734 271.3 916.294 272.86C917.854 274.3 918.634 276.1 918.634 278.26ZM1049.33 170.8C1040.81 191.2 1032.29 211.42 1023.77 231.46C1015.25 251.38 1006.73 271.48 998.209 291.76C989.689 271.48 981.109 251.38 972.469 231.46C963.949 211.42 955.429 191.2 946.909 170.8H931.429V160H971.389V170.8H958.249C964.729 185.92 971.089 200.98 977.329 215.98C983.689 230.98 990.109 245.98 996.589 260.98L998.209 266.56L999.829 260.98C1006.19 245.98 1012.55 231.04 1018.91 216.16C1025.27 201.16 1031.57 186.04 1037.81 170.8H1026.47V160H1066.43V170.8H1049.33ZM1095.65 278.26C1095.65 280.54 1094.87 282.4 1093.31 283.84C1091.75 285.28 1090.01 286 1088.09 286C1086.17 286 1084.43 285.28 1082.87 283.84C1081.31 282.4 1080.53 280.54 1080.53 278.26C1080.53 276.1 1081.31 274.3 1082.87 272.86C1084.43 271.3 1086.17 270.52 1088.09 270.52C1090.01 270.52 1091.75 271.3 1093.31 272.86C1094.87 274.3 1095.65 276.1 1095.65 278.26ZM1148.4 286H1108.44V275.2H1117.98V170.8H1108.44V160H1146.24C1150.2 160 1154.52 160.66 1159.2 161.98C1164 163.18 1168.44 165.1 1172.52 167.74C1176.72 170.5 1180.2 173.98 1182.96 178.18C1185.72 182.38 1187.1 187.54 1187.1 193.66C1187.1 204.22 1183.8 212.68 1177.2 219.04C1170.72 225.28 1161.3 228.4 1148.94 228.4H1129.32V275.2H1148.4V286ZM1129.32 170.8V217.42H1146.42C1152.06 217.42 1156.74 216.64 1160.46 215.08C1164.3 213.52 1167.36 211.6 1169.64 209.32C1171.8 207.04 1173.36 204.52 1174.32 201.76C1175.28 198.88 1175.76 196.18 1175.76 193.66C1175.76 190.54 1174.98 187.66 1173.42 185.02C1171.98 182.26 1169.94 179.8 1167.3 177.64C1164.66 175.6 1161.54 173.98 1157.94 172.78C1154.46 171.46 1150.68 170.8 1146.6 170.8H1129.32ZM1216.23 278.26C1216.23 280.54 1215.45 282.4 1213.89 283.84C1212.33 285.28 1210.59 286 1208.67 286C1206.75 286 1205.01 285.28 1203.45 283.84C1201.89 282.4 1201.11 280.54 1201.11 278.26C1201.11 276.1 1201.89 274.3 1203.45 272.86C1205.01 271.3 1206.75 270.52 1208.67 270.52C1210.59 270.52 1212.33 271.3 1213.89 272.86C1215.45 274.3 1216.23 276.1 1216.23 278.26ZM1282.99 286V275.2H1296.49V161.8H1284.25V151H1307.83V223C1307.83 224.32 1307.77 225.4 1307.65 226.24C1307.65 227.08 1307.59 228.16 1307.47 229.48C1307.95 228.28 1308.79 227.02 1309.99 225.7C1311.19 224.38 1312.93 223 1315.21 221.56C1317.49 220.24 1320.07 219.16 1322.95 218.32C1325.83 217.36 1328.95 216.88 1332.31 216.88C1337.23 216.88 1341.85 217.84 1346.17 219.76C1350.61 221.56 1354.45 224.08 1357.69 227.32C1360.93 230.56 1363.45 234.34 1365.25 238.66C1367.17 242.86 1368.13 247.36 1368.13 252.16C1368.13 256.96 1367.17 261.52 1365.25 265.84C1363.45 270.16 1360.93 273.88 1357.69 277C1354.45 280.24 1350.61 282.82 1346.17 284.74C1341.85 286.54 1337.23 287.44 1332.31 287.44C1328.71 287.44 1325.41 287.02 1322.41 286.18C1319.53 285.34 1317.01 284.2 1314.85 282.76C1312.57 281.56 1310.71 280.24 1309.27 278.8C1307.83 277.36 1306.93 276.04 1306.57 274.84C1306.57 275.92 1306.57 276.88 1306.57 277.72C1306.57 278.56 1306.57 279.52 1306.57 280.6V286H1282.99ZM1332.31 228.04C1328.59 228.04 1325.17 228.7 1322.05 230.02C1319.05 231.22 1316.47 233.02 1314.31 235.42C1312.27 237.58 1310.65 240.1 1309.45 242.98C1308.37 245.86 1307.83 248.92 1307.83 252.16C1307.83 255.64 1308.49 258.94 1309.81 262.06C1311.13 265.06 1312.93 267.7 1315.21 269.98C1317.49 271.9 1320.07 273.46 1322.95 274.66C1325.83 275.86 1328.95 276.46 1332.31 276.46C1335.79 276.46 1338.97 275.86 1341.85 274.66C1344.85 273.34 1347.43 271.6 1349.59 269.44C1351.75 267.28 1353.43 264.76 1354.63 261.88C1355.95 258.88 1356.61 255.64 1356.61 252.16C1356.61 248.56 1355.95 245.26 1354.63 242.26C1353.31 239.14 1351.51 236.5 1349.23 234.34C1347.07 232.42 1344.49 230.92 1341.49 229.84C1338.61 228.64 1335.55 228.04 1332.31 228.04ZM1416.37 228.04C1412.41 228.04 1408.81 228.82 1405.57 230.38C1402.45 231.82 1399.75 233.86 1397.47 236.5C1395.67 238.78 1394.29 241.42 1393.33 244.42C1392.37 247.42 1392.07 250.6 1392.43 253.96C1399.27 251.32 1406.05 248.68 1412.77 246.04C1419.61 243.4 1426.45 240.82 1433.29 238.3C1431.37 235.18 1428.97 232.72 1426.09 230.92C1423.21 229 1419.97 228.04 1416.37 228.04ZM1439.59 277.9C1436.59 280.9 1433.11 283.24 1429.15 284.92C1425.31 286.6 1421.05 287.44 1416.37 287.44C1411.45 287.44 1406.77 286.54 1402.33 284.74C1398.01 282.82 1394.29 280.3 1391.17 277.18C1387.93 273.94 1385.35 270.22 1383.43 266.02C1381.63 261.7 1380.73 257.08 1380.73 252.16C1380.73 247.36 1381.63 242.8 1383.43 238.48C1385.35 234.16 1387.93 230.38 1391.17 227.14C1394.29 224.02 1398.01 221.56 1402.33 219.76C1406.77 217.84 1411.45 216.88 1416.37 216.88C1420.09 216.88 1423.63 217.6 1426.99 219.04C1430.35 220.48 1433.41 222.4 1436.17 224.8C1438.81 227.32 1441.09 230.26 1443.01 233.62C1445.05 236.98 1446.61 240.64 1447.69 244.6C1438.93 247.96 1430.23 251.32 1421.59 254.68C1412.95 257.92 1404.25 261.22 1395.49 264.58C1397.53 268.18 1400.35 271.06 1403.95 273.22C1407.55 275.38 1411.69 276.46 1416.37 276.46C1419.61 276.46 1422.61 275.92 1425.37 274.84C1428.13 273.64 1430.53 271.96 1432.57 269.8L1439.59 277.9ZM1498.5 286H1461.06V275.2H1472.04V229.66H1461.06V218.5H1471.86V192.94C1471.86 186.22 1472.88 180.28 1474.92 175.12C1477.08 169.96 1479.96 165.64 1483.56 162.16C1487.16 158.56 1491.42 155.86 1496.34 154.06C1501.38 152.14 1506.72 151.06 1512.36 150.82V161.62C1508.28 161.86 1504.5 162.7 1501.02 164.14C1497.54 165.46 1494.48 167.44 1491.84 170.08C1489.08 172.72 1486.92 175.96 1485.36 179.8C1483.92 183.64 1483.2 188.08 1483.2 193.12V218.5H1505.16V229.66H1483.2V275.2H1498.5V286ZM1579.91 277C1576.67 280.24 1572.83 282.82 1568.39 284.74C1564.07 286.54 1559.45 287.44 1554.53 287.44C1549.49 287.44 1544.81 286.54 1540.49 284.74C1536.17 282.82 1532.39 280.24 1529.15 277C1525.91 273.88 1523.33 270.22 1521.41 266.02C1519.61 261.7 1518.71 257.08 1518.71 252.16C1518.71 247.36 1519.61 242.8 1521.41 238.48C1523.33 234.16 1525.91 230.38 1529.15 227.14C1532.39 224.02 1536.17 221.56 1540.49 219.76C1544.81 217.84 1549.49 216.88 1554.53 216.88C1559.45 216.88 1564.07 217.84 1568.39 219.76C1572.83 221.56 1576.73 224.02 1580.09 227.14C1583.21 230.38 1585.67 234.16 1587.47 238.48C1589.39 242.8 1590.35 247.36 1590.35 252.16C1590.35 257.08 1589.39 261.7 1587.47 266.02C1585.67 270.22 1583.15 273.88 1579.91 277ZM1537.25 269.26C1539.41 271.54 1541.93 273.34 1544.81 274.66C1547.69 275.86 1550.81 276.46 1554.17 276.46C1557.53 276.46 1560.65 275.86 1563.53 274.66C1566.53 273.34 1569.17 271.54 1571.45 269.26C1573.61 267.1 1575.29 264.58 1576.49 261.7C1577.81 258.82 1578.47 255.7 1578.47 252.34C1578.47 248.98 1577.81 245.86 1576.49 242.98C1575.29 239.98 1573.61 237.34 1571.45 235.06C1569.17 232.9 1566.53 231.22 1563.53 230.02C1560.65 228.7 1557.53 228.04 1554.17 228.04C1550.81 228.04 1547.69 228.7 1544.81 230.02C1541.93 231.22 1539.41 232.9 1537.25 235.06C1534.97 237.34 1533.17 239.98 1531.85 242.98C1530.65 245.86 1530.05 248.92 1530.05 252.16C1530.05 255.64 1530.65 258.82 1531.85 261.7C1533.17 264.58 1534.97 267.1 1537.25 269.26ZM1640.35 286H1602.91V275.2H1616.77V229.3H1604.35V218.5H1626.49L1627.03 227.86C1627.27 230.38 1627.33 231.76 1627.21 232C1627.21 232.12 1627.33 233.44 1627.57 235.96C1629.01 232.96 1630.81 230.32 1632.97 228.04C1635.13 225.64 1637.47 223.66 1639.99 222.1C1642.51 220.42 1644.97 219.16 1647.37 218.32C1649.89 217.48 1652.29 217.06 1654.57 217.06L1653.85 228.22C1650.61 228.22 1647.55 228.7 1644.67 229.66C1641.79 230.5 1639.27 231.76 1637.11 233.44C1634.35 235.48 1632.13 238.06 1630.45 241.18C1628.89 244.18 1628.11 247.54 1628.11 251.26V275.2H1640.35V286ZM1702.89 228.04C1698.93 228.04 1695.33 228.82 1692.09 230.38C1688.97 231.82 1686.27 233.86 1683.99 236.5C1682.19 238.78 1680.81 241.42 1679.85 244.42C1678.89 247.42 1678.59 250.6 1678.95 253.96C1685.79 251.32 1692.57 248.68 1699.29 246.04C1706.13 243.4 1712.97 240.82 1719.81 238.3C1717.89 235.18 1715.49 232.72 1712.61 230.92C1709.73 229 1706.49 228.04 1702.89 228.04ZM1726.11 277.9C1723.11 280.9 1719.63 283.24 1715.67 284.92C1711.83 286.6 1707.57 287.44 1702.89 287.44C1697.97 287.44 1693.29 286.54 1688.85 284.74C1684.53 282.82 1680.81 280.3 1677.69 277.18C1674.45 273.94 1671.87 270.22 1669.95 266.02C1668.15 261.7 1667.25 257.08 1667.25 252.16C1667.25 247.36 1668.15 242.8 1669.95 238.48C1671.87 234.16 1674.45 230.38 1677.69 227.14C1680.81 224.02 1684.53 221.56 1688.85 219.76C1693.29 217.84 1697.97 216.88 1702.89 216.88C1706.61 216.88 1710.15 217.6 1713.51 219.04C1716.87 220.48 1719.93 222.4 1722.69 224.8C1725.33 227.32 1727.61 230.26 1729.53 233.62C1731.57 236.98 1733.13 240.64 1734.21 244.6C1725.45 247.96 1716.75 251.32 1708.11 254.68C1699.47 257.92 1690.77 261.22 1682.01 264.58C1684.05 268.18 1686.87 271.06 1690.47 273.22C1694.07 275.38 1698.21 276.46 1702.89 276.46C1706.13 276.46 1709.13 275.92 1711.89 274.84C1714.65 273.64 1717.05 271.96 1719.09 269.8L1726.11 277.9ZM1764.14 233.26C1764.14 235.54 1763.36 237.4 1761.8 238.84C1760.24 240.28 1758.5 241 1756.58 241C1754.54 241 1752.74 240.28 1751.18 238.84C1749.62 237.4 1748.84 235.54 1748.84 233.26C1748.84 231.1 1749.62 229.3 1751.18 227.86C1752.74 226.3 1754.54 225.52 1756.58 225.52C1758.5 225.52 1760.24 226.3 1761.8 227.86C1763.36 229.3 1764.14 231.1 1764.14 233.26ZM1764.14 278.26C1764.14 280.54 1763.36 282.4 1761.8 283.84C1760.24 285.28 1758.5 286 1756.58 286C1754.54 286 1752.74 285.28 1751.18 283.84C1749.62 282.4 1748.84 280.54 1748.84 278.26C1748.84 276.1 1749.62 274.3 1751.18 272.86C1752.74 271.3 1754.54 270.52 1756.58 270.52C1758.5 270.52 1760.24 271.3 1761.8 272.86C1763.36 274.3 1764.14 276.1 1764.14 278.26Z" fill="#8B6868" fill-opacity="0.43" shape-rendering="crispEdges"/>
</g>
<defs>
<filter id="filter0_di_106_54" x="0" y="0" width="2298" height="1152" filterUnits="userSpaceOnUse" color-interpolation-filters="sRGB">
<feFlood flood-opacity="0" result="BackgroundImageFix"/>
<feColorMatrix in="SourceAlpha" type="matrix" values="0 0 0 0 0 0 0 0 0 0 0 0 0 0 0 0 0 0 127 0" result="hardAlpha"/>
<feOffset dy="4"/>
<feGaussianBlur stdDeviation="2"/>
<feComposite in2="hardAlpha" operator="out"/>
<feColorMatrix type="matrix" values="0 0 0 0 0 0 0 0 0 0 0 0 0 0 0 0 0 0 0.25 0"/>
<feBlend mode="normal" in2="BackgroundImageFix" result="effect1_dropShadow_106_54"/>
<feBlend mode="normal" in="SourceGraphic" in2="effect1_dropShadow_106_54" result="shape"/>
<feColorMatrix in="SourceAlpha" type="matrix" values="0 0 0 0 0 0 0 0 0 0 0 0 0 0 0 0 0 0 127 0" result="hardAlpha"/>
<feOffset dy="4"/>
<feGaussianBlur stdDeviation="2"/>
<feComposite in2="hardAlpha" operator="arithmetic" k2="-1" k3="1"/>
<feColorMatrix type="matrix" values="0 0 0 0 0 0 0 0 0 0 0 0 0 0 0 0 0 0 0.25 0"/>
<feBlend mode="normal" in2="shape" result="effect2_innerShadow_106_54"/>
</filter>
<filter id="filter1_di_106_54" x="163.25" y="544" width="112.7" height="113" filterUnits="userSpaceOnUse" color-interpolation-filters="sRGB">
<feFlood flood-opacity="0" result="BackgroundImageFix"/>
<feColorMatrix in="SourceAlpha" type="matrix" values="0 0 0 0 0 0 0 0 0 0 0 0 0 0 0 0 0 0 127 0" result="hardAlpha"/>
<feOffset dy="4"/>
<feGaussianBlur stdDeviation="2"/>
<feComposite in2="hardAlpha" operator="out"/>
<feColorMatrix type="matrix" values="0 0 0 0 0 0 0 0 0 0 0 0 0 0 0 0 0 0 0.25 0"/>
<feBlend mode="normal" in2="BackgroundImageFix" result="effect1_dropShadow_106_54"/>
<feBlend mode="normal" in="SourceGraphic" in2="effect1_dropShadow_106_54" result="shape"/>
<feColorMatrix in="SourceAlpha" type="matrix" values="0 0 0 0 0 0 0 0 0 0 0 0 0 0 0 0 0 0 127 0" result="hardAlpha"/>
<feOffset dy="4"/>
<feGaussianBlur stdDeviation="2"/>
<feComposite in2="hardAlpha" operator="arithmetic" k2="-1" k3="1"/>
<feColorMatrix type="matrix" values="0 0 0 0 0 0 0 0 0 0 0 0 0 0 0 0 0 0 0.25 0"/>
<feBlend mode="normal" in2="shape" result="effect2_innerShadow_106_54"/>
</filter>
<filter id="filter2_di_106_54" x="163.25" y="840" width="125.15" height="117.8" filterUnits="userSpaceOnUse" color-interpolation-filters="sRGB">
<feFlood flood-opacity="0" result="BackgroundImageFix"/>
<feColorMatrix in="SourceAlpha" type="matrix" values="0 0 0 0 0 0 0 0 0 0 0 0 0 0 0 0 0 0 127 0" result="hardAlpha"/>
<feOffset dy="4"/>
<feGaussianBlur stdDeviation="2"/>
<feComposite in2="hardAlpha" operator="out"/>
<feColorMatrix type="matrix" values="0 0 0 0 0 0 0 0 0 0 0 0 0 0 0 0 0 0 0.25 0"/>
<feBlend mode="normal" in2="BackgroundImageFix" result="effect1_dropShadow_106_54"/>
<feBlend mode="normal" in="SourceGraphic" in2="effect1_dropShadow_106_54" result="shape"/>
<feColorMatrix in="SourceAlpha" type="matrix" values="0 0 0 0 0 0 0 0 0 0 0 0 0 0 0 0 0 0 127 0" result="hardAlpha"/>
<feOffset dy="4"/>
<feGaussianBlur stdDeviation="2"/>
<feComposite in2="hardAlpha" operator="arithmetic" k2="-1" k3="1"/>
<feColorMatrix type="matrix" values="0 0 0 0 0 0 0 0 0 0 0 0 0 0 0 0 0 0 0.25 0"/>
<feBlend mode="normal" in2="shape" result="effect2_innerShadow_106_54"/>
</filter>
<filter id="filter3_di_106_54" x="1834" y="344" width="260" height="16" filterUnits="userSpaceOnUse" color-interpolation-filters="sRGB">
<feFlood flood-opacity="0" result="BackgroundImageFix"/>
<feColorMatrix in="SourceAlpha" type="matrix" values="0 0 0 0 0 0 0 0 0 0 0 0 0 0 0 0 0 0 127 0" result="hardAlpha"/>
<feOffset dy="4"/>
<feGaussianBlur stdDeviation="2"/>
<feComposite in2="hardAlpha" operator="out"/>
<feColorMatrix type="matrix" values="0 0 0 0 0 0 0 0 0 0 0 0 0 0 0 0 0 0 0.25 0"/>
<feBlend mode="normal" in2="BackgroundImageFix" result="effect1_dropShadow_106_54"/>
<feBlend mode="normal" in="SourceGraphic" in2="effect1_dropShadow_106_54" result="shape"/>
<feColorMatrix in="SourceAlpha" type="matrix" values="0 0 0 0 0 0 0 0 0 0 0 0 0 0 0 0 0 0 127 0" result="hardAlpha"/>
<feOffset dy="4"/>
<feGaussianBlur stdDeviation="2"/>
<feComposite in2="hardAlpha" operator="arithmetic" k2="-1" k3="1"/>
<feColorMatrix type="matrix" values="0 0 0 0 0 0 0 0 0 0 0 0 0 0 0 0 0 0 0.25 0"/>
<feBlend mode="normal" in2="shape" result="effect2_innerShadow_106_54"/>
</filter>
<filter id="filter4_di_106_54" x="350" y="666" width="1758" height="16" filterUnits="userSpaceOnUse" color-interpolation-filters="sRGB">
<feFlood flood-opacity="0" result="BackgroundImageFix"/>
<feColorMatrix in="SourceAlpha" type="matrix" values="0 0 0 0 0 0 0 0 0 0 0 0 0 0 0 0 0 0 127 0" result="hardAlpha"/>
<feOffset dy="4"/>
<feGaussianBlur stdDeviation="2"/>
<feComposite in2="hardAlpha" operator="out"/>
<feColorMatrix type="matrix" values="0 0 0 0 0 0 0 0 0 0 0 0 0 0 0 0 0 0 0.25 0"/>
<feBlend mode="normal" in2="BackgroundImageFix" result="effect1_dropShadow_106_54"/>
<feBlend mode="normal" in="SourceGraphic" in2="effect1_dropShadow_106_54" result="shape"/>
<feColorMatrix in="SourceAlpha" type="matrix" values="0 0 0 0 0 0 0 0 0 0 0 0 0 0 0 0 0 0 127 0" result="hardAlpha"/>
<feOffset dy="4"/>
<feGaussianBlur stdDeviation="2"/>
<feComposite in2="hardAlpha" operator="arithmetic" k2="-1" k3="1"/>
<feColorMatrix type="matrix" values="0 0 0 0 0 0 0 0 0 0 0 0 0 0 0 0 0 0 0.25 0"/>
<feBlend mode="normal" in2="shape" result="effect2_innerShadow_106_54"/>
</filter>
<filter id="filter5_di_106_54" x="356" y="960" width="1758" height="16" filterUnits="userSpaceOnUse" color-interpolation-filters="sRGB">
<feFlood flood-opacity="0" result="BackgroundImageFix"/>
<feColorMatrix in="SourceAlpha" type="matrix" values="0 0 0 0 0 0 0 0 0 0 0 0 0 0 0 0 0 0 127 0" result="hardAlpha"/>
<feOffset dy="4"/>
<feGaussianBlur stdDeviation="2"/>
<feComposite in2="hardAlpha" operator="out"/>
<feColorMatrix type="matrix" values="0 0 0 0 0 0 0 0 0 0 0 0 0 0 0 0 0 0 0.25 0"/>
<feBlend mode="normal" in2="BackgroundImageFix" result="effect1_dropShadow_106_54"/>
<feBlend mode="normal" in="SourceGraphic" in2="effect1_dropShadow_106_54" result="shape"/>
<feColorMatrix in="SourceAlpha" type="matrix" values="0 0 0 0 0 0 0 0 0 0 0 0 0 0 0 0 0 0 127 0" result="hardAlpha"/>
<feOffset dy="4"/>
<feGaussianBlur stdDeviation="2"/>
<feComposite in2="hardAlpha" operator="arithmetic" k2="-1" k3="1"/>
<feColorMatrix type="matrix" values="0 0 0 0 0 0 0 0 0 0 0 0 0 0 0 0 0 0 0.25 0"/>
<feBlend mode="normal" in2="shape" result="effect2_innerShadow_106_54"/>
</filter>
<filter id="filter6_di_106_54" x="166.824" y="150.82" width="1601.32" height="148.94" filterUnits="userSpaceOnUse" color-interpolation-filters="sRGB">
<feFlood flood-opacity="0" result="BackgroundImageFix"/>
<feColorMatrix in="SourceAlpha" type="matrix" values="0 0 0 0 0 0 0 0 0 0 0 0 0 0 0 0 0 0 127 0" result="hardAlpha"/>
<feOffset dy="4"/>
<feGaussianBlur stdDeviation="2"/>
<feComposite in2="hardAlpha" operator="out"/>
<feColorMatrix type="matrix" values="0 0 0 0 0 0 0 0 0 0 0 0 0 0 0 0 0 0 0.25 0"/>
<feBlend mode="normal" in2="BackgroundImageFix" result="effect1_dropShadow_106_54"/>
<feBlend mode="normal" in="SourceGraphic" in2="effect1_dropShadow_106_54" result="shape"/>
<feColorMatrix in="SourceAlpha" type="matrix" values="0 0 0 0 0 0 0 0 0 0 0 0 0 0 0 0 0 0 127 0" result="hardAlpha"/>
<feOffset dy="4"/>
<feGaussianBlur stdDeviation="2"/>
<feComposite in2="hardAlpha" operator="arithmetic" k2="-1" k3="1"/>
<feColorMatrix type="matrix" values="0 0 0 0 0 0 0 0 0 0 0 0 0 0 0 0 0 0 0.25 0"/>
<feBlend mode="normal" in2="shape" result="effect2_innerShadow_106_54"/>
</filter>
</defs>
</svg>
