<svg width="1146" height="1530" viewBox="0 0 1146 1530" fill="none" xmlns="http://www.w3.org/2000/svg">
<path d="M0 10C0 4.47715 4.47715 0 10 0H1136C1141.52 0 1146 4.47715 1146 10V1520C1146 1525.52 1141.52 1530 1136 1530H10C4.47715 1530 0 1525.52 0 1520V10Z" fill="url(#paint0_linear_81_67)"/>
<rect x="76" y="72" width="994" height="1385" fill="#201A37" fill-opacity="0.8" stroke="url(#paint1_linear_81_67)" stroke-width="40"/>
<path d="M186.92 172.24C189.907 172.24 192.653 172.613 195.16 173.36C197.72 174.053 200.307 175.173 202.92 176.72L204.76 175.2C206.04 174.187 207.08 173.493 207.88 173.12C208.733 172.747 209.693 172.56 210.76 172.56C212.04 172.56 213.053 172.853 213.8 173.44C214.547 173.973 214.92 174.773 214.92 175.84C214.92 176.267 214.84 176.72 214.68 177.2L211.32 188.24C210.947 189.52 210.467 190.427 209.88 190.96C209.347 191.493 208.52 191.76 207.4 191.76C206.227 191.76 205.187 191.413 204.28 190.72C203.427 189.973 202.067 188.48 200.2 186.24C198.333 184.107 196.627 182.613 195.08 181.76C193.587 180.853 192.04 180.4 190.44 180.4C189.267 180.4 188.28 180.8 187.48 181.6C186.68 182.347 186.28 183.28 186.28 184.4C186.28 185.68 186.92 186.88 188.2 188C189.48 189.067 191.48 190.427 194.2 192.08C196.973 193.733 199.267 195.227 201.08 196.56C202.893 197.893 204.44 199.547 205.72 201.52C207 203.493 207.64 205.76 207.64 208.32C207.64 209.973 207.373 211.627 206.84 213.28C205.56 217.547 203.08 220.8 199.4 223.04C195.72 225.227 191.427 226.32 186.52 226.32C182.84 226.32 179.747 225.893 177.24 225.04C174.733 224.187 172.173 222.747 169.56 220.72L166.68 223.12C165.347 224.24 164.253 225.013 163.4 225.44C162.547 225.813 161.587 226 160.52 226C159.293 226 158.307 225.707 157.56 225.12C156.867 224.533 156.52 223.733 156.52 222.72C156.52 222.187 156.627 221.627 156.84 221.04L160.76 209.12C161.187 207.733 161.773 206.747 162.52 206.16C163.267 205.573 164.227 205.28 165.4 205.28C166.627 205.28 167.72 205.707 168.68 206.56C169.693 207.413 171 208.96 172.6 211.2C174.307 213.653 175.88 215.36 177.32 216.32C178.813 217.28 180.573 217.76 182.6 217.76C184.04 217.76 185.133 217.547 185.88 217.12C186.68 216.64 187.24 215.893 187.56 214.88C187.667 214.613 187.72 214.213 187.72 213.68C187.72 212.4 187.107 211.227 185.88 210.16C184.653 209.093 182.76 207.813 180.2 206.32C177.48 204.667 175.267 203.2 173.56 201.92C171.853 200.587 170.36 198.933 169.08 196.96C167.853 194.987 167.24 192.667 167.24 190C167.24 188.133 167.533 186.293 168.12 184.48C169.24 180.8 171.533 177.84 175 175.6C178.467 173.36 182.44 172.24 186.92 172.24ZM241.196 183.28C244.45 183.28 247.303 183.76 249.756 184.72C252.21 185.627 254.103 186.907 255.436 188.56C256.823 190.16 257.516 191.947 257.516 193.92C257.516 196.053 256.77 197.813 255.276 199.2C253.836 200.587 251.863 201.28 249.356 201.28C246.796 201.28 244.796 200.64 243.356 199.36C241.916 198.027 241.196 196.24 241.196 194C241.196 192.933 241.356 191.813 241.676 190.64C239.436 191.227 237.436 192.4 235.676 194.16C233.97 195.867 232.823 198.133 232.236 200.96C231.916 202.56 231.756 204 231.756 205.28C231.756 208.16 232.556 210.347 234.156 211.84C235.756 213.333 238.05 214.08 241.036 214.08C242.743 214.08 244.21 213.92 245.436 213.6C246.663 213.227 247.916 212.747 249.196 212.16C250.263 211.627 251.036 211.36 251.516 211.36C251.836 211.36 252.05 211.44 252.156 211.6C252.263 211.707 252.316 211.973 252.316 212.4C252.37 214.373 251.543 216.453 249.836 218.64C248.183 220.773 245.863 222.587 242.876 224.08C239.943 225.52 236.636 226.24 232.956 226.24C229.116 226.24 225.703 225.547 222.716 224.16C219.783 222.72 217.49 220.693 215.836 218.08C214.236 215.413 213.436 212.32 213.436 208.8C213.436 207.147 213.65 205.307 214.076 203.28C215.516 196.667 218.69 191.68 223.596 188.32C228.556 184.96 234.423 183.28 241.196 183.28ZM294.796 183.68C297.782 183.68 300.156 184.587 301.916 186.4C303.729 188.213 304.636 190.453 304.636 193.12C304.636 194.133 304.529 195.067 304.316 195.92C303.782 198.107 302.769 199.787 301.276 200.96C299.782 202.133 297.996 202.72 295.916 202.72C293.889 202.72 292.342 202.24 291.276 201.28C290.262 200.32 289.356 199.04 288.556 197.44C288.129 196.533 287.729 195.867 287.356 195.44C286.982 195.013 286.556 194.8 286.076 194.8C285.542 194.8 285.062 195.013 284.636 195.44C284.262 195.867 283.916 196.613 283.596 197.68L277.436 217.68C277.329 217.947 277.276 218.347 277.276 218.88C277.276 219.573 277.462 220.16 277.836 220.64C278.262 221.067 278.822 221.493 279.516 221.92C280.156 222.347 280.582 222.693 280.796 222.96C281.009 223.227 281.089 223.573 281.036 224C280.929 224.693 280.529 225.2 279.836 225.52C279.196 225.84 278.076 226 276.476 226H255.996C254.609 226 253.622 225.787 253.036 225.36C252.396 224.88 252.156 224.267 252.316 223.52C252.529 222.88 253.089 222.32 253.996 221.84C254.796 221.413 255.462 220.907 255.996 220.32C256.529 219.733 256.982 218.8 257.356 217.52L264.476 194.4C264.582 194.133 264.636 193.76 264.636 193.28C264.636 192.693 264.502 192.24 264.236 191.92C264.022 191.6 263.649 191.2 263.116 190.72C262.582 190.293 262.209 189.92 261.996 189.6C261.782 189.28 261.756 188.853 261.916 188.32C262.236 187.093 263.916 186.027 266.956 185.12C269.996 184.16 273.169 183.68 276.476 183.68C278.662 183.68 280.476 184.187 281.916 185.2C283.356 186.16 284.289 187.547 284.716 189.36C287.276 185.573 290.636 183.68 294.796 183.68ZM328.841 183.68C334.975 183.68 339.881 184.827 343.561 187.12C347.241 189.36 349.081 192.8 349.081 197.44C349.081 199.2 348.761 201.2 348.121 203.44L344.841 214.48C344.788 214.693 344.761 214.96 344.761 215.28C344.761 216.133 345.108 216.56 345.801 216.56C346.441 216.56 346.975 216.293 347.401 215.76C347.881 215.173 348.201 214.88 348.361 214.88C348.628 214.88 348.841 215.067 349.001 215.44C349.215 215.813 349.321 216.24 349.321 216.72C349.375 218.16 348.815 219.627 347.641 221.12C346.521 222.613 345.001 223.84 343.081 224.8C341.161 225.76 339.055 226.24 336.761 226.24C333.988 226.24 331.615 225.733 329.641 224.72C327.668 223.707 326.308 222.213 325.561 220.24C323.961 222.16 322.068 223.653 319.881 224.72C317.695 225.733 315.348 226.24 312.841 226.24C310.015 226.24 307.641 225.707 305.721 224.64C303.801 223.52 302.361 222.107 301.401 220.4C300.495 218.64 300.041 216.8 300.041 214.88C300.041 214.027 300.121 213.2 300.281 212.4C301.135 208.72 302.975 205.947 305.801 204.08C308.681 202.213 312.095 201.28 316.041 201.28C320.468 201.28 324.815 201.973 329.081 203.36L331.081 198.08C331.775 195.84 332.121 194.107 332.121 192.88C332.068 191.6 331.641 190.64 330.841 190C330.041 189.36 328.815 189.04 327.161 189.04C327.481 189.893 327.641 190.773 327.641 191.68C327.641 193.653 326.895 195.36 325.401 196.8C323.908 198.24 321.775 198.96 319.001 198.96C316.388 198.96 314.335 198.4 312.841 197.28C311.401 196.107 310.681 194.667 310.681 192.96C310.681 190.293 312.175 188.08 315.161 186.32C318.148 184.56 322.708 183.68 328.841 183.68ZM324.361 207.92C322.868 207.92 321.641 208.507 320.681 209.68C319.775 210.8 319.321 212.027 319.321 213.36C319.321 214.213 319.508 214.907 319.881 215.44C320.308 215.973 320.895 216.24 321.641 216.24C322.335 216.24 323.081 215.973 323.881 215.44C324.735 214.853 325.348 214 325.721 212.88L327.401 208.16C326.495 208 325.481 207.92 324.361 207.92ZM388.385 184.72C389.398 184.72 390.172 184.933 390.705 185.36C391.292 185.787 391.585 186.373 391.585 187.12C391.585 187.333 391.532 187.707 391.425 188.24C390.732 190.587 389.132 191.76 386.625 191.76H381.985L375.985 211.52C375.718 212.32 375.585 213.147 375.585 214C375.585 214.96 375.852 215.627 376.385 216C376.918 216.373 377.665 216.56 378.625 216.56C379.478 216.56 380.545 216.453 381.825 216.24C382.465 216.08 383.025 216 383.505 216C383.878 216 384.145 216.133 384.305 216.4C384.518 216.613 384.625 216.907 384.625 217.28C384.678 218.347 383.878 219.653 382.225 221.2C380.625 222.693 378.438 224 375.665 225.12C372.892 226.187 369.825 226.72 366.465 226.72C362.838 226.72 359.932 225.893 357.745 224.24C355.558 222.587 354.465 220.32 354.465 217.44C354.465 216.107 354.678 214.827 355.105 213.6L360.225 197.76C360.492 196.853 360.625 196.133 360.625 195.6C360.625 194.533 360.358 193.627 359.825 192.88C359.345 192.133 358.652 191.36 357.745 190.56C356.945 189.813 356.385 189.2 356.065 188.72C355.745 188.187 355.665 187.573 355.825 186.88C356.038 186.187 356.492 185.653 357.185 185.28C357.878 184.907 358.972 184.72 360.465 184.72H364.945L369.985 179.68C371.745 177.92 373.345 176.693 374.785 176C376.278 175.307 378.198 174.96 380.545 174.96C383.905 174.96 385.585 176.24 385.585 178.8C385.585 179.6 385.478 180.347 385.265 181.04L384.145 184.72H388.385ZM416.04 183.28C419.293 183.28 422.147 183.76 424.6 184.72C427.053 185.627 428.947 186.907 430.28 188.56C431.667 190.16 432.36 191.947 432.36 193.92C432.36 196.053 431.613 197.813 430.12 199.2C428.68 200.587 426.707 201.28 424.2 201.28C421.64 201.28 419.64 200.64 418.2 199.36C416.76 198.027 416.04 196.24 416.04 194C416.04 192.933 416.2 191.813 416.52 190.64C414.28 191.227 412.28 192.4 410.52 194.16C408.813 195.867 407.667 198.133 407.08 200.96C406.76 202.56 406.6 204 406.6 205.28C406.6 208.16 407.4 210.347 409 211.84C410.6 213.333 412.893 214.08 415.88 214.08C417.587 214.08 419.053 213.92 420.28 213.6C421.507 213.227 422.76 212.747 424.04 212.16C425.107 211.627 425.88 211.36 426.36 211.36C426.68 211.36 426.893 211.44 427 211.6C427.107 211.707 427.16 211.973 427.16 212.4C427.213 214.373 426.387 216.453 424.68 218.64C423.027 220.773 420.707 222.587 417.72 224.08C414.787 225.52 411.48 226.24 407.8 226.24C403.96 226.24 400.547 225.547 397.56 224.16C394.627 222.72 392.333 220.693 390.68 218.08C389.08 215.413 388.28 212.32 388.28 208.8C388.28 207.147 388.493 205.307 388.92 203.28C390.36 196.667 393.533 191.68 398.44 188.32C403.4 184.96 409.267 183.28 416.04 183.28ZM479.399 214.96C479.293 215.173 479.239 215.493 479.239 215.92C479.239 216.293 479.319 216.587 479.479 216.8C479.693 217.013 479.959 217.12 480.279 217.12C480.919 217.12 481.453 216.853 481.879 216.32C482.359 215.733 482.679 215.44 482.839 215.44C483.106 215.44 483.319 215.627 483.479 216C483.639 216.32 483.719 216.72 483.719 217.2C483.773 218.747 483.266 220.267 482.199 221.76C481.133 223.2 479.559 224.4 477.479 225.36C475.453 226.267 472.999 226.72 470.119 226.72C466.599 226.72 463.799 225.92 461.719 224.32C459.639 222.667 458.573 220.48 458.519 217.76C458.519 215.787 458.999 213.573 459.959 211.12L464.359 199.6C464.626 198.907 464.759 198.347 464.759 197.92C464.759 197.227 464.519 196.693 464.039 196.32C463.613 195.893 463.079 195.68 462.439 195.68C461.426 195.68 460.386 196.16 459.319 197.12C458.306 198.027 457.479 199.52 456.839 201.6V201.44L451.799 217.68C451.639 218.32 451.559 218.88 451.559 219.36C451.559 220.053 451.693 220.613 451.959 221.04C452.226 221.413 452.599 221.787 453.079 222.16C453.453 222.533 453.719 222.853 453.879 223.12C454.039 223.333 454.066 223.627 453.959 224C453.693 224.693 453.159 225.2 452.359 225.52C451.559 225.84 450.333 226 448.679 226H430.439C429.053 226 428.039 225.787 427.399 225.36C426.759 224.88 426.546 224.267 426.759 223.52C426.973 222.88 427.533 222.32 428.439 221.84C429.239 221.413 429.906 220.907 430.439 220.32C430.973 219.733 431.426 218.8 431.799 217.52L443.959 177.6C444.119 177.12 444.199 176.72 444.199 176.4C444.199 175.813 444.039 175.333 443.719 174.96C443.453 174.587 443.079 174.213 442.599 173.84C442.066 173.413 441.666 173.04 441.399 172.72C441.186 172.4 441.159 171.973 441.319 171.44C441.639 170.213 443.319 169.147 446.359 168.24C449.399 167.333 452.573 166.88 455.879 166.88C458.973 166.88 461.239 167.467 462.679 168.64C464.173 169.813 464.919 171.413 464.919 173.44C464.919 174.613 464.733 175.76 464.359 176.88L460.039 190.96C462.119 188.24 464.306 186.347 466.599 185.28C468.946 184.213 471.479 183.68 474.199 183.68C477.453 183.68 480.066 184.667 482.039 186.64C484.066 188.613 485.079 191.173 485.079 194.32C485.079 195.973 484.813 197.6 484.279 199.2L479.399 214.96Z" fill="url(#paint2_linear_81_67)"/>
<path d="M556.532 172C557.385 172 558.185 172.64 558.932 173.92C559.732 175.147 560.132 176.773 560.132 178.8C560.132 180.133 559.999 181.333 559.732 182.4C558.985 185.813 557.545 188.32 555.412 189.92C553.332 191.52 550.292 192.32 546.292 192.32C544.265 192.32 542.319 192.08 540.452 191.6C538.585 191.067 536.345 190.32 533.732 189.36C531.919 188.667 530.399 188.16 529.172 187.84C527.945 187.467 526.799 187.28 525.732 187.28C523.972 187.28 522.772 188.32 522.132 190.4L520.132 197.68C524.505 195.92 529.199 195.04 534.212 195.04C537.892 195.04 541.305 195.573 544.452 196.64C547.652 197.707 550.212 199.307 552.132 201.44C554.105 203.52 555.092 206.027 555.092 208.96C555.092 209.813 554.959 210.853 554.692 212.08C553.679 216.453 550.852 219.947 546.212 222.56C541.625 225.173 535.519 226.48 527.892 226.48C521.972 226.48 517.145 225.947 513.412 224.88C509.732 223.813 507.065 222.453 505.412 220.8C503.759 219.093 502.932 217.227 502.932 215.2C502.932 214.347 503.039 213.573 503.252 212.88C503.785 211.067 504.772 209.68 506.212 208.72C507.705 207.707 509.625 207.2 511.972 207.2C514.585 207.2 516.612 207.813 518.052 209.04C519.545 210.267 520.292 211.867 520.292 213.84C520.292 215.44 519.759 217.173 518.692 219.04C520.185 219.307 521.439 219.44 522.452 219.44C525.332 219.44 527.679 218.747 529.492 217.36C531.305 215.92 532.559 213.973 533.252 211.52C533.572 210.293 533.732 209.227 533.732 208.32C533.732 206.507 533.145 205.12 531.972 204.16C530.852 203.147 529.305 202.64 527.332 202.64C525.892 202.64 524.239 202.933 522.372 203.52C520.345 204.16 518.479 204.48 516.772 204.48H514.132C512.159 204.48 511.172 203.6 511.172 201.84C511.172 201.307 511.305 200.56 511.572 199.6L517.012 181.12C517.705 178.72 518.745 177.067 520.132 176.16C521.572 175.253 523.625 174.8 526.292 174.8C528.319 174.8 530.585 174.88 533.092 175.04C534.052 175.093 535.465 175.147 537.332 175.2C539.199 175.253 540.825 175.28 542.212 175.28C545.572 175.28 548.105 175.04 549.812 174.56C551.572 174.08 553.145 173.467 554.532 172.72C555.492 172.24 556.159 172 556.532 172ZM333.781 283.88C339.487 283.88 343.754 284.76 346.581 286.52C349.461 288.227 350.901 290.333 350.901 292.84C350.901 294.867 350.047 296.44 348.341 297.56C346.687 298.627 344.501 299.16 341.781 299.16C339.274 299.16 337.327 298.547 335.941 297.32C334.554 296.093 333.861 294.573 333.861 292.76C333.861 291.64 334.207 290.467 334.901 289.24C333.301 289.24 331.967 289.64 330.901 290.44C329.834 291.187 329.007 292.493 328.421 294.36C328.101 295.533 327.941 296.627 327.941 297.64C327.941 298.92 328.154 299.933 328.581 300.68C329.061 301.373 329.727 301.72 330.581 301.72H335.301C338.074 301.72 339.461 302.573 339.461 304.28C339.461 304.493 339.407 304.813 339.301 305.24C338.981 306.413 338.314 307.293 337.301 307.88C336.341 308.467 334.874 308.76 332.901 308.76H330.501L322.581 334.68C322.421 335.32 322.341 335.88 322.341 336.36C322.341 337.053 322.474 337.613 322.741 338.04C323.007 338.413 323.381 338.787 323.861 339.16C324.234 339.533 324.501 339.853 324.661 340.12C324.821 340.333 324.847 340.627 324.741 341C324.474 341.693 323.941 342.2 323.141 342.52C322.341 342.84 321.114 343 319.461 343H301.221C299.834 343 298.821 342.787 298.181 342.36C297.541 341.88 297.327 341.267 297.541 340.52C297.754 339.88 298.314 339.32 299.221 338.84C300.021 338.413 300.687 337.907 301.221 337.32C301.754 336.733 302.207 335.8 302.581 334.52L308.821 314.04C309.087 313.24 309.221 312.413 309.221 311.56C309.221 310.493 308.981 309.667 308.501 309.08C308.074 308.44 307.407 307.747 306.501 307C305.914 306.52 305.461 306.12 305.141 305.8C304.874 305.427 304.741 305 304.741 304.52C304.687 303.507 305.034 302.787 305.781 302.36C306.581 301.933 308.074 301.72 310.261 301.72H312.261C311.887 300.387 311.701 299.053 311.701 297.72C311.701 296.387 311.941 295 312.421 293.56C313.434 290.84 315.594 288.547 318.901 286.68C322.261 284.813 327.221 283.88 333.781 283.88ZM365.382 300.68C372.635 300.68 377.969 302.147 381.382 305.08C384.849 308.013 386.582 311.853 386.582 316.6C386.582 318.2 386.369 319.987 385.942 321.96C384.929 326.333 383.035 330.173 380.262 333.48C377.489 336.733 374.075 339.267 370.022 341.08C366.022 342.84 361.675 343.72 356.982 343.72C349.569 343.72 344.075 342.253 340.502 339.32C336.982 336.333 335.222 332.387 335.222 327.48C335.222 325.827 335.435 323.987 335.862 321.96C336.875 317.8 338.795 314.12 341.622 310.92C344.502 307.667 347.995 305.16 352.102 303.4C356.262 301.587 360.689 300.68 365.382 300.68ZM365.142 307.8C364.022 307.8 362.822 308.813 361.542 310.84C360.315 312.813 358.849 316.573 357.142 322.12C355.435 327.667 354.582 331.56 354.582 333.8C354.582 334.973 354.769 335.773 355.142 336.2C355.515 336.573 356.022 336.76 356.662 336.76C357.782 336.867 358.929 335.907 360.102 333.88C361.329 331.853 362.849 327.907 364.662 322.04C366.315 316.867 367.142 313.107 367.142 310.76C367.142 309.64 366.955 308.867 366.582 308.44C366.262 308.013 365.782 307.8 365.142 307.8ZM426.202 300.68C429.189 300.68 431.562 301.587 433.322 303.4C435.135 305.213 436.042 307.453 436.042 310.12C436.042 311.133 435.935 312.067 435.722 312.92C435.189 315.107 434.175 316.787 432.682 317.96C431.189 319.133 429.402 319.72 427.322 319.72C425.295 319.72 423.749 319.24 422.682 318.28C421.669 317.32 420.762 316.04 419.962 314.44C419.535 313.533 419.135 312.867 418.762 312.44C418.389 312.013 417.962 311.8 417.482 311.8C416.949 311.8 416.469 312.013 416.042 312.44C415.669 312.867 415.322 313.613 415.002 314.68L408.842 334.68C408.735 334.947 408.682 335.347 408.682 335.88C408.682 336.573 408.869 337.16 409.242 337.64C409.669 338.067 410.229 338.493 410.922 338.92C411.562 339.347 411.989 339.693 412.202 339.96C412.415 340.227 412.495 340.573 412.442 341C412.335 341.693 411.935 342.2 411.242 342.52C410.602 342.84 409.482 343 407.882 343H387.402C386.015 343 385.029 342.787 384.442 342.36C383.802 341.88 383.562 341.267 383.722 340.52C383.935 339.88 384.495 339.32 385.402 338.84C386.202 338.413 386.869 337.907 387.402 337.32C387.935 336.733 388.389 335.8 388.762 334.52L395.882 311.4C395.989 311.133 396.042 310.76 396.042 310.28C396.042 309.693 395.909 309.24 395.642 308.92C395.429 308.6 395.055 308.2 394.522 307.72C393.989 307.293 393.615 306.92 393.402 306.6C393.189 306.28 393.162 305.853 393.322 305.32C393.642 304.093 395.322 303.027 398.362 302.12C401.402 301.16 404.575 300.68 407.882 300.68C410.069 300.68 411.882 301.187 413.322 302.2C414.762 303.16 415.695 304.547 416.122 306.36C418.682 302.573 422.042 300.68 426.202 300.68ZM477.826 300.68C483.959 300.68 488.866 301.827 492.546 304.12C496.226 306.36 498.066 309.8 498.066 314.44C498.066 316.2 497.746 318.2 497.106 320.44L493.826 331.48C493.772 331.693 493.746 331.96 493.746 332.28C493.746 333.133 494.092 333.56 494.786 333.56C495.426 333.56 495.959 333.293 496.386 332.76C496.866 332.173 497.186 331.88 497.346 331.88C497.612 331.88 497.826 332.067 497.986 332.44C498.199 332.813 498.306 333.24 498.306 333.72C498.359 335.16 497.799 336.627 496.626 338.12C495.506 339.613 493.986 340.84 492.066 341.8C490.146 342.76 488.039 343.24 485.746 343.24C482.972 343.24 480.599 342.733 478.626 341.72C476.652 340.707 475.292 339.213 474.546 337.24C472.946 339.16 471.052 340.653 468.866 341.72C466.679 342.733 464.332 343.24 461.826 343.24C458.999 343.24 456.626 342.707 454.706 341.64C452.786 340.52 451.346 339.107 450.386 337.4C449.479 335.64 449.026 333.8 449.026 331.88C449.026 331.027 449.106 330.2 449.266 329.4C450.119 325.72 451.959 322.947 454.786 321.08C457.666 319.213 461.079 318.28 465.026 318.28C469.452 318.28 473.799 318.973 478.066 320.36L480.066 315.08C480.759 312.84 481.106 311.107 481.106 309.88C481.052 308.6 480.626 307.64 479.826 307C479.026 306.36 477.799 306.04 476.146 306.04C476.466 306.893 476.626 307.773 476.626 308.68C476.626 310.653 475.879 312.36 474.386 313.8C472.892 315.24 470.759 315.96 467.986 315.96C465.372 315.96 463.319 315.4 461.826 314.28C460.386 313.107 459.666 311.667 459.666 309.96C459.666 307.293 461.159 305.08 464.146 303.32C467.132 301.56 471.692 300.68 477.826 300.68ZM473.346 324.92C471.852 324.92 470.626 325.507 469.666 326.68C468.759 327.8 468.306 329.027 468.306 330.36C468.306 331.213 468.492 331.907 468.866 332.44C469.292 332.973 469.879 333.24 470.626 333.24C471.319 333.24 472.066 332.973 472.866 332.44C473.719 331.853 474.332 331 474.706 329.88L476.386 325.16C475.479 325 474.466 324.92 473.346 324.92ZM443.074 439.36C444.568 439.36 445.688 439.68 446.434 440.32C447.234 440.907 447.634 441.76 447.634 442.88C447.634 443.36 447.554 443.893 447.394 444.48L444.754 453.84C444.061 456.133 443.074 457.733 441.794 458.64C440.568 459.547 438.728 460 436.274 460H398.674C397.554 460 396.701 459.813 396.114 459.44C395.474 459.067 395.154 458.56 395.154 457.92C395.154 457.6 395.234 457.253 395.394 456.88C395.554 456.453 395.821 456.107 396.194 455.84C396.568 455.52 396.968 455.227 397.394 454.96C398.248 454.427 398.941 453.893 399.474 453.36C400.008 452.773 400.461 451.84 400.834 450.56L410.594 416.08C410.808 415.387 410.914 414.72 410.914 414.08C410.914 413.493 410.808 413.013 410.594 412.64C410.434 412.213 410.194 411.733 409.874 411.2C409.394 410.507 409.154 409.947 409.154 409.52C409.154 409.36 409.208 409.067 409.314 408.64C409.528 407.947 409.981 407.467 410.674 407.2C411.421 406.88 412.541 406.72 414.034 406.72H432.834C433.954 406.72 434.808 406.907 435.394 407.28C436.034 407.6 436.354 408.08 436.354 408.72C436.354 408.987 436.274 409.333 436.114 409.76C435.954 410.133 435.714 410.48 435.394 410.8C435.128 411.067 434.861 411.28 434.594 411.44C434.381 411.547 434.221 411.653 434.114 411.76C433.261 412.24 432.568 412.773 432.034 413.36C431.501 413.947 431.048 414.853 430.674 416.08L420.354 452.32H425.314C426.541 452.32 427.581 452.107 428.434 451.68C429.341 451.253 430.274 450.453 431.234 449.28L436.754 442.72C437.768 441.547 438.728 440.693 439.634 440.16C440.594 439.627 441.741 439.36 443.074 439.36ZM496.864 448.96C496.757 449.387 496.704 449.707 496.704 449.92C496.704 450.293 496.784 450.587 496.944 450.8C497.157 451.013 497.424 451.12 497.744 451.12C498.384 451.12 498.917 450.853 499.344 450.32C499.824 449.733 500.144 449.44 500.304 449.44C500.57 449.44 500.784 449.627 500.944 450C501.157 450.32 501.264 450.72 501.264 451.2C501.317 452.693 500.784 454.187 499.664 455.68C498.544 457.12 496.97 458.32 494.944 459.28C492.917 460.24 490.65 460.72 488.144 460.72C484.997 460.72 482.49 460.08 480.624 458.8C478.757 457.52 477.557 455.84 477.024 453.76C475.104 455.893 472.97 457.52 470.624 458.64C468.33 459.707 465.984 460.24 463.584 460.24C459.85 460.24 456.704 459.333 454.144 457.52C451.637 455.653 450.384 453.067 450.384 449.76C450.384 448.267 450.65 446.72 451.184 445.12L456.304 428.4C456.464 427.92 456.544 427.52 456.544 427.2C456.544 426.613 456.41 426.16 456.144 425.84C455.877 425.467 455.477 425.093 454.944 424.72C454.41 424.293 454.037 423.92 453.824 423.6C453.61 423.28 453.584 422.853 453.744 422.32C454.064 421.093 455.744 420.027 458.784 419.12C461.824 418.16 464.997 417.68 468.304 417.68C471.397 417.68 473.664 418.267 475.104 419.44C476.544 420.613 477.264 422.213 477.264 424.24C477.264 425.467 477.077 426.64 476.704 427.76L471.664 444.4C471.45 444.987 471.344 445.547 471.344 446.08C471.344 446.827 471.557 447.387 471.984 447.76C472.41 448.133 472.97 448.32 473.664 448.32C474.677 448.32 475.504 448.027 476.144 447.44C476.784 446.853 477.424 445.867 478.064 444.48L482.944 428.4C483.104 427.92 483.184 427.52 483.184 427.2C483.184 426.613 483.05 426.16 482.784 425.84C482.517 425.467 482.144 425.093 481.664 424.72C481.13 424.293 480.757 423.92 480.544 423.6C480.33 423.28 480.304 422.853 480.464 422.32C480.73 421.093 482.384 420.027 485.424 419.12C488.464 418.16 491.637 417.68 494.944 417.68C498.037 417.68 500.304 418.267 501.744 419.44C503.237 420.613 503.984 422.187 503.984 424.16C503.984 425.173 503.77 426.373 503.344 427.76L496.864 448.96ZM533.228 417.28C536.481 417.28 539.334 417.76 541.788 418.72C544.241 419.627 546.134 420.907 547.468 422.56C548.854 424.16 549.548 425.947 549.548 427.92C549.548 430.053 548.801 431.813 547.308 433.2C545.868 434.587 543.894 435.28 541.388 435.28C538.828 435.28 536.828 434.64 535.388 433.36C533.948 432.027 533.228 430.24 533.228 428C533.228 426.933 533.388 425.813 533.708 424.64C531.468 425.227 529.468 426.4 527.707 428.16C526.001 429.867 524.854 432.133 524.268 434.96C523.948 436.56 523.788 438 523.788 439.28C523.788 442.16 524.588 444.347 526.188 445.84C527.788 447.333 530.081 448.08 533.068 448.08C534.774 448.08 536.241 447.92 537.468 447.6C538.694 447.227 539.948 446.747 541.228 446.16C542.294 445.627 543.068 445.36 543.548 445.36C543.868 445.36 544.081 445.44 544.188 445.6C544.294 445.707 544.348 445.973 544.348 446.4C544.401 448.373 543.574 450.453 541.868 452.64C540.214 454.773 537.894 456.587 534.908 458.08C531.974 459.52 528.668 460.24 524.988 460.24C521.148 460.24 517.734 459.547 514.747 458.16C511.814 456.72 509.521 454.693 507.868 452.08C506.268 449.413 505.468 446.32 505.468 442.8C505.468 441.147 505.681 439.307 506.108 437.28C507.548 430.667 510.721 425.68 515.628 422.32C520.588 418.96 526.454 417.28 533.228 417.28ZM594.987 417.68C598.027 417.68 600.454 418.533 602.267 420.24C604.134 421.893 605.067 423.92 605.067 426.32C605.067 428.88 604.294 430.88 602.747 432.32C601.2 433.76 599.174 434.48 596.667 434.48C594.427 434.48 592.694 433.92 591.467 432.8C590.24 431.627 589.654 430.32 589.707 428.88C589.174 428.773 588.72 428.987 588.347 429.52C587.974 430.053 587.574 431.093 587.147 432.64C586.88 433.653 586.374 434.587 585.627 435.44C589.254 435.707 591.947 436.533 593.707 437.92C595.467 439.307 596.347 441.093 596.347 443.28C596.347 444.347 596.16 445.413 595.787 446.48L595.147 448.96C595.04 449.227 594.987 449.573 594.987 450C594.987 450.747 595.334 451.12 596.027 451.12C596.667 451.12 597.2 450.853 597.627 450.32C598.107 449.733 598.427 449.44 598.587 449.44C598.854 449.44 599.067 449.627 599.227 450C599.387 450.32 599.467 450.72 599.467 451.2C599.52 452.747 599.04 454.267 598.027 455.76C597.067 457.2 595.574 458.4 593.547 459.36C591.574 460.267 589.174 460.72 586.347 460.72C582.934 460.72 580.08 459.867 577.787 458.16C575.547 456.453 574.427 454.213 574.427 451.44C574.427 450.427 574.64 449.28 575.067 448L576.587 444C576.854 443.04 576.987 442.347 576.987 441.92C576.987 441.227 576.747 440.72 576.267 440.4C575.84 440.08 575.147 439.92 574.187 439.92H572.587L568.987 451.68C568.827 452.32 568.747 452.88 568.747 453.36C568.747 454.053 568.88 454.613 569.147 455.04C569.414 455.413 569.787 455.787 570.267 456.16C570.64 456.533 570.907 456.853 571.067 457.12C571.227 457.333 571.254 457.627 571.147 458C570.88 458.693 570.347 459.2 569.547 459.52C568.747 459.84 567.52 460 565.867 460H547.627C546.24 460 545.227 459.787 544.587 459.36C543.947 458.88 543.734 458.267 543.947 457.52C544.16 456.88 544.72 456.32 545.627 455.84C546.427 455.413 547.094 454.907 547.627 454.32C548.16 453.733 548.614 452.8 548.987 451.52L561.147 411.6C561.307 411.12 561.387 410.72 561.387 410.4C561.387 409.813 561.227 409.333 560.907 408.96C560.64 408.587 560.267 408.213 559.787 407.84C559.254 407.413 558.854 407.04 558.587 406.72C558.374 406.4 558.347 405.973 558.507 405.44C558.827 404.213 560.507 403.147 563.547 402.24C566.587 401.333 569.76 400.88 573.067 400.88C576.16 400.88 578.427 401.467 579.867 402.64C581.307 403.76 582.027 405.333 582.027 407.36C582.027 408.587 581.84 409.76 581.467 410.88L574.507 433.6H577.147C578.214 433.6 579.067 433.28 579.707 432.64C580.4 432 580.934 431.067 581.307 429.84C582.64 425.893 584.374 422.88 586.507 420.8C588.64 418.72 591.467 417.68 594.987 417.68ZM646.666 417.68C649.012 417.68 650.879 418.64 652.266 420.56C653.706 422.427 654.426 424.987 654.426 428.24C654.426 431.067 653.919 434.107 652.906 437.36C650.932 443.92 647.759 450.107 643.386 455.92C639.066 461.733 634.079 466.4 628.426 469.92C622.826 473.44 617.226 475.2 611.626 475.2C608.852 475.2 606.452 474.72 604.426 473.76C602.452 472.8 600.959 471.52 599.946 469.92C598.879 468.32 598.346 466.613 598.346 464.8C598.346 464 598.479 463.12 598.746 462.16C599.226 460.667 600.026 459.52 601.146 458.72C602.266 457.92 603.599 457.52 605.146 457.52C607.599 457.52 609.599 458.347 611.146 460C612.746 461.707 613.759 464.027 614.186 466.96C617.599 466.8 620.746 465.333 623.626 462.56C620.906 462.08 618.879 461.173 617.546 459.84C616.266 458.453 615.386 456.32 614.906 453.44L611.706 433.84C611.546 432.827 611.306 432.133 610.986 431.76C610.719 431.333 610.346 431.12 609.866 431.12C609.492 431.12 609.039 431.307 608.506 431.68C608.026 432.053 607.679 432.24 607.466 432.24C607.039 432.24 606.826 431.787 606.826 430.88C606.826 430.133 606.959 429.333 607.226 428.48C608.186 425.44 609.972 422.88 612.586 420.8C615.199 418.667 618.239 417.6 621.706 417.6C625.119 417.6 627.626 418.613 629.226 420.64C630.879 422.667 631.946 425.787 632.426 430L634.826 447.6C634.986 448.933 635.466 449.6 636.266 449.6C637.226 449.6 638.346 448.747 639.626 447.04C640.906 445.28 642.159 442.8 643.386 439.6C641.786 438.16 640.559 436.507 639.706 434.64C638.852 432.773 638.426 430.773 638.426 428.64C638.426 426.987 638.639 425.493 639.066 424.16C639.706 422.027 640.692 420.427 642.026 419.36C643.412 418.24 644.959 417.68 646.666 417.68ZM699.811 406.24C702.797 406.24 705.544 406.613 708.051 407.36C710.611 408.053 713.197 409.173 715.811 410.72L717.651 409.2C718.931 408.187 719.971 407.493 720.771 407.12C721.624 406.747 722.584 406.56 723.651 406.56C724.931 406.56 725.944 406.853 726.691 407.44C727.437 407.973 727.811 408.773 727.811 409.84C727.811 410.267 727.731 410.72 727.571 411.2L724.211 422.24C723.837 423.52 723.357 424.427 722.771 424.96C722.237 425.493 721.411 425.76 720.291 425.76C719.117 425.76 718.077 425.413 717.171 424.72C716.317 423.973 714.957 422.48 713.091 420.24C711.224 418.107 709.517 416.613 707.971 415.76C706.477 414.853 704.931 414.4 703.331 414.4C702.157 414.4 701.171 414.8 700.371 415.6C699.571 416.347 699.171 417.28 699.171 418.4C699.171 419.68 699.811 420.88 701.091 422C702.371 423.067 704.371 424.427 707.091 426.08C709.864 427.733 712.157 429.227 713.971 430.56C715.784 431.893 717.331 433.547 718.611 435.52C719.891 437.493 720.531 439.76 720.531 442.32C720.531 443.973 720.264 445.627 719.731 447.28C718.451 451.547 715.971 454.8 712.291 457.04C708.611 459.227 704.317 460.32 699.411 460.32C695.731 460.32 692.637 459.893 690.131 459.04C687.624 458.187 685.064 456.747 682.451 454.72L679.571 457.12C678.237 458.24 677.144 459.013 676.291 459.44C675.437 459.813 674.477 460 673.411 460C672.184 460 671.197 459.707 670.451 459.12C669.757 458.533 669.411 457.733 669.411 456.72C669.411 456.187 669.517 455.627 669.731 455.04L673.651 443.12C674.077 441.733 674.664 440.747 675.411 440.16C676.157 439.573 677.117 439.28 678.291 439.28C679.517 439.28 680.611 439.707 681.571 440.56C682.584 441.413 683.891 442.96 685.491 445.2C687.197 447.653 688.771 449.36 690.211 450.32C691.704 451.28 693.464 451.76 695.491 451.76C696.931 451.76 698.024 451.547 698.771 451.12C699.571 450.64 700.131 449.893 700.451 448.88C700.557 448.613 700.611 448.213 700.611 447.68C700.611 446.4 699.997 445.227 698.771 444.16C697.544 443.093 695.651 441.813 693.091 440.32C690.371 438.667 688.157 437.2 686.451 435.92C684.744 434.587 683.251 432.933 681.971 430.96C680.744 428.987 680.131 426.667 680.131 424C680.131 422.133 680.424 420.293 681.011 418.48C682.131 414.8 684.424 411.84 687.891 409.6C691.357 407.36 695.331 406.24 699.811 406.24ZM760.807 418.72C761.82 418.72 762.594 418.933 763.127 419.36C763.714 419.787 764.007 420.373 764.007 421.12C764.007 421.333 763.954 421.707 763.847 422.24C763.154 424.587 761.554 425.76 759.047 425.76H754.407L748.407 445.52C748.14 446.32 748.007 447.147 748.007 448C748.007 448.96 748.274 449.627 748.807 450C749.34 450.373 750.087 450.56 751.047 450.56C751.9 450.56 752.967 450.453 754.247 450.24C754.887 450.08 755.447 450 755.927 450C756.3 450 756.567 450.133 756.727 450.4C756.94 450.613 757.047 450.907 757.047 451.28C757.1 452.347 756.3 453.653 754.647 455.2C753.047 456.693 750.86 458 748.087 459.12C745.314 460.187 742.247 460.72 738.887 460.72C735.26 460.72 732.354 459.893 730.167 458.24C727.98 456.587 726.887 454.32 726.887 451.44C726.887 450.107 727.1 448.827 727.527 447.6L732.647 431.76C732.914 430.853 733.047 430.133 733.047 429.6C733.047 428.533 732.78 427.627 732.247 426.88C731.767 426.133 731.074 425.36 730.167 424.56C729.367 423.813 728.807 423.2 728.487 422.72C728.167 422.187 728.087 421.573 728.247 420.88C728.46 420.187 728.914 419.653 729.607 419.28C730.3 418.907 731.394 418.72 732.887 418.72H737.367L742.407 413.68C744.167 411.92 745.767 410.693 747.207 410C748.7 409.307 750.62 408.96 752.967 408.96C756.327 408.96 758.007 410.24 758.007 412.8C758.007 413.6 757.9 414.347 757.687 415.04L756.567 418.72H760.807ZM798.702 417.68C801.689 417.68 804.062 418.587 805.822 420.4C807.635 422.213 808.542 424.453 808.542 427.12C808.542 428.133 808.435 429.067 808.222 429.92C807.689 432.107 806.675 433.787 805.182 434.96C803.689 436.133 801.902 436.72 799.822 436.72C797.795 436.72 796.249 436.24 795.182 435.28C794.169 434.32 793.262 433.04 792.462 431.44C792.035 430.533 791.635 429.867 791.262 429.44C790.889 429.013 790.462 428.8 789.982 428.8C789.449 428.8 788.969 429.013 788.542 429.44C788.169 429.867 787.822 430.613 787.502 431.68L781.342 451.68C781.235 451.947 781.182 452.347 781.182 452.88C781.182 453.573 781.369 454.16 781.742 454.64C782.169 455.067 782.729 455.493 783.422 455.92C784.062 456.347 784.489 456.693 784.702 456.96C784.915 457.227 784.995 457.573 784.942 458C784.835 458.693 784.435 459.2 783.742 459.52C783.102 459.84 781.982 460 780.382 460H759.902C758.515 460 757.529 459.787 756.942 459.36C756.302 458.88 756.062 458.267 756.222 457.52C756.435 456.88 756.995 456.32 757.902 455.84C758.702 455.413 759.369 454.907 759.902 454.32C760.435 453.733 760.889 452.8 761.262 451.52L768.382 428.4C768.489 428.133 768.542 427.76 768.542 427.28C768.542 426.693 768.409 426.24 768.142 425.92C767.929 425.6 767.555 425.2 767.022 424.72C766.489 424.293 766.115 423.92 765.902 423.6C765.689 423.28 765.662 422.853 765.822 422.32C766.142 421.093 767.822 420.027 770.862 419.12C773.902 418.16 777.075 417.68 780.382 417.68C782.569 417.68 784.382 418.187 785.822 419.2C787.262 420.16 788.195 421.547 788.622 423.36C791.182 419.573 794.542 417.68 798.702 417.68ZM832.87 417.28C839.643 417.28 844.55 418.373 847.59 420.56C850.63 422.693 852.15 425.44 852.15 428.8C852.15 429.813 852.043 430.747 851.83 431.6C851.03 435.12 848.79 437.653 845.11 439.2C841.483 440.693 837.19 441.44 832.23 441.44C829.723 441.44 827.377 441.28 825.19 440.96C825.137 443.733 825.883 445.68 827.43 446.8C828.977 447.92 831.137 448.48 833.91 448.48C835.19 448.48 836.417 448.347 837.59 448.08C838.763 447.76 840.257 447.307 842.07 446.72C843.563 446.187 844.577 445.92 845.11 445.92C845.697 445.92 845.99 446.267 845.99 446.96C846.043 448.827 845.35 450.8 843.91 452.88C842.47 454.907 840.337 456.64 837.51 458.08C834.683 459.52 831.27 460.24 827.27 460.24C821.35 460.24 816.497 458.747 812.71 455.76C808.923 452.773 807.03 448.427 807.03 442.72C807.03 441.12 807.243 439.253 807.67 437.12C809.003 430.56 811.91 425.627 816.39 422.32C820.923 418.96 826.417 417.28 832.87 417.28ZM825.75 436.16C825.963 436.213 826.257 436.24 826.63 436.24C828.87 436.24 830.577 435.2 831.75 433.12C832.923 431.04 833.483 428.72 833.43 426.16C833.377 424.667 832.95 423.92 832.15 423.92C831.563 423.92 830.87 424.4 830.07 425.36C829.27 426.267 828.47 427.653 827.67 429.52C826.923 431.387 826.283 433.6 825.75 436.16ZM879.076 417.68C885.209 417.68 890.116 418.827 893.796 421.12C897.476 423.36 899.316 426.8 899.316 431.44C899.316 433.2 898.996 435.2 898.356 437.44L895.076 448.48C895.022 448.693 894.996 448.96 894.996 449.28C894.996 450.133 895.342 450.56 896.036 450.56C896.676 450.56 897.209 450.293 897.636 449.76C898.116 449.173 898.436 448.88 898.596 448.88C898.862 448.88 899.076 449.067 899.236 449.44C899.449 449.813 899.556 450.24 899.556 450.72C899.609 452.16 899.049 453.627 897.876 455.12C896.756 456.613 895.236 457.84 893.316 458.8C891.396 459.76 889.289 460.24 886.996 460.24C884.222 460.24 881.849 459.733 879.876 458.72C877.902 457.707 876.542 456.213 875.796 454.24C874.196 456.16 872.302 457.653 870.116 458.72C867.929 459.733 865.582 460.24 863.076 460.24C860.249 460.24 857.876 459.707 855.956 458.64C854.036 457.52 852.596 456.107 851.636 454.4C850.729 452.64 850.276 450.8 850.276 448.88C850.276 448.027 850.356 447.2 850.516 446.4C851.369 442.72 853.209 439.947 856.036 438.08C858.916 436.213 862.329 435.28 866.276 435.28C870.702 435.28 875.049 435.973 879.316 437.36L881.316 432.08C882.009 429.84 882.356 428.107 882.356 426.88C882.302 425.6 881.876 424.64 881.076 424C880.276 423.36 879.049 423.04 877.396 423.04C877.716 423.893 877.876 424.773 877.876 425.68C877.876 427.653 877.129 429.36 875.636 430.8C874.142 432.24 872.009 432.96 869.236 432.96C866.622 432.96 864.569 432.4 863.076 431.28C861.636 430.107 860.916 428.667 860.916 426.96C860.916 424.293 862.409 422.08 865.396 420.32C868.382 418.56 872.942 417.68 879.076 417.68ZM874.596 441.92C873.102 441.92 871.876 442.507 870.916 443.68C870.009 444.8 869.556 446.027 869.556 447.36C869.556 448.213 869.742 448.907 870.116 449.44C870.542 449.973 871.129 450.24 871.876 450.24C872.569 450.24 873.316 449.973 874.116 449.44C874.969 448.853 875.582 448 875.956 446.88L877.636 442.16C876.729 442 875.716 441.92 874.596 441.92ZM950.299 417.68C953.339 417.68 955.766 418.533 957.579 420.24C959.446 421.893 960.379 423.92 960.379 426.32C960.379 428.88 959.606 430.88 958.059 432.32C956.513 433.76 954.486 434.48 951.979 434.48C949.739 434.48 948.006 433.92 946.779 432.8C945.553 431.627 944.966 430.32 945.019 428.88C944.486 428.773 944.033 428.987 943.659 429.52C943.286 430.053 942.886 431.093 942.459 432.64C942.193 433.653 941.686 434.587 940.939 435.44C944.566 435.707 947.259 436.533 949.019 437.92C950.779 439.307 951.659 441.093 951.659 443.28C951.659 444.347 951.473 445.413 951.099 446.48L950.459 448.96C950.353 449.227 950.299 449.573 950.299 450C950.299 450.747 950.646 451.12 951.339 451.12C951.979 451.12 952.513 450.853 952.939 450.32C953.419 449.733 953.739 449.44 953.899 449.44C954.166 449.44 954.379 449.627 954.539 450C954.699 450.32 954.779 450.72 954.779 451.2C954.833 452.747 954.353 454.267 953.339 455.76C952.379 457.2 950.886 458.4 948.859 459.36C946.886 460.267 944.486 460.72 941.659 460.72C938.246 460.72 935.393 459.867 933.099 458.16C930.859 456.453 929.739 454.213 929.739 451.44C929.739 450.427 929.953 449.28 930.379 448L931.899 444C932.166 443.04 932.299 442.347 932.299 441.92C932.299 441.227 932.059 440.72 931.579 440.4C931.153 440.08 930.459 439.92 929.499 439.92H927.899L924.299 451.68C924.139 452.32 924.059 452.88 924.059 453.36C924.059 454.053 924.193 454.613 924.459 455.04C924.726 455.413 925.099 455.787 925.579 456.16C925.953 456.533 926.219 456.853 926.379 457.12C926.539 457.333 926.566 457.627 926.459 458C926.193 458.693 925.659 459.2 924.859 459.52C924.059 459.84 922.833 460 921.179 460H902.939C901.553 460 900.539 459.787 899.899 459.36C899.259 458.88 899.046 458.267 899.259 457.52C899.473 456.88 900.033 456.32 900.939 455.84C901.739 455.413 902.406 454.907 902.939 454.32C903.473 453.733 903.926 452.8 904.299 451.52L916.459 411.6C916.619 411.12 916.699 410.72 916.699 410.4C916.699 409.813 916.539 409.333 916.219 408.96C915.953 408.587 915.579 408.213 915.099 407.84C914.566 407.413 914.166 407.04 913.899 406.72C913.686 406.4 913.659 405.973 913.819 405.44C914.139 404.213 915.819 403.147 918.859 402.24C921.899 401.333 925.073 400.88 928.379 400.88C931.473 400.88 933.739 401.467 935.179 402.64C936.619 403.76 937.339 405.333 937.339 407.36C937.339 408.587 937.153 409.76 936.779 410.88L929.819 433.6H932.459C933.526 433.6 934.379 433.28 935.019 432.64C935.713 432 936.246 431.067 936.619 429.84C937.953 425.893 939.686 422.88 941.819 420.8C943.953 418.72 946.779 417.68 950.299 417.68Z" fill="url(#paint3_linear_81_67)"/>
<circle cx="243" cy="633" r="60" fill="url(#paint4_radial_81_67)"/>
<circle cx="243" cy="1137" r="60" fill="url(#paint5_radial_81_67)"/>
<circle cx="243" cy="1305" r="60" fill="url(#paint6_radial_81_67)"/>
<circle cx="243" cy="969" r="60" fill="url(#paint7_radial_81_67)"/>
<circle cx="243" cy="801" r="60" fill="url(#paint8_radial_81_67)"/>
<circle cx="903" cy="633" r="60" fill="url(#paint9_radial_81_67)"/>
<circle cx="903" cy="1305" r="60" fill="url(#paint10_radial_81_67)"/>
<circle cx="903" cy="1137" r="60" fill="url(#paint11_radial_81_67)"/>
<circle cx="903" cy="969" r="60" fill="url(#paint12_radial_81_67)"/>
<circle cx="903" cy="801" r="60" fill="url(#paint13_radial_81_67)"/>
<circle cx="683" cy="633" r="60" fill="url(#paint14_radial_81_67)"/>
<circle cx="683" cy="1137" r="60" fill="url(#paint15_radial_81_67)"/>
<circle cx="683" cy="1305" r="60" fill="url(#paint16_radial_81_67)"/>
<circle cx="683" cy="969" r="60" fill="url(#paint17_radial_81_67)"/>
<circle cx="683" cy="801" r="60" fill="url(#paint18_radial_81_67)"/>
<circle cx="463" cy="633" r="60" fill="url(#paint19_radial_81_67)"/>
<circle cx="463" cy="1137" r="60" fill="url(#paint20_radial_81_67)"/>
<circle cx="464" cy="1305" r="60" fill="url(#paint21_radial_81_67)"/>
<circle cx="463" cy="969" r="60" fill="url(#paint22_radial_81_67)"/>
<circle cx="463" cy="801" r="60" fill="url(#paint23_radial_81_67)"/>
<defs>
<linearGradient id="paint0_linear_81_67" x1="573" y1="0" x2="573" y2="1530" gradientUnits="userSpaceOnUse">
<stop stop-color="#C349B7" stop-opacity="0.1875"/>
<stop offset="0.151042" stop-color="#D382C1" stop-opacity="0.848958"/>
<stop offset="0.291667" stop-color="#D3D490" stop-opacity="0.708333"/>
<stop offset="0.463542" stop-color="#74D963" stop-opacity="0.536458"/>
<stop offset="0.651042" stop-color="#4EAEB5" stop-opacity="0.348958"/>
<stop offset="0.765625" stop-color="#9D65C9" stop-opacity="0.234375"/>
<stop offset="0.9999" stop-color="#C449B7" stop-opacity="0.1875"/>
<stop offset="1" stop-color="#D9D9D9" stop-opacity="0"/>
</linearGradient>
<linearGradient id="paint1_linear_81_67" x1="573" y1="195.825" x2="573" y2="1333.18" gradientUnits="userSpaceOnUse">
<stop stop-color="#E4B028" stop-opacity="0.5"/>
<stop offset="0.203125" stop-color="#E4B028" stop-opacity="0.3"/>
<stop offset="0.385417" stop-color="#E4B028" stop-opacity="0.3"/>
<stop offset="0.536458" stop-color="#E4B028" stop-opacity="0.75"/>
<stop offset="0.6875" stop-color="#E4B028" stop-opacity="0.6"/>
<stop offset="0.786458" stop-color="#E4B028" stop-opacity="0.75"/>
<stop offset="0.942708" stop-color="#E4B028" stop-opacity="0.4"/>
</linearGradient>
<linearGradient id="paint2_linear_81_67" x1="595" y1="144" x2="595" y2="494" gradientUnits="userSpaceOnUse">
<stop stop-color="#DDE4AD"/>
<stop offset="1" stop-color="#DDE4AD" stop-opacity="0"/>
</linearGradient>
<linearGradient id="paint3_linear_81_67" x1="595" y1="144" x2="595" y2="494" gradientUnits="userSpaceOnUse">
<stop stop-color="#DDE4AD" stop-opacity="0.745902"/>
<stop offset="0.166667" stop-color="#DDE4AD"/>
<stop offset="0.4" stop-color="#DDE4AD"/>
<stop offset="0.6" stop-color="#DDE4AD"/>
<stop offset="0.8" stop-color="#DDE4AD"/>
<stop offset="1" stop-color="#DDE4AD" stop-opacity="0"/>
</linearGradient>
<radialGradient id="paint4_radial_81_67" cx="0" cy="0" r="1" gradientUnits="userSpaceOnUse" gradientTransform="translate(243 633) rotate(90) scale(104 305.067)">
<stop offset="0.104167" stop-color="#C0C0C0"/>
<stop offset="0.244792" stop-color="#C7C7C7" stop-opacity="0.843023"/>
<stop offset="0.354167" stop-color="#CDCDCD" stop-opacity="0.72093"/>
<stop offset="0.432292" stop-color="#D1D1D1" stop-opacity="0.633721"/>
<stop offset="0.552083" stop-color="#D7D7D7" stop-opacity="0.5"/>
<stop offset="1" stop-color="#C0C0C0" stop-opacity="0"/>
</radialGradient>
<radialGradient id="paint5_radial_81_67" cx="0" cy="0" r="1" gradientUnits="userSpaceOnUse" gradientTransform="translate(243 1137) rotate(90) scale(104 305.067)">
<stop offset="0.104167" stop-color="#C0C0C0"/>
<stop offset="0.244792" stop-color="#C7C7C7" stop-opacity="0.843023"/>
<stop offset="0.354167" stop-color="#CDCDCD" stop-opacity="0.72093"/>
<stop offset="0.432292" stop-color="#D1D1D1" stop-opacity="0.633721"/>
<stop offset="0.552083" stop-color="#D7D7D7" stop-opacity="0.5"/>
<stop offset="1" stop-color="#C0C0C0" stop-opacity="0"/>
</radialGradient>
<radialGradient id="paint6_radial_81_67" cx="0" cy="0" r="1" gradientUnits="userSpaceOnUse" gradientTransform="translate(243 1305) rotate(90) scale(104 305.067)">
<stop offset="0.104167" stop-color="#C0C0C0"/>
<stop offset="0.244792" stop-color="#C7C7C7" stop-opacity="0.843023"/>
<stop offset="0.354167" stop-color="#CDCDCD" stop-opacity="0.72093"/>
<stop offset="0.432292" stop-color="#D1D1D1" stop-opacity="0.633721"/>
<stop offset="0.552083" stop-color="#D7D7D7" stop-opacity="0.5"/>
<stop offset="1" stop-color="#C0C0C0" stop-opacity="0"/>
</radialGradient>
<radialGradient id="paint7_radial_81_67" cx="0" cy="0" r="1" gradientUnits="userSpaceOnUse" gradientTransform="translate(243 969) rotate(90) scale(104 305.067)">
<stop offset="0.104167" stop-color="#C0C0C0"/>
<stop offset="0.244792" stop-color="#C7C7C7" stop-opacity="0.843023"/>
<stop offset="0.354167" stop-color="#CDCDCD" stop-opacity="0.72093"/>
<stop offset="0.432292" stop-color="#D1D1D1" stop-opacity="0.633721"/>
<stop offset="0.552083" stop-color="#D7D7D7" stop-opacity="0.5"/>
<stop offset="1" stop-color="#C0C0C0" stop-opacity="0"/>
</radialGradient>
<radialGradient id="paint8_radial_81_67" cx="0" cy="0" r="1" gradientUnits="userSpaceOnUse" gradientTransform="translate(243 801) rotate(90) scale(104 305.067)">
<stop offset="0.104167" stop-color="#C0C0C0"/>
<stop offset="0.244792" stop-color="#C7C7C7" stop-opacity="0.843023"/>
<stop offset="0.354167" stop-color="#CDCDCD" stop-opacity="0.72093"/>
<stop offset="0.432292" stop-color="#D1D1D1" stop-opacity="0.633721"/>
<stop offset="0.552083" stop-color="#D7D7D7" stop-opacity="0.5"/>
<stop offset="1" stop-color="#C0C0C0" stop-opacity="0"/>
</radialGradient>
<radialGradient id="paint9_radial_81_67" cx="0" cy="0" r="1" gradientUnits="userSpaceOnUse" gradientTransform="translate(903 633) rotate(90) scale(104 305.067)">
<stop offset="0.104167" stop-color="#C0C0C0"/>
<stop offset="0.244792" stop-color="#C7C7C7" stop-opacity="0.843023"/>
<stop offset="0.354167" stop-color="#CDCDCD" stop-opacity="0.72093"/>
<stop offset="0.432292" stop-color="#D1D1D1" stop-opacity="0.633721"/>
<stop offset="0.552083" stop-color="#D7D7D7" stop-opacity="0.5"/>
<stop offset="1" stop-color="#C0C0C0" stop-opacity="0"/>
</radialGradient>
<radialGradient id="paint10_radial_81_67" cx="0" cy="0" r="1" gradientUnits="userSpaceOnUse" gradientTransform="translate(903 1305) rotate(90) scale(104 305.067)">
<stop offset="0.104167" stop-color="#C0C0C0"/>
<stop offset="0.244792" stop-color="#C7C7C7" stop-opacity="0.843023"/>
<stop offset="0.354167" stop-color="#CDCDCD" stop-opacity="0.72093"/>
<stop offset="0.432292" stop-color="#D1D1D1" stop-opacity="0.633721"/>
<stop offset="0.552083" stop-color="#D7D7D7" stop-opacity="0.5"/>
<stop offset="1" stop-color="#C0C0C0" stop-opacity="0"/>
</radialGradient>
<radialGradient id="paint11_radial_81_67" cx="0" cy="0" r="1" gradientUnits="userSpaceOnUse" gradientTransform="translate(903 1137) rotate(90) scale(104 305.067)">
<stop offset="0.104167" stop-color="#C0C0C0"/>
<stop offset="0.244792" stop-color="#C7C7C7" stop-opacity="0.843023"/>
<stop offset="0.354167" stop-color="#CDCDCD" stop-opacity="0.72093"/>
<stop offset="0.432292" stop-color="#D1D1D1" stop-opacity="0.633721"/>
<stop offset="0.552083" stop-color="#D7D7D7" stop-opacity="0.5"/>
<stop offset="1" stop-color="#C0C0C0" stop-opacity="0"/>
</radialGradient>
<radialGradient id="paint12_radial_81_67" cx="0" cy="0" r="1" gradientUnits="userSpaceOnUse" gradientTransform="translate(903 969) rotate(90) scale(104 305.067)">
<stop offset="0.104167" stop-color="#C0C0C0"/>
<stop offset="0.244792" stop-color="#C7C7C7" stop-opacity="0.843023"/>
<stop offset="0.354167" stop-color="#CDCDCD" stop-opacity="0.72093"/>
<stop offset="0.432292" stop-color="#D1D1D1" stop-opacity="0.633721"/>
<stop offset="0.552083" stop-color="#D7D7D7" stop-opacity="0.5"/>
<stop offset="1" stop-color="#C0C0C0" stop-opacity="0"/>
</radialGradient>
<radialGradient id="paint13_radial_81_67" cx="0" cy="0" r="1" gradientUnits="userSpaceOnUse" gradientTransform="translate(903 801) rotate(90) scale(104 305.067)">
<stop offset="0.104167" stop-color="#C0C0C0"/>
<stop offset="0.244792" stop-color="#C7C7C7" stop-opacity="0.843023"/>
<stop offset="0.354167" stop-color="#CDCDCD" stop-opacity="0.72093"/>
<stop offset="0.432292" stop-color="#D1D1D1" stop-opacity="0.633721"/>
<stop offset="0.552083" stop-color="#D7D7D7" stop-opacity="0.5"/>
<stop offset="1" stop-color="#C0C0C0" stop-opacity="0"/>
</radialGradient>
<radialGradient id="paint14_radial_81_67" cx="0" cy="0" r="1" gradientUnits="userSpaceOnUse" gradientTransform="translate(683 633) rotate(90) scale(104 305.067)">
<stop offset="0.104167" stop-color="#C0C0C0"/>
<stop offset="0.244792" stop-color="#C7C7C7" stop-opacity="0.843023"/>
<stop offset="0.354167" stop-color="#CDCDCD" stop-opacity="0.72093"/>
<stop offset="0.432292" stop-color="#D1D1D1" stop-opacity="0.633721"/>
<stop offset="0.552083" stop-color="#D7D7D7" stop-opacity="0.5"/>
<stop offset="1" stop-color="#C0C0C0" stop-opacity="0"/>
</radialGradient>
<radialGradient id="paint15_radial_81_67" cx="0" cy="0" r="1" gradientUnits="userSpaceOnUse" gradientTransform="translate(683 1137) rotate(90) scale(104 305.067)">
<stop offset="0.104167" stop-color="#C0C0C0"/>
<stop offset="0.244792" stop-color="#C7C7C7" stop-opacity="0.843023"/>
<stop offset="0.354167" stop-color="#CDCDCD" stop-opacity="0.72093"/>
<stop offset="0.432292" stop-color="#D1D1D1" stop-opacity="0.633721"/>
<stop offset="0.552083" stop-color="#D7D7D7" stop-opacity="0.5"/>
<stop offset="1" stop-color="#C0C0C0" stop-opacity="0"/>
</radialGradient>
<radialGradient id="paint16_radial_81_67" cx="0" cy="0" r="1" gradientUnits="userSpaceOnUse" gradientTransform="translate(683 1305) rotate(90) scale(104 305.067)">
<stop offset="0.104167" stop-color="#C0C0C0"/>
<stop offset="0.244792" stop-color="#C7C7C7" stop-opacity="0.843023"/>
<stop offset="0.354167" stop-color="#CDCDCD" stop-opacity="0.72093"/>
<stop offset="0.432292" stop-color="#D1D1D1" stop-opacity="0.633721"/>
<stop offset="0.552083" stop-color="#D7D7D7" stop-opacity="0.5"/>
<stop offset="1" stop-color="#C0C0C0" stop-opacity="0"/>
</radialGradient>
<radialGradient id="paint17_radial_81_67" cx="0" cy="0" r="1" gradientUnits="userSpaceOnUse" gradientTransform="translate(683 969) rotate(90) scale(104 305.067)">
<stop offset="0.104167" stop-color="#C0C0C0"/>
<stop offset="0.244792" stop-color="#C7C7C7" stop-opacity="0.843023"/>
<stop offset="0.354167" stop-color="#CDCDCD" stop-opacity="0.72093"/>
<stop offset="0.432292" stop-color="#D1D1D1" stop-opacity="0.633721"/>
<stop offset="0.552083" stop-color="#D7D7D7" stop-opacity="0.5"/>
<stop offset="1" stop-color="#C0C0C0" stop-opacity="0"/>
</radialGradient>
<radialGradient id="paint18_radial_81_67" cx="0" cy="0" r="1" gradientUnits="userSpaceOnUse" gradientTransform="translate(683 801) rotate(90) scale(104 305.067)">
<stop offset="0.104167" stop-color="#C0C0C0"/>
<stop offset="0.244792" stop-color="#C7C7C7" stop-opacity="0.843023"/>
<stop offset="0.354167" stop-color="#CDCDCD" stop-opacity="0.72093"/>
<stop offset="0.432292" stop-color="#D1D1D1" stop-opacity="0.633721"/>
<stop offset="0.552083" stop-color="#D7D7D7" stop-opacity="0.5"/>
<stop offset="1" stop-color="#C0C0C0" stop-opacity="0"/>
</radialGradient>
<radialGradient id="paint19_radial_81_67" cx="0" cy="0" r="1" gradientUnits="userSpaceOnUse" gradientTransform="translate(463 633) rotate(90) scale(104 305.067)">
<stop offset="0.104167" stop-color="#C0C0C0"/>
<stop offset="0.244792" stop-color="#C7C7C7" stop-opacity="0.843023"/>
<stop offset="0.354167" stop-color="#CDCDCD" stop-opacity="0.72093"/>
<stop offset="0.432292" stop-color="#D1D1D1" stop-opacity="0.633721"/>
<stop offset="0.552083" stop-color="#D7D7D7" stop-opacity="0.5"/>
<stop offset="1" stop-color="#C0C0C0" stop-opacity="0"/>
</radialGradient>
<radialGradient id="paint20_radial_81_67" cx="0" cy="0" r="1" gradientUnits="userSpaceOnUse" gradientTransform="translate(463 1137) rotate(90) scale(104 305.067)">
<stop offset="0.104167" stop-color="#C0C0C0"/>
<stop offset="0.244792" stop-color="#C7C7C7" stop-opacity="0.843023"/>
<stop offset="0.354167" stop-color="#CDCDCD" stop-opacity="0.72093"/>
<stop offset="0.432292" stop-color="#D1D1D1" stop-opacity="0.633721"/>
<stop offset="0.552083" stop-color="#D7D7D7" stop-opacity="0.5"/>
<stop offset="1" stop-color="#C0C0C0" stop-opacity="0"/>
</radialGradient>
<radialGradient id="paint21_radial_81_67" cx="0" cy="0" r="1" gradientUnits="userSpaceOnUse" gradientTransform="translate(464 1305) rotate(90) scale(104 305.067)">
<stop offset="0.104167" stop-color="#C0C0C0"/>
<stop offset="0.244792" stop-color="#C7C7C7" stop-opacity="0.843023"/>
<stop offset="0.354167" stop-color="#CDCDCD" stop-opacity="0.72093"/>
<stop offset="0.432292" stop-color="#D1D1D1" stop-opacity="0.633721"/>
<stop offset="0.552083" stop-color="#D7D7D7" stop-opacity="0.5"/>
<stop offset="1" stop-color="#C0C0C0" stop-opacity="0"/>
</radialGradient>
<radialGradient id="paint22_radial_81_67" cx="0" cy="0" r="1" gradientUnits="userSpaceOnUse" gradientTransform="translate(463 969) rotate(90) scale(104 305.067)">
<stop offset="0.104167" stop-color="#C0C0C0"/>
<stop offset="0.244792" stop-color="#C7C7C7" stop-opacity="0.843023"/>
<stop offset="0.354167" stop-color="#CDCDCD" stop-opacity="0.72093"/>
<stop offset="0.432292" stop-color="#D1D1D1" stop-opacity="0.633721"/>
<stop offset="0.552083" stop-color="#D7D7D7" stop-opacity="0.5"/>
<stop offset="1" stop-color="#C0C0C0" stop-opacity="0"/>
</radialGradient>
<radialGradient id="paint23_radial_81_67" cx="0" cy="0" r="1" gradientUnits="userSpaceOnUse" gradientTransform="translate(463 801) rotate(90) scale(104 305.067)">
<stop offset="0.104167" stop-color="#C0C0C0"/>
<stop offset="0.244792" stop-color="#C7C7C7" stop-opacity="0.843023"/>
<stop offset="0.354167" stop-color="#CDCDCD" stop-opacity="0.72093"/>
<stop offset="0.432292" stop-color="#D1D1D1" stop-opacity="0.633721"/>
<stop offset="0.552083" stop-color="#D7D7D7" stop-opacity="0.5"/>
<stop offset="1" stop-color="#C0C0C0" stop-opacity="0"/>
</radialGradient>
</defs>
</svg>
