<svg width="864" height="1116" viewBox="0 0 864 1116" fill="none" xmlns="http://www.w3.org/2000/svg">
<rect x="72" width="36" height="1116" fill="#F1D1F0"/>
<rect x="108" width="36" height="1116" fill="#F5E4F5"/>
<rect x="144" width="36" height="1116" fill="#F1D1F0"/>
<rect x="180" width="36" height="1116" fill="#F5E4F5"/>
<rect x="252" width="36" height="1116" fill="#F5E4F5"/>
<rect opacity="0.8" x="216" width="36" height="1116" fill="#F1D1F0"/>
<rect x="36" width="36" height="1116" fill="#F5E4F5"/>
<rect width="36" height="1116" fill="#F1D1F0"/>
<rect x="360" width="36" height="1116" fill="#F1D1F0"/>
<rect x="396" width="36" height="1116" fill="#F5E4F5"/>
<rect x="432" width="36" height="1116" fill="#F1D1F0"/>
<rect x="468" width="36" height="1116" fill="#F5E4F5"/>
<rect x="540" width="36" height="1116" fill="#F5E4F5"/>
<rect opacity="0.8" x="504" width="36" height="1116" fill="#F1D1F0"/>
<rect x="324" width="36" height="1116" fill="#F5E4F5"/>
<rect x="288" width="36" height="1116" fill="#F1D1F0"/>
<rect x="648" width="36" height="1116" fill="#F1D1F0"/>
<rect x="684" width="36" height="1116" fill="#F5E4F5"/>
<rect x="720" width="36" height="1116" fill="#F1D1F0"/>
<rect x="756" width="36" height="1116" fill="#F5E4F5"/>
<rect x="828" width="36" height="1116" fill="#F5E4F5"/>
<rect opacity="0.8" x="792" width="36" height="1116" fill="#F1D1F0"/>
<rect x="612" width="36" height="1116" fill="#F5E4F5"/>
<rect x="576" width="36" height="1116" fill="#F1D1F0"/>
<path d="M200.984 316.094C203.016 315.781 204.617 315.977 205.789 316.68C207.039 317.305 207.586 318.516 207.43 320.312C207.352 321.328 206.922 322.305 206.141 323.242C205.438 324.102 204.539 324.883 203.445 325.586C202.43 326.289 201.336 326.836 200.164 327.227C198.992 327.617 197.977 327.812 197.117 327.812C195.555 327.812 194.188 327.461 193.016 326.758C191.766 326.055 191.219 324.922 191.375 323.359C191.453 322.344 191.805 321.445 192.43 320.664C192.977 319.805 193.719 319.062 194.656 318.438C195.516 317.812 196.492 317.305 197.586 316.914C198.758 316.523 199.891 316.25 200.984 316.094ZM226.648 316.094C228.68 315.781 230.281 315.977 231.453 316.68C232.703 317.305 233.25 318.516 233.094 320.312C233.016 321.328 232.586 322.305 231.805 323.242C231.102 324.102 230.203 324.883 229.109 325.586C228.094 326.289 227 326.836 225.828 327.227C224.656 327.617 223.641 327.812 222.781 327.812C221.219 327.812 219.852 327.461 218.68 326.758C217.43 326.055 216.883 324.922 217.039 323.359C217.117 322.344 217.469 321.445 218.094 320.664C218.641 319.805 219.383 319.062 220.32 318.438C221.18 317.812 222.156 317.305 223.25 316.914C224.422 316.523 225.555 316.25 226.648 316.094ZM252.312 316.094C254.344 315.781 255.945 315.977 257.117 316.68C258.367 317.305 258.914 318.516 258.758 320.312C258.68 321.328 258.25 322.305 257.469 323.242C256.766 324.102 255.867 324.883 254.773 325.586C253.758 326.289 252.664 326.836 251.492 327.227C250.32 327.617 249.305 327.812 248.445 327.812C246.883 327.812 245.516 327.461 244.344 326.758C243.094 326.055 242.547 324.922 242.703 323.359C242.781 322.344 243.133 321.445 243.758 320.664C244.305 319.805 245.047 319.062 245.984 318.438C246.844 317.812 247.82 317.305 248.914 316.914C250.086 316.523 251.219 316.25 252.312 316.094ZM315.242 295.352C315.555 294.883 315.945 294.609 316.414 294.531C316.961 294.375 317.391 294.414 317.703 294.648C318.016 294.883 318.172 295.273 318.172 295.82C318.25 296.367 318.055 297.109 317.586 298.047C316.023 301.016 313.953 304.219 311.375 307.656C308.875 311.094 306.219 314.336 303.406 317.383C300.594 320.352 297.859 322.812 295.203 324.766C292.547 326.719 290.32 327.695 288.523 327.695C285.945 327.695 283.797 327.188 282.078 326.172C280.359 325.156 278.992 323.906 277.977 322.422C277.039 320.938 276.375 319.336 275.984 317.617C275.594 315.82 275.477 314.18 275.633 312.695C275.711 311.445 275.984 309.219 276.453 306.016C276.922 302.734 277.547 298.984 278.328 294.766C279.109 290.469 279.969 285.898 280.906 281.055C281.922 276.133 282.977 271.406 284.07 266.875C282.742 267.031 281.414 267.188 280.086 267.344C278.758 267.5 277.547 267.578 276.453 267.578C273.953 267.578 271.609 267.305 269.422 266.758C267.156 266.133 265.477 265.547 264.383 265C263.758 264.688 263.484 264.258 263.562 263.711C263.641 263.086 263.875 262.5 264.266 261.953C264.656 261.328 265.164 260.82 265.789 260.43C266.336 259.961 266.844 259.727 267.312 259.727C268.797 259.883 270.398 260.039 272.117 260.195C273.836 260.273 275.711 260.273 277.742 260.195C279.227 260.117 280.633 260 281.961 259.844C283.367 259.688 284.734 259.492 286.062 259.258C287.078 255.508 288.055 252.266 288.992 249.531C290.008 246.719 290.906 244.766 291.688 243.672C291.922 243.281 292.43 242.969 293.211 242.734C294.07 242.422 294.969 242.227 295.906 242.148C296.844 241.992 297.742 241.992 298.602 242.148C299.461 242.227 300.086 242.5 300.477 242.969C300.867 243.594 301.023 245.195 300.945 247.773C300.867 250.352 300.438 253.633 299.656 257.617C302.938 257.617 305.828 257.812 308.328 258.203C310.906 258.516 313.094 258.906 314.891 259.375C316.688 259.766 318.133 260.195 319.227 260.664C320.32 261.055 321.141 261.328 321.688 261.484C322.234 261.641 322.508 262.031 322.508 262.656C322.586 263.281 322.469 263.945 322.156 264.648C321.922 265.273 321.492 265.82 320.867 266.289C320.242 266.758 319.539 266.914 318.758 266.758C317.977 266.68 317.078 266.523 316.062 266.289C315.125 266.055 313.953 265.859 312.547 265.703C311.219 265.547 309.617 265.391 307.742 265.234C305.867 265.078 303.68 265 301.18 265C300.711 265 300.164 265.039 299.539 265.117C298.992 265.117 298.406 265.117 297.781 265.117C297.469 266.367 297.156 267.617 296.844 268.867C296.609 270.039 296.258 271.289 295.789 272.617C294.773 275.742 293.602 279.141 292.273 282.812C291.102 286.016 289.695 289.688 288.055 293.828C286.414 297.969 284.578 302.383 282.547 307.07C282.078 310.43 282.117 313.008 282.664 314.805C283.289 316.523 284.031 317.773 284.891 318.555C285.906 319.414 287.156 319.883 288.641 319.961C289.812 320.117 291.219 319.727 292.859 318.789C294.578 317.773 296.336 316.445 298.133 314.805C299.93 313.164 301.727 311.367 303.523 309.414C305.398 307.461 307.117 305.547 308.68 303.672C310.242 301.797 311.609 300.117 312.781 298.633C313.953 297.07 314.773 295.977 315.242 295.352ZM342.898 306.367C342.117 309.336 341.062 312.109 339.734 314.688C338.406 317.266 336.805 319.492 334.93 321.367C333.133 323.242 331.062 324.688 328.719 325.703C326.453 326.797 323.953 327.344 321.219 327.344C318.016 327.344 315.477 326.641 313.602 325.234C311.805 323.906 310.438 322.227 309.5 320.195C308.641 318.164 308.133 315.938 307.977 313.516C307.742 311.094 307.625 308.828 307.625 306.719C307.625 305.234 307.82 303.594 308.211 301.797C308.523 300 308.992 298.164 309.617 296.289C310.242 294.414 311.023 292.539 311.961 290.664C312.977 288.789 314.148 287.07 315.477 285.508C315.945 284.18 316.648 283.008 317.586 281.992C318.602 280.977 319.734 280.156 320.984 279.531C322.312 278.828 323.719 278.32 325.203 278.008C326.688 277.617 328.133 277.422 329.539 277.422C329.773 277.422 329.969 277.461 330.125 277.539C330.359 277.617 330.594 277.695 330.828 277.773C331.844 277.852 333.094 278.242 334.578 278.945C336.141 279.648 337.625 280.703 339.031 282.109C340.516 283.516 341.766 285.312 342.781 287.5C343.797 289.609 344.305 292.188 344.305 295.234C344.305 295.859 344.266 296.641 344.188 297.578C344.109 298.438 344.031 299.18 343.953 299.805C345.75 299.102 347.625 298.242 349.578 297.227C351.531 296.211 353.406 295.156 355.203 294.062C357.078 292.891 358.797 291.719 360.359 290.547C361.922 289.375 363.172 288.32 364.109 287.383C364.891 286.68 365.555 286.289 366.102 286.211C366.648 286.133 367.039 286.289 367.273 286.68C367.508 287.07 367.547 287.617 367.391 288.32C367.234 289.023 366.805 289.805 366.102 290.664C365.711 291.133 364.695 292.07 363.055 293.477C361.492 294.883 359.617 296.406 357.43 298.047C355.242 299.688 352.859 301.289 350.281 302.852C347.703 304.414 345.242 305.586 342.898 306.367ZM323.094 288.555C322.859 289.258 322.742 290 322.742 290.781C322.742 292.031 322.82 293.359 322.977 294.766C323.133 296.094 323.523 297.305 324.148 298.398C324.773 299.492 325.75 300.43 327.078 301.211C328.484 301.914 330.398 302.266 332.82 302.266C333.211 302.266 333.602 302.266 333.992 302.266C334.383 302.188 334.773 302.109 335.164 302.031C335.398 301.016 335.594 300.117 335.75 299.336C335.984 298.477 336.102 297.734 336.102 297.109C336.258 295.625 336.258 294.102 336.102 292.539C335.945 290.977 335.633 289.57 335.164 288.32C334.773 286.992 334.227 285.938 333.523 285.156C332.898 284.297 332.117 283.867 331.18 283.867C329.695 283.867 328.25 284.297 326.844 285.156C325.516 285.938 324.266 287.07 323.094 288.555ZM315.594 309.18C315.594 310.586 315.672 311.992 315.828 313.398C315.984 314.727 316.297 315.938 316.766 317.031C317.234 318.047 317.859 318.906 318.641 319.609C319.422 320.234 320.438 320.547 321.688 320.547C323.094 320.547 324.383 320.234 325.555 319.609C326.727 318.906 327.781 318.047 328.719 317.031C329.656 315.938 330.477 314.727 331.18 313.398C331.961 311.992 332.625 310.547 333.172 309.062C332.625 309.141 332.078 309.219 331.531 309.297C331.062 309.297 330.516 309.297 329.891 309.297C326.922 309.297 324.344 308.438 322.156 306.719C320.047 304.922 318.406 302.656 317.234 299.922C316.766 301.562 316.375 303.164 316.062 304.727C315.75 306.289 315.594 307.773 315.594 309.18ZM391.414 312.812C390.555 311.953 389.93 311.133 389.539 310.352C389.227 309.492 388.992 308.672 388.836 307.891C388.68 307.031 388.68 306.172 388.836 305.312C389.148 304.219 389.617 303.203 390.242 302.266C390.789 301.406 391.531 300.547 392.469 299.688C393.406 298.75 394.656 297.891 396.219 297.109C397.234 294.609 398.133 291.992 398.914 289.258C399.773 286.445 400.516 283.906 401.141 281.641C401.844 278.984 402.469 276.328 403.016 273.672C404.969 267.031 405.984 261.641 406.062 257.5C406.141 253.281 406.062 250.508 405.828 249.18C405.75 248.633 405.672 248.086 405.594 247.539C405.438 247.07 405.281 246.562 405.125 246.016C405.047 245.391 404.93 244.805 404.773 244.258C405.633 243.789 406.375 243.398 407 243.086C407.703 242.773 408.289 242.539 408.758 242.383C409.305 242.148 409.812 241.992 410.281 241.914C412.078 241.523 413.758 241.328 415.32 241.328C416.961 241.25 417.859 241.523 418.016 242.148C418.094 242.539 418.172 243.242 418.25 244.258C418.406 245.273 418.484 246.523 418.484 248.008C418.484 249.492 418.367 251.172 418.133 253.047C417.898 254.844 417.469 256.758 416.844 258.789C416.297 260.586 415.555 263.086 414.617 266.289C413.758 269.023 412.625 272.695 411.219 277.305C409.812 281.836 407.977 287.656 405.711 294.766C408.055 293.984 410.633 293.242 413.445 292.539C416.258 291.836 419.109 291.25 422 290.781C424.969 290.312 427.898 289.961 430.789 289.727C433.758 289.492 436.492 289.453 438.992 289.609C439.461 289.609 439.773 289.844 439.93 290.312C440.164 290.703 440.164 291.133 439.93 291.602C439.773 292.07 439.344 292.539 438.641 293.008C438.016 293.398 437.078 293.633 435.828 293.711C434.266 293.867 432.547 294.062 430.672 294.297C428.797 294.453 426.844 294.727 424.812 295.117C422.859 295.43 420.906 295.859 418.953 296.406C417 296.875 415.164 297.461 413.445 298.164C412.117 298.633 410.789 299.102 409.461 299.57C408.367 299.961 407.195 300.43 405.945 300.977C404.773 301.445 403.797 301.875 403.016 302.266L400.32 310.82C404.852 314.023 408.328 317.305 410.75 320.664C413.25 324.023 415.047 327.109 416.141 329.922C417.469 333.203 418.211 336.406 418.367 339.531C418.367 342.969 417.859 346.406 416.844 349.844C415.828 353.359 414.461 356.68 412.742 359.805C411.102 363.008 409.148 365.977 406.883 368.711C404.695 371.445 402.352 373.789 399.852 375.742C397.43 377.695 394.93 379.18 392.352 380.195C389.852 381.211 387.469 381.602 385.203 381.367C383.562 381.211 382.195 380.664 381.102 379.727C380.008 378.867 379.188 377.734 378.641 376.328C378.094 375 377.781 373.477 377.703 371.758C377.625 370.117 377.781 368.477 378.172 366.836C378.484 365.195 379.148 362.148 380.164 357.695C381.023 353.945 382.352 348.477 384.148 341.289C385.945 334.18 388.367 324.688 391.414 312.812ZM398.328 318.32C397.234 322.227 396.258 325.82 395.398 329.102C394.617 332.383 393.953 335.273 393.406 337.773C392.703 340.664 392.156 343.281 391.766 345.625C391.062 348.594 390.32 351.523 389.539 354.414C388.836 357.305 388.289 359.883 387.898 362.148C387.43 364.492 387.234 366.367 387.312 367.773C387.391 369.18 387.898 369.883 388.836 369.883C391.102 370.039 393.445 369.141 395.867 367.188C398.367 365.312 400.633 362.891 402.664 359.922C404.695 357.031 406.375 353.867 407.703 350.43C409.031 347.07 409.695 343.945 409.695 341.055C409.695 337.852 409.188 334.688 408.172 331.562C407.469 329.922 406.648 328.32 405.711 326.758C404.852 325.43 403.797 324.023 402.547 322.539C401.375 320.977 399.969 319.57 398.328 318.32ZM453.875 255.977C453.641 256.836 453.172 257.695 452.469 258.555C451.844 259.336 451.102 260 450.242 260.547C449.461 261.016 448.641 261.328 447.781 261.484C446.922 261.641 446.219 261.484 445.672 261.016C444.031 259.766 443.172 258.438 443.094 257.031C443.016 255.547 443.367 254.18 444.148 252.93C444.93 251.602 445.906 250.508 447.078 249.648C448.25 248.711 449.266 248.164 450.125 248.008C450.984 247.852 451.688 248.047 452.234 248.594C452.859 249.062 453.328 249.727 453.641 250.586C453.953 251.367 454.109 252.266 454.109 253.281C454.188 254.297 454.109 255.195 453.875 255.977ZM437.703 280.938C438.094 280.469 438.836 280.078 439.93 279.766C441.023 279.453 442.156 279.219 443.328 279.062C444.5 278.828 445.555 278.711 446.492 278.711C447.508 278.633 448.094 278.633 448.25 278.711C448.328 278.789 448.133 279.609 447.664 281.172C447.195 282.734 446.609 284.57 445.906 286.68C445.203 288.789 444.461 290.977 443.68 293.242C442.898 295.43 442.312 297.227 441.922 298.633C441.531 300.039 441.062 301.641 440.516 303.438C439.969 305.156 439.461 306.875 438.992 308.594C438.602 310.234 438.328 311.797 438.172 313.281C438.016 314.766 438.133 315.898 438.523 316.68C438.914 317.617 439.344 318.281 439.812 318.672C440.281 318.984 440.789 319.141 441.336 319.141C442.898 319.141 444.852 318.281 447.195 316.562C449.617 314.844 452.039 312.812 454.461 310.469C456.961 308.047 459.266 305.625 461.375 303.203C463.484 300.703 465.047 298.711 466.062 297.227C466.688 296.445 467.312 295.938 467.938 295.703C468.641 295.469 469.188 295.508 469.578 295.82C470.047 296.133 470.281 296.641 470.281 297.344C470.359 298.047 470.125 298.867 469.578 299.805C468.328 301.992 466.492 304.609 464.07 307.656C461.648 310.625 459.07 313.516 456.336 316.328C453.602 319.062 450.906 321.406 448.25 323.359C445.672 325.312 443.562 326.328 441.922 326.406C440.594 326.484 439.266 326.25 437.938 325.703C436.688 325.234 435.516 324.57 434.422 323.711C433.406 322.773 432.547 321.719 431.844 320.547C431.141 319.297 430.75 318.008 430.672 316.68C430.438 314.727 430.438 312.07 430.672 308.711C430.906 305.273 431.336 301.797 431.961 298.281C432.586 294.688 433.367 291.289 434.305 288.086C435.32 284.883 436.453 282.5 437.703 280.938ZM495.828 327.93C494.031 327.93 492.469 327.578 491.141 326.875C489.891 326.25 488.875 325.391 488.094 324.297C487.312 323.203 486.805 321.953 486.57 320.547C486.336 319.062 486.414 317.5 486.805 315.859C487.039 314.766 487.43 313.32 487.977 311.523C488.523 309.648 489.07 307.656 489.617 305.547C490.242 303.359 490.789 301.211 491.258 299.102C491.805 296.914 492.156 294.961 492.312 293.242C492.469 291.445 492.391 290 492.078 288.906C491.766 287.734 491.102 287.148 490.086 287.148C488.836 287.148 487.547 287.578 486.219 288.438C484.891 289.219 483.523 290.312 482.117 291.719C480.789 293.125 479.422 294.766 478.016 296.641C476.688 298.438 475.359 300.312 474.031 302.266C473.328 304.922 472.742 307.266 472.273 309.297C471.805 311.25 471.375 313.047 470.984 314.688C470.672 316.25 470.359 317.656 470.047 318.906C469.734 320.078 469.461 321.211 469.227 322.305C468.992 323.086 468.289 323.867 467.117 324.648C465.945 325.352 464.695 325.938 463.367 326.406C462.039 326.875 460.906 327.109 459.969 327.109C458.953 327.109 458.523 326.758 458.68 326.055C458.758 325.586 459.031 324.531 459.5 322.891C459.891 321.25 460.398 319.336 461.023 317.148C461.57 314.883 462.156 312.5 462.781 310C463.406 307.5 463.992 305.117 464.539 302.852C464.93 301.055 465.359 299.062 465.828 296.875C466.219 295 466.688 292.812 467.234 290.312C467.859 287.812 468.562 285.078 469.344 282.109C469.891 281.641 470.438 281.289 470.984 281.055C471.609 280.742 472.234 280.508 472.859 280.352C473.484 280.117 474.148 279.961 474.852 279.883C475.477 279.883 476.102 279.922 476.727 280C477.273 280.078 477.82 280.234 478.367 280.469C478.992 280.625 479.539 280.898 480.008 281.289C479.773 281.836 479.5 282.617 479.188 283.633C478.875 284.57 478.562 285.586 478.25 286.68C477.938 287.93 477.547 289.219 477.078 290.547C478.094 289.141 479.227 287.734 480.477 286.328C481.805 284.844 483.211 283.516 484.695 282.344C486.258 281.172 487.898 280.234 489.617 279.531C491.336 278.75 493.094 278.359 494.891 278.359C496.375 278.359 497.703 278.789 498.875 279.648C500.047 280.508 500.945 281.719 501.57 283.281C502.273 284.766 502.664 286.562 502.742 288.672C502.898 290.781 502.625 293.086 501.922 295.586L500.633 300.742C500.242 302.383 499.734 304.336 499.109 306.602C498.562 308.789 497.859 311.211 497 313.867C496.531 315.586 496.336 317.07 496.414 318.32C496.57 319.57 497.352 320.195 498.758 320.195C500.164 320.195 501.922 319.336 504.031 317.617C506.219 315.898 508.406 313.828 510.594 311.406C512.781 308.984 514.852 306.523 516.805 304.023C518.758 301.445 520.242 299.375 521.258 297.812C521.961 296.797 522.625 296.133 523.25 295.82C523.875 295.508 524.344 295.469 524.656 295.703C525.047 295.938 525.242 296.484 525.242 297.344C525.242 298.125 524.93 299.141 524.305 300.391C523.758 301.484 522.898 302.93 521.727 304.727C520.633 306.523 519.305 308.438 517.742 310.469C516.18 312.5 514.5 314.57 512.703 316.68C510.906 318.711 509.031 320.586 507.078 322.305C505.125 323.945 503.172 325.273 501.219 326.289C499.344 327.383 497.547 327.93 495.828 327.93ZM553.719 302.617C553.328 305.039 552.938 307.344 552.547 309.531C552.234 311.719 552.039 313.477 551.961 314.805C551.883 316.758 552.234 318.164 553.016 319.023C553.797 319.883 554.656 320.312 555.594 320.312C556.688 320.312 558.016 319.766 559.578 318.672C561.219 317.578 562.938 316.211 564.734 314.57C566.531 312.93 568.328 311.133 570.125 309.18C571.922 307.227 573.562 305.391 575.047 303.672C576.609 301.875 577.898 300.312 578.914 298.984C580.008 297.656 580.75 296.797 581.141 296.406C581.609 295.938 582.078 295.664 582.547 295.586C583.094 295.508 583.523 295.586 583.836 295.82C584.148 296.055 584.305 296.484 584.305 297.109C584.305 297.734 583.992 298.516 583.367 299.453C582.43 300.938 581.219 302.695 579.734 304.727C578.25 306.68 576.609 308.711 574.812 310.82C573.016 312.93 571.102 315 569.07 317.031C567.117 319.062 565.125 320.859 563.094 322.422C561.141 323.984 559.227 325.234 557.352 326.172C555.555 327.188 553.914 327.695 552.43 327.695C551.336 327.695 550.281 327.383 549.266 326.758C548.328 326.133 547.469 325.312 546.688 324.297C545.906 323.281 545.281 322.148 544.812 320.898C544.422 319.648 544.266 318.398 544.344 317.148C544.422 316.602 544.539 315.664 544.695 314.336C541.414 318.008 538.094 320.938 534.734 323.125C531.453 325.234 528.289 326.289 525.242 326.289C524.148 326.289 522.977 326.016 521.727 325.469C520.477 324.922 519.344 324.023 518.328 322.773C517.391 321.523 516.609 319.883 515.984 317.852C515.359 315.82 515.125 313.359 515.281 310.469C515.516 305.938 516.414 301.641 517.977 297.578C519.539 293.516 521.492 290 523.836 287.031C526.258 283.984 528.953 281.602 531.922 279.883C534.969 278.086 538.016 277.188 541.062 277.188C542.391 277.188 543.602 277.539 544.695 278.242C545.789 278.867 546.727 279.727 547.508 280.82C548.289 281.836 548.914 282.969 549.383 284.219C549.93 285.469 550.32 286.641 550.555 287.734C551.102 285.469 551.609 283.242 552.078 281.055C552.547 278.867 553.016 276.797 553.484 274.844C554.266 271.953 555.086 268.828 555.945 265.469C556.727 262.578 557.625 259.258 558.641 255.508C559.656 251.758 560.789 247.812 562.039 243.672C562.82 243.047 563.562 242.578 564.266 242.266C564.969 241.953 565.633 241.719 566.258 241.562C566.961 241.328 567.625 241.211 568.25 241.211C569.031 241.211 569.734 241.328 570.359 241.562C570.984 241.719 571.492 242.227 571.883 243.086C572.352 243.867 572.664 245.078 572.82 246.719C572.977 248.359 572.977 250.586 572.82 253.398C572.664 256.836 572.039 260.586 570.945 264.648C569.93 268.711 568.562 272.93 566.844 277.305C565.125 281.602 563.133 285.938 560.867 290.312C558.68 294.609 556.297 298.711 553.719 302.617ZM546.805 304.141C547.117 302.656 547.391 301.172 547.625 299.688C547.938 298.203 548.289 296.68 548.68 295.117C548.523 295.195 548.367 295.273 548.211 295.352C548.133 295.43 548.016 295.508 547.859 295.586C547 295.977 546.414 295.977 546.102 295.586C545.789 295.117 545.633 294.414 545.633 293.477C545.633 293.008 545.594 292.188 545.516 291.016C545.438 289.766 545.203 288.516 544.812 287.266C544.5 285.938 543.992 284.805 543.289 283.867C542.586 282.852 541.609 282.344 540.359 282.344C538.562 282.344 536.727 283.281 534.852 285.156C532.977 286.953 531.219 289.18 529.578 291.836C527.938 294.414 526.57 297.188 525.477 300.156C524.383 303.125 523.758 305.781 523.602 308.125C523.445 311.875 523.914 314.57 525.008 316.211C526.102 317.852 527.586 318.672 529.461 318.672C530.867 318.672 532.391 318.125 534.031 317.031C535.75 315.938 537.391 314.609 538.953 313.047C540.594 311.484 542.078 309.883 543.406 308.242C544.812 306.602 545.945 305.234 546.805 304.141ZM668.211 301.68C667.117 303.242 665.711 305.195 663.992 307.539C662.273 309.805 660.477 312.109 658.602 314.453C656.805 316.719 655.008 318.828 653.211 320.781C651.492 322.656 650.047 323.984 648.875 324.766C648.094 325.234 647.195 325.625 646.18 325.938C645.164 326.25 644.109 326.445 643.016 326.523C642 326.602 641.023 326.523 640.086 326.289C639.148 326.133 638.328 325.82 637.625 325.352C636.922 324.805 636.336 324.023 635.867 323.008C635.477 322.148 635.086 321.016 634.695 319.609C634.383 318.203 634.266 316.445 634.344 314.336C632.469 317.461 630.398 319.883 628.133 321.602C625.867 323.242 623.719 324.453 621.688 325.234C619.344 326.094 617 326.602 614.656 326.758C613.562 326.758 612.391 326.367 611.141 325.586C609.891 324.883 608.836 323.75 607.977 322.188C607.117 320.547 606.57 318.477 606.336 315.977C606.102 313.398 606.414 310.352 607.273 306.836C608.367 302.07 610.086 297.734 612.43 293.828C614.852 289.922 617.469 286.602 620.281 283.867C623.094 281.055 625.867 278.945 628.602 277.539C631.336 276.133 633.602 275.508 635.398 275.664C637.508 276.055 639.227 276.68 640.555 277.539C641.648 278.32 642.352 279.492 642.664 281.055C643.055 282.539 642.43 284.531 640.789 287.031C641.883 286.797 642.781 286.641 643.484 286.562C644.266 286.484 644.852 286.445 645.242 286.445C645.711 286.445 646.023 286.484 646.18 286.562C646.258 286.719 646.297 287.07 646.297 287.617C646.297 288.086 646.18 288.984 645.945 290.312C645.711 291.641 645.359 293.438 644.891 295.703C644.422 297.969 643.797 300.898 643.016 304.492C642.859 305.195 642.703 305.859 642.547 306.484C642.469 307.031 642.352 307.617 642.195 308.242C642.117 308.789 642 309.453 641.844 310.234C641.688 311.016 641.492 311.992 641.258 313.164C641.18 313.867 641.141 314.648 641.141 315.508C641.219 316.289 641.375 317.031 641.609 317.734C641.844 318.438 642.195 319.023 642.664 319.492C643.211 319.883 643.953 320.078 644.891 320.078C645.672 320.078 646.688 319.609 647.938 318.672C649.188 317.656 650.516 316.406 651.922 314.922C653.328 313.359 654.773 311.68 656.258 309.883C657.82 308.008 659.266 306.211 660.594 304.492C661.922 302.773 663.094 301.25 664.109 299.922C665.203 298.594 665.984 297.617 666.453 296.992C667.078 296.289 667.703 295.898 668.328 295.82C668.953 295.664 669.422 295.82 669.734 296.289C670.047 296.758 670.086 297.461 669.852 298.398C669.695 299.336 669.148 300.43 668.211 301.68ZM633.875 306.836C634.266 305.273 634.734 303.438 635.281 301.328C635.828 299.219 636.297 297.188 636.688 295.234C637.078 293.281 637.352 291.68 637.508 290.43C637.742 289.102 637.703 288.477 637.391 288.555C637 288.633 636.57 288.75 636.102 288.906C635.711 289.062 635.203 289.18 634.578 289.258C633.953 289.336 633.328 289.453 632.703 289.609C633.328 288.359 633.68 287.344 633.758 286.562C633.914 285.703 633.953 285.039 633.875 284.57C633.797 284.023 633.641 283.594 633.406 283.281C632.547 282.578 631.023 283.164 628.836 285.039C626.727 286.836 624.266 290.195 621.453 295.117C620.281 297.148 619.344 299.336 618.641 301.68C617.938 303.945 617.43 306.094 617.117 308.125C616.883 310.156 616.844 311.953 617 313.516C617.156 315 617.469 315.977 617.938 316.445C618.797 317.305 619.773 317.734 620.867 317.734C621.961 317.656 623.055 317.344 624.148 316.797C625.32 316.172 626.453 315.391 627.547 314.453C628.719 313.516 629.734 312.539 630.594 311.523C631.531 310.508 632.273 309.57 632.82 308.711C633.445 307.852 633.797 307.227 633.875 306.836ZM387.137 486.984C386.668 492.219 385.105 496.906 382.449 501.047C379.793 505.188 376.395 508.664 372.254 511.477C368.191 514.367 363.582 516.555 358.426 518.039C353.27 519.523 347.957 520.266 342.488 520.266C340.457 520.266 338.543 520.109 336.746 519.797C335.027 519.562 333.465 519.25 332.059 518.859C330.652 518.469 329.441 518.078 328.426 517.688C327.488 517.375 326.824 517.102 326.434 516.867C325.73 516.477 325.145 515.969 324.676 515.344C324.285 514.797 324.051 513.977 323.973 512.883C323.895 512.258 323.855 511.75 323.855 511.359C323.855 511.047 323.895 510.695 323.973 510.305C324.051 509.914 324.207 509.367 324.441 508.664C324.598 508.039 324.832 507.141 325.145 505.969C325.301 505.266 325.887 503.039 326.902 499.289C327.996 495.617 329.285 491.125 330.77 485.812C332.254 480.422 333.855 474.602 335.574 468.352C337.371 462.102 339.09 456.047 340.73 450.188C342.371 444.328 343.855 439.055 345.184 434.367C346.512 429.602 347.488 426.086 348.113 423.82C347.02 424.602 345.926 425.422 344.832 426.281C343.816 427.141 342.762 428.078 341.668 429.094C340.496 430.188 339.324 430.578 338.152 430.266C337.059 429.875 336.277 428.898 335.809 427.336C335.652 426.555 335.535 425.734 335.457 424.875C335.379 424.172 335.379 423.391 335.457 422.531C335.613 421.594 335.926 420.695 336.395 419.836C338.973 418.273 341.473 416.945 343.895 415.852C346.395 414.758 348.777 413.781 351.043 412.922C351.512 411.594 352.02 410.578 352.566 409.875C353.191 409.172 353.816 408.703 354.441 408.469C355.066 408.234 355.73 408.156 356.434 408.234C357.137 408.312 357.879 408.43 358.66 408.586C360.379 408.977 361.512 409.523 362.059 410.227C363.152 410.07 364.207 409.953 365.223 409.875C366.238 409.797 367.293 409.758 368.387 409.758C372.918 409.758 376.863 410.344 380.223 411.516C383.582 412.688 386.316 414.289 388.426 416.32C390.613 418.273 392.176 420.578 393.113 423.234C394.051 425.891 394.402 428.703 394.168 431.672C393.934 434.25 393.23 436.945 392.059 439.758C390.965 442.492 389.48 445.227 387.605 447.961C385.73 450.617 383.543 453.234 381.043 455.812C378.543 458.312 375.77 460.617 372.723 462.727C375.145 464.133 377.293 465.773 379.168 467.648C381.043 469.523 382.605 471.555 383.855 473.742C385.105 475.93 386.004 478.156 386.551 480.422C387.098 482.688 387.293 484.875 387.137 486.984ZM348.348 458.273C348.191 459.055 347.996 459.836 347.762 460.617C347.605 461.398 347.41 462.219 347.176 463.078C348.113 462.062 349.676 461.125 351.863 460.266C354.129 459.406 356.277 458.977 358.309 458.977C359.402 458.977 360.457 459.055 361.473 459.211C362.488 459.289 363.465 459.406 364.402 459.562C366.59 458.156 368.699 456.359 370.73 454.172C372.762 451.906 374.52 449.523 376.004 447.023C377.566 444.445 378.816 441.828 379.754 439.172C380.77 436.516 381.395 434.055 381.629 431.789C382.098 426.398 381.16 422.414 378.816 419.836C376.551 417.18 373.309 415.852 369.09 415.852C366.277 415.852 363.348 416.359 360.301 417.375C359.676 419.406 358.895 421.945 357.957 424.992C357.02 427.961 356.004 431.242 354.91 434.836C353.895 438.43 352.801 442.219 351.629 446.203C350.457 450.188 349.363 454.211 348.348 458.273ZM346.355 466.008C345.262 470.227 344.168 474.797 343.074 479.719C342.059 483.938 340.965 488.859 339.793 494.484C338.621 500.031 337.371 505.969 336.043 512.297C336.512 512.688 337.137 512.961 337.918 513.117C338.699 513.273 339.48 513.43 340.262 513.586C341.121 513.742 342.059 513.82 343.074 513.82C346.59 513.82 350.145 513.078 353.738 511.594C357.41 510.188 360.77 508.156 363.816 505.5C366.863 502.844 369.402 499.641 371.434 495.891C373.543 492.062 374.793 487.805 375.184 483.117C375.34 481.008 375.184 479.133 374.715 477.492C374.324 475.773 373.699 474.25 372.84 472.922C372.059 471.516 371.121 470.305 370.027 469.289C369.012 468.195 367.918 467.258 366.746 466.477C363.152 468.43 359.207 470.07 354.91 471.398C353.504 471.789 352.293 471.867 351.277 471.633C350.262 471.32 349.402 470.891 348.699 470.344C347.996 469.719 347.449 469.016 347.059 468.234C346.668 467.453 346.434 466.711 346.355 466.008ZM418.426 472.688C419.363 472.531 420.301 472.375 421.238 472.219C422.176 471.984 423.191 471.711 424.285 471.398C422.957 470.148 421.199 469.367 419.012 469.055C418.777 470.305 418.582 471.516 418.426 472.688ZM466.355 436.477C466.043 439.836 465.145 443.352 463.66 447.023C462.254 450.695 460.262 454.25 457.684 457.688C455.105 461.125 451.98 464.328 448.309 467.297C444.637 470.266 440.457 472.688 435.77 474.562C436.473 475.891 437.137 477.297 437.762 478.781C438.387 480.266 438.934 481.945 439.402 483.82C440.105 486.32 440.691 488.898 441.16 491.555C441.707 494.211 442.137 496.789 442.449 499.289C442.84 501.789 443.152 504.094 443.387 506.203C443.699 508.391 443.934 510.188 444.09 511.594C444.402 513.938 445.145 515.578 446.316 516.516C447.566 517.531 448.934 518.078 450.418 518.156C451.98 518.312 453.504 518.156 454.988 517.688C456.551 517.219 457.762 516.711 458.621 516.164C458.543 516.242 458.113 516.906 457.332 518.156C456.551 519.484 455.496 520.852 454.168 522.258C452.84 523.742 451.238 524.992 449.363 526.008C447.566 527.102 445.535 527.453 443.27 527.062C441.707 526.828 440.301 526.281 439.051 525.422C437.879 524.641 436.824 523.43 435.887 521.789C435.027 520.227 434.324 518.195 433.777 515.695C433.23 513.195 432.879 510.148 432.723 506.555C432.566 501.711 432.371 497.102 432.137 492.727C431.98 488.273 431.16 484.172 429.676 480.422C429.441 479.797 429.207 479.211 428.973 478.664C428.738 478.039 428.465 477.492 428.152 477.023C424.949 477.805 421.355 478.312 417.371 478.547C416.824 481.516 416.238 484.562 415.613 487.688C414.988 490.812 414.324 493.859 413.621 496.828C412.996 499.797 412.293 502.57 411.512 505.148C410.809 507.805 410.105 510.07 409.402 511.945C408.621 513.898 407.605 515.461 406.355 516.633C405.184 517.883 403.27 518.508 400.613 518.508C399.051 518.508 397.684 518.156 396.512 517.453C395.34 516.75 394.207 515.773 393.113 514.523C393.426 514.289 393.934 513.898 394.637 513.352C395.262 512.883 396.043 511.867 396.98 510.305C397.84 508.82 398.777 506.672 399.793 503.859C400.887 501.047 401.98 497.258 403.074 492.492C403.465 490.539 403.973 488.273 404.598 485.695C405.301 483.039 406.043 480.148 406.824 477.023C403.699 475.305 402.254 473 402.488 470.109C402.645 468.312 403.465 466.789 404.949 465.539C406.434 464.289 408.23 463.43 410.34 462.961C411.355 458.898 412.371 454.797 413.387 450.656C414.48 446.516 415.496 442.648 416.434 439.055C417.371 435.383 418.23 432.102 419.012 429.211C419.793 426.242 420.418 423.898 420.887 422.18C419.48 423.117 418.074 424.172 416.668 425.344C415.418 426.359 414.051 427.531 412.566 428.859C411.16 430.109 409.832 431.438 408.582 432.844C407.957 432.375 407.449 431.867 407.059 431.32C406.668 430.773 406.355 430.305 406.121 429.914C405.809 429.445 405.574 428.938 405.418 428.391C404.871 427.297 404.598 426.125 404.598 424.875C404.598 423.547 405.535 422.219 407.41 420.891C408.426 420.188 409.949 419.172 411.98 417.844C414.09 416.516 416.668 415.227 419.715 413.977C422.762 412.727 426.277 411.633 430.262 410.695C434.324 409.758 438.816 409.289 443.738 409.289C448.66 409.289 452.645 410.266 455.691 412.219C458.738 414.172 461.082 416.555 462.723 419.367C464.363 422.18 465.418 425.148 465.887 428.273C466.434 431.398 466.59 434.133 466.355 436.477ZM430.965 468.703C433.699 467.375 436.395 465.734 439.051 463.781C441.785 461.828 444.246 459.484 446.434 456.75C448.621 454.016 450.457 450.93 451.941 447.492C453.426 443.977 454.363 440.031 454.754 435.656C455.066 431.75 454.793 428.508 453.934 425.93C453.152 423.273 451.941 421.164 450.301 419.602C448.738 418.039 446.941 416.945 444.91 416.32C442.879 415.617 440.848 415.266 438.816 415.266C436.941 415.266 435.027 415.539 433.074 416.086C431.199 416.633 429.363 417.336 427.566 418.195C427.801 418.273 428.074 418.469 428.387 418.781C428.543 419.016 428.699 419.328 428.855 419.719C429.09 420.031 429.246 420.383 429.324 420.773C427.527 428.352 426.082 434.68 424.988 439.758C423.895 444.836 422.996 448.977 422.293 452.18C421.434 455.93 420.809 458.938 420.418 461.203C420.34 461.516 420.262 461.828 420.184 462.141C420.184 462.453 420.145 462.805 420.066 463.195C421.785 463.586 423.582 464.211 425.457 465.07C427.332 465.852 429.168 467.062 430.965 468.703ZM515.34 409.758C518.074 409.758 520.301 410.539 522.02 412.102C523.816 413.586 524.598 416.32 524.363 420.305C524.285 421.633 523.973 424.133 523.426 427.805C522.879 431.398 522.215 435.656 521.434 440.578C520.652 445.5 519.754 450.812 518.738 456.516C517.801 462.141 516.902 467.648 516.043 473.039H518.504C519.285 473.039 520.145 473 521.082 472.922C522.02 472.844 522.996 472.727 524.012 472.57C523.621 473.508 523.191 474.406 522.723 475.266C522.254 476.047 521.785 476.75 521.316 477.375C520.77 478.078 520.223 478.703 519.676 479.25C518.973 480.109 518.152 480.891 517.215 481.594C516.277 482.219 515.379 482.727 514.52 483.117C513.973 486.945 513.504 490.383 513.113 493.43C512.801 496.398 512.605 498.859 512.527 500.812C512.371 503.781 512.449 506.555 512.762 509.133C512.996 511.398 513.465 513.703 514.168 516.047C514.871 518.391 516.004 520.266 517.566 521.672L503.973 526.125C503.035 524.797 502.332 523 501.863 520.734C501.473 518.547 501.199 516.359 501.043 514.172C500.809 511.594 500.77 508.938 500.926 506.203C501.082 503.469 501.512 499.914 502.215 495.539C502.918 491.086 503.699 486.242 504.559 481.008C502.996 480.539 501.277 480.148 499.402 479.836C497.605 479.523 495.574 479.367 493.309 479.367C491.277 479.367 489.129 479.445 486.863 479.602C484.676 479.758 482.488 479.953 480.301 480.188C479.363 483.625 478.426 487.258 477.488 491.086C476.473 495.227 475.535 498.742 474.676 501.633C473.895 504.602 473.113 507.062 472.332 509.016C471.629 510.969 470.887 512.531 470.105 513.703C469.402 514.875 468.621 515.734 467.762 516.281C466.824 516.75 465.652 517.18 464.246 517.57C462.918 517.961 461.238 518.352 459.207 518.742C457.176 519.133 454.559 519.445 451.355 519.68C452.527 518.273 453.543 516.984 454.402 515.812C455.262 514.641 456.121 513.195 456.98 511.477C457.84 509.758 458.816 507.531 459.91 504.797C460.926 502.141 462.254 498.625 463.895 494.25C464.598 492.453 465.301 490.5 466.004 488.391C466.785 486.203 467.605 483.977 468.465 481.711C465.652 482.102 463.27 482.453 461.316 482.766C459.363 483.078 458.191 483.312 457.801 483.469C457.176 483.547 456.668 483.547 456.277 483.469C455.262 483.312 454.715 482.805 454.637 481.945C454.715 480.852 455.105 480.109 455.809 479.719C456.434 479.328 457.41 478.859 458.738 478.312C459.363 478 460.809 477.453 463.074 476.672C465.262 475.812 467.957 474.914 471.16 473.977C472.332 470.695 473.465 467.453 474.559 464.25C475.73 460.969 476.863 457.844 477.957 454.875C479.051 451.906 480.105 449.133 481.121 446.555C482.137 443.898 483.074 441.633 483.934 439.758C485.262 436.867 486.941 433.703 488.973 430.266C491.082 426.75 493.465 423.469 496.121 420.422C498.855 417.375 501.824 414.836 505.027 412.805C508.309 410.773 511.746 409.758 515.34 409.758ZM514.051 434.133C514.91 430.617 515.496 427.727 515.809 425.461C516.121 423.195 516.238 421.438 516.16 420.188C516.082 418.859 515.809 417.961 515.34 417.492C514.949 416.945 514.441 416.672 513.816 416.672C512.801 416.672 511.551 417.062 510.066 417.844C508.582 418.625 507.02 419.758 505.379 421.242C503.738 422.648 502.098 424.445 500.457 426.633C498.895 428.742 497.488 431.164 496.238 433.898C494.441 437.961 492.41 442.961 490.145 448.898C487.879 454.758 485.418 462.258 482.762 471.398C484.324 471.164 485.848 470.969 487.332 470.812C488.895 470.656 490.418 470.578 491.902 470.578C494.559 470.578 497.098 470.695 499.52 470.93C501.941 471.086 504.168 471.281 506.199 471.516C506.902 467.766 507.605 464.094 508.309 460.5C509.09 456.828 509.832 453.352 510.535 450.07C511.238 446.789 511.863 443.781 512.41 441.047C513.035 438.312 513.582 436.008 514.051 434.133ZM288.641 641.352C288.953 640.883 289.344 640.609 289.812 640.531C290.359 640.375 290.789 640.414 291.102 640.648C291.414 640.883 291.57 641.273 291.57 641.82C291.648 642.367 291.453 643.109 290.984 644.047C289.422 647.016 287.352 650.219 284.773 653.656C282.273 657.094 279.617 660.336 276.805 663.383C273.992 666.352 271.258 668.812 268.602 670.766C265.945 672.719 263.719 673.695 261.922 673.695C259.344 673.695 257.195 673.188 255.477 672.172C253.758 671.156 252.391 669.906 251.375 668.422C250.438 666.938 249.773 665.336 249.383 663.617C248.992 661.82 248.875 660.18 249.031 658.695C249.109 657.445 249.383 655.219 249.852 652.016C250.32 648.734 250.945 644.984 251.727 640.766C252.508 636.469 253.367 631.898 254.305 627.055C255.32 622.133 256.375 617.406 257.469 612.875C256.141 613.031 254.812 613.188 253.484 613.344C252.156 613.5 250.945 613.578 249.852 613.578C247.352 613.578 245.008 613.305 242.82 612.758C240.555 612.133 238.875 611.547 237.781 611C237.156 610.688 236.883 610.258 236.961 609.711C237.039 609.086 237.273 608.5 237.664 607.953C238.055 607.328 238.562 606.82 239.188 606.43C239.734 605.961 240.242 605.727 240.711 605.727C242.195 605.883 243.797 606.039 245.516 606.195C247.234 606.273 249.109 606.273 251.141 606.195C252.625 606.117 254.031 606 255.359 605.844C256.766 605.688 258.133 605.492 259.461 605.258C260.477 601.508 261.453 598.266 262.391 595.531C263.406 592.719 264.305 590.766 265.086 589.672C265.32 589.281 265.828 588.969 266.609 588.734C267.469 588.422 268.367 588.227 269.305 588.148C270.242 587.992 271.141 587.992 272 588.148C272.859 588.227 273.484 588.5 273.875 588.969C274.266 589.594 274.422 591.195 274.344 593.773C274.266 596.352 273.836 599.633 273.055 603.617C276.336 603.617 279.227 603.812 281.727 604.203C284.305 604.516 286.492 604.906 288.289 605.375C290.086 605.766 291.531 606.195 292.625 606.664C293.719 607.055 294.539 607.328 295.086 607.484C295.633 607.641 295.906 608.031 295.906 608.656C295.984 609.281 295.867 609.945 295.555 610.648C295.32 611.273 294.891 611.82 294.266 612.289C293.641 612.758 292.938 612.914 292.156 612.758C291.375 612.68 290.477 612.523 289.461 612.289C288.523 612.055 287.352 611.859 285.945 611.703C284.617 611.547 283.016 611.391 281.141 611.234C279.266 611.078 277.078 611 274.578 611C274.109 611 273.562 611.039 272.938 611.117C272.391 611.117 271.805 611.117 271.18 611.117C270.867 612.367 270.555 613.617 270.242 614.867C270.008 616.039 269.656 617.289 269.188 618.617C268.172 621.742 267 625.141 265.672 628.812C264.5 632.016 263.094 635.688 261.453 639.828C259.812 643.969 257.977 648.383 255.945 653.07C255.477 656.43 255.516 659.008 256.062 660.805C256.688 662.523 257.43 663.773 258.289 664.555C259.305 665.414 260.555 665.883 262.039 665.961C263.211 666.117 264.617 665.727 266.258 664.789C267.977 663.773 269.734 662.445 271.531 660.805C273.328 659.164 275.125 657.367 276.922 655.414C278.797 653.461 280.516 651.547 282.078 649.672C283.641 647.797 285.008 646.117 286.18 644.633C287.352 643.07 288.172 641.977 288.641 641.352ZM342.078 645.219C342.625 644.594 343.172 644.281 343.719 644.281C344.344 644.203 344.812 644.359 345.125 644.75C345.516 645.062 345.672 645.57 345.594 646.273C345.594 646.977 345.281 647.758 344.656 648.617C343.172 650.648 341.453 652.758 339.5 654.945C337.547 657.055 335.438 659.125 333.172 661.156C330.984 663.188 328.758 665.102 326.492 666.898C324.227 668.695 322.039 670.18 319.93 671.352C317.586 672.68 315.594 673.344 313.953 673.344C312.391 673.344 310.828 672.328 309.266 670.297C307.859 668.5 307.156 666.586 307.156 664.555C307.234 662.445 307.703 659.828 308.562 656.703C309.109 654.75 309.852 652.445 310.789 649.789C311.805 647.055 312.586 644.438 313.133 641.938C313.758 639.438 313.953 637.328 313.719 635.609C313.484 633.812 312.469 632.914 310.672 632.914C309.422 632.914 308.055 633.344 306.57 634.203C305.164 635.062 303.719 636.195 302.234 637.602C300.828 638.93 299.461 640.453 298.133 642.172C296.805 643.891 295.633 645.57 294.617 647.211C293.992 650.258 293.367 653.266 292.742 656.234C292.195 658.734 291.609 661.469 290.984 664.438C290.438 667.328 289.891 669.906 289.344 672.172C288.875 672.562 288.367 672.836 287.82 672.992C287.273 673.148 286.766 673.227 286.297 673.227C285.75 673.227 285.203 673.188 284.656 673.109C284.031 672.953 283.445 672.719 282.898 672.406C282.43 672.094 281.961 671.664 281.492 671.117C281.023 670.648 280.672 669.984 280.438 669.125C283.953 654.672 286.727 643.07 288.758 634.32C290.789 625.57 292.352 618.891 293.445 614.281C294.695 608.812 295.555 605.023 296.023 602.914C296.258 601.43 296.453 599.984 296.609 598.578C296.766 597.328 296.844 596.039 296.844 594.711C296.844 593.383 296.727 592.172 296.492 591.078C297.117 590.688 297.781 590.375 298.484 590.141C299.266 589.906 300.008 589.711 300.711 589.555C301.57 589.32 302.43 589.125 303.289 588.969C304.148 588.812 304.93 588.734 305.633 588.734C306.258 588.734 306.844 588.812 307.391 588.969C307.938 589.047 308.289 589.281 308.445 589.672C308.914 590.062 309.109 590.844 309.031 592.016C309.031 593.188 308.953 594.398 308.797 595.648C308.484 597.133 308.133 598.734 307.742 600.453C306.102 606.781 304.266 612.953 302.234 618.969C300.203 624.906 298.328 631.273 296.609 638.07C297.625 636.508 298.836 634.906 300.242 633.266C301.648 631.625 303.172 630.141 304.812 628.812C306.531 627.406 308.328 626.273 310.203 625.414C312.078 624.477 314.07 624.008 316.18 624.008C317.273 624.008 318.289 624.203 319.227 624.594C320.242 624.906 321.102 625.492 321.805 626.352C322.586 627.133 323.172 628.227 323.562 629.633C323.953 630.961 324.109 632.641 324.031 634.672C324.031 635.922 323.875 637.211 323.562 638.539C323.328 639.867 322.977 641.352 322.508 642.992C322.039 644.555 321.414 646.312 320.633 648.266C319.93 650.219 319.07 652.484 318.055 655.062C317.352 656.859 316.805 658.383 316.414 659.633C316.023 660.883 316.102 661.977 316.648 662.914C317.352 664.164 318.719 664.477 320.75 663.852C322.859 663.148 325.984 661.117 330.125 657.758C331.062 656.977 332.117 656 333.289 654.828C334.461 653.656 335.594 652.484 336.688 651.312C337.781 650.062 338.797 648.891 339.734 647.797C340.672 646.703 341.453 645.844 342.078 645.219ZM397.625 647.68C396.531 649.242 395.125 651.195 393.406 653.539C391.688 655.805 389.891 658.109 388.016 660.453C386.219 662.719 384.422 664.828 382.625 666.781C380.906 668.656 379.461 669.984 378.289 670.766C377.508 671.234 376.609 671.625 375.594 671.938C374.578 672.25 373.523 672.445 372.43 672.523C371.414 672.602 370.438 672.523 369.5 672.289C368.562 672.133 367.742 671.82 367.039 671.352C366.336 670.805 365.75 670.023 365.281 669.008C364.891 668.148 364.5 667.016 364.109 665.609C363.797 664.203 363.68 662.445 363.758 660.336C361.883 663.461 359.812 665.883 357.547 667.602C355.281 669.242 353.133 670.453 351.102 671.234C348.758 672.094 346.414 672.602 344.07 672.758C342.977 672.758 341.805 672.367 340.555 671.586C339.305 670.883 338.25 669.75 337.391 668.188C336.531 666.547 335.984 664.477 335.75 661.977C335.516 659.398 335.828 656.352 336.688 652.836C337.781 648.07 339.5 643.734 341.844 639.828C344.266 635.922 346.883 632.602 349.695 629.867C352.508 627.055 355.281 624.945 358.016 623.539C360.75 622.133 363.016 621.508 364.812 621.664C366.922 622.055 368.641 622.68 369.969 623.539C371.062 624.32 371.766 625.492 372.078 627.055C372.469 628.539 371.844 630.531 370.203 633.031C371.297 632.797 372.195 632.641 372.898 632.562C373.68 632.484 374.266 632.445 374.656 632.445C375.125 632.445 375.438 632.484 375.594 632.562C375.672 632.719 375.711 633.07 375.711 633.617C375.711 634.086 375.594 634.984 375.359 636.312C375.125 637.641 374.773 639.438 374.305 641.703C373.836 643.969 373.211 646.898 372.43 650.492C372.273 651.195 372.117 651.859 371.961 652.484C371.883 653.031 371.766 653.617 371.609 654.242C371.531 654.789 371.414 655.453 371.258 656.234C371.102 657.016 370.906 657.992 370.672 659.164C370.594 659.867 370.555 660.648 370.555 661.508C370.633 662.289 370.789 663.031 371.023 663.734C371.258 664.438 371.609 665.023 372.078 665.492C372.625 665.883 373.367 666.078 374.305 666.078C375.086 666.078 376.102 665.609 377.352 664.672C378.602 663.656 379.93 662.406 381.336 660.922C382.742 659.359 384.188 657.68 385.672 655.883C387.234 654.008 388.68 652.211 390.008 650.492C391.336 648.773 392.508 647.25 393.523 645.922C394.617 644.594 395.398 643.617 395.867 642.992C396.492 642.289 397.117 641.898 397.742 641.82C398.367 641.664 398.836 641.82 399.148 642.289C399.461 642.758 399.5 643.461 399.266 644.398C399.109 645.336 398.562 646.43 397.625 647.68ZM363.289 652.836C363.68 651.273 364.148 649.438 364.695 647.328C365.242 645.219 365.711 643.188 366.102 641.234C366.492 639.281 366.766 637.68 366.922 636.43C367.156 635.102 367.117 634.477 366.805 634.555C366.414 634.633 365.984 634.75 365.516 634.906C365.125 635.062 364.617 635.18 363.992 635.258C363.367 635.336 362.742 635.453 362.117 635.609C362.742 634.359 363.094 633.344 363.172 632.562C363.328 631.703 363.367 631.039 363.289 630.57C363.211 630.023 363.055 629.594 362.82 629.281C361.961 628.578 360.438 629.164 358.25 631.039C356.141 632.836 353.68 636.195 350.867 641.117C349.695 643.148 348.758 645.336 348.055 647.68C347.352 649.945 346.844 652.094 346.531 654.125C346.297 656.156 346.258 657.953 346.414 659.516C346.57 661 346.883 661.977 347.352 662.445C348.211 663.305 349.188 663.734 350.281 663.734C351.375 663.656 352.469 663.344 353.562 662.797C354.734 662.172 355.867 661.391 356.961 660.453C358.133 659.516 359.148 658.539 360.008 657.523C360.945 656.508 361.688 655.57 362.234 654.711C362.859 653.852 363.211 653.227 363.289 652.836ZM433.016 641.352C433.328 640.883 433.719 640.609 434.188 640.531C434.734 640.375 435.164 640.414 435.477 640.648C435.789 640.883 435.945 641.273 435.945 641.82C436.023 642.367 435.828 643.109 435.359 644.047C433.797 647.016 431.727 650.219 429.148 653.656C426.648 657.094 423.992 660.336 421.18 663.383C418.367 666.352 415.633 668.812 412.977 670.766C410.32 672.719 408.094 673.695 406.297 673.695C403.719 673.695 401.57 673.188 399.852 672.172C398.133 671.156 396.766 669.906 395.75 668.422C394.812 666.938 394.148 665.336 393.758 663.617C393.367 661.82 393.25 660.18 393.406 658.695C393.484 657.445 393.758 655.219 394.227 652.016C394.695 648.734 395.32 644.984 396.102 640.766C396.883 636.469 397.742 631.898 398.68 627.055C399.695 622.133 400.75 617.406 401.844 612.875C400.516 613.031 399.188 613.188 397.859 613.344C396.531 613.5 395.32 613.578 394.227 613.578C391.727 613.578 389.383 613.305 387.195 612.758C384.93 612.133 383.25 611.547 382.156 611C381.531 610.688 381.258 610.258 381.336 609.711C381.414 609.086 381.648 608.5 382.039 607.953C382.43 607.328 382.938 606.82 383.562 606.43C384.109 605.961 384.617 605.727 385.086 605.727C386.57 605.883 388.172 606.039 389.891 606.195C391.609 606.273 393.484 606.273 395.516 606.195C397 606.117 398.406 606 399.734 605.844C401.141 605.688 402.508 605.492 403.836 605.258C404.852 601.508 405.828 598.266 406.766 595.531C407.781 592.719 408.68 590.766 409.461 589.672C409.695 589.281 410.203 588.969 410.984 588.734C411.844 588.422 412.742 588.227 413.68 588.148C414.617 587.992 415.516 587.992 416.375 588.148C417.234 588.227 417.859 588.5 418.25 588.969C418.641 589.594 418.797 591.195 418.719 593.773C418.641 596.352 418.211 599.633 417.43 603.617C420.711 603.617 423.602 603.812 426.102 604.203C428.68 604.516 430.867 604.906 432.664 605.375C434.461 605.766 435.906 606.195 437 606.664C438.094 607.055 438.914 607.328 439.461 607.484C440.008 607.641 440.281 608.031 440.281 608.656C440.359 609.281 440.242 609.945 439.93 610.648C439.695 611.273 439.266 611.82 438.641 612.289C438.016 612.758 437.312 612.914 436.531 612.758C435.75 612.68 434.852 612.523 433.836 612.289C432.898 612.055 431.727 611.859 430.32 611.703C428.992 611.547 427.391 611.391 425.516 611.234C423.641 611.078 421.453 611 418.953 611C418.484 611 417.938 611.039 417.312 611.117C416.766 611.117 416.18 611.117 415.555 611.117C415.242 612.367 414.93 613.617 414.617 614.867C414.383 616.039 414.031 617.289 413.562 618.617C412.547 621.742 411.375 625.141 410.047 628.812C408.875 632.016 407.469 635.688 405.828 639.828C404.188 643.969 402.352 648.383 400.32 653.07C399.852 656.43 399.891 659.008 400.438 660.805C401.062 662.523 401.805 663.773 402.664 664.555C403.68 665.414 404.93 665.883 406.414 665.961C407.586 666.117 408.992 665.727 410.633 664.789C412.352 663.773 414.109 662.445 415.906 660.805C417.703 659.164 419.5 657.367 421.297 655.414C423.172 653.461 424.891 651.547 426.453 649.672C428.016 647.797 429.383 646.117 430.555 644.633C431.727 643.07 432.547 641.977 433.016 641.352ZM461.961 658.812C461.102 657.953 460.477 657.133 460.086 656.352C459.773 655.492 459.539 654.672 459.383 653.891C459.227 653.031 459.227 652.172 459.383 651.312C459.695 650.219 460.164 649.203 460.789 648.266C461.336 647.406 462.078 646.547 463.016 645.688C463.953 644.75 465.203 643.891 466.766 643.109C467.781 640.609 468.68 637.992 469.461 635.258C470.32 632.445 471.062 629.906 471.688 627.641C472.391 624.984 473.016 622.328 473.562 619.672C475.516 613.031 476.531 607.641 476.609 603.5C476.688 599.281 476.609 596.508 476.375 595.18C476.297 594.633 476.219 594.086 476.141 593.539C475.984 593.07 475.828 592.562 475.672 592.016C475.594 591.391 475.477 590.805 475.32 590.258C476.18 589.789 476.922 589.398 477.547 589.086C478.25 588.773 478.836 588.539 479.305 588.383C479.852 588.148 480.359 587.992 480.828 587.914C482.625 587.523 484.305 587.328 485.867 587.328C487.508 587.25 488.406 587.523 488.562 588.148C488.641 588.539 488.719 589.242 488.797 590.258C488.953 591.273 489.031 592.523 489.031 594.008C489.031 595.492 488.914 597.172 488.68 599.047C488.445 600.844 488.016 602.758 487.391 604.789C486.844 606.586 486.102 609.086 485.164 612.289C484.305 615.023 483.172 618.695 481.766 623.305C480.359 627.836 478.523 633.656 476.258 640.766C478.602 639.984 481.18 639.242 483.992 638.539C486.805 637.836 489.656 637.25 492.547 636.781C495.516 636.312 498.445 635.961 501.336 635.727C504.305 635.492 507.039 635.453 509.539 635.609C510.008 635.609 510.32 635.844 510.477 636.312C510.711 636.703 510.711 637.133 510.477 637.602C510.32 638.07 509.891 638.539 509.188 639.008C508.562 639.398 507.625 639.633 506.375 639.711C504.812 639.867 503.094 640.062 501.219 640.297C499.344 640.453 497.391 640.727 495.359 641.117C493.406 641.43 491.453 641.859 489.5 642.406C487.547 642.875 485.711 643.461 483.992 644.164C482.664 644.633 481.336 645.102 480.008 645.57C478.914 645.961 477.742 646.43 476.492 646.977C475.32 647.445 474.344 647.875 473.562 648.266L470.867 656.82C475.398 660.023 478.875 663.305 481.297 666.664C483.797 670.023 485.594 673.109 486.688 675.922C488.016 679.203 488.758 682.406 488.914 685.531C488.914 688.969 488.406 692.406 487.391 695.844C486.375 699.359 485.008 702.68 483.289 705.805C481.648 709.008 479.695 711.977 477.43 714.711C475.242 717.445 472.898 719.789 470.398 721.742C467.977 723.695 465.477 725.18 462.898 726.195C460.398 727.211 458.016 727.602 455.75 727.367C454.109 727.211 452.742 726.664 451.648 725.727C450.555 724.867 449.734 723.734 449.188 722.328C448.641 721 448.328 719.477 448.25 717.758C448.172 716.117 448.328 714.477 448.719 712.836C449.031 711.195 449.695 708.148 450.711 703.695C451.57 699.945 452.898 694.477 454.695 687.289C456.492 680.18 458.914 670.688 461.961 658.812ZM468.875 664.32C467.781 668.227 466.805 671.82 465.945 675.102C465.164 678.383 464.5 681.273 463.953 683.773C463.25 686.664 462.703 689.281 462.312 691.625C461.609 694.594 460.867 697.523 460.086 700.414C459.383 703.305 458.836 705.883 458.445 708.148C457.977 710.492 457.781 712.367 457.859 713.773C457.938 715.18 458.445 715.883 459.383 715.883C461.648 716.039 463.992 715.141 466.414 713.188C468.914 711.312 471.18 708.891 473.211 705.922C475.242 703.031 476.922 699.867 478.25 696.43C479.578 693.07 480.242 689.945 480.242 687.055C480.242 683.852 479.734 680.688 478.719 677.562C478.016 675.922 477.195 674.32 476.258 672.758C475.398 671.43 474.344 670.023 473.094 668.539C471.922 666.977 470.516 665.57 468.875 664.32ZM524.422 601.977C524.188 602.836 523.719 603.695 523.016 604.555C522.391 605.336 521.648 606 520.789 606.547C520.008 607.016 519.188 607.328 518.328 607.484C517.469 607.641 516.766 607.484 516.219 607.016C514.578 605.766 513.719 604.438 513.641 603.031C513.562 601.547 513.914 600.18 514.695 598.93C515.477 597.602 516.453 596.508 517.625 595.648C518.797 594.711 519.812 594.164 520.672 594.008C521.531 593.852 522.234 594.047 522.781 594.594C523.406 595.062 523.875 595.727 524.188 596.586C524.5 597.367 524.656 598.266 524.656 599.281C524.734 600.297 524.656 601.195 524.422 601.977ZM508.25 626.938C508.641 626.469 509.383 626.078 510.477 625.766C511.57 625.453 512.703 625.219 513.875 625.062C515.047 624.828 516.102 624.711 517.039 624.711C518.055 624.633 518.641 624.633 518.797 624.711C518.875 624.789 518.68 625.609 518.211 627.172C517.742 628.734 517.156 630.57 516.453 632.68C515.75 634.789 515.008 636.977 514.227 639.242C513.445 641.43 512.859 643.227 512.469 644.633C512.078 646.039 511.609 647.641 511.062 649.438C510.516 651.156 510.008 652.875 509.539 654.594C509.148 656.234 508.875 657.797 508.719 659.281C508.562 660.766 508.68 661.898 509.07 662.68C509.461 663.617 509.891 664.281 510.359 664.672C510.828 664.984 511.336 665.141 511.883 665.141C513.445 665.141 515.398 664.281 517.742 662.562C520.164 660.844 522.586 658.812 525.008 656.469C527.508 654.047 529.812 651.625 531.922 649.203C534.031 646.703 535.594 644.711 536.609 643.227C537.234 642.445 537.859 641.938 538.484 641.703C539.188 641.469 539.734 641.508 540.125 641.82C540.594 642.133 540.828 642.641 540.828 643.344C540.906 644.047 540.672 644.867 540.125 645.805C538.875 647.992 537.039 650.609 534.617 653.656C532.195 656.625 529.617 659.516 526.883 662.328C524.148 665.062 521.453 667.406 518.797 669.359C516.219 671.312 514.109 672.328 512.469 672.406C511.141 672.484 509.812 672.25 508.484 671.703C507.234 671.234 506.062 670.57 504.969 669.711C503.953 668.773 503.094 667.719 502.391 666.547C501.688 665.297 501.297 664.008 501.219 662.68C500.984 660.727 500.984 658.07 501.219 654.711C501.453 651.273 501.883 647.797 502.508 644.281C503.133 640.688 503.914 637.289 504.852 634.086C505.867 630.883 507 628.5 508.25 626.938ZM574.812 641.352C575.125 640.883 575.516 640.609 575.984 640.531C576.531 640.375 576.961 640.414 577.273 640.648C577.586 640.883 577.742 641.273 577.742 641.82C577.82 642.367 577.625 643.109 577.156 644.047C575.594 647.016 573.523 650.219 570.945 653.656C568.445 657.094 565.789 660.336 562.977 663.383C560.164 666.352 557.43 668.812 554.773 670.766C552.117 672.719 549.891 673.695 548.094 673.695C545.516 673.695 543.367 673.188 541.648 672.172C539.93 671.156 538.562 669.906 537.547 668.422C536.609 666.938 535.945 665.336 535.555 663.617C535.164 661.82 535.047 660.18 535.203 658.695C535.281 657.445 535.555 655.219 536.023 652.016C536.492 648.734 537.117 644.984 537.898 640.766C538.68 636.469 539.539 631.898 540.477 627.055C541.492 622.133 542.547 617.406 543.641 612.875C542.312 613.031 540.984 613.188 539.656 613.344C538.328 613.5 537.117 613.578 536.023 613.578C533.523 613.578 531.18 613.305 528.992 612.758C526.727 612.133 525.047 611.547 523.953 611C523.328 610.688 523.055 610.258 523.133 609.711C523.211 609.086 523.445 608.5 523.836 607.953C524.227 607.328 524.734 606.82 525.359 606.43C525.906 605.961 526.414 605.727 526.883 605.727C528.367 605.883 529.969 606.039 531.688 606.195C533.406 606.273 535.281 606.273 537.312 606.195C538.797 606.117 540.203 606 541.531 605.844C542.938 605.688 544.305 605.492 545.633 605.258C546.648 601.508 547.625 598.266 548.562 595.531C549.578 592.719 550.477 590.766 551.258 589.672C551.492 589.281 552 588.969 552.781 588.734C553.641 588.422 554.539 588.227 555.477 588.148C556.414 587.992 557.312 587.992 558.172 588.148C559.031 588.227 559.656 588.5 560.047 588.969C560.438 589.594 560.594 591.195 560.516 593.773C560.438 596.352 560.008 599.633 559.227 603.617C562.508 603.617 565.398 603.812 567.898 604.203C570.477 604.516 572.664 604.906 574.461 605.375C576.258 605.766 577.703 606.195 578.797 606.664C579.891 607.055 580.711 607.328 581.258 607.484C581.805 607.641 582.078 608.031 582.078 608.656C582.156 609.281 582.039 609.945 581.727 610.648C581.492 611.273 581.062 611.82 580.438 612.289C579.812 612.758 579.109 612.914 578.328 612.758C577.547 612.68 576.648 612.523 575.633 612.289C574.695 612.055 573.523 611.859 572.117 611.703C570.789 611.547 569.188 611.391 567.312 611.234C565.438 611.078 563.25 611 560.75 611C560.281 611 559.734 611.039 559.109 611.117C558.562 611.117 557.977 611.117 557.352 611.117C557.039 612.367 556.727 613.617 556.414 614.867C556.18 616.039 555.828 617.289 555.359 618.617C554.344 621.742 553.172 625.141 551.844 628.812C550.672 632.016 549.266 635.688 547.625 639.828C545.984 643.969 544.148 648.383 542.117 653.07C541.648 656.43 541.688 659.008 542.234 660.805C542.859 662.523 543.602 663.773 544.461 664.555C545.477 665.414 546.727 665.883 548.211 665.961C549.383 666.117 550.789 665.727 552.43 664.789C554.148 663.773 555.906 662.445 557.703 660.805C559.5 659.164 561.297 657.367 563.094 655.414C564.969 653.461 566.688 651.547 568.25 649.672C569.812 647.797 571.18 646.117 572.352 644.633C573.523 643.07 574.344 641.977 574.812 641.352ZM584.305 667.016C584.773 667.328 585.359 667.484 586.062 667.484C586.844 667.484 587.586 667.328 588.289 667.016C589.07 666.703 589.773 666.273 590.398 665.727C591.102 665.18 591.609 664.477 591.922 663.617C592.234 662.758 592.234 661.547 591.922 659.984C591.609 658.344 591.102 656.625 590.398 654.828C589.773 652.953 589.07 651.078 588.289 649.203C587.508 647.328 586.844 645.609 586.297 644.047C585.828 642.875 585.438 641.781 585.125 640.766C584.812 639.906 584.5 639.086 584.188 638.305C583.953 637.445 583.758 636.859 583.602 636.547C583.211 637.172 582.508 638.188 581.492 639.594C580.555 641 579.5 642.484 578.328 644.047C577.234 645.531 576.18 646.938 575.164 648.266C574.148 649.516 573.445 650.375 573.055 650.844C572.43 651.547 571.805 651.977 571.18 652.133C570.633 652.211 570.164 652.094 569.773 651.781C569.383 651.391 569.148 650.883 569.07 650.258C569.07 649.555 569.383 648.734 570.008 647.797C570.477 647.172 571.18 646.195 572.117 644.867C573.055 643.461 573.992 642.055 574.93 640.648C575.867 639.164 576.727 637.875 577.508 636.781C578.289 635.609 578.719 634.906 578.797 634.672C578.953 634.047 578.719 633.227 578.094 632.211C577.547 631.195 577.469 630.023 577.859 628.695C578.172 627.602 578.875 626.352 579.969 624.945C581.062 623.461 582.352 622.133 583.836 620.961C585.32 619.789 586.844 618.93 588.406 618.383C589.969 617.758 591.375 617.758 592.625 618.383C593.641 619.008 594.461 619.711 595.086 620.492C595.711 621.195 595.945 621.938 595.789 622.719C595.633 623.109 595.398 623.617 595.086 624.242C594.773 624.867 594.305 625.648 593.68 626.586C593.055 627.445 592.156 628.578 590.984 629.984C591.219 631.781 591.531 633.422 591.922 634.906C592.391 636.391 592.82 637.68 593.211 638.773C593.68 640.102 594.188 641.312 594.734 642.406C595.438 643.812 596.18 645.258 596.961 646.742C597.742 648.227 598.445 649.711 599.07 651.195C599.695 652.602 600.203 653.93 600.594 655.18C600.984 656.43 601.102 657.484 600.945 658.344C600.711 659.672 600.008 661.273 598.836 663.148C597.742 665.023 596.336 666.859 594.617 668.656C592.977 670.375 591.062 671.859 588.875 673.109C586.766 674.359 584.539 674.984 582.195 674.984C580.555 674.984 578.953 674.477 577.391 673.461C575.906 672.445 574.617 671.273 573.523 669.945C572.508 668.539 571.727 667.172 571.18 665.844C570.711 664.516 570.672 663.5 571.062 662.797C571.531 661.859 571.961 661.117 572.352 660.57C572.742 660.023 573.328 659.398 574.109 658.695C574.422 658.461 574.812 658.188 575.281 657.875C575.672 657.641 576.219 657.406 576.922 657.172C577.625 656.938 578.445 656.664 579.383 656.352C580.164 658.773 580.867 660.688 581.492 662.094C582.117 663.422 582.625 664.477 583.016 665.258C583.484 666.117 583.914 666.703 584.305 667.016ZM299.188 818.688C300.125 818.531 301.062 818.375 302 818.219C302.938 817.984 303.953 817.711 305.047 817.398C303.719 816.148 301.961 815.367 299.773 815.055C299.539 816.305 299.344 817.516 299.188 818.688ZM347.117 782.477C346.805 785.836 345.906 789.352 344.422 793.023C343.016 796.695 341.023 800.25 338.445 803.688C335.867 807.125 332.742 810.328 329.07 813.297C325.398 816.266 321.219 818.688 316.531 820.562C317.234 821.891 317.898 823.297 318.523 824.781C319.148 826.266 319.695 827.945 320.164 829.82C320.867 832.32 321.453 834.898 321.922 837.555C322.469 840.211 322.898 842.789 323.211 845.289C323.602 847.789 323.914 850.094 324.148 852.203C324.461 854.391 324.695 856.188 324.852 857.594C325.164 859.938 325.906 861.578 327.078 862.516C328.328 863.531 329.695 864.078 331.18 864.156C332.742 864.312 334.266 864.156 335.75 863.688C337.312 863.219 338.523 862.711 339.383 862.164C339.305 862.242 338.875 862.906 338.094 864.156C337.312 865.484 336.258 866.852 334.93 868.258C333.602 869.742 332 870.992 330.125 872.008C328.328 873.102 326.297 873.453 324.031 873.062C322.469 872.828 321.062 872.281 319.812 871.422C318.641 870.641 317.586 869.43 316.648 867.789C315.789 866.227 315.086 864.195 314.539 861.695C313.992 859.195 313.641 856.148 313.484 852.555C313.328 847.711 313.133 843.102 312.898 838.727C312.742 834.273 311.922 830.172 310.438 826.422C310.203 825.797 309.969 825.211 309.734 824.664C309.5 824.039 309.227 823.492 308.914 823.023C305.711 823.805 302.117 824.312 298.133 824.547C297.586 827.516 297 830.562 296.375 833.688C295.75 836.812 295.086 839.859 294.383 842.828C293.758 845.797 293.055 848.57 292.273 851.148C291.57 853.805 290.867 856.07 290.164 857.945C289.383 859.898 288.367 861.461 287.117 862.633C285.945 863.883 284.031 864.508 281.375 864.508C279.812 864.508 278.445 864.156 277.273 863.453C276.102 862.75 274.969 861.773 273.875 860.523C274.188 860.289 274.695 859.898 275.398 859.352C276.023 858.883 276.805 857.867 277.742 856.305C278.602 854.82 279.539 852.672 280.555 849.859C281.648 847.047 282.742 843.258 283.836 838.492C284.227 836.539 284.734 834.273 285.359 831.695C286.062 829.039 286.805 826.148 287.586 823.023C284.461 821.305 283.016 819 283.25 816.109C283.406 814.312 284.227 812.789 285.711 811.539C287.195 810.289 288.992 809.43 291.102 808.961C292.117 804.898 293.133 800.797 294.148 796.656C295.242 792.516 296.258 788.648 297.195 785.055C298.133 781.383 298.992 778.102 299.773 775.211C300.555 772.242 301.18 769.898 301.648 768.18C300.242 769.117 298.836 770.172 297.43 771.344C296.18 772.359 294.812 773.531 293.328 774.859C291.922 776.109 290.594 777.438 289.344 778.844C288.719 778.375 288.211 777.867 287.82 777.32C287.43 776.773 287.117 776.305 286.883 775.914C286.57 775.445 286.336 774.938 286.18 774.391C285.633 773.297 285.359 772.125 285.359 770.875C285.359 769.547 286.297 768.219 288.172 766.891C289.188 766.188 290.711 765.172 292.742 763.844C294.852 762.516 297.43 761.227 300.477 759.977C303.523 758.727 307.039 757.633 311.023 756.695C315.086 755.758 319.578 755.289 324.5 755.289C329.422 755.289 333.406 756.266 336.453 758.219C339.5 760.172 341.844 762.555 343.484 765.367C345.125 768.18 346.18 771.148 346.648 774.273C347.195 777.398 347.352 780.133 347.117 782.477ZM311.727 814.703C314.461 813.375 317.156 811.734 319.812 809.781C322.547 807.828 325.008 805.484 327.195 802.75C329.383 800.016 331.219 796.93 332.703 793.492C334.188 789.977 335.125 786.031 335.516 781.656C335.828 777.75 335.555 774.508 334.695 771.93C333.914 769.273 332.703 767.164 331.062 765.602C329.5 764.039 327.703 762.945 325.672 762.32C323.641 761.617 321.609 761.266 319.578 761.266C317.703 761.266 315.789 761.539 313.836 762.086C311.961 762.633 310.125 763.336 308.328 764.195C308.562 764.273 308.836 764.469 309.148 764.781C309.305 765.016 309.461 765.328 309.617 765.719C309.852 766.031 310.008 766.383 310.086 766.773C308.289 774.352 306.844 780.68 305.75 785.758C304.656 790.836 303.758 794.977 303.055 798.18C302.195 801.93 301.57 804.938 301.18 807.203C301.102 807.516 301.023 807.828 300.945 808.141C300.945 808.453 300.906 808.805 300.828 809.195C302.547 809.586 304.344 810.211 306.219 811.07C308.094 811.852 309.93 813.062 311.727 814.703ZM374.656 814.352C373.172 812.789 371.961 810.875 371.023 808.609C370.164 806.266 369.5 803.961 369.031 801.695C368.484 799.117 368.094 796.383 367.859 793.492C367.469 787.867 368.094 782.75 369.734 778.141C371.375 773.531 373.602 769.586 376.414 766.305C379.227 763.023 382.352 760.484 385.789 758.688C389.305 756.891 392.703 755.992 395.984 755.992C397.469 755.992 398.641 756.344 399.5 757.047C400.438 757.75 401.141 758.609 401.609 759.625C402.078 760.641 402.352 761.695 402.43 762.789C402.586 763.883 402.664 764.781 402.664 765.484C402.664 767.984 402.586 770.445 402.43 772.867C402.352 775.289 402.156 777.867 401.844 780.602C401.609 783.336 401.219 786.266 400.672 789.391C400.125 792.516 399.422 795.992 398.562 799.82C398.094 801.93 397.43 804.625 396.57 807.906C395.711 811.188 394.695 814.82 393.523 818.805C397.039 818.883 399.852 819.039 401.961 819.273C404.148 819.43 405.555 819.547 406.18 819.625C406.727 819.703 407.117 819.977 407.352 820.445C407.664 820.914 407.508 821.656 406.883 822.672C406.258 823.609 405.359 824.156 404.188 824.312C403.094 824.469 402 824.547 400.906 824.547C400.281 824.547 399.109 824.547 397.391 824.547C395.75 824.547 393.797 824.625 391.531 824.781C389.891 829.625 388.016 834.508 385.906 839.43C383.875 844.273 381.609 848.648 379.109 852.555C376.609 856.539 373.875 859.742 370.906 862.164C367.938 864.664 364.773 865.914 361.414 865.914C356.57 865.914 352.469 864.977 349.109 863.102C345.828 861.305 343.172 859.156 341.141 856.656C339.031 854.234 337.508 851.773 336.57 849.273C335.633 846.852 335.164 844.977 335.164 843.648C335.164 841.305 335.789 838.922 337.039 836.5C338.289 834.078 340.281 831.812 343.016 829.703C345.672 827.516 349.148 825.602 353.445 823.961C357.742 822.32 362.898 821.07 368.914 820.211C371.414 819.898 373.797 819.664 376.062 819.508C378.328 819.273 380.477 819.078 382.508 818.922C384.07 813.062 385.633 807.086 387.195 800.992C388.836 794.898 390.242 789.273 391.414 784.117C391.883 782.008 392.352 779.742 392.82 777.32C393.289 774.82 393.641 772.477 393.875 770.289C394.188 768.102 394.344 766.266 394.344 764.781C394.422 763.297 394.266 762.477 393.875 762.32C393.641 762.242 393.055 762.555 392.117 763.258C391.18 763.883 390.086 764.82 388.836 766.07C387.586 767.32 386.336 768.844 385.086 770.641C383.914 772.359 382.938 774.234 382.156 776.266C380.75 780.25 379.656 784.156 378.875 787.984C378.25 791.266 377.859 794.742 377.703 798.414C377.547 802.086 378.133 805.406 379.461 808.375C379.305 809.469 379.07 810.367 378.758 811.07C378.523 811.461 378.328 811.812 378.172 812.125C377.938 812.359 377.664 812.633 377.352 812.945C377.039 813.18 376.648 813.453 376.18 813.766C375.789 814 375.281 814.195 374.656 814.352ZM373.25 847.047C374.109 845.25 375.164 842.477 376.414 838.727C377.664 834.977 378.992 830.641 380.398 825.719C376.57 826.188 372.703 826.852 368.797 827.711C364.891 828.492 361.336 829.586 358.133 830.992C355.008 832.32 352.43 833.961 350.398 835.914C348.445 837.867 347.469 840.172 347.469 842.828C347.469 845.641 348.016 848.102 349.109 850.211C350.281 852.32 351.648 854.078 353.211 855.484C354.852 856.891 356.492 857.945 358.133 858.648C359.852 859.43 361.297 859.82 362.469 859.82C363.641 859.82 364.734 859.352 365.75 858.414C366.844 857.555 367.82 856.461 368.68 855.133C369.617 853.883 370.438 852.516 371.141 851.031C371.922 849.547 372.625 848.219 373.25 847.047ZM434.305 866.852C430.477 866.852 427.039 865.836 423.992 863.805C420.945 861.852 418.367 859.156 416.258 855.719C414.148 852.281 412.586 848.297 411.57 843.766C410.633 839.234 410.281 834.43 410.516 829.352C410.828 823.961 411.648 818.414 412.977 812.711C414.305 806.93 416.102 801.305 418.367 795.836C420.633 790.367 423.25 785.172 426.219 780.25C429.266 775.328 432.586 771.031 436.18 767.359C439.852 763.688 443.758 760.797 447.898 758.688C452.039 756.5 456.375 755.406 460.906 755.406C463.875 755.406 466.375 756.148 468.406 757.633C470.438 759.117 472 761.07 473.094 763.492C474.266 765.836 475.008 768.492 475.32 771.461C475.633 774.43 475.594 777.398 475.203 780.367C474.891 783.258 474.227 786.07 473.211 788.805C472.273 791.461 471.102 793.648 469.695 795.367C467.898 797.633 466.258 798.844 464.773 799C463.367 799.078 462 798.648 460.672 797.711C460.125 797.242 459.578 796.695 459.031 796.07C458.484 795.523 457.898 794.859 457.273 794.078C456.648 793.219 455.984 792.164 455.281 790.914C456.766 790.367 458.133 789.469 459.383 788.219C460.633 786.891 461.688 785.406 462.547 783.766C463.484 782.125 464.188 780.406 464.656 778.609C465.203 776.734 465.516 774.898 465.594 773.102C465.672 771.695 465.633 770.328 465.477 769C465.32 767.594 465.008 766.383 464.539 765.367C464.07 764.273 463.406 763.414 462.547 762.789C461.766 762.086 460.75 761.734 459.5 761.734C456.375 761.734 453.328 762.945 450.359 765.367C447.391 767.711 444.578 770.875 441.922 774.859C439.344 778.766 436.922 783.258 434.656 788.336C432.469 793.414 430.555 798.648 428.914 804.039C427.273 809.43 425.945 814.742 424.93 819.977C423.914 825.211 423.289 829.977 423.055 834.273C422.742 839.664 422.938 844.039 423.641 847.398C424.344 850.758 425.281 853.375 426.453 855.25C427.703 857.203 429.031 858.492 430.438 859.117C431.844 859.82 433.133 860.172 434.305 860.172C436.492 860.172 438.953 859.156 441.688 857.125C444.422 855.094 447.039 852.32 449.539 848.805C452.039 845.367 454.266 841.383 456.219 836.852C458.25 832.32 459.695 827.555 460.555 822.555C458.602 822.555 456.609 822.594 454.578 822.672C452.625 822.672 450.75 822.711 448.953 822.789C447.156 822.867 445.555 822.984 444.148 823.141C442.742 823.219 441.648 823.336 440.867 823.492C440.32 823.258 439.93 822.984 439.695 822.672C439.539 822.359 439.383 822.008 439.227 821.617C439.07 821.305 438.992 820.914 438.992 820.445C438.992 819.977 439.07 819.547 439.227 819.156C439.383 818.766 439.578 818.375 439.812 817.984C440.047 817.516 440.359 817.047 440.75 816.578C443.25 816.109 445.711 815.719 448.133 815.406C450.555 815.094 453.055 814.859 455.633 814.703C458.289 814.469 461.102 814.312 464.07 814.234C467.117 814.078 470.516 813.961 474.266 813.883C475.828 813.805 476.766 814 477.078 814.469C477.469 814.938 477.352 816.109 476.727 817.984C476.258 819.469 475.633 820.68 474.852 821.617C474.148 822.555 472.938 822.945 471.219 822.789C470.672 822.789 470.242 822.75 469.93 822.672C469.227 827.281 467.742 832.164 465.477 837.32C463.211 842.477 460.438 847.242 457.156 851.617C453.875 855.992 450.242 859.625 446.258 862.516C442.352 865.406 438.367 866.852 434.305 866.852ZM483.641 866.148C481.766 866.148 480.633 865.914 480.242 865.445C479.773 865.055 479.695 864.234 480.008 862.984C480.086 862.594 480.477 860.836 481.18 857.711C481.883 854.664 482.742 850.914 483.758 846.461C484.852 842.086 485.984 837.32 487.156 832.164C488.406 827.008 489.578 822.164 490.672 817.633C489.031 817.789 487.82 817.672 487.039 817.281C486.258 816.812 485.867 816.227 485.867 815.523C485.945 814.742 486.375 813.961 487.156 813.18C488.016 812.398 489.227 811.734 490.789 811.188C491.102 811.031 491.57 810.875 492.195 810.719C492.586 809.391 492.938 808.023 493.25 806.617C493.562 805.445 493.875 804.195 494.188 802.867C494.5 801.539 494.812 800.25 495.125 799L503.328 763.961C503.797 762.164 504.5 760.836 505.438 759.977C506.453 759.039 508.289 758.258 510.945 757.633C513.133 757.086 514.656 756.891 515.516 757.047C516.375 757.125 516.766 757.359 516.688 757.75C516.453 758.609 515.867 760.68 514.93 763.961C513.992 767.242 512.859 771.266 511.531 776.031C510.281 780.719 508.914 785.914 507.43 791.617C505.945 797.242 504.5 802.828 503.094 808.375C507.781 807.672 513.484 807.086 520.203 806.617C522.781 806.305 525.281 806.109 527.703 806.031C530.203 805.953 532.586 805.953 534.852 806.031C535.945 801.812 537 797.594 538.016 793.375C539.109 789.156 540.125 785.25 541.062 781.656C542 778.062 542.82 774.898 543.523 772.164C544.305 769.352 544.891 767.281 545.281 765.953C545.75 764.469 546.18 763.258 546.57 762.32C547.039 761.383 547.547 760.641 548.094 760.094C548.719 759.547 549.422 759.156 550.203 758.922C550.984 758.688 551.883 758.492 552.898 758.336C553.445 758.336 554.109 758.297 554.891 758.219C555.516 758.219 556.258 758.219 557.117 758.219C557.977 758.141 558.953 758.18 560.047 758.336C557.078 766.305 554.305 774.391 551.727 782.594C549.227 790.719 546.883 798.648 544.695 806.383C546.102 806.539 547.312 806.656 548.328 806.734C549.422 806.812 550.281 806.93 550.906 807.086C552.781 807.398 553.953 807.906 554.422 808.609C554.969 809.312 554.812 810.328 553.953 811.656L552.547 813.414C552.078 814.039 551.492 814.781 550.789 815.641C550.086 816.422 549.188 817.32 548.094 818.336C547.469 818.102 546.805 817.867 546.102 817.633C545.477 817.398 544.852 817.164 544.227 816.93C543.445 816.695 542.703 816.461 542 816.227C541.453 818.102 540.945 819.938 540.477 821.734C540.008 823.453 539.578 825.211 539.188 827.008C538.25 830.836 537.352 834.781 536.492 838.844C535.789 842.359 535.047 846.227 534.266 850.445C533.562 854.742 533.016 858.961 532.625 863.102C532 863.414 531.375 863.609 530.75 863.688C530.125 863.844 529.578 863.961 529.109 864.039C528.562 864.117 528.016 864.195 527.469 864.273H527.352H527.117H526.883C526.57 864.273 526.258 864.273 525.945 864.273C525.633 864.273 525.32 864.195 525.008 864.039C524.617 863.961 524.227 863.844 523.836 863.688C523.445 863.531 523.055 863.375 522.664 863.219C522.352 863.141 522 862.984 521.609 862.75C522.234 860.172 522.703 857.75 523.016 855.484C523.406 853.219 523.68 851.227 523.836 849.508C524.07 847.477 524.227 845.68 524.305 844.117C524.383 842.086 524.148 839.859 523.602 837.438C523.133 835.016 522.352 832.633 521.258 830.289C520.242 827.945 518.953 825.758 517.391 823.727C515.906 821.695 514.188 819.977 512.234 818.57C510.281 817.242 508.406 816.383 506.609 815.992C504.891 815.602 503.133 815.484 501.336 815.641C500.789 817.984 500.281 820.25 499.812 822.438C499.344 824.625 498.953 826.734 498.641 828.766C497.781 833.297 496.961 837.711 496.18 842.008C495.555 845.68 494.891 849.469 494.188 853.375C493.562 857.359 493.094 860.758 492.781 863.57C491.531 864.195 490.359 864.664 489.266 864.977C488.172 865.367 487.195 865.641 486.336 865.797C485.398 866.031 484.5 866.148 483.641 866.148ZM530.047 814.117C527.312 813.805 524.695 813.648 522.195 813.648C519.773 813.57 517.625 813.531 515.75 813.531C517.312 814.391 518.68 815.523 519.852 816.93C521.102 818.336 522.391 819.938 523.719 821.734C524.969 823.375 525.984 825.172 526.766 827.125C527.547 829.078 528.211 830.953 528.758 832.75C529.383 829.469 530.047 826.266 530.75 823.141C531.453 820.016 532.117 817.086 532.742 814.352C532.273 814.273 531.805 814.234 531.336 814.234C530.945 814.156 530.516 814.117 530.047 814.117ZM567.195 770.641C566.258 770.953 565.555 770.992 565.086 770.758C564.617 770.523 564.266 770.133 564.031 769.586C563.797 769.039 563.68 768.453 563.68 767.828C563.68 767.125 563.719 766.461 563.797 765.836C563.875 765.289 563.992 764.664 564.148 763.961C564.383 763.258 564.656 762.594 564.969 761.969C565.281 761.344 565.633 760.836 566.023 760.445C566.492 759.977 567.078 759.664 567.781 759.508C571.375 758.883 574.852 758.414 578.211 758.102C581.648 757.789 584.734 757.555 587.469 757.398C590.594 757.164 593.602 757.047 596.492 757.047C597.117 757.047 597.742 757.086 598.367 757.164C598.992 757.164 599.617 757.164 600.242 757.164C600.945 757.008 601.492 756.969 601.883 757.047C602.352 757.047 602.742 757.086 603.055 757.164C605.32 757.242 607.664 757.359 610.086 757.516C612.117 757.672 614.383 757.867 616.883 758.102C619.461 758.258 622 758.492 624.5 758.805C624.734 759.43 624.773 760.211 624.617 761.148C624.539 761.617 624.461 762.086 624.383 762.555C624.305 763.023 624.109 763.453 623.797 763.844C623.562 764.234 623.25 764.625 622.859 765.016C622.547 765.328 622.156 765.602 621.688 765.836C619.031 765.758 616.453 765.719 613.953 765.719C611.531 765.641 609.383 765.602 607.508 765.602H601.18C600.164 769.195 598.914 773.648 597.43 778.961C595.945 784.195 594.422 789.742 592.859 795.602C591.375 801.383 589.93 807.164 588.523 812.945C587.195 818.648 586.141 823.805 585.359 828.414C584.578 832.867 583.797 837.242 583.016 841.539C582.703 843.336 582.352 845.211 581.961 847.164C581.648 849.117 581.336 851.031 581.023 852.906C580.789 854.781 580.555 856.578 580.32 858.297C580.086 860.016 579.891 861.578 579.734 862.984C578.484 863.609 577.312 864.078 576.219 864.391C575.125 864.781 574.148 865.055 573.289 865.211C572.273 865.445 571.336 865.562 570.477 865.562C568.602 865.562 567.43 865.328 566.961 864.859C566.57 864.469 566.531 863.648 566.844 862.398C567.078 861.305 567.781 858.336 568.953 853.492C569.422 851.461 570.008 848.883 570.711 845.758C571.492 842.711 572.391 839 573.406 834.625C574.422 830.172 575.633 825.016 577.039 819.156C578.445 813.219 580.047 806.422 581.844 798.766L589.695 766.188C587.352 766.5 585.047 766.852 582.781 767.242C580.516 767.633 578.367 768.062 576.336 768.531C574.383 768.922 572.586 769.312 570.945 769.703C569.383 770.094 568.133 770.406 567.195 770.641Z" fill="#D6C3DB"/>
</svg>
