<svg width="1056" height="1311" viewBox="0 0 1056 1311" fill="none" xmlns="http://www.w3.org/2000/svg">
<rect y="117" width="1056" height="1194" rx="20" fill="#FFCD83"/>
<rect x="52" y="171" width="944" height="1074" rx="10" fill="#F8F3F3"/>
<path d="M2 120.999C686 108.999 973.333 13.6667 968 7C947.44 34.497 984 29 984 67C984 105 1046 120.999 1046 120.999" stroke="#FFCD83" stroke-width="8"/>
<mask id="path-4-inside-1_89_120" fill="white">
<path fill-rule="evenodd" clip-rule="evenodd" d="M586.021 694.622C586.007 694.615 585.993 694.607 585.98 694.6L421.471 605.885C416.107 602.993 409.425 605.53 407.333 611.253L360.609 739.037C359.158 743.005 360.357 747.456 363.605 750.158L468.212 837.192L584.15 942.311C587.421 945.276 592.165 945.697 595.853 943.572L567.334 827.595L566.595 824.59L568.955 822.588L631.692 769.357L586.021 694.622ZM597.145 693.648L642.456 767.794L644.687 771.445L641.424 774.213L577.784 828.211L604.336 936.189L713.522 837.192L829.943 735.954C833.567 732.803 834.439 727.52 832.02 723.371L765.31 608.964C762.545 604.223 756.475 602.596 751.71 605.319L597.145 693.648Z"/>
</mask>
<path fill-rule="evenodd" clip-rule="evenodd" d="M586.021 694.622C586.007 694.615 585.993 694.607 585.98 694.6L421.471 605.885C416.107 602.993 409.425 605.53 407.333 611.253L360.609 739.037C359.158 743.005 360.357 747.456 363.605 750.158L468.212 837.192L584.15 942.311C587.421 945.276 592.165 945.697 595.853 943.572L567.334 827.595L566.595 824.59L568.955 822.588L631.692 769.357L586.021 694.622ZM597.145 693.648L642.456 767.794L644.687 771.445L641.424 774.213L577.784 828.211L604.336 936.189L713.522 837.192L829.943 735.954C833.567 732.803 834.439 727.52 832.02 723.371L765.31 608.964C762.545 604.223 756.475 602.596 751.71 605.319L597.145 693.648Z" fill="#DF52C0" fill-opacity="0.53"/>
<path d="M585.98 694.6L582.182 701.641L582.183 701.642L585.98 694.6ZM586.021 694.622L592.847 690.45L591.709 688.588L589.783 687.562L586.021 694.622ZM421.471 605.885L417.674 612.927L421.471 605.885ZM407.333 611.253L399.819 608.506V608.506L407.333 611.253ZM360.609 739.037L353.095 736.29L360.609 739.037ZM363.605 750.158L368.721 744.009H368.721L363.605 750.158ZM468.212 837.192L473.585 831.265L473.459 831.151L473.329 831.042L468.212 837.192ZM584.15 942.311L589.523 936.384L584.15 942.311ZM595.853 943.572L599.846 950.504L605.058 947.503L603.622 941.662L595.853 943.572ZM567.334 827.595L575.103 825.684L567.334 827.595ZM566.595 824.59L561.419 818.49L557.645 821.693L558.827 826.5L566.595 824.59ZM568.955 822.588L563.779 816.488L563.779 816.488L568.955 822.588ZM631.692 769.357L636.868 775.457L642.088 771.027L638.518 765.185L631.692 769.357ZM597.145 693.648L593.175 686.702L586.023 690.79L590.319 697.82L597.145 693.648ZM642.456 767.794L635.63 771.965V771.965L642.456 767.794ZM644.687 771.445L649.863 777.545L655.084 773.115L651.514 767.273L644.687 771.445ZM641.424 774.213L636.249 768.113V768.113L641.424 774.213ZM577.784 828.211L572.608 822.111L568.833 825.314L570.015 830.122L577.784 828.211ZM604.336 936.189L596.567 938.099L599.77 951.127L609.709 942.116L604.336 936.189ZM713.522 837.192L708.272 831.155L708.21 831.21L708.148 831.265L713.522 837.192ZM829.943 735.954L835.192 741.991L835.192 741.991L829.943 735.954ZM832.02 723.371L838.931 719.342V719.342L832.02 723.371ZM765.31 608.964L758.399 612.994V612.994L765.31 608.964ZM751.71 605.319L755.679 612.265V612.265L751.71 605.319ZM582.183 701.642C582.202 701.652 582.229 701.666 582.258 701.682L589.783 687.562C589.785 687.563 589.784 687.563 589.776 687.558L582.183 701.642ZM417.674 612.927L582.182 701.641L589.777 687.559L425.268 598.844L417.674 612.927ZM414.846 614C415.265 612.856 416.601 612.348 417.674 612.927L425.268 598.844C415.613 593.637 403.586 598.203 399.819 608.506L414.846 614ZM368.122 741.784L414.846 614L399.819 608.506L353.095 736.29L368.122 741.784ZM368.721 744.009C368.072 743.468 367.832 742.578 368.122 741.784L353.095 736.29C350.484 743.432 352.642 751.444 358.488 756.308L368.721 744.009ZM473.329 831.042L368.721 744.009L358.488 756.308L463.095 843.342L473.329 831.042ZM589.523 936.384L473.585 831.265L462.838 843.119L578.776 948.237L589.523 936.384ZM591.86 936.64C591.123 937.064 590.172 936.972 589.523 936.384L578.776 948.237C584.669 953.58 593.206 954.329 599.846 950.504L591.86 936.64ZM603.622 941.662L575.103 825.684L559.566 829.505L588.085 945.483L603.622 941.662ZM575.103 825.684L574.364 822.68L558.827 826.5L559.566 829.505L575.103 825.684ZM571.771 830.69L574.131 828.688L563.779 816.488L561.419 818.49L571.771 830.69ZM574.13 828.688L636.868 775.457L626.516 763.257L563.779 816.488L574.13 828.688ZM638.518 765.185L592.847 690.45L579.194 698.794L624.866 773.528L638.518 765.185ZM590.319 697.82L635.63 771.965L649.282 763.622L603.971 689.476L590.319 697.82ZM635.63 771.965L637.861 775.616L651.514 767.273L649.282 763.622L635.63 771.965ZM639.512 765.345L636.249 768.113L646.6 780.313L649.863 777.545L639.512 765.345ZM636.249 768.113L572.608 822.111L582.96 834.312L646.6 780.313L636.249 768.113ZM570.015 830.122L596.567 938.099L612.104 934.279L585.552 826.301L570.015 830.122ZM708.148 831.265L598.962 930.262L609.709 942.116L718.895 843.119L708.148 831.265ZM824.693 729.918L708.272 831.155L718.771 843.229L835.192 741.991L824.693 729.918ZM825.109 727.401C825.593 728.231 825.418 729.287 824.693 729.918L835.192 741.991C841.716 736.319 843.285 726.81 838.931 719.342L825.109 727.401ZM758.399 612.994L825.109 727.401L838.931 719.342L772.221 604.935L758.399 612.994ZM755.679 612.265C756.632 611.721 757.846 612.046 758.399 612.994L772.221 604.935C767.244 596.4 756.318 593.471 747.74 598.374L755.679 612.265ZM601.114 700.594L755.679 612.265L747.74 598.374L593.175 686.702L601.114 700.594Z" fill="#DF52C0" mask="url(#path-4-inside-1_89_120)"/>
<path d="M101.4 277L95.3 229.2L86.8 227.5L86 216.4H126.2L119.9 277H101.4ZM180.791 255.7C180.791 262.433 178.158 267.833 172.891 271.9C167.691 275.967 161.491 278 154.291 278C150.691 278 147.125 277.4 143.591 276.2C140.058 275 137.458 273.8 135.791 272.6L133.191 270.8L137.991 261C141.391 262.533 144.358 263.3 146.891 263.3C149.425 263.3 151.391 262.6 152.791 261.2C154.258 259.733 154.991 257.8 154.991 255.4C154.991 252.933 154.291 250.867 152.891 249.2C151.558 247.533 149.925 246.267 147.991 245.4C144.058 243.467 140.525 242.333 137.391 242L135.291 241.7L142.591 216.4H180.491L177.291 227.5L161.991 232.9V234C167.658 235.8 172.191 238.533 175.591 242.2C176.991 243.667 178.191 245.6 179.191 248C180.258 250.4 180.791 252.967 180.791 255.7ZM261.648 216.4L263.648 235.4L247.548 232.2L243.048 277H223.548L219.048 232.2L202.848 235.4L204.848 216.4H261.648ZM290.488 231L292.188 230.4L288.788 277H269.888L266.688 230.4C270.488 231.933 274.521 232.7 278.788 232.7C283.121 232.7 287.021 232.133 290.488 231ZM279.388 228.3C276.054 228.3 273.254 227.3 270.988 225.3C268.721 223.3 267.588 220.7 267.588 217.5C267.588 214.233 268.688 211.633 270.888 209.7C273.154 207.7 275.954 206.7 279.288 206.7C282.688 206.7 285.521 207.7 287.788 209.7C290.054 211.7 291.188 214.3 291.188 217.5C291.188 220.7 290.054 223.3 287.788 225.3C285.521 227.3 282.721 228.3 279.388 228.3ZM333.93 278C330.197 278 327.097 277.133 324.63 275.4C322.43 273.8 320.73 272.167 319.53 270.5L318.23 294.1H301.13L298.23 229.6H319.73L320.83 235.2C321.164 234.667 321.664 234.033 322.33 233.3C323.064 232.5 324.564 231.467 326.83 230.2C329.164 228.867 331.564 228.2 334.03 228.2C336.497 228.2 338.797 228.567 340.93 229.3C343.13 230.033 345.264 231.233 347.33 232.9C349.464 234.5 351.164 236.967 352.43 240.3C353.764 243.633 354.43 247.6 354.43 252.2C354.43 260.6 352.53 267 348.73 271.4C344.93 275.8 339.997 278 333.93 278ZM327.83 241.7C323.43 241.7 321.23 245.7 321.23 253.7C321.23 256.5 321.697 258.967 322.63 261.1C323.63 263.233 325.097 264.3 327.03 264.3C328.964 264.3 330.43 263.6 331.43 262.2C332.964 260.067 333.73 257.233 333.73 253.7C333.73 245.7 331.764 241.7 327.83 241.7ZM403.349 262C403.349 265.8 402.083 268.967 399.549 271.5C397.016 274.033 394.083 275.767 390.749 276.7C387.483 277.567 384.316 278 381.249 278C378.183 278 375.483 277.8 373.149 277.4C370.883 277 368.949 276.533 367.349 276C364.416 274.867 362.083 273.8 360.349 272.8L359.449 272.2L363.849 263.1C367.849 265.367 371.216 266.5 373.949 266.5C376.683 266.5 378.049 265.367 378.049 263.1C378.049 261.967 377.183 260.8 375.449 259.6C373.716 258.4 371.816 257.267 369.749 256.2C367.749 255.133 365.883 253.5 364.149 251.3C362.416 249.1 361.549 246.567 361.549 243.7C361.549 238.567 363.483 234.7 367.349 232.1C371.216 229.5 376.316 228.2 382.649 228.2C385.849 228.2 388.983 228.467 392.049 229C395.116 229.533 397.416 230.067 398.949 230.6L401.149 231.5L398.649 241.6C394.849 240.2 391.616 239.5 388.949 239.5C386.283 239.5 384.949 240.533 384.949 242.6C384.949 243.6 385.583 244.567 386.849 245.5C388.116 246.367 389.649 247.233 391.449 248.1C393.249 248.967 395.049 249.967 396.849 251.1C398.649 252.167 400.183 253.667 401.449 255.6C402.716 257.467 403.349 259.6 403.349 262ZM455.395 259.2C455.328 263.067 456.695 265 459.495 265C460.295 265 461.261 264.633 462.395 263.9L464.495 273.6C464.095 273.933 463.528 274.367 462.795 274.9C462.128 275.367 460.628 276 458.295 276.8C456.028 277.6 453.661 278 451.195 278C446.661 278 442.961 276.467 440.095 273.4C437.228 270.267 435.695 266.3 435.495 261.5L434.595 242.6H426.895L428.095 229.6H434.095L433.695 219.8L457.395 215L456.695 229.6H462.495L463.695 242.6H456.095L455.395 259.2ZM477.196 272.1C472.396 268.1 469.996 261.767 469.996 253.1C469.996 244.433 472.396 238.133 477.196 234.2C482.063 230.2 488.529 228.2 496.596 228.2C504.663 228.2 511.096 230.2 515.896 234.2C520.763 238.133 523.196 244.433 523.196 253.1C523.196 261.767 520.763 268.1 515.896 272.1C511.096 276.033 504.663 278 496.596 278C488.529 278 482.063 276.033 477.196 272.1ZM492.396 241.8C491.596 244.067 491.196 247.833 491.196 253.1C491.196 258.367 491.596 262.167 492.396 264.5C493.196 266.767 494.596 267.9 496.596 267.9C498.596 267.9 499.996 266.767 500.796 264.5C501.596 262.167 501.996 258.367 501.996 253.1C501.996 247.833 501.596 244.067 500.796 241.8C499.996 239.467 498.596 238.3 496.596 238.3C494.596 238.3 493.196 239.467 492.396 241.8ZM134.7 383L132.4 360L114.6 361.6L112.5 383H93L87 322.4H118.5L116.2 345.5H131L128.7 322.4H160.2L154.2 383H134.7ZM192.299 384C184.766 384 178.433 381.833 173.299 377.5C168.233 373.1 165.699 366.667 165.699 358.2C165.699 352.867 166.999 348.333 169.599 344.6C174.333 337.667 181.666 334.2 191.599 334.2C199.199 334.2 204.999 335.733 208.999 338.8C212.999 341.8 214.999 345.967 214.999 351.3C214.999 355.433 213.333 358.8 209.999 361.4C206.733 363.933 201.933 365.2 195.599 365.2C192.999 365.2 190.666 365 188.599 364.6L187.499 364.4C187.833 366.8 188.866 368.6 190.599 369.8C192.399 370.933 194.533 371.5 196.999 371.5C201.066 371.5 204.533 370.267 207.399 367.8L213.599 375.3C212.533 376.567 211.266 377.767 209.799 378.9C208.333 379.967 205.999 381.1 202.799 382.3C199.599 383.433 196.099 384 192.299 384ZM200.399 350.4C200.399 349.067 199.866 347.967 198.799 347.1C197.799 346.233 196.399 345.8 194.599 345.8C192.799 345.8 191.099 346.6 189.499 348.2C187.966 349.8 187.199 351.7 187.199 353.9C188.666 354.567 190.566 354.9 192.899 354.9C195.299 354.9 197.133 354.5 198.399 353.7C199.733 352.833 200.399 351.733 200.399 350.4ZM244.296 318.1L241.596 383H223.196L220.496 318.1H244.296ZM285.981 384C282.248 384 279.148 383.133 276.681 381.4C274.481 379.8 272.781 378.167 271.581 376.5L270.281 400.1H253.181L250.281 335.6H271.781L272.881 341.2C273.215 340.667 273.715 340.033 274.381 339.3C275.115 338.5 276.615 337.467 278.881 336.2C281.215 334.867 283.615 334.2 286.081 334.2C288.548 334.2 290.848 334.567 292.981 335.3C295.181 336.033 297.315 337.233 299.381 338.9C301.515 340.5 303.215 342.967 304.481 346.3C305.815 349.633 306.481 353.6 306.481 358.2C306.481 366.6 304.581 373 300.781 377.4C296.981 381.8 292.048 384 285.981 384ZM279.881 347.7C275.481 347.7 273.281 351.7 273.281 359.7C273.281 362.5 273.748 364.967 274.681 367.1C275.681 369.233 277.148 370.3 279.081 370.3C281.015 370.3 282.481 369.6 283.481 368.2C285.015 366.067 285.781 363.233 285.781 359.7C285.781 351.7 283.815 347.7 279.881 347.7ZM349.82 383L347.22 357.1L326.02 322.4H350.62L359.62 343.1L368.52 322.4H393.12L371.92 357.1L369.32 383H349.82ZM399.852 378.1C395.052 374.1 392.652 367.767 392.652 359.1C392.652 350.433 395.052 344.133 399.852 340.2C404.719 336.2 411.186 334.2 419.252 334.2C427.319 334.2 433.752 336.2 438.552 340.2C443.419 344.133 445.852 350.433 445.852 359.1C445.852 367.767 443.419 374.1 438.552 378.1C433.752 382.033 427.319 384 419.252 384C411.186 384 404.719 382.033 399.852 378.1ZM415.052 347.8C414.252 350.067 413.852 353.833 413.852 359.1C413.852 364.367 414.252 368.167 415.052 370.5C415.852 372.767 417.252 373.9 419.252 373.9C421.252 373.9 422.652 372.767 423.452 370.5C424.252 368.167 424.652 364.367 424.652 359.1C424.652 353.833 424.252 350.067 423.452 347.8C422.652 345.467 421.252 344.3 419.252 344.3C417.252 344.3 415.852 345.467 415.052 347.8ZM470.255 384C457.655 384 451.355 375.433 451.355 358.3C451.355 353.7 452.122 346.133 453.655 335.6H473.055V357.2C473.055 364.933 475.222 368.8 479.555 368.8C483.355 368.8 485.255 365.333 485.255 358.4C485.255 357.867 485.255 357.3 485.255 356.7L484.355 335.6H506.855L504.755 383H487.855L486.755 373.8C486.622 374.067 486.455 374.433 486.255 374.9C486.055 375.367 485.489 376.2 484.555 377.4C483.689 378.533 482.689 379.567 481.555 380.5C480.422 381.367 478.855 382.167 476.855 382.9C474.855 383.633 472.655 384 470.255 384ZM117.8 427C121.667 427 125.833 427.7 130.3 429.1C134.833 430.5 138.533 432.267 141.4 434.4L137.2 443.3C134.267 442.167 131.033 441.6 127.5 441.6C117.633 441.6 112.7 447.333 112.7 458.8C112.7 464.333 114.033 468.667 116.7 471.8C119.433 474.867 122.7 476.4 126.5 476.4C130.367 476.4 133.967 475.6 137.3 474L141.8 482.6C135.067 487.533 127.033 490 117.7 490C108.367 490 100.733 487.267 94.8 481.8C88.9333 476.333 86 468.5 86 458.3C86 448.033 88.9 440.267 94.7 435C100.5 429.667 108.2 427 117.8 427ZM152.489 484.1C147.689 480.1 145.289 473.767 145.289 465.1C145.289 456.433 147.689 450.133 152.489 446.2C157.356 442.2 163.822 440.2 171.889 440.2C179.956 440.2 186.389 442.2 191.189 446.2C196.056 450.133 198.489 456.433 198.489 465.1C198.489 473.767 196.056 480.1 191.189 484.1C186.389 488.033 179.956 490 171.889 490C163.822 490 157.356 488.033 152.489 484.1ZM167.689 453.8C166.889 456.067 166.489 459.833 166.489 465.1C166.489 470.367 166.889 474.167 167.689 476.5C168.489 478.767 169.889 479.9 171.889 479.9C173.889 479.9 175.289 478.767 176.089 476.5C176.889 474.167 177.289 470.367 177.289 465.1C177.289 459.833 176.889 456.067 176.089 453.8C175.289 451.467 173.889 450.3 171.889 450.3C169.889 450.3 168.489 451.467 167.689 453.8ZM239.692 490C235.959 490 232.859 489.133 230.392 487.4C228.192 485.8 226.492 484.167 225.292 482.5L223.992 506.1H206.892L203.992 441.6H225.492L226.592 447.2C226.926 446.667 227.426 446.033 228.092 445.3C228.826 444.5 230.326 443.467 232.592 442.2C234.926 440.867 237.326 440.2 239.792 440.2C242.259 440.2 244.559 440.567 246.692 441.3C248.892 442.033 251.026 443.233 253.092 444.9C255.226 446.5 256.926 448.967 258.192 452.3C259.526 455.633 260.192 459.6 260.192 464.2C260.192 472.6 258.292 479 254.492 483.4C250.692 487.8 245.759 490 239.692 490ZM233.592 453.7C229.192 453.7 226.992 457.7 226.992 465.7C226.992 468.5 227.459 470.967 228.392 473.1C229.392 475.233 230.859 476.3 232.792 476.3C234.726 476.3 236.192 475.6 237.192 474.2C238.726 472.067 239.492 469.233 239.492 465.7C239.492 457.7 237.526 453.7 233.592 453.7ZM291.811 490C284.278 490 277.944 487.833 272.811 483.5C267.744 479.1 265.211 472.667 265.211 464.2C265.211 458.867 266.511 454.333 269.111 450.6C273.844 443.667 281.178 440.2 291.111 440.2C298.711 440.2 304.511 441.733 308.511 444.8C312.511 447.8 314.511 451.967 314.511 457.3C314.511 461.433 312.844 464.8 309.511 467.4C306.244 469.933 301.444 471.2 295.111 471.2C292.511 471.2 290.178 471 288.111 470.6L287.011 470.4C287.344 472.8 288.378 474.6 290.111 475.8C291.911 476.933 294.044 477.5 296.511 477.5C300.578 477.5 304.044 476.267 306.911 473.8L313.111 481.3C312.044 482.567 310.778 483.767 309.311 484.9C307.844 485.967 305.511 487.1 302.311 488.3C299.111 489.433 295.611 490 291.811 490ZM299.911 456.4C299.911 455.067 299.378 453.967 298.311 453.1C297.311 452.233 295.911 451.8 294.111 451.8C292.311 451.8 290.611 452.6 289.011 454.2C287.478 455.8 286.711 457.7 286.711 459.9C288.178 460.567 290.078 460.9 292.411 460.9C294.811 460.9 296.644 460.5 297.911 459.7C299.244 458.833 299.911 457.733 299.911 456.4Z" fill="#44C3EB"/>
<path d="M83.9828 827H316.017" stroke="black" stroke-opacity="0.19" stroke-width="20" stroke-linecap="round"/>
<path d="M84 932H436" stroke="black" stroke-opacity="0.19" stroke-width="20" stroke-linecap="round"/>
<path d="M83.9968 878H394.003" stroke="black" stroke-opacity="0.19" stroke-width="20" stroke-linecap="round"/>
<path d="M83.9954 983H954.005" stroke="black" stroke-opacity="0.19" stroke-width="20" stroke-linecap="round"/>
<path d="M84 1125H954.009" stroke="black" stroke-opacity="0.19" stroke-width="20" stroke-linecap="round"/>
<path d="M84 1217H954.009" stroke="black" stroke-opacity="0.19" stroke-width="20" stroke-linecap="round"/>
<path d="M84 1171H954.009" stroke="black" stroke-opacity="0.19" stroke-width="20" stroke-linecap="round"/>
<path d="M84 1079H954.009" stroke="black" stroke-opacity="0.19" stroke-width="20" stroke-linecap="round"/>
<path d="M84 1031H954.009" stroke="black" stroke-opacity="0.19" stroke-width="20" stroke-linecap="round"/>
<path d="M574 333L954 333" stroke="black" stroke-opacity="0.19" stroke-width="20" stroke-linecap="round"/>
<path d="M371.993 477H954.021" stroke="black" stroke-opacity="0.19" stroke-width="20" stroke-linecap="round"/>
<path d="M238.987 564H954.026" stroke="black" stroke-opacity="0.19" stroke-width="20" stroke-linecap="round"/>
<path d="M316 521L954 521" stroke="black" stroke-opacity="0.19" stroke-width="20" stroke-linecap="round"/>
<path d="M372 429L954 429" stroke="black" stroke-opacity="0.19" stroke-width="20" stroke-linecap="round"/>
<path d="M536 383L954.014 381" stroke="black" stroke-opacity="0.19" stroke-width="20" stroke-linecap="round"/>
</svg>
