<svg width="1060" height="595" viewBox="0 0 1060 595" fill="none" xmlns="http://www.w3.org/2000/svg">
<path d="M524.518 3.93676C526.984 2.52236 530.015 2.52301 532.481 3.93844L1019.14 283.326C1025.26 286.839 1024.16 295.978 1017.39 297.946L530.73 439.311C529.273 439.734 527.726 439.734 526.269 439.311L39.1324 297.946C32.3532 295.979 31.2586 286.835 37.3819 283.323L524.518 3.93676Z" fill="#DBC6E0" stroke="#AF9FB3" stroke-width="2"/>
<rect x="101.5" y="179.5" width="854" height="317" fill="#F9EDE8" stroke="#DFD1CC"/>
<path d="M132.7 276.33C132.607 276.33 132.443 276.283 132.21 276.19C131.977 276.143 131.86 276.05 131.86 275.91C131.86 275.863 131.883 275.817 131.93 275.77C131.977 275.723 132 275.7 132 275.7C132.327 275.607 132.467 275.56 132.42 275.56C132.42 275.607 132.583 275.583 132.91 275.49C133.703 275.21 134.38 274.813 134.94 274.3C135.547 273.74 136.06 273.087 136.48 272.34C138.673 268.7 140.773 265.013 142.78 261.28C144.787 257.5 146.793 253.743 148.8 250.01C149.36 249.03 149.897 248.027 150.41 247C150.923 245.973 151.437 244.947 151.95 243.92C152.183 243.36 152.417 242.8 152.65 242.24C152.93 241.68 153.233 241.143 153.56 240.63C153.933 239.977 154.517 239.417 155.31 238.95C156.15 238.437 156.943 238.063 157.69 237.83H156.01C155.077 237.83 153.793 237.9 152.16 238.04C150.573 238.133 148.893 238.32 147.12 238.6C145.347 238.88 143.76 239.3 142.36 239.86C141.007 240.42 140.073 241.167 139.56 242.1C139.093 242.94 138.86 243.757 138.86 244.55C138.86 245.483 139.07 246.113 139.49 246.44C139.91 246.767 140.12 246.977 140.12 247.07C140.12 247.163 140.05 247.257 139.91 247.35C139.77 247.443 139.653 247.49 139.56 247.49C139.28 247.49 138.93 247.21 138.51 246.65C138.09 246.09 137.693 245.483 137.32 244.83C136.993 244.13 136.783 243.663 136.69 243.43C136.55 242.917 136.48 242.403 136.48 241.89C136.48 240.63 136.9 239.673 137.74 239.02C138.627 238.32 139.7 237.83 140.96 237.55C142.22 237.27 143.48 237.107 144.74 237.06C146.047 236.967 147.12 236.92 147.96 236.92C150.293 236.92 152.627 236.873 154.96 236.78C157.293 236.64 159.603 236.57 161.89 236.57C164.083 236.57 166.23 236.733 168.33 237.06C170.477 237.34 172.413 237.923 174.14 238.81C175.867 239.697 177.243 240.957 178.27 242.59C179.343 244.223 179.88 246.37 179.88 249.03C179.88 251.457 179.413 253.953 178.48 256.52C177.593 259.04 176.473 261.303 175.12 263.31C169.427 271.85 161.447 276.12 151.18 276.12C149.593 276.12 147.96 275.957 146.28 275.63C144.647 275.303 143.107 274.767 141.66 274.02C141.333 273.833 140.983 273.693 140.61 273.6C140.283 273.46 139.933 273.39 139.56 273.39C138.767 273.39 137.973 273.647 137.18 274.16C136.387 274.627 135.617 275.093 134.87 275.56C134.123 276.073 133.4 276.33 132.7 276.33ZM150.34 275.14C153.84 275.14 157.107 274.463 160.14 273.11C163.173 271.757 165.833 269.867 168.12 267.44C170.407 264.967 172.203 262.143 173.51 258.97C174.117 257.477 174.607 255.913 174.98 254.28C175.4 252.647 175.61 251.037 175.61 249.45C175.61 245.81 174.49 243.01 172.25 241.05C170.057 239.043 167.163 238.04 163.57 238.04C162.683 238.04 161.75 238.133 160.77 238.32C159.837 238.507 159.067 238.95 158.46 239.65C157.853 240.397 157.27 241.213 156.71 242.1C156.197 242.987 155.683 243.85 155.17 244.69C154.097 246.557 153.07 248.493 152.09 250.5C151.157 252.46 150.2 254.397 149.22 256.31C147.68 259.25 146.163 262.213 144.67 265.2C144.343 265.853 143.993 266.53 143.62 267.23C143.293 267.883 142.967 268.537 142.64 269.19C142.547 269.423 142.453 269.68 142.36 269.96C142.267 270.193 142.22 270.473 142.22 270.8C142.22 271.407 142.407 271.92 142.78 272.34C143.153 272.76 143.55 273.157 143.97 273.53C144.857 274.183 145.883 274.627 147.05 274.86C148.217 275.047 149.313 275.14 150.34 275.14ZM182.188 275.56C180.275 275.56 178.945 275.187 178.198 274.44C177.452 273.693 177.078 272.783 177.078 271.71C177.078 270.357 177.428 268.91 178.128 267.37C178.875 265.83 179.575 264.523 180.228 263.45C180.975 262.33 181.978 261.163 183.238 259.95C184.498 258.737 185.875 257.71 187.368 256.87C188.862 256.03 190.308 255.61 191.708 255.61C192.922 255.61 193.762 255.913 194.228 256.52C194.695 257.08 194.928 257.757 194.928 258.55C194.928 259.997 194.485 261.187 193.598 262.12C192.758 263.053 191.708 263.823 190.448 264.43C189.188 264.99 187.975 265.457 186.808 265.83C186.108 266.017 185.292 266.203 184.358 266.39C183.425 266.577 182.538 266.67 181.698 266.67C181.372 267.51 181.115 268.327 180.928 269.12C180.742 269.913 180.648 270.637 180.648 271.29C180.648 272.083 180.835 272.737 181.208 273.25C181.628 273.763 182.305 274.02 183.238 274.02C183.612 274.02 184.055 273.973 184.568 273.88C185.082 273.787 185.642 273.647 186.248 273.46C187.648 272.993 189.025 272.247 190.378 271.22C191.732 270.193 192.968 269.097 194.088 267.93C195.255 266.717 196.142 265.713 196.748 264.92C196.888 265.06 196.958 265.223 196.958 265.41C196.958 265.643 196.795 266.017 196.468 266.53C195.535 267.837 194.322 269.19 192.828 270.59C191.335 271.99 189.678 273.18 187.858 274.16C186.038 275.093 184.148 275.56 182.188 275.56ZM182.258 265.27C182.865 265.317 183.542 265.317 184.288 265.27C185.082 265.177 185.852 265.013 186.598 264.78C188.512 264.22 189.888 263.333 190.728 262.12C191.615 260.86 192.058 259.74 192.058 258.76C192.058 258.2 191.942 257.733 191.708 257.36C191.475 256.987 191.102 256.8 190.588 256.8C189.235 256.8 188.022 257.313 186.948 258.34C185.875 259.32 184.942 260.463 184.148 261.77C183.355 263.077 182.725 264.243 182.258 265.27ZM205.15 275.21C204.683 275.21 204.287 275.117 203.96 274.93C203.633 274.743 203.47 274.393 203.47 273.88C203.47 273.227 203.633 272.48 203.96 271.64C204.287 270.8 204.66 269.983 205.08 269.19C205.5 268.35 205.873 267.673 206.2 267.16C204.567 268.887 202.863 270.52 201.09 272.06C200.203 272.807 199.223 273.507 198.15 274.16C197.077 274.813 195.933 275.14 194.72 275.14C194.253 275.14 193.927 275 193.74 274.72C193.553 274.393 193.46 274.02 193.46 273.6C193.46 273.367 193.483 273.203 193.53 273.11C193.763 271.29 194.347 269.4 195.28 267.44C196.213 265.48 197.357 263.637 198.71 261.91C200.063 260.183 201.44 258.783 202.84 257.71C204.427 256.497 206.177 255.89 208.09 255.89H216.14C216.373 255.89 216.49 255.983 216.49 256.17C216.49 256.543 216.28 256.73 215.86 256.73C215.393 256.73 214.927 257.033 214.46 257.64C213.993 258.2 213.643 258.667 213.41 259.04C213.083 259.553 212.57 260.417 211.87 261.63C211.17 262.843 210.447 264.173 209.7 265.62C209 267.02 208.393 268.327 207.88 269.54C207.367 270.753 207.11 271.64 207.11 272.2C207.11 272.853 207.437 273.18 208.09 273.18C208.79 273.18 209.583 272.853 210.47 272.2C211.357 271.547 212.243 270.753 213.13 269.82C214.063 268.84 214.903 267.883 215.65 266.95C216.443 265.97 217.073 265.2 217.54 264.64C217.82 264.92 217.797 265.317 217.47 265.83C217.19 266.297 216.933 266.67 216.7 266.95C215.767 268.163 214.693 269.423 213.48 270.73C212.267 271.99 210.937 273.063 209.49 273.95C208.09 274.79 206.643 275.21 205.15 275.21ZM197.59 272.76C198.15 272.76 198.92 272.363 199.9 271.57C200.927 270.73 202.023 269.703 203.19 268.49C204.357 267.23 205.453 265.923 206.48 264.57C207.507 263.17 208.347 261.91 209 260.79C209.7 259.623 210.05 258.737 210.05 258.13C210.05 257.617 209.887 257.267 209.56 257.08C209.28 256.893 208.907 256.8 208.44 256.8C207.693 256.8 206.877 257.08 205.99 257.64C205.15 258.153 204.473 258.667 203.96 259.18C203.4 259.693 202.723 260.51 201.93 261.63C201.183 262.703 200.437 263.893 199.69 265.2C198.943 266.507 198.313 267.767 197.8 268.98C197.287 270.193 197.03 271.173 197.03 271.92C197.03 272.48 197.217 272.76 197.59 272.76ZM216.626 275.98C216.44 275.98 216.44 275.793 216.626 275.42C216.86 275 217.07 274.533 217.256 274.02C217.49 273.507 217.723 272.947 217.956 272.34C218.423 271.22 218.936 269.96 219.496 268.56C220.056 267.16 220.593 265.807 221.106 264.5C221.62 263.147 222.063 262.003 222.436 261.07C222.856 260.09 223.136 259.46 223.276 259.18C222.623 259.88 221.83 260.767 220.896 261.84C220.01 262.867 219.17 263.87 218.376 264.85C217.583 265.83 216.976 266.6 216.556 267.16C216.416 267.347 216.3 267.44 216.206 267.44C216.113 267.44 216.066 267.323 216.066 267.09C216.066 266.717 216.183 266.367 216.416 266.04C217.303 264.92 218.283 263.66 219.356 262.26C220.476 260.86 221.48 259.577 222.366 258.41C223.253 257.197 223.813 256.403 224.046 256.03C224.56 255.937 225.306 255.797 226.286 255.61C227.313 255.423 228.013 255.167 228.386 254.84C228.526 254.7 228.666 254.63 228.806 254.63C228.9 254.63 228.946 254.723 228.946 254.91C228.993 255.05 228.946 255.213 228.806 255.4C228.526 255.68 228.106 256.287 227.546 257.22C227.033 258.153 226.45 259.227 225.796 260.44C225.143 261.653 224.513 262.82 223.906 263.94C224.373 263.24 224.98 262.423 225.726 261.49C226.52 260.51 227.383 259.577 228.316 258.69C229.25 257.757 230.183 256.987 231.116 256.38C232.096 255.773 233.006 255.47 233.846 255.47C234.453 255.47 234.966 255.61 235.386 255.89C235.806 256.123 236.133 256.567 236.366 257.22C236.506 257.547 236.576 257.92 236.576 258.34C236.576 259.133 236.366 259.903 235.946 260.65C235.573 261.35 235.293 261.887 235.106 262.26C235.06 262.4 234.896 262.54 234.616 262.68C234.336 262.773 234.22 262.727 234.266 262.54C234.313 262.307 234.336 262.073 234.336 261.84C234.383 261.607 234.406 261.35 234.406 261.07C234.406 260.277 234.243 259.553 233.916 258.9C233.636 258.247 233.1 257.92 232.306 257.92C231.56 257.92 230.65 258.387 229.576 259.32C228.503 260.253 227.43 261.327 226.356 262.54C225.003 264.127 223.93 265.643 223.136 267.09C222.343 268.49 221.69 269.867 221.176 271.22C220.896 271.967 220.616 272.713 220.336 273.46C220.056 274.16 219.846 274.72 219.706 275.14C219.1 275.187 218.493 275.327 217.886 275.56C217.28 275.84 216.86 275.98 216.626 275.98ZM260.195 277.38C258.561 277.38 256.835 277.123 255.015 276.61C253.241 276.143 251.655 275.35 250.255 274.23C248.901 273.11 247.991 271.617 247.525 269.75C247.478 269.517 247.431 269.26 247.385 268.98C247.385 268.7 247.385 268.42 247.385 268.14C247.385 266.693 247.711 265.293 248.365 263.94C249.018 262.587 249.811 261.56 250.745 260.86H250.815C250.908 260.86 251.025 260.977 251.165 261.21C251.351 261.397 251.351 261.537 251.165 261.63C250.698 262.097 250.348 262.633 250.115 263.24C249.928 263.8 249.835 264.407 249.835 265.06C249.835 265.947 249.975 266.857 250.255 267.79C250.581 268.677 250.978 269.447 251.445 270.1C252.611 271.733 254.221 273.04 256.275 274.02C258.375 274.953 260.428 275.42 262.435 275.42C265.188 275.42 267.311 274.603 268.805 272.97C270.345 271.337 271.115 269.33 271.115 266.95C271.115 265.503 270.835 264.057 270.275 262.61C269.528 260.603 268.525 258.643 267.265 256.73C266.051 254.77 264.931 252.857 263.905 250.99C263.018 249.31 262.575 247.607 262.575 245.88C262.575 244.06 263.135 242.31 264.255 240.63C265.375 239.137 266.845 237.947 268.665 237.06C270.531 236.127 272.421 235.66 274.335 235.66C275.641 235.66 276.901 235.893 278.115 236.36C279.328 236.827 280.425 237.597 281.405 238.67C281.685 239.09 281.825 239.627 281.825 240.28C281.825 241.213 281.638 241.937 281.265 242.45C280.845 243.057 280.378 243.85 279.865 244.83C279.351 245.81 279.048 246.487 278.955 246.86C278.861 246.907 278.628 247 278.255 247.14C277.928 247.233 277.718 247.21 277.625 247.07C277.811 246.697 278.068 246.02 278.395 245.04C278.721 244.06 278.885 243.173 278.885 242.38C278.885 241.867 278.861 241.307 278.815 240.7C278.815 240.047 278.511 239.487 277.905 239.02C277.345 238.507 276.621 238.063 275.735 237.69C274.848 237.317 273.775 237.13 272.515 237.13C269.948 237.13 267.988 237.877 266.635 239.37C265.281 240.863 264.605 242.497 264.605 244.27C264.605 245.157 264.791 246.043 265.165 246.93C265.865 248.61 266.845 250.197 268.105 251.69C269.365 253.183 270.601 254.723 271.815 256.31C273.075 257.85 274.055 259.53 274.755 261.35C275.221 262.563 275.455 263.8 275.455 265.06C275.455 266.88 274.988 268.537 274.055 270.03C273.168 271.523 271.955 272.83 270.415 273.95C268.921 275.023 267.288 275.863 265.515 276.47C263.741 277.077 261.968 277.38 260.195 277.38ZM293.247 248.26C292.593 248.26 292.127 248.05 291.847 247.63C291.66 247.397 291.567 247.093 291.567 246.72C291.567 245.973 291.917 245.367 292.617 244.9C293.13 244.62 293.597 244.48 294.017 244.48C294.717 244.48 295.207 244.69 295.487 245.11C295.673 245.343 295.767 245.647 295.767 246.02C295.767 246.767 295.393 247.373 294.647 247.84C294.227 248.12 293.76 248.26 293.247 248.26ZM281.067 275.21C280.6 275.21 280.203 275.117 279.877 274.93C279.597 274.743 279.457 274.393 279.457 273.88C279.457 273.227 279.62 272.457 279.947 271.57C280.32 270.683 280.717 269.797 281.137 268.91C281.603 268.023 281.953 267.3 282.187 266.74C282.513 266.087 282.91 265.247 283.377 264.22C283.89 263.147 284.357 262.143 284.777 261.21C285.243 260.23 285.57 259.553 285.757 259.18C285.103 259.88 284.31 260.767 283.377 261.84C282.49 262.867 281.65 263.87 280.857 264.85C280.063 265.83 279.457 266.6 279.037 267.16C278.897 267.347 278.78 267.44 278.687 267.44C278.593 267.44 278.547 267.323 278.547 267.09C278.547 266.717 278.663 266.367 278.897 266.04C279.783 264.92 280.763 263.66 281.837 262.26C282.957 260.86 283.96 259.577 284.847 258.41C285.733 257.197 286.293 256.403 286.527 256.03C287.04 255.937 287.787 255.797 288.767 255.61C289.793 255.423 290.493 255.167 290.867 254.84C291.007 254.7 291.147 254.63 291.287 254.63C291.38 254.63 291.427 254.723 291.427 254.91C291.473 255.05 291.427 255.213 291.287 255.4C291.007 255.727 290.517 256.52 289.817 257.78C289.117 259.04 288.37 260.44 287.577 261.98C286.83 263.473 286.13 264.827 285.477 266.04C284.823 267.3 284.263 268.513 283.797 269.68C283.33 270.847 283.097 271.687 283.097 272.2C283.097 272.853 283.423 273.18 284.077 273.18C284.683 273.18 285.453 272.807 286.387 272.06C287.367 271.313 288.347 270.427 289.327 269.4C290.307 268.327 291.17 267.347 291.917 266.46C292.15 266.18 292.43 265.853 292.757 265.48C293.13 265.06 293.363 264.803 293.457 264.71C293.55 264.803 293.597 264.967 293.597 265.2C293.55 265.527 293.433 265.853 293.247 266.18C293.06 266.46 292.873 266.717 292.687 266.95C291.707 268.163 290.633 269.423 289.467 270.73C288.3 271.99 287.017 273.063 285.617 273.95C284.217 274.79 282.7 275.21 281.067 275.21ZM292.573 275.98C292.387 275.98 292.387 275.793 292.573 275.42C292.807 275 293.017 274.533 293.203 274.02C293.437 273.507 293.67 272.947 293.903 272.34C294.37 271.22 294.883 269.96 295.443 268.56C296.003 267.16 296.54 265.807 297.053 264.5C297.567 263.147 298.01 262.003 298.383 261.07C298.803 260.09 299.083 259.46 299.223 259.18C298.57 259.88 297.777 260.767 296.843 261.84C295.957 262.867 295.117 263.87 294.323 264.85C293.53 265.83 292.923 266.6 292.503 267.16C292.363 267.347 292.247 267.44 292.153 267.44C292.06 267.44 292.013 267.323 292.013 267.09C292.013 266.717 292.13 266.367 292.363 266.04C293.25 264.92 294.23 263.66 295.303 262.26C296.423 260.86 297.427 259.577 298.313 258.41C299.2 257.197 299.76 256.403 299.993 256.03C300.507 255.937 301.253 255.797 302.233 255.61C303.26 255.423 303.96 255.167 304.333 254.84C304.473 254.7 304.613 254.63 304.753 254.63C304.847 254.63 304.893 254.723 304.893 254.91C304.94 255.05 304.893 255.213 304.753 255.4C304.473 255.68 304.053 256.287 303.493 257.22C302.98 258.153 302.397 259.227 301.743 260.44C301.09 261.653 300.46 262.82 299.853 263.94C300.32 263.24 300.927 262.423 301.673 261.49C302.467 260.51 303.33 259.577 304.263 258.69C305.197 257.757 306.13 256.987 307.063 256.38C308.043 255.773 308.953 255.47 309.793 255.47C310.4 255.47 310.913 255.61 311.333 255.89C311.753 256.123 312.08 256.567 312.313 257.22C312.453 257.547 312.523 257.92 312.523 258.34C312.523 259.133 312.313 259.903 311.893 260.65C311.52 261.35 311.24 261.887 311.053 262.26C311.007 262.4 310.843 262.54 310.563 262.68C310.283 262.773 310.167 262.727 310.213 262.54C310.26 262.307 310.283 262.073 310.283 261.84C310.33 261.607 310.353 261.35 310.353 261.07C310.353 260.277 310.19 259.553 309.863 258.9C309.583 258.247 309.047 257.92 308.253 257.92C307.507 257.92 306.597 258.387 305.523 259.32C304.45 260.253 303.377 261.327 302.303 262.54C300.95 264.127 299.877 265.643 299.083 267.09C298.29 268.49 297.637 269.867 297.123 271.22C296.843 271.967 296.563 272.713 296.283 273.46C296.003 274.16 295.793 274.72 295.653 275.14C295.047 275.187 294.44 275.327 293.833 275.56C293.227 275.84 292.807 275.98 292.573 275.98ZM324.172 275.14C323.425 275.14 322.749 275 322.142 274.72C321.582 274.393 321.302 273.717 321.302 272.69C321.302 271.057 321.722 269.423 322.562 267.79C323.402 266.11 324.265 264.64 325.152 263.38C325.945 262.307 326.832 261.303 327.812 260.37C328.839 259.39 329.935 258.55 331.102 257.85C331.849 257.383 332.852 256.893 334.112 256.38C335.419 255.82 336.515 255.54 337.402 255.54C338.149 255.54 338.802 255.75 339.362 256.17C339.922 256.543 340.202 257.243 340.202 258.27C340.202 259.857 339.782 261.49 338.942 263.17C338.149 264.803 337.309 266.25 336.422 267.51C336.002 268.07 335.582 268.607 335.162 269.12C334.742 269.587 334.275 270.077 333.762 270.59C335.489 270.59 337.075 270.1 338.522 269.12C339.969 268.093 341.229 266.857 342.302 265.41L342.442 265.27C342.582 265.27 342.652 265.41 342.652 265.69C342.652 266.017 342.559 266.32 342.372 266.6C341.439 267.907 340.272 269.073 338.872 270.1C337.472 271.08 335.885 271.57 334.112 271.57C333.925 271.57 333.739 271.57 333.552 271.57C333.365 271.57 333.179 271.547 332.992 271.5C330.379 273.927 327.439 275.14 324.172 275.14ZM325.992 273.95C326.645 273.95 327.345 273.717 328.092 273.25C328.885 272.783 329.492 272.34 329.912 271.92C330.705 271.127 331.429 270.287 332.082 269.4C332.735 268.467 333.342 267.533 333.902 266.6C334.555 265.48 335.209 264.15 335.862 262.61C336.515 261.07 336.842 259.623 336.842 258.27C336.842 257.197 336.469 256.66 335.722 256.66C335.115 256.66 334.369 256.917 333.482 257.43C332.642 257.943 332.012 258.41 331.592 258.83C330.005 260.463 328.675 262.237 327.602 264.15C326.995 265.223 326.342 266.483 325.642 267.93C324.942 269.377 324.592 270.707 324.592 271.92C324.592 272.107 324.592 272.293 324.592 272.48C324.639 272.62 324.685 272.783 324.732 272.97C324.919 273.623 325.339 273.95 325.992 273.95ZM341.997 275.98C341.811 275.98 341.811 275.793 341.997 275.42C342.231 275 342.441 274.533 342.627 274.02C342.861 273.507 343.094 272.947 343.327 272.34C343.794 271.22 344.307 269.96 344.867 268.56C345.427 267.16 345.964 265.807 346.477 264.5C346.991 263.147 347.434 262.003 347.807 261.07C348.227 260.09 348.507 259.46 348.647 259.18C347.994 259.88 347.201 260.767 346.267 261.84C345.381 262.867 344.541 263.87 343.747 264.85C342.954 265.83 342.347 266.6 341.927 267.16C341.787 267.347 341.671 267.44 341.577 267.44C341.484 267.44 341.437 267.323 341.437 267.09C341.437 266.717 341.554 266.367 341.787 266.04C342.674 264.92 343.654 263.66 344.727 262.26C345.847 260.86 346.851 259.577 347.737 258.41C348.624 257.197 349.184 256.403 349.417 256.03C349.931 255.937 350.677 255.797 351.657 255.61C352.684 255.423 353.384 255.167 353.757 254.84C353.897 254.7 354.037 254.63 354.177 254.63C354.271 254.63 354.317 254.723 354.317 254.91C354.364 255.05 354.317 255.213 354.177 255.4C353.897 255.68 353.477 256.287 352.917 257.22C352.404 258.153 351.821 259.227 351.167 260.44C350.514 261.653 349.884 262.82 349.277 263.94C349.744 263.24 350.351 262.423 351.097 261.49C351.891 260.51 352.754 259.577 353.687 258.69C354.621 257.757 355.554 256.987 356.487 256.38C357.467 255.773 358.377 255.47 359.217 255.47C359.824 255.47 360.337 255.61 360.757 255.89C361.177 256.123 361.504 256.567 361.737 257.22C361.877 257.547 361.947 257.92 361.947 258.34C361.947 259.133 361.737 259.903 361.317 260.65C360.944 261.35 360.664 261.887 360.477 262.26C360.431 262.4 360.267 262.54 359.987 262.68C359.707 262.773 359.591 262.727 359.637 262.54C359.684 262.307 359.707 262.073 359.707 261.84C359.754 261.607 359.777 261.35 359.777 261.07C359.777 260.277 359.614 259.553 359.287 258.9C359.007 258.247 358.471 257.92 357.677 257.92C356.931 257.92 356.021 258.387 354.947 259.32C353.874 260.253 352.801 261.327 351.727 262.54C350.374 264.127 349.301 265.643 348.507 267.09C347.714 268.49 347.061 269.867 346.547 271.22C346.267 271.967 345.987 272.713 345.707 273.46C345.427 274.16 345.217 274.72 345.077 275.14C344.471 275.187 343.864 275.327 343.257 275.56C342.651 275.84 342.231 275.98 341.997 275.98ZM378.216 275.7C376.769 275.7 375.392 275.303 374.086 274.51C372.779 273.67 371.799 272.41 371.146 270.73C370.912 270.123 370.749 269.493 370.656 268.84C370.562 268.14 370.516 267.463 370.516 266.81C370.516 266.157 370.632 265.83 370.866 265.83C371.146 265.83 371.286 266.017 371.286 266.39C371.286 268.583 371.822 270.24 372.896 271.36C374.016 272.48 375.392 273.04 377.026 273.04C378.659 273.04 380.222 272.573 381.716 271.64C383.256 270.707 384.679 269.517 385.986 268.07C388.132 265.737 389.952 263.38 391.446 261C392.939 258.573 394.292 256.1 395.506 253.58C396.766 251.013 398.026 248.353 399.286 245.6C400.079 243.92 401.059 242.45 402.226 241.19C403.439 239.93 404.886 239.067 406.566 238.6L406.636 238.53H402.786C401.152 238.53 399.426 238.6 397.606 238.74C395.786 238.88 394.129 239.183 392.636 239.65C391.189 240.117 390.139 240.817 389.486 241.75C389.066 242.357 388.856 243.057 388.856 243.85C388.856 244.643 389.066 245.413 389.486 246.16C389.906 246.907 390.442 247.443 391.096 247.77C391.189 247.863 391.236 247.933 391.236 247.98C391.236 248.073 391.119 248.19 390.886 248.33C390.699 248.423 390.489 248.447 390.256 248.4C389.882 248.167 389.416 247.793 388.856 247.28C388.296 246.72 387.782 246.137 387.316 245.53C386.896 244.923 386.616 244.41 386.476 243.99C386.289 243.43 386.196 242.87 386.196 242.31C386.196 241.19 386.592 240.28 387.386 239.58C388.226 238.88 389.299 238.343 390.606 237.97C391.912 237.597 393.312 237.34 394.806 237.2C396.346 237.013 397.816 236.92 399.216 236.92C400.662 236.873 401.899 236.85 402.926 236.85H410.486C410.579 236.85 410.626 236.873 410.626 236.92C410.626 237.06 410.462 237.27 410.136 237.55C409.856 237.783 409.669 237.9 409.576 237.9C408.409 238.133 407.546 238.763 406.986 239.79C406.426 240.77 406.169 242.357 406.216 244.55C406.216 244.55 406.216 245.063 406.216 246.09C406.262 247.117 406.309 248.447 406.356 250.08C406.402 251.713 406.449 253.463 406.496 255.33C406.542 257.197 406.589 258.993 406.636 260.72C406.682 262.447 406.729 263.893 406.776 265.06V265.48L431.066 239.86C432.606 238.227 434.122 236.85 435.616 235.73C437.156 234.563 438.742 234.05 440.376 234.19C440.422 234.19 440.446 234.213 440.446 234.26C440.492 234.26 440.516 234.26 440.516 234.26C440.516 234.4 440.422 234.563 440.236 234.75C440.049 234.937 439.839 235.053 439.606 235.1C438.392 235.053 437.296 235.52 436.316 236.5C435.336 237.48 434.426 238.647 433.586 240C433.166 240.7 432.536 241.82 431.696 243.36C430.856 244.853 429.899 246.627 428.826 248.68C427.799 250.733 426.749 252.903 425.676 255.19C424.602 257.477 423.599 259.717 422.666 261.91C421.779 264.103 421.056 266.11 420.496 267.93C419.936 269.703 419.656 271.15 419.656 272.27C419.656 273.577 420.099 274.23 420.986 274.23C421.359 274.23 421.756 274.137 422.176 273.95C422.782 273.717 423.459 273.367 424.206 272.9C424.952 272.433 425.629 271.897 426.236 271.29C427.449 270.123 428.522 268.933 429.456 267.72C430.389 266.46 430.949 265.737 431.136 265.55C431.276 265.363 431.392 265.27 431.486 265.27C431.672 265.27 431.766 265.41 431.766 265.69C431.766 265.97 431.672 266.227 431.486 266.46C431.112 266.927 430.482 267.743 429.596 268.91C428.709 270.03 427.659 271.173 426.446 272.34C425.279 273.507 424.019 274.393 422.666 275C422.246 275.187 421.802 275.327 421.336 275.42C420.869 275.56 420.402 275.63 419.936 275.63C418.909 275.63 417.976 275.327 417.136 274.72C416.342 274.067 415.946 272.993 415.946 271.5C415.946 270.053 416.272 268.42 416.926 266.6C417.626 264.733 418.396 262.937 419.236 261.21C420.122 259.437 420.846 257.943 421.406 256.73C422.012 255.47 422.782 253.86 423.716 251.9C424.649 249.94 425.722 247.957 426.936 245.95L406.776 267.23C406.729 267.603 406.566 267.977 406.286 268.35C406.006 268.677 405.562 268.957 404.956 269.19C404.629 269.33 404.186 269.703 403.626 270.31C403.066 270.917 402.692 271.337 402.506 271.57C402.506 271.617 402.436 271.64 402.296 271.64C402.156 271.64 402.016 271.593 401.876 271.5C401.736 271.407 401.689 271.337 401.736 271.29C402.949 269.75 403.579 267.627 403.626 264.92L403.696 263.24C403.789 261.28 403.859 259.227 403.906 257.08C403.952 254.887 403.976 252.857 403.976 250.99C404.022 249.077 404.046 247.537 404.046 246.37C404.046 245.157 404.046 244.55 404.046 244.55C404.046 243.43 404.209 242.45 404.536 241.61C404.862 240.77 405.259 240.047 405.726 239.44C404.932 240.047 404.162 240.77 403.416 241.61C402.669 242.45 402.039 243.383 401.526 244.41C400.826 245.857 400.032 247.723 399.146 250.01C398.259 252.297 397.232 254.723 396.066 257.29C394.946 259.857 393.686 262.377 392.286 264.85C390.932 267.277 389.416 269.377 387.736 271.15C386.569 272.41 385.076 273.483 383.256 274.37C381.482 275.257 379.802 275.7 378.216 275.7ZM440.101 275.21C439.635 275.21 439.238 275.117 438.911 274.93C438.585 274.743 438.421 274.393 438.421 273.88C438.421 273.227 438.585 272.48 438.911 271.64C439.238 270.8 439.611 269.983 440.031 269.19C440.451 268.35 440.825 267.673 441.151 267.16C439.518 268.887 437.815 270.52 436.041 272.06C435.155 272.807 434.175 273.507 433.101 274.16C432.028 274.813 430.885 275.14 429.671 275.14C429.205 275.14 428.878 275 428.691 274.72C428.505 274.393 428.411 274.02 428.411 273.6C428.411 273.367 428.435 273.203 428.481 273.11C428.715 271.29 429.298 269.4 430.231 267.44C431.165 265.48 432.308 263.637 433.661 261.91C435.015 260.183 436.391 258.783 437.791 257.71C439.378 256.497 441.128 255.89 443.041 255.89H451.091C451.325 255.89 451.441 255.983 451.441 256.17C451.441 256.543 451.231 256.73 450.811 256.73C450.345 256.73 449.878 257.033 449.411 257.64C448.945 258.2 448.595 258.667 448.361 259.04C448.035 259.553 447.521 260.417 446.821 261.63C446.121 262.843 445.398 264.173 444.651 265.62C443.951 267.02 443.345 268.327 442.831 269.54C442.318 270.753 442.061 271.64 442.061 272.2C442.061 272.853 442.388 273.18 443.041 273.18C443.741 273.18 444.535 272.853 445.421 272.2C446.308 271.547 447.195 270.753 448.081 269.82C449.015 268.84 449.855 267.883 450.601 266.95C451.395 265.97 452.025 265.2 452.491 264.64C452.771 264.92 452.748 265.317 452.421 265.83C452.141 266.297 451.885 266.67 451.651 266.95C450.718 268.163 449.645 269.423 448.431 270.73C447.218 271.99 445.888 273.063 444.441 273.95C443.041 274.79 441.595 275.21 440.101 275.21ZM432.541 272.76C433.101 272.76 433.871 272.363 434.851 271.57C435.878 270.73 436.975 269.703 438.141 268.49C439.308 267.23 440.405 265.923 441.431 264.57C442.458 263.17 443.298 261.91 443.951 260.79C444.651 259.623 445.001 258.737 445.001 258.13C445.001 257.617 444.838 257.267 444.511 257.08C444.231 256.893 443.858 256.8 443.391 256.8C442.645 256.8 441.828 257.08 440.941 257.64C440.101 258.153 439.425 258.667 438.911 259.18C438.351 259.693 437.675 260.51 436.881 261.63C436.135 262.703 435.388 263.893 434.641 265.2C433.895 266.507 433.265 267.767 432.751 268.98C432.238 270.193 431.981 271.173 431.981 271.92C431.981 272.48 432.168 272.76 432.541 272.76ZM460.677 275.21C460.211 275.21 459.814 275.117 459.487 274.93C459.161 274.743 458.997 274.393 458.997 273.88C458.997 273.227 459.161 272.48 459.487 271.64C459.814 270.8 460.187 269.983 460.607 269.19C461.027 268.35 461.401 267.673 461.727 267.16C460.094 268.887 458.391 270.52 456.617 272.06C455.731 272.807 454.751 273.507 453.677 274.16C452.604 274.813 451.461 275.14 450.247 275.14C449.781 275.14 449.454 275 449.267 274.72C449.081 274.393 448.987 274.02 448.987 273.6C448.987 273.367 449.011 273.203 449.057 273.11C449.291 271.29 449.874 269.4 450.807 267.44C451.741 265.48 452.884 263.637 454.237 261.91C455.591 260.183 456.967 258.783 458.367 257.71C459.441 256.917 460.467 256.427 461.447 256.24C462.427 256.007 463.501 255.89 464.667 255.89H466.977C467.724 254.63 468.494 253.23 469.287 251.69C470.127 250.103 470.944 248.54 471.737 247C472.577 245.46 473.347 244.107 474.047 242.94C475.961 239.673 478.061 237.06 480.347 235.1C482.681 233.14 485.271 232.16 488.117 232.16C488.724 232.16 489.284 232.347 489.797 232.72C490.311 233.047 490.544 233.56 490.497 234.26L490.357 236.78C490.357 236.827 490.311 236.897 490.217 236.99C490.124 237.037 490.054 237.06 490.007 237.06C489.961 237.06 489.891 237.013 489.797 236.92C489.657 236.08 489.237 235.45 488.537 235.03C487.837 234.563 486.974 234.33 485.947 234.33C485.621 234.33 485.247 234.353 484.827 234.4C484.454 234.447 484.081 234.54 483.707 234.68C482.401 235.147 481.164 236.103 479.997 237.55C478.831 238.95 477.571 240.817 476.217 243.15C475.751 244.037 475.144 245.203 474.397 246.65C473.651 248.05 472.857 249.567 472.017 251.2C471.224 252.833 470.454 254.42 469.707 255.96C469.007 257.5 468.401 258.807 467.887 259.88C467.654 260.44 467.257 261.303 466.697 262.47C466.137 263.59 465.531 264.827 464.877 266.18C464.271 267.487 463.734 268.7 463.267 269.82C462.847 270.94 462.637 271.733 462.637 272.2C462.637 272.853 462.917 273.18 463.477 273.18C464.037 273.18 464.784 272.853 465.717 272.2C466.651 271.5 467.607 270.66 468.587 269.68C469.614 268.653 470.524 267.673 471.317 266.74C472.157 265.807 472.741 265.107 473.067 264.64C473.207 264.78 473.277 264.943 473.277 265.13C473.277 265.457 473.137 265.783 472.857 266.11C472.624 266.437 472.414 266.717 472.227 266.95C471.387 268.07 470.337 269.283 469.077 270.59C467.864 271.85 466.534 272.947 465.087 273.88C463.641 274.767 462.171 275.21 460.677 275.21ZM453.117 272.76C453.677 272.76 454.447 272.363 455.427 271.57C456.454 270.73 457.551 269.703 458.717 268.49C459.884 267.23 460.981 265.923 462.007 264.57C463.034 263.17 463.874 261.91 464.527 260.79C465.227 259.623 465.577 258.737 465.577 258.13C465.577 257.617 465.414 257.267 465.087 257.08C464.807 256.893 464.434 256.8 463.967 256.8C463.221 256.8 462.404 257.08 461.517 257.64C460.677 258.153 460.001 258.667 459.487 259.18C458.927 259.693 458.251 260.51 457.457 261.63C456.711 262.703 455.964 263.893 455.217 265.2C454.471 266.507 453.841 267.767 453.327 268.98C452.814 270.193 452.557 271.173 452.557 271.92C452.557 272.48 452.744 272.76 453.117 272.76ZM481.254 275.21C480.787 275.21 480.39 275.117 480.064 274.93C479.737 274.743 479.574 274.393 479.574 273.88C479.574 273.227 479.737 272.48 480.064 271.64C480.39 270.8 480.764 269.983 481.184 269.19C481.604 268.35 481.977 267.673 482.304 267.16C480.67 268.887 478.967 270.52 477.194 272.06C476.307 272.807 475.327 273.507 474.254 274.16C473.18 274.813 472.037 275.14 470.824 275.14C470.357 275.14 470.03 275 469.844 274.72C469.657 274.393 469.564 274.02 469.564 273.6C469.564 273.367 469.587 273.203 469.634 273.11C469.867 271.29 470.45 269.4 471.384 267.44C472.317 265.48 473.46 263.637 474.814 261.91C476.167 260.183 477.544 258.783 478.944 257.71C480.53 256.497 482.28 255.89 484.194 255.89H492.244C492.477 255.89 492.594 255.983 492.594 256.17C492.594 256.543 492.384 256.73 491.964 256.73C491.497 256.73 491.03 257.033 490.564 257.64C490.097 258.2 489.747 258.667 489.514 259.04C489.187 259.553 488.674 260.417 487.974 261.63C487.274 262.843 486.55 264.173 485.804 265.62C485.104 267.02 484.497 268.327 483.984 269.54C483.47 270.753 483.214 271.64 483.214 272.2C483.214 272.853 483.54 273.18 484.194 273.18C484.894 273.18 485.687 272.853 486.574 272.2C487.46 271.547 488.347 270.753 489.234 269.82C490.167 268.84 491.007 267.883 491.754 266.95C492.547 265.97 493.177 265.2 493.644 264.64C493.924 264.92 493.9 265.317 493.574 265.83C493.294 266.297 493.037 266.67 492.804 266.95C491.87 268.163 490.797 269.423 489.584 270.73C488.37 271.99 487.04 273.063 485.594 273.95C484.194 274.79 482.747 275.21 481.254 275.21ZM473.694 272.76C474.254 272.76 475.024 272.363 476.004 271.57C477.03 270.73 478.127 269.703 479.294 268.49C480.46 267.23 481.557 265.923 482.584 264.57C483.61 263.17 484.45 261.91 485.104 260.79C485.804 259.623 486.154 258.737 486.154 258.13C486.154 257.617 485.99 257.267 485.664 257.08C485.384 256.893 485.01 256.8 484.544 256.8C483.797 256.8 482.98 257.08 482.094 257.64C481.254 258.153 480.577 258.667 480.064 259.18C479.504 259.693 478.827 260.51 478.034 261.63C477.287 262.703 476.54 263.893 475.794 265.2C475.047 266.507 474.417 267.767 473.904 268.98C473.39 270.193 473.134 271.173 473.134 271.92C473.134 272.48 473.32 272.76 473.694 272.76ZM492.73 276.05C492.543 276.05 492.543 275.84 492.73 275.42C492.963 275 493.173 274.533 493.36 274.02C493.593 273.507 493.826 272.947 494.06 272.34C494.526 271.22 495.04 269.96 495.6 268.56C496.16 267.16 496.696 265.807 497.21 264.5C497.723 263.147 498.166 262.003 498.54 261.07C498.96 260.09 499.24 259.46 499.38 259.18C498.726 259.88 497.933 260.767 497 261.84C496.113 262.867 495.273 263.87 494.48 264.85C493.686 265.83 493.08 266.6 492.66 267.16C492.52 267.347 492.403 267.44 492.31 267.44C492.216 267.44 492.17 267.323 492.17 267.09C492.17 266.717 492.286 266.367 492.52 266.04C493.406 264.92 494.386 263.66 495.46 262.26C496.58 260.86 497.583 259.577 498.47 258.41C499.356 257.197 499.916 256.403 500.15 256.03C500.663 255.937 501.41 255.797 502.39 255.61C503.416 255.423 504.116 255.167 504.49 254.84C504.63 254.7 504.77 254.63 504.91 254.63C505.003 254.63 505.05 254.723 505.05 254.91C505.096 255.05 505.05 255.213 504.91 255.4C504.63 255.727 504.14 256.497 503.44 257.71C502.786 258.877 502.063 260.183 501.27 261.63C500.523 263.077 499.823 264.383 499.17 265.55C499.916 264.663 500.64 263.823 501.34 263.03C502.086 262.237 502.6 261.677 502.88 261.35C503.44 260.79 504.21 260.09 505.19 259.25C506.17 258.41 507.196 257.64 508.27 256.94C509.343 256.24 510.276 255.843 511.07 255.75C511.256 255.703 511.42 255.68 511.56 255.68C511.7 255.68 511.84 255.68 511.98 255.68C512.866 255.68 513.31 256.007 513.31 256.66C513.31 256.94 513.24 257.267 513.1 257.64C512.96 258.013 512.773 258.387 512.54 258.76C512.26 259.32 511.793 260.207 511.14 261.42C510.486 262.587 509.903 263.66 509.39 264.64L512.68 261.35C513.24 260.79 514.01 260.09 514.99 259.25C515.97 258.41 516.996 257.64 518.07 256.94C519.143 256.24 520.076 255.843 520.87 255.75C521.056 255.703 521.22 255.68 521.36 255.68C521.546 255.68 521.686 255.68 521.78 255.68C522.806 255.68 523.32 256.053 523.32 256.8C523.32 257.36 523.016 258.107 522.41 259.04C522.083 259.553 521.57 260.417 520.87 261.63C520.17 262.843 519.446 264.173 518.7 265.62C518 267.02 517.393 268.327 516.88 269.54C516.366 270.753 516.11 271.64 516.11 272.2C516.11 272.853 516.436 273.18 517.09 273.18C517.696 273.18 518.466 272.83 519.4 272.13C520.38 271.383 521.36 270.497 522.34 269.47C523.366 268.443 524.253 267.463 525 266.53C525.326 266.157 525.63 265.783 525.91 265.41C526.236 264.99 526.423 264.757 526.47 264.71C526.563 264.803 526.61 264.967 526.61 265.2C526.61 265.527 526.493 265.853 526.26 266.18C526.073 266.46 525.886 266.717 525.7 266.95C524.813 268.117 523.786 269.33 522.62 270.59C521.5 271.85 520.263 272.923 518.91 273.81C517.556 274.65 516.11 275.14 514.57 275.28C514.103 275.327 513.636 275.233 513.17 275C512.703 274.767 512.47 274.393 512.47 273.88C512.47 273.227 512.633 272.457 512.96 271.57C513.333 270.683 513.73 269.797 514.15 268.91C514.616 268.023 514.966 267.3 515.2 266.74C516.04 265.107 516.81 263.567 517.51 262.12C518.21 260.673 518.7 259.647 518.98 259.04C519.12 258.76 519.19 258.527 519.19 258.34C519.19 258.013 518.933 257.99 518.42 258.27C517.906 258.55 517.276 258.97 516.53 259.53C515.83 260.09 515.176 260.65 514.57 261.21C513.963 261.723 513.566 262.073 513.38 262.26C512.586 263.053 511.63 264.127 510.51 265.48C509.436 266.833 508.433 268.257 507.5 269.75C506.566 271.197 505.913 272.55 505.54 273.81C505.073 274.23 504.63 274.44 504.21 274.44C503.883 274.44 503.603 274.323 503.37 274.09C503.183 273.857 503.09 273.577 503.09 273.25C503.09 272.317 503.37 271.22 503.93 269.96C504.536 268.653 505.026 267.58 505.4 266.74C506.24 265.107 507.01 263.567 507.71 262.12C508.41 260.673 508.9 259.647 509.18 259.04C509.32 258.76 509.39 258.527 509.39 258.34C509.39 258.013 509.133 257.99 508.62 258.27C508.106 258.55 507.476 258.97 506.73 259.53C506.03 260.09 505.376 260.65 504.77 261.21C504.163 261.723 503.766 262.073 503.58 262.26C502.46 263.427 501.41 264.617 500.43 265.83C499.496 267.043 498.703 268.35 498.05 269.75C497.676 270.59 497.28 271.523 496.86 272.55C496.44 273.577 496.09 274.44 495.81 275.14C495.203 275.187 494.596 275.35 493.99 275.63C493.383 275.91 492.963 276.05 492.73 276.05ZM525.331 280.6C525.377 280.507 525.401 280.413 525.401 280.32C525.447 280.227 525.611 280.063 525.891 279.83C526.684 279.13 527.291 278.337 527.711 277.45C528.177 276.563 528.411 275.887 528.411 275.42C528.411 274.907 528.247 274.44 527.921 274.02C527.641 273.553 527.221 273.25 526.661 273.11L526.941 272.34C527.174 272.293 527.501 272.177 527.921 271.99C528.341 271.757 528.644 271.57 528.831 271.43C529.064 271.29 529.274 271.127 529.461 270.94C529.647 270.707 529.787 270.59 529.881 270.59C530.861 270.73 531.351 271.337 531.351 272.41C531.351 272.597 531.327 272.783 531.281 272.97C531.281 273.11 531.257 273.297 531.211 273.53C530.884 275.257 530.301 276.633 529.461 277.66C528.621 278.687 527.547 279.667 526.241 280.6C525.541 281.067 525.237 281.067 525.331 280.6Z" fill="black"/>
<path d="M36.1191 297.825C33.5593 297.079 31 298.999 31 301.665V590C31 592.209 32.7908 594 35 594H1024.47C1029.1 594 1030.03 587.454 1025.59 586.16L36.1191 297.825Z" fill="#DBC6E0" stroke="#AF9FB3" stroke-width="2"/>
<path d="M1023.38 297.825C1025.94 297.079 1028.5 298.999 1028.5 301.665V590C1028.5 592.209 1026.71 594 1024.5 594H35.0303C30.4042 594 29.4698 587.454 33.9113 586.16L1023.38 297.825Z" fill="#DBC6E0" stroke="#AF9FB3" stroke-width="2"/>
<line x1="1029.73" y1="584.962" x2="514.726" y2="437.962" stroke="#AF9FB3" stroke-width="2"/>
</svg>
